<svg width="116" height="111" fill="none" xmlns="http://www.w3.org/2000/svg"><path d="M82.009 77.27c3.893 8.214 6.488 12 9.918 14.255-2.42-.801-7.57-3.098-14.636-9.404l-1.101 1.604c-1.809 12.818-35.108 19.143-44.859 2.89 0 0-.665-1.996-1.106-4.063-31.303-11.864-20.823-50.274.732-54.701.263-1.411.721-3.027 1.498-4.567C44.341 2.174 94.21-1.512 91.653 40.327a27.787 27.787 0 012.858 2.887c6.166 8.338 4.406 28.993-12.506 34.058l.004-.001z" fill="#fff"/><path d="M29.98 83.474c-.849-.341-1.7-.71-2.387-1.247a10.113 10.113 0 01-.863-.131 4.29 4.29 0 01-.753-.257c-.239-.11-.47-.24-.699-.412a4.883 4.883 0 01-.67-.664c-1.398-.89-2.868-1.648-4.243-2.624-1.372-.962-2.66-2.119-3.563-3.622-1.334-1.25-2.402-2.74-3.315-4.301-.916-1.57-1.686-3.211-2.489-4.909-.157-1.503-.557-2.883-.881-4.311-.328-1.423-.566-2.896-.355-4.355-.164-1.106-.235-2.264-.148-3.41.027-.576.114-1.143.211-1.704.049-.28.12-.557.189-.828a9.26 9.26 0 01.234-.806c.1-.266.159-.544.198-.826.047-.285.077-.57.115-.857.022-.142.04-.282.065-.425.031-.14.069-.271.11-.404.089-.262.212-.51.393-.72.41-1.471.644-2.734 1.49-4.034.08-.49.274-1.07.54-1.589.279-.507.631-.948 1.033-1.139.263-1.006.886-1.986 1.581-2.904.706-.911 1.458-1.782 2.025-2.65.25-.161.44-.265.596-.347.155-.086.27-.153.37-.23.104-.077.19-.174.293-.308a6.88 6.88 0 00.392-.564c.147-.084.291-.177.436-.284.152-.1.3-.212.447-.329a9.01 9.01 0 00.44-.374c.149-.127.298-.254.446-.385.147-.131.29-.266.433-.4l.424-.384c.276-.253.532-.497.774-.694.256.053.59-.092.913-.296.328-.204.628-.506.808-.79.323-.082.66-.18.984-.295.332-.103.652-.216.938-.359 1.203-.18 1.803-.689 2.932-1.236.467-.263 1.068-.278 1.637-.299.582.018 1.135.025 1.598-.082.515.1.796.481.86.893.061.417-.097.753-.628.868-.13.047-.273.073-.428.108a6.291 6.291 0 01-.984.14c-.167.018-.335.037-.495.049-.574.087-1.125.226-1.673.364-.537.163-1.074.327-1.586.554-1.028.438-2.012 1-2.903 1.79-.36.16-.7.373-1.053.565-.346.205-.685.436-1.026.658-.327.242-.664.482-.987.742-.316.268-.645.52-.947.812-1.236 1.12-2.346 2.387-3.341 3.658-.456 1.013-1.075 1.954-1.697 2.92-.619.96-1.288 1.913-1.81 2.89a2.42 2.42 0 00-.304.736c-.065.251-.109.497-.158.74-.087.497-.235.957-.672 1.415.045.3.01.567-.053.822-.063.26-.165.503-.275.747a7.69 7.69 0 00-.312.742c-.086.256-.162.515-.153.795-.033.361-.115.72-.193 1.074-.079.354-.182.7-.293 1.01.199 1.247.296.95-.136 2.14.233 1.244.249 2.463.253 3.708.012 1.239.025 2.5.22 3.712.286 1.437.721 2.78 1.25 4.073.527 1.292 1.133 2.54 1.796 3.827a32.125 32.125 0 001.74 2.666c.637.818 1.32 1.605 2.195 2.24.155.14.307.29.464.439.16.143.32.29.478.444l.478.463.5.447c.17.146.336.297.505.443.175.134.346.27.52.4.174.13.345.252.521.372.175.116.354.212.532.308.154.47.536.886 1.009 1.185.232.154.484.293.73.41a7.1 7.1 0 00.72.265c1.56.646 3.055 1.394 4.597 2.055 1.54.661 3.106 1.278 4.733 1.588 1.062.523.687 1.03-.058 1.331-.372.15-.838.244-1.248.267-.407.013-.755-.059-.9-.21-.377-.15-.79-.267-1.203-.417-.417-.15-.848-.3-1.278-.45l.014-.013zm59.889-61.053c.14.68.173.986.242 1.28.074.291.226.544.582 1.118.048.383.142.792.264 1.208.127.415.24.851.388 1.28.152.427.28.851.415 1.26.132.404.271.782.362 1.126-.128.244-.123.666-.037 1.096.095.432.232.887.437 1.193-.03.755-.093 1.594-.014 2.312-.2 1.358.078 2.205.285 3.606.029.148.04.3.048.453 0 .155-.01.308-.027.468-.036.315-.092.635-.158.952-.115.63-.29 1.234-.259 1.777-.19.542-.593.765-.988.738-.4-.031-.678-.295-.682-.939a5.874 5.874 0 01.02-1.096c.03-.393.073-.799.13-1.17.02-.34.058-.678.066-1.014.008-.336.017-.667.027-.999.028-.66-.01-1.319-.043-1.974-.01-.162-.016-.33-.03-.49l-.057-.49c-.043-.327-.086-.655-.137-.98-.047-.328-.133-.654-.207-.983-.083-.327-.157-.657-.261-.983-.148-1.835-.57-3.718-1.182-5.52a26.801 26.801 0 00-2.369-5.066c-.198-.227-.415-.44-.608-.68-.195-.232-.384-.476-.584-.708-.196-.237-.383-.487-.573-.735a19.31 19.31 0 01-.587-.736c-.788-.978-1.589-1.985-2.465-2.818-.205-.235-.446-.386-.68-.53a8.306 8.306 0 00-.71-.366c-.48-.223-.916-.499-1.318-1.065-.598-.061-1.068-.366-1.532-.72a8.107 8.107 0 00-.715-.492c-.245-.15-.502-.278-.784-.33-.36-.111-.714-.276-1.07-.43-.353-.157-.69-.34-1-.516-.644-.021-.892.013-1.126-.041-.237-.049-.455-.177-1.04-.523-1.297.001-2.56-.227-3.84-.478-1.282-.237-2.576-.504-3.85-.592-1.528-.039-2.99.065-4.435.227-1.452.158-2.887.364-4.385.582l-1.656.346c-.537.126-1.075.233-1.602.384a24.98 24.98 0 00-.786.226c-.26.089-.52.178-.777.276-.518.186-1.025.436-1.53.704-1.62.7-3.591 1.337-4.993 2.338-.994-.177-2.2.747-2.91 1.466-1.375 1.198-2.773 2.306-4.079 3.533-1.297 1.225-2.515 2.576-3.354 4.17-.814.938-1.167.392-1.173-.524 0-.226.011-.482.056-.724s.107-.488.182-.714c.142-.454.362-.791.558-.888.14-.176.29-.355.438-.538.153-.18.309-.37.465-.554.304-.387.655-.748.988-1.124.35-.36.712-.71 1.087-1.026.388-.3.765-.592 1.175-.803.192-.288.373-.55.561-.786.193-.232.393-.437.608-.618a3.19 3.19 0 01.722-.478c.27-.134.569-.247.912-.338 1.498-.922 2.932-1.937 4.468-2.794 1.532-.855 3.156-1.556 4.92-1.784 1.726-.753 3.519-1.205 5.314-1.558 1.8-.35 3.611-.603 5.467-.943 1.506.251 2.965.194 4.446.189 1.477-.005 2.984.039 4.428.55 1.137.048 2.313.199 3.468.51a13.78 13.78 0 013.327 1.335c.258.166.535.284.82.386.287.102.574.209.86.31.575.2 1.114.482 1.504.962.363.2.703.393 1.043.57.34.178.658.385.98.577.321.192.627.425.932.673.151.126.306.252.456.393.147.146.292.298.434.46.233.12.499.264.744.452.25.186.503.4.735.624.237.222.427.485.59.73.158.257.285.503.331.755.445.33.907.726 1.295 1.216.197.242.4.487.587.755.182.27.362.544.537.82.184.273.336.564.5.847.16.285.335.56.481.843.297.565.627 1.089.933 1.585l-.005-.003zM76.92 84.453c.013.227-.044.49-.12.754a4.204 4.204 0 01-.34.735c-.382.844-.854 1.565-1.334 2.269-.48.703-.981 1.38-1.481 2.145a38.4 38.4 0 01-2.944 2.048c-1.01.63-2.05 1.198-3.087 1.638-.58.536-1.313.866-2.083 1.083-.768.227-1.573.326-2.313.45-.387.023-.666.248-.962.422-.298.164-.615.29-1.066.094-.278.352-.64.387-1.014.373-.369-.011-.749-.066-1.078.116-.454.16-.978.18-1.431.115-.73.47-.538.53-1.397.272-.763.422-1.605.512-2.451.48-.845-.027-1.697-.184-2.514-.242-.98-.021-1.925-.023-2.87-.081-.944-.064-1.891-.183-2.85-.45-1.49-.26-2.742-.833-4.264-1.01-1.153-.302-2.329-1.083-3.423-1.466-.117-.399-.392-.701-.727-.908-.33-.223-.718-.365-1.045-.471-1.117-.514-2.08-1.339-2.916-2.262-.846-.925-1.57-1.942-2.335-2.93-.295-.856.309-.966.935-.846.62.13 1.302.443 1.28.755.147.217.308.44.49.652.19.211.382.43.58.64.399.426.794.858 1.088 1.358.207.051.388.104.553.166.166.062.322.121.456.215.271.185.497.434.705.875.833.66 1.822 1.033 2.79 1.387.974.351 1.929.69 2.835 1.346 1.11.186 2.16.467 3.234.681 1.072.21 2.156.346 3.266.218.849.425 1.734.42 2.602.346.871-.064 1.73-.19 2.623.008 1.306-.385 2.67-.63 4.046-.562.713.08 1.296-.636 2.018-.31.908-.248 1.56-.675 2.537-.7.484-.408 1.275-.79 1.894-.467.48-.478 1.124-.744 1.785-1.009.65-.272 1.32-.543 1.776-1.006.391-.024.578-.019.738-.069.155-.048.279-.169.504-.484.215-.04.428-.122.626-.247a3.28 3.28 0 00.583-.438 4.52 4.52 0 00.503-.526c.153-.18.287-.35.402-.506.4.135.852-.383.86-.88.37-.173.756-.43.981-.745.667-.384.735-.97.865-1.718a.775.775 0 01.065-.232c.025-.077.06-.147.1-.218.084-.139.19-.274.289-.411.209-.274.395-.57.39-.865.193-.255.604-.34.997-.284.398.055.669.255.643.713l.006-.011zM97.909 47.95c.302 1.974.7 4.047.702 5.984.138.318.186.649.214.99.028.336.022.681-.033 1.024-.047.34-.112.677-.187 1.011-.085.327-.172.65-.256.963-.107.313-.019.611.02.907.04.296.03.594-.294.864.2.354.093.649-.048.93-.071.14-.151.277-.208.418a.87.87 0 00-.085.454 2.394 2.394 0 01-.261.889 2.261 2.261 0 01-.163.248c.13.762.247.648-.28 1.185.052.767-.164 1.466-.525 2.083-.33.634-.811 1.178-1.158 1.764-.797 1.428-1.51 2.82-2.692 3.94-.403.47-.825.88-1.263 1.26-.216.195-.42.397-.62.62a5.656 5.656 0 00-.592.7 5.14 5.14 0 01-.558.484c-.207.141-.425.276-.638.41-.212.138-.426.271-.622.42a3.93 3.93 0 00-.57.434c-.336-.16-.646-.11-.917.038-.274.14-.525.353-.71.565a6.149 6.149 0 01-.585.429c-.2.13-.416.222-.633.324-.214.096-.434.184-.656.268l-.331.121c-.11.037-.226.067-.337.1-.174.043-.346.096-.52.14.064.115.132.23.197.345.342.572.693 1.123.719 1.174.062.092.816 2.07 1.18 2.133.247.051 1.395 1.86 1.356 2.373.002.112.584 1.212 1.261 2.222.67 1.016 1.434 1.93 1.51 1.948.063.007.207.16.396.384.185.227.433.493.66.78.244.267.48.537.665.73.188.188.313.317.313.317l.197.185.207.174.056.047.35.161c.084.04.133.06.133.06.204.072.407.161.608.224.198.067.419.139.588.18l-.125 1.293a7.93 7.93 0 01-.719-.106l-.155-.037-.393-.108c-.324-.078-.725-.198-1.108-.266-.791-.144-2.251-.793-2.985-1.149-.38-.158-.798-.382-1.217-.592-.208-.107-.41-.212-.603-.309-.186-.108-.36-.205-.519-.292-.026-.017-.303-.013-.8-.462-.348-.312-.978-.695-1.567-1.021-.297-.16-.568-.328-.785-.47-.217-.143-.375-.264-.432-.348-.133-.197-.446-.424-.81-.661-.358-.249-.758-.52-1.073-.774-.317-.26-.584-.55-.878-.824-.284-.285-.589-.552-.989-.757-.405-.208-.8-.565-1.145-.92-.335-.367-.62-.728-.83-.934-.455-.455-.992-.978-1.356-1.37-.36-.399-1.111-1.226-1.373-1.513-.182-.198-.424-.438-.343-.802.046-.204.389-.559.522-.536.185.033.47.094.653.245.223.184 1.003.848 1.445 1.287.13.132.3.16.332.25.06.154.692.682 1.32 1.178.314.25.626.49.871.674.246.173.42.299.45.315.058.037.529.506 1.041.965.506.465 1.075.867 1.267.843.135-.025.73.338 1.327.766.606.412 1.202.902 1.322 1.186.016.03.099.112.24.222a36.552 36.552 0 001.356.985c.286.206.602.394.913.593a23 23 0 00.69.428c-.233-.294-.467-.573-.635-.804-.015-.024-.247-.107-.459-.632-.154-.366-.51-.869-.853-1.323-.328-.458-.63-.871-.65-1.04-.043-.399-.641-1.127-.943-1.729-.15-.3-.248-.62-.37-.927-.117-.31-.261-.616-.52-.89-.522-.569-.705-1.595-.901-2.04-.077-.182-.156-.374-.235-.566-.185.056-.367.12-.548.19-.676-.056-.649-.684-.424-1.248.086-.219.201-.427.322-.594-.123-.33-.245-.657-.304-.821-.078-.206-.196-.464.023-.735.12-.152.565-.349.674-.301.151.075.372.198.473.37.084.143.31.547.514.938l.421-.148c.216-.073.44-.13.662-.176a2.36 2.36 0 01.67-.075c.207-.296.388-.525.613-.648.222-.136.485-.178.871-.097.193-.077.378-.165.556-.262.184-.093.344-.228.512-.35.167-.126.328-.257.486-.385.161-.13.324-.256.472-.402.305-.278.62-.536.962-.754a3.642 3.642 0 011.115-.567c.285-.355.57-.699.88-1.007.156-.153.3-.32.444-.479l.44-.482c.572-.652 1.106-1.355 1.424-2.23.344-.176.577-.442.776-.736.196-.294.363-.609.485-.95.127-.338.26-.667.408-.991.142-.328.317-.635.57-.906.05-.28.078-.57.14-.848.053-.282.136-.547.207-.824.14-.548.378-1.059.637-1.557.16-.242.147-.554.153-.847 0-.296.027-.576.302-.781.065-.388.04-.749.062-1.102a3.23 3.23 0 01.07-.53 2.7 2.7 0 01.162-.55 2.012 2.012 0 01-.116-.863c.019-.292.131-.565.39-.748a2.09 2.09 0 01-.134-.408 2.984 2.984 0 01-.077-.427 6.201 6.201 0 01-.015-.885c-.013-.594.023-1.205-.21-1.71.24-.626.373-.589.01-1.151.1-.359.05-.784-.092-1.176a8.272 8.272 0 00-.223-.57c-.081-.181-.178-.34-.25-.486.275-.272.072-.818-.334-.993.024-.36.027-.769-.119-1.066.013-.337-.067-.585-.222-.796-.158-.209-.375-.385-.604-.614-.21-.182-.285-.464-.34-.77-.047-.308-.131-.593-.318-.757-.026-.295.203-.648.503-.912.304-.265.6-.363.843-.104a1.7 1.7 0 01.386.448c.108.185.188.395.251.595.644 1.33 1.05 2.562 1.843 3.853l.03-.007z" fill="#000"/><path d="M26.913 51.384l.348.06V63h-4.644V47.16h6.276l5.172 11.52-.348.072V47.16h4.644V63H32.05l-5.136-11.616zm13.894-4.224h4.644V63h-4.644V47.16zm15.874 11.52c.56 0 1.1-.088 1.62-.264.528-.176.936-.352 1.224-.528l1.98 3.936c-.384.32-1.036.644-1.956.972-.92.328-2.004.492-3.252.492-1.168 0-2.272-.2-3.312-.6a8.91 8.91 0 01-2.772-1.716 8.063 8.063 0 01-1.884-2.592c-.456-1-.684-2.092-.684-3.276 0-1.184.228-2.276.684-3.276a7.99 7.99 0 011.884-2.616c.8-.744 1.72-1.32 2.76-1.728a9.08 9.08 0 013.324-.612c1.248 0 2.332.164 3.252.492.92.328 1.572.652 1.956.972l-1.98 3.936c-.288-.176-.696-.352-1.224-.528a5.019 5.019 0 00-1.62-.264c-.76 0-1.396.108-1.908.324-.512.216-.924.504-1.236.864a3.32 3.32 0 00-.66 1.164 4.186 4.186 0 00-.192 1.236c0 .416.064.836.192 1.26.136.424.356.816.66 1.176.312.352.724.636 1.236.852.512.216 1.148.324 1.908.324zm6.811-11.52h10.632v4.032h-5.988v1.92h5.988v3.9h-5.988v1.956h5.988V63H63.492V47.16zM77.57 57.3l-.936-10.812h5.028L80.737 57.3h-3.168zm1.572 5.988c-.464 0-.892-.116-1.284-.348a2.794 2.794 0 01-.936-.924 2.498 2.498 0 01-.348-1.296c0-.712.252-1.32.756-1.824.504-.512 1.108-.768 1.812-.768.72 0 1.332.256 1.836.768.504.504.756 1.112.756 1.824 0 .704-.252 1.308-.756 1.812a2.5 2.5 0 01-1.836.756zm5.6-5.988l-.936-10.812h5.028L87.909 57.3H84.74zm1.572 5.988c-.464 0-.892-.116-1.284-.348a2.794 2.794 0 01-.936-.924 2.498 2.498 0 01-.348-1.296c0-.712.252-1.32.756-1.824.504-.512 1.108-.768 1.812-.768.72 0 1.332.256 1.836.768.504.504.756 1.112.756 1.824 0 .704-.252 1.308-.756 1.812a2.5 2.5 0 01-1.836.756z" fill="#3068E3"/></svg>