<svg width="99" height="75" fill="none" xmlns="http://www.w3.org/2000/svg"><path d="M25.248 60.19c-1.981 7.252-3.762 10.754-6.867 13.213 2.407-1.113 7.364-3.947 13.308-10.323l1.632 1.046c5.46 9.752 43.303 8.13 49.442-6.625 0 0 .178-1.706.091-3.424 30.713-15.572 8.863-43.79-15.724-43.003a14.283 14.283 0 00-2.872-3.305C45.605-6.524-9.489.469 4.704 32.963a22.167 22.167 0 00-2.311 2.845c-4.412 7.801 3.134 23.744 22.86 24.382h-.005z" fill="#fff"/><path d="M83.37 54.756c.829-.438 1.652-.898 2.25-1.458.325-.089.622-.178.9-.274.268-.104.517-.22.746-.353a3.78 3.78 0 00.646-.463 4.07 4.07 0 00.546-.657c1.273-.98 2.66-1.87 3.885-2.912 1.225-1.031 2.307-2.2 2.876-3.565 1.106-1.25 1.857-2.637 2.422-4.05.565-1.421.952-2.868 1.359-4.366-.24-1.217-.182-2.386-.22-3.576-.034-1.187-.177-2.396-.804-3.506a9.673 9.673 0 00-.77-2.719 9.658 9.658 0 00-.695-1.302c-.129-.211-.282-.415-.43-.615a7.463 7.463 0 00-.474-.59 2.897 2.897 0 01-.44-.612c-.13-.215-.24-.434-.36-.653-.061-.108-.119-.215-.186-.323a3.874 3.874 0 00-.23-.297 2.11 2.11 0 00-.622-.49c-.847-1.079-1.445-2.028-2.718-2.885-.22-.371-.588-.79-1.019-1.146-.44-.345-.943-.623-1.43-.694-.56-.742-1.503-1.391-2.508-1.977-1.015-.579-2.068-1.117-2.92-1.688-.315-.078-.55-.122-.741-.156a4.256 4.256 0 01-.464-.107 1.872 1.872 0 01-.402-.186 7.636 7.636 0 01-.58-.367 6.353 6.353 0 01-.55-.137 8.433 8.433 0 01-.574-.17 12.147 12.147 0 01-.579-.208c-.196-.071-.392-.141-.589-.216a24.83 24.83 0 01-.578-.23l-.565-.219c-.369-.144-.713-.285-1.03-.393-.262.093-.664.045-1.071-.052a3.37 3.37 0 01-1.091-.463c-.373 0-.766-.011-1.148-.037a9.5 9.5 0 01-1.115-.097c-1.355.097-2.144-.185-3.518-.393-.579-.115-1.234-.008-1.856.089-.627.13-1.226.245-1.757.252-.531.182-.732.538-.689.876.048.34.311.575.919.56.153.01.316.003.493 0a9.572 9.572 0 001.105-.085 21.7 21.7 0 00.55-.06c.647-.044 1.283-.044 1.915-.044.627.022 1.254.044 1.87.122 1.235.14 2.456.39 3.638.835.435.055.861.155 1.297.237.43.093.86.208 1.292.315.42.126.851.249 1.273.39.416.148.842.282 1.248.452 1.647.638 3.197 1.417 4.623 2.222.77.709 1.699 1.328 2.637 1.966.933.635 1.919 1.254 2.752 1.922.234.155.392.337.53.52.14.184.254.37.374.552.23.374.517.708 1.115.983a1.4 1.4 0 00.282.638c.14.193.316.363.503.534.191.167.373.341.54.523.163.185.316.375.383.597.134.278.321.546.503.809s.388.515.593.738c.125 1.024-.062.809.732 1.662.087 1.027.402 1.992.737 2.975.326.979.656 1.977.776 2.971.08 1.19-.024 2.337-.244 3.46-.22 1.125-.536 2.23-.905 3.377a21.797 21.797 0 01-1.158 2.448c-.469.771-.995 1.528-1.77 2.203-.13.141-.254.29-.383.438a14.29 14.29 0 00-.398.445l-.392.46-.421.452c-.144.149-.282.3-.426.45-.153.14-.302.281-.455.418-.153.138-.306.267-.464.397a6.46 6.46 0 01-.493.349c-.038.4-.34.805-.77 1.135a6.54 6.54 0 01-.68.468 8.442 8.442 0 01-.708.352c-1.517.82-2.933 1.706-4.426 2.533-1.489.828-3.02 1.625-4.7 2.193-1.01.623-.464.95.426 1.038.445.045.977.026 1.426-.037.445-.07.804-.196.92-.345.368-.193.784-.367 1.19-.567.412-.2.838-.405 1.264-.609l-.02-.007zM1.751 18.485c.034.564.082.813.087 1.057 0 .245-.096.475-.326.998.053.312.062.653.043 1.006-.024.352-.029.72-.072 1.086-.047.368-.071.727-.105 1.076-.033.345-.081.672-.086.96.206.168.316.502.34.858.014.36-.01.745-.149 1.027.24.59.536 1.24.646 1.822.589 1.03.517 1.754.675 2.9.01.123.038.245.072.367.043.123.096.242.158.364.124.241.273.482.43.72.297.474.651.916.766 1.35.354.39.852.486 1.273.386.426-.104.656-.368.483-.876-.052-.26-.172-.556-.32-.86a10.783 10.783 0 00-.46-.898c-.114-.263-.248-.523-.349-.786-.1-.264-.2-.523-.301-.783-.21-.516-.35-1.042-.493-1.566-.034-.13-.072-.263-.1-.393l-.073-.397a24.925 24.925 0 01-.12-.8c-.037-.268-.033-.542-.042-.817 0-.274-.01-.549.014-.827-.34-1.476-.397-3.046-.225-4.589.177-1.547.603-3.06 1.187-4.466.153-.219.33-.43.474-.656.148-.223.287-.453.44-.675.148-.227.282-.46.421-.694.153-.23.297-.46.436-.697.588-.928 1.182-1.881 1.904-2.712.158-.226.378-.393.594-.553a9.09 9.09 0 01.67-.43c.459-.27.856-.575 1.138-1.102.632-.167 1.058-.5 1.465-.871.2-.186.416-.364.641-.53.225-.168.469-.32.76-.416.36-.16.7-.36 1.044-.553.34-.193.656-.404.943-.605.694-.144.971-.167 1.21-.256.245-.085.446-.23.986-.62 1.407-.255 2.714-.685 4.034-1.138 1.326-.441 2.656-.909 4.015-1.231 1.646-.334 3.26-.542 4.872-.702 1.617-.163 3.23-.285 4.915-.411l1.89-.056c.617-.007 1.23-.03 1.842-.015.306.004.608.011.914.023.306.018.613.037.919.063.612.044 1.23.14 1.852.252 1.948.23 4.259.341 6.053.853 1.03-.338 2.59.152 3.556.579 1.818.671 3.637 1.268 5.388 1.977 1.742.708 3.431 1.532 4.776 2.622 1.139.579 1.373.078 1.13-.645a2.75 2.75 0 00-.259-.56 4.224 4.224 0 00-.392-.527c-.278-.33-.608-.553-.847-.59-.201-.111-.412-.222-.623-.337-.215-.112-.435-.23-.655-.345-.436-.245-.914-.46-1.378-.69-.479-.215-.967-.42-1.46-.594-.502-.16-.99-.315-1.493-.4-.287-.19-.555-.36-.823-.509a6.14 6.14 0 00-.828-.367 4.52 4.52 0 00-.914-.233 7.35 7.35 0 00-1.081-.086c-1.876-.43-3.709-.946-5.609-1.317C45.73.28 43.777.05 41.8.22c-2.076-.252-4.144-.252-6.187-.174-2.048.081-4.082.24-6.188.341-1.565.497-3.163.742-4.77 1.031-1.604.29-3.226.623-4.652 1.313-1.22.264-2.455.616-3.623 1.09a16.22 16.22 0 00-3.244 1.715 4.44 4.44 0 01-.785.467c-.282.137-.565.278-.847.415-.57.271-1.077.601-1.369 1.058-.34.23-.655.449-.976.656-.32.208-.608.434-.904.65a7.61 7.61 0 00-.828.715c-.13.13-.263.26-.388.4-.12.146-.234.294-.344.45-.22.14-.47.308-.685.504-.22.197-.435.416-.626.638-.197.223-.33.468-.44.694-.101.234-.173.453-.154.66-.392.349-.785.753-1.072 1.217-.148.23-.301.464-.43.712-.125.249-.245.5-.36.753-.124.252-.21.512-.31.768-.096.256-.211.508-.292.76-.168.505-.383.983-.58 1.436l.005-.004zm30.976 46.361c.048.181.182.378.335.57.172.183.364.368.57.513.646.59 1.354 1.064 2.067 1.524.713.46 1.44.894 2.192 1.399 1.225.382 2.483.734 3.751 1.03a32.99 32.99 0 003.795.68c.775.308 1.66.423 2.556.441.894.026 1.794-.055 2.631-.104.426-.06.79.063 1.159.141.368.07.746.108 1.182-.137.397.223.799.178 1.2.093.398-.082.795-.2 1.202-.123a4.637 4.637 0 001.584-.193c.919.227.727.312 1.589-.063.942.182 1.88.086 2.79-.107.909-.19 1.79-.482 2.66-.69 1.058-.212 2.082-.4 3.092-.634 1.004-.238 2-.52 2.966-.92 1.546-.501 2.747-1.202 4.35-1.644 1.168-.467 2.23-1.317 3.312-1.836.019-.337.234-.63.54-.86.297-.242.68-.43 1.006-.58 1.072-.626 1.89-1.468 2.545-2.362.665-.898 1.173-1.843 1.733-2.775.086-.734-.599-.7-1.245-.482-.636.226-1.292.609-1.181.85-.101.2-.216.408-.355.612-.148.204-.296.415-.454.62-.316.415-.627.834-.809 1.286-.21.082-.392.16-.555.241-.163.082-.316.16-.436.26a1.51 1.51 0 00-.526.831c-.722.686-1.694 1.176-2.646 1.647-.962.471-1.905.927-2.709 1.625-1.153.367-2.215.797-3.32 1.18-1.106.378-2.245.7-3.485.82-.804.504-1.765.674-2.727.79-.962.122-1.929.192-2.843.526-1.522-.045-3.067.033-4.541.36-.752.204-1.58-.245-2.273.156-1.053-.015-1.876-.223-2.943-.049-.637-.226-1.599-.37-2.182.008-.651-.282-1.422-.364-2.211-.442-.78-.085-1.58-.167-2.202-.441-.43.06-.631.1-.818.093-.182-.008-.35-.078-.68-.282a2.7 2.7 0 01-.746-.07 4.533 4.533 0 01-.751-.23 5.592 5.592 0 01-.69-.316 10.517 10.517 0 01-.574-.32c-.397.186-1.028-.133-1.172-.522-.45-.063-.938-.19-1.268-.393-.828-.17-1.062-.62-1.407-1.184a.615.615 0 00-.134-.17 1.128 1.128 0 00-.167-.152c-.13-.093-.283-.178-.426-.267-.302-.175-.584-.371-.66-.605-.278-.163-.747-.148-1.159-.026-.416.122-.655.334-.502.69l-.01-.007zM0 40.219c.21 1.617.345 3.33.87 4.859-.061.278-.023.549.04.823.061.271.162.542.315.802.144.26.306.512.479.76.181.241.363.479.54.709.201.226.187.478.225.72.039.24.13.474.555.622-.12.32.077.53.307.724.114.096.239.189.34.29.105.1.19.207.215.34a2.057 2.057 0 00.526.65 2.4 2.4 0 00.244.163c.067.627-.09.56.627.879.153.616.58 1.124 1.139 1.54.531.433 1.201.767 1.737 1.16 1.254.968 2.407 1.925 3.996 2.575.565.289 1.134.53 1.713.742.287.11.565.23.842.367.283.126.56.263.833.434.23.1.479.193.737.27.263.071.536.134.804.197.268.067.536.13.79.208.258.063.507.137.736.23.321-.193.67-.215 1.005-.152.335.055.666.174.924.304.244.085.498.16.751.222.254.064.512.093.775.13.259.034.522.06.785.082l.393.03c.129.007.263.007.392.01.201 0 .402.008.603.008-.038.104-.081.208-.12.312-.215.52-.445 1.024-.459 1.068-.043.085-.32 1.796-.699 1.918-.253.089-1.005 1.743-.823 2.14.029.09-.301 1.072-.76 2.003-.45.935-1.03 1.807-1.106 1.836-.067.019-.182.167-.326.382-.138.216-.335.475-.502.746-.191.26-.373.52-.522.709-.153.185-.253.311-.253.311l-.163.186-.177.178-.048.048-.335.197a4.29 4.29 0 01-.129.074c-.201.096-.397.207-.598.296a9.742 9.742 0 01-.589.26l.488.994c.292-.078.512-.144.752-.226l.158-.06.397-.163c.33-.126.732-.3 1.13-.43.817-.27 2.224-1.072 2.923-1.498.368-.2.76-.46 1.158-.709.196-.126.388-.249.57-.364.172-.122.335-.233.483-.333.024-.019.325-.07.742-.523.291-.316.87-.742 1.42-1.117.278-.185.527-.37.723-.527.197-.155.335-.282.374-.36.09-.181.368-.422.698-.682.321-.267.68-.56.953-.823.272-.268.483-.55.727-.824.23-.282.488-.553.866-.794.383-.245.713-.604.99-.953.264-.356.475-.697.647-.901.368-.45.808-.969 1.096-1.35A575.4 575.4 0 0135 60.471c.144-.193.34-.43.154-.701-.106-.152-.575-.364-.714-.319-.191.063-.483.167-.64.323a23.07 23.07 0 00-1.216 1.302c-.106.13-.283.185-.292.263-.024.134-.565.675-1.11 1.19-.273.26-.546.513-.761.706-.22.185-.373.319-.402.337-.053.04-.436.505-.866.968-.421.468-.929.898-1.144.916-.153.008-.699.412-1.23.869-.546.445-1.058.95-1.11 1.198a1.06 1.06 0 01-.201.222c-.125.115-.297.267-.503.45-.205.177-.445.381-.698.596-.254.22-.546.43-.828.65-.21.163-.421.322-.632.474.172-.278.35-.545.47-.76.009-.023.238-.134.325-.59.067-.319.315-.786.564-1.213.23-.427.445-.812.421-.95-.062-.322.388-1.016.55-1.55.082-.267.101-.538.149-.805.043-.267.115-.538.32-.805.412-.553.33-1.399.422-1.788l.1-.493c.216.007.43.022.646.04.718-.178.517-.667.12-1.068a2.7 2.7 0 00-.512-.404c.043-.286.086-.568.105-.709.029-.178.086-.404-.225-.575-.172-.096-.708-.163-.813-.104-.144.09-.35.23-.412.386-.052.13-.186.494-.301.842l-.498-.033a8.73 8.73 0 00-.766-.007 3.57 3.57 0 00-.746.074c-.306-.193-.565-.338-.842-.39-.278-.063-.575-.044-.972.097a7.877 7.877 0 01-.675-.097c-.224-.037-.435-.111-.65-.174a22.41 22.41 0 01-.632-.208c-.21-.07-.421-.137-.622-.222a9.54 9.54 0 00-1.25-.405 5.389 5.389 0 00-1.363-.226 14.75 14.75 0 00-1.23-.62c-.21-.088-.411-.192-.612-.289l-.608-.293c-.8-.4-1.57-.85-2.153-1.476a2.665 2.665 0 01-1.044-.427 4.21 4.21 0 01-.785-.653c-.23-.24-.464-.474-.713-.7a3.242 3.242 0 00-.866-.602c-.129-.211-.239-.434-.383-.641-.134-.212-.296-.405-.45-.609-.3-.404-.698-.76-1.114-1.101-.24-.16-.311-.408-.398-.638-.08-.234-.186-.45-.54-.557-.177-.293-.25-.582-.369-.857a2.27 2.27 0 00-.22-.404 2.173 2.173 0 00-.325-.4c.033-.223 0-.483-.11-.705-.1-.227-.297-.42-.627-.512.028-.119.038-.234.033-.349 0-.115-.01-.234-.033-.352a3.974 3.974 0 00-.225-.702c-.149-.47-.354-.945-.24-1.39-.43-.446-.564-.39-.325-.906-.206-.263-.268-.608-.22-.945a5.45 5.45 0 01.086-.494c.038-.16.1-.304.139-.434-.373-.16-.302-.63.09-.85-.124-.277-.238-.6-.162-.864-.105-.263-.086-.474.024-.671.115-.197.302-.378.488-.605.177-.185.182-.422.158-.675-.033-.252-.02-.493.139-.66-.053-.237-.397-.471-.795-.62-.401-.148-.75-.166-.942.086-.125.111-.22.263-.297.43a1.807 1.807 0 00-.11.52c-.335 1.175-.44 2.229-.948 3.405H0z" fill="#000"/><path d="M23.03 37.4a4.17 4.17 0 001.35-.22c.44-.147.78-.293 1.02-.44l1.65 3.28c-.32.267-.863.537-1.63.81-.767.273-1.67.41-2.71.41a7.622 7.622 0 01-2.76-.5 7.425 7.425 0 01-2.31-1.43 6.718 6.718 0 01-1.57-2.16c-.38-.833-.57-1.743-.57-2.73 0-.987.19-1.897.57-2.73a6.65 6.65 0 011.57-2.18 7.21 7.21 0 012.3-1.44 7.567 7.567 0 012.77-.51c1.04 0 1.943.137 2.71.41.767.273 1.31.543 1.63.81l-1.65 3.28c-.24-.147-.58-.293-1.02-.44a4.181 4.181 0 00-1.35-.22c-.633 0-1.163.09-1.59.27-.427.18-.77.42-1.03.72a2.766 2.766 0 00-.55.97 3.48 3.48 0 00-.16 1.03c0 .347.053.697.16 1.05.113.353.297.68.55.98.26.293.603.53 1.03.71.427.18.957.27 1.59.27zm9.456-3.01c0 .593.12 1.137.36 1.63.24.487.577.877 1.01 1.17.434.287.94.43 1.52.43.587 0 1.097-.143 1.53-.43.434-.293.77-.683 1.01-1.17.24-.493.36-1.037.36-1.63s-.12-1.133-.36-1.62a2.971 2.971 0 00-1.01-1.17c-.433-.293-.943-.44-1.53-.44-.58 0-1.086.147-1.52.44a2.97 2.97 0 00-1.01 1.17 3.613 3.613 0 00-.36 1.62zm-4.04 0c0-.96.174-1.853.52-2.68a6.726 6.726 0 011.47-2.18 6.76 6.76 0 012.2-1.45 7.16 7.16 0 012.74-.52c1 0 1.92.173 2.76.52.847.347 1.58.83 2.2 1.45a6.47 6.47 0 011.45 2.18c.347.827.52 1.72.52 2.68 0 .967-.166 1.867-.5 2.7a6.55 6.55 0 01-1.43 2.18 6.512 6.512 0 01-2.19 1.45c-.846.347-1.783.52-2.81.52-1.053 0-2.006-.173-2.86-.52a6.405 6.405 0 01-2.18-1.45 6.575 6.575 0 01-1.4-2.18 7.332 7.332 0 01-.49-2.7zm19.158 0c0 .593.12 1.137.36 1.63.24.487.576.877 1.01 1.17.433.287.94.43 1.52.43.586 0 1.096-.143 1.53-.43a2.97 2.97 0 001.01-1.17c.24-.493.36-1.037.36-1.63s-.12-1.133-.36-1.62a2.971 2.971 0 00-1.01-1.17c-.434-.293-.944-.44-1.53-.44-.58 0-1.087.147-1.52.44-.434.293-.77.683-1.01 1.17a3.613 3.613 0 00-.36 1.62zm-4.04 0c0-.96.173-1.853.52-2.68a6.726 6.726 0 011.47-2.18 6.76 6.76 0 012.2-1.45 7.16 7.16 0 012.74-.52c1 0 1.92.173 2.76.52.846.347 1.58.83 2.2 1.45a6.47 6.47 0 011.45 2.18c.346.827.52 1.72.52 2.68 0 .967-.167 1.867-.5 2.7a6.55 6.55 0 01-1.43 2.18 6.512 6.512 0 01-2.19 1.45c-.847.347-1.784.52-2.81.52-1.054 0-2.007-.173-2.86-.52a6.405 6.405 0 01-2.18-1.45 6.575 6.575 0 01-1.4-2.18 7.332 7.332 0 01-.49-2.7zM59.08 27.8h3.88v9.84h4.51V41h-8.39V27.8zm11.004 8.45l-.78-9.01h4.19l-.77 9.01h-2.64zm1.31 4.99c-.386 0-.743-.097-1.07-.29-.32-.193-.58-.45-.78-.77a2.08 2.08 0 01-.29-1.08c0-.593.21-1.1.63-1.52.42-.427.923-.64 1.51-.64.6 0 1.11.213 1.53.64.42.42.63.927.63 1.52 0 .587-.21 1.09-.63 1.51-.42.42-.93.63-1.53.63zm4.667-4.99l-.78-9.01h4.19l-.77 9.01h-2.64zm1.31 4.99c-.387 0-.744-.097-1.07-.29-.32-.193-.58-.45-.78-.77a2.082 2.082 0 01-.29-1.08c0-.593.21-1.1.63-1.52.42-.427.923-.64 1.51-.64.6 0 1.11.213 1.53.64.42.42.63.927.63 1.52 0 .587-.21 1.09-.63 1.51-.42.42-.93.63-1.53.63z" fill="#3068E3"/></svg>