<svg width="177" height="96" fill="none" xmlns="http://www.w3.org/2000/svg"><path d="M159.877 21.451l-9.711 13.478 20.635 1.607-13.905 11.684 8.244 3.325-7.99 3.464 17.279 11.199-21.513-.754 5.84 8.392-13.876-1.04 3.374 15.027-20.491-9.15v5.729l-9.711-4.434-2.097 12.264L98.093 80.52l-2.566 7.505-10.618-6.44-10.9 12.265-8.337-14.452-8.682 7.989-4.518-9.323-16.424 13.175-2.652-14.14-13.206 4.875 2.097-10.368L3.19 69.864l13.044-10.191-8.267-3.138 10.104-6.05-16.042-15.92 23.777 2.705-4.47-11.256L40.94 30.5l.768-7.773L58.572 30.5l4.957-10.714 15.372 8.258 8.106-5.61 6.591 6.387 24.385-25.862-7.129 25.205 12.062-7.72 3.819 8.257 16.909-8.915-1.468 9.496 17.701-7.83z" fill="#fff"/><path d="M172.638 35.975l-14.344 12.053 8.689 3.502-8.29 3.599L177 67.004l-2.582-.096-20.029-.695 5.893 8.454-14.368-1.085 3.472 15.551-20.774-9.284v5.743l-9.896-4.505-2.12 12.455-18.024-11.837-2.56 7.466-10.923-6.616-11.265 12.628-8.383-14.548-8.734 8.028-4.541-9.38-16.672 13.405-2.75-14.567-13.622 5.048 2.19-10.93L1.305 70.4l13.46-10.503-8.452-3.21 10.549-6.324L0 33.634l24.57 2.806-4.518-11.433 20.12 4.6.792-8.007 17.164 7.912 4.985-10.772 15.72 8.454 8.266-5.724 6.453 6.267L119.635.057l-7.429 26.365 11.086-7.096 3.864 8.334 17.562-9.265-1.513 9.654 18.931-8.378-10.572 14.682 21.074 1.627v-.005zm-17.209 12.437l13.506-11.334-20.213-1.569 8.873-12.283-15.066 6.675-1.421.638 1.467-9.361-16.256 8.569-3.796-8.18-13.015 8.334.537-1.896 6.239-22.148L93.627 29.92 86.92 23.4l-7.966 5.512-14.997-8.085-4.94 10.657-16.58-7.639-.745 7.543-19.075-4.371L26.996 38.1 4.079 35.471l15.228 15.105-9.688 5.8 8.105 3.076L5.1 69.317l18.163 1.665-1.982 9.826 12.762-4.721 2.582 13.732L52.79 76.86l4.471 9.246 8.62-7.93 8.266 14.331L84.72 80.612l10.318 6.266 2.582-7.543 17.7 11.626 2.051-12.072 9.55 4.352v-5.705l20.167 9.016-3.235-14.529 13.368 1.008-5.8-8.316 20.444.715-16.256-10.541 7.66-3.325-7.851-3.152h.012z" fill="#020202"/><path d="M29.64 47h8.86v3.36h-4.99v1.6h4.99v3.25h-4.99v1.63h4.99v3.36h-8.86V47zm19.88 6.1l5.05 7.1H49.5l-2.54-3.86-2.39 3.86H39.9l4.67-7.1-4.25-6.1h4.94l1.86 3.12L48.97 47h4.71l-4.16 6.1zm13.643 3.5c.467 0 .916-.073 1.35-.22.44-.147.78-.293 1.02-.44l1.65 3.28c-.32.267-.864.537-1.63.81-.767.273-1.67.41-2.71.41a7.622 7.622 0 01-2.76-.5 7.425 7.425 0 01-2.31-1.43 6.718 6.718 0 01-1.57-2.16c-.38-.833-.57-1.743-.57-2.73 0-.986.19-1.896.57-2.73a6.66 6.66 0 011.57-2.18 7.21 7.21 0 012.3-1.44 7.567 7.567 0 012.77-.51c1.04 0 1.943.137 2.71.41.767.273 1.31.544 1.63.81l-1.65 3.28c-.24-.146-.58-.293-1.02-.44a4.181 4.181 0 00-1.35-.22c-.633 0-1.163.09-1.59.27-.427.18-.77.42-1.03.72a2.766 2.766 0 00-.55.97 3.48 3.48 0 00-.16 1.03c0 .347.053.697.16 1.05.113.353.296.68.55.98.26.294.603.53 1.03.71.426.18.956.27 1.59.27zm5.676-9.6h8.86v3.36h-4.99v1.6h4.99v3.25h-4.99v1.63h4.99v3.36h-8.86V47zm10.96 0h3.88v9.84h4.51v3.36H79.8V47zm10.235 0h3.88v9.84h4.51v3.36h-8.39V47zm10.094 0h8.86v3.36h-4.99v1.6h4.99v3.25h-4.99v1.63h4.99v3.36h-8.86V47zm14.401 3.52l.29.05v9.63h-3.87V47h5.23l4.31 9.6-.29.06V47h3.87v13.2h-5.26l-4.28-9.68zm13.768-.16h-2.85V47h9.57v3.36h-2.85v9.84h-3.87v-9.84zm9.05 5.09l-.78-9.01h4.19l-.77 9.01h-2.64zm1.31 4.99c-.387 0-.743-.096-1.07-.29-.32-.193-.58-.45-.78-.77a2.085 2.085 0 01-.29-1.08c0-.593.21-1.1.63-1.52.42-.427.923-.64 1.51-.64.6 0 1.11.213 1.53.64.42.42.63.927.63 1.52 0 .587-.21 1.09-.63 1.51-.42.42-.93.63-1.53.63zm4.666-4.99l-.78-9.01h4.19l-.77 9.01h-2.64zm1.31 4.99a2.06 2.06 0 01-1.07-.29c-.32-.193-.58-.45-.78-.77a2.085 2.085 0 01-.29-1.08c0-.593.21-1.1.63-1.52.42-.427.924-.64 1.51-.64.6 0 1.11.213 1.53.64.42.42.63.927.63 1.52 0 .587-.21 1.09-.63 1.51-.42.42-.93.63-1.53.63z" fill="#3068E3"/></svg>