<svg width="330" height="237" fill="none" xmlns="http://www.w3.org/2000/svg"><path d="M41.56 74.49C31.57 83.663 12.332 81.837 0 83.493c23.798 26.246 33.526 35.504 3.127 62.429 41.081 1.062 41.255 16.86 31.397 50.878 29.4-15.756 50.853-17.667 50.636 22.083 26.577-31.469 42.732-15.246 51.07 17.328 15.633-30.366 35.566-39.581 52.59-4.714 9.553-40.133 31.658-31.47 53.632-6.158.912-33.636 12.072-50.326 45.945-29.728-13.028-39.963 7.426-41.068 41.603-42.894-23.798-26.245-33.525-35.504-3.127-62.429-41.081-1.061-41.255-16.86-31.397-50.877-29.4 15.756-50.853 17.667-50.636-22.084C218.263 48.797 202.108 32.573 193.77 0c-15.677 30.365-35.566 39.58-52.59 4.714-9.553 40.133-31.658 31.47-53.632 6.158-.912 33.635-12.072 50.325-45.945 29.728 2.475 9.386 7.165 24.93-.044 33.89z" fill="#000"/><path d="M137.112 226.948c-6.197-19.417-15.101-29.232-26.404-29.232-7.201 0-14.752 4.037-22.957 12.237-.829-10.452-3.535-17.845-8.248-22.434-3.71-3.611-8.554-5.438-14.49-5.438-6.939 0-15.362 2.422-26.098 7.605 4.451-16.782 5.411-28.381-.655-36.454-4.888-6.458-13.748-9.985-28.324-11.132 24.483-23.835 15.711-35.477-4.147-57.273 1.31-.085 2.706-.17 4.103-.255 11.74-.637 25.008-1.402 33.343-9.007l.175-.17.13-.17c6.504-8.03 4.802-19.926 2.445-29.486 7.681 3.909 14.227 5.82 19.988 5.82 19.029 0 23.088-20.86 24.091-34.202 10.955 11.217 20.818 16.91 29.372 16.91 10.082 0 17.72-7.563 22.651-22.433 6.94 11.429 14.708 17.165 23.175 17.165 9.514 0 19.072-7.605 27.844-22.051 6.198 19.416 15.101 29.231 26.404 29.231 7.201 0 14.752-4.036 22.957-12.236.829 10.452 3.535 17.845 8.248 22.433 3.71 3.611 8.554 5.439 14.49 5.439 6.939 0 15.362-2.422 26.098-7.606-4.451 16.783-5.411 28.382.655 36.454 4.888 6.459 13.748 9.985 28.325 11.132-24.397 23.751-15.756 35.35 3.927 57.061-17.937 1.02-31.946 2.719-38.493 11.939-4.321 6.076-4.932 14.87-1.789 27.277-7.551-3.824-14.053-5.694-19.727-5.694-19.028 0-23.087 20.862-24.135 34.203-10.954-11.217-20.818-16.91-29.372-16.91-10.081 0-17.719 7.563-22.65 22.433-6.94-11.429-14.708-17.165-23.175-17.165-9.427-.042-18.985 7.563-27.757 22.009z" fill="#000"/><path d="M137.129 225.79c-5.515-18.484-14.977-28.909-26.592-28.909-7.22 0-14.888 3.986-22.87 11.87-.673-10.643-3.274-18.133-7.938-22.732-3.543-3.548-8.296-5.344-14.036-5.344-6.906 0-15.381 2.54-26.413 7.928 4.484-15.199 5.74-27.157-.359-35.391-4.798-6.526-13.677-10.118-27.579-11.125 10.135-9.286 14.574-16.294 15.023-23.302.628-10.031-7.085-18.265-18.79-30.749a8.49 8.49 0 00-.628-.657c11.75-.219 29.866-.963 36.728-9.33 6.323-7.927 4.708-19.49 2.421-28.908 7.803 4.161 14.485 6.22 20.225 6.22 17.444 0 22.153-17.87 23.453-34.515C99.82 31.621 109.91 37.49 118.7 37.49c7.399 0 17.04-4.073 23.229-22.25 6.906 11.694 14.664 17.651 23.094 17.651 9.463 0 19.059-7.753 27.983-22.47 5.516 18.484 14.978 28.909 26.593 28.909 7.219 0 14.888-3.986 22.87-11.87.673 10.643 3.274 18.133 7.937 22.733 3.543 3.547 8.297 5.343 14.037 5.343 6.906 0 15.381-2.54 26.413-7.928-4.485 15.2-5.74 27.157.358 35.391 4.799 6.527 13.678 10.118 27.579 11.126-10.134 9.285-14.574 16.294-15.022 23.302-.628 10.03 7.085 18.265 18.789 30.748.135.175.314.35.494.525-17.131.351-30.539 2.103-37.131 11.038-4.574 6.176-5.292 14.936-2.198 27.201-7.668-4.03-14.215-6.045-19.91-6.045-17.445 0-22.153 17.871-23.454 34.515-10.045-10.775-20.135-16.644-28.924-16.644-7.399 0-17.041 4.073-23.229 22.251-6.906-11.695-14.664-17.652-23.095-17.652-9.507-.044-19.103 7.665-27.983 22.426z" fill="#F6E900"/><path d="M80.532 99.812l.58.094.206 19.259-7.74.082-.281-26.398 10.46-.112 8.824 19.107-.579.126-.206-19.319 7.74-.082.281 26.398-10.519.113-8.766-19.268zm23.08-7.287l7.739-.082.282 26.398-7.74.083-.281-26.399zm26.659 18.917a8.352 8.352 0 002.695-.469c.877-.303 1.554-.603 2.031-.902l3.369 6.525c-.634.54-1.715 1.091-3.242 1.654-1.528.563-3.331.856-5.411.878-1.947.021-3.79-.293-5.53-.941a14.845 14.845 0 01-4.651-2.81 13.45 13.45 0 01-3.186-4.287c-.777-1.658-1.177-3.474-1.198-5.447-.021-1.973.34-3.797 1.082-5.472a13.318 13.318 0 013.093-4.393 14.423 14.423 0 014.569-2.93 15.133 15.133 0 015.529-1.078c2.08-.022 3.889.231 5.428.762 1.539.53 2.632 1.058 3.277 1.585l-3.229 6.595c-.483-.288-1.167-.574-2.05-.858a8.36 8.36 0 00-2.704-.412c-1.267.014-2.325.205-3.174.574-.85.369-1.531.857-2.045 1.462-.5.592-.86 1.243-1.079 1.952a6.978 6.978 0 00-.298 2.063c.007.693.122 1.392.342 2.097a5.756 5.756 0 001.121 1.948c.527.581 1.218 1.047 2.075 1.398.857.351 1.919.519 3.186.506zm11.147-19.32l17.719-.19.072 6.72-9.98.107.035 3.199 9.979-.106.069 6.5-9.979.106.035 3.26 9.979-.107.072 6.72-17.719.189-.282-26.398z" fill="#3068E3"/><path d="M163.579 105.186c.428.049.881.084 1.362.105.493.008.927.01 1.3.006a22.498 22.498 0 002.498-.166 32.822 32.822 0 002.456-.387 21.851 21.851 0 002.134-.562l.105 2.319c-.572.152-1.257.313-2.055.482-.785.155-1.617.29-2.496.406-.879.103-1.745.159-2.598.168-.4.004-.807.002-1.22-.007a45.41 45.41 0 01-1.281-.046l-.205-2.318zm7.748-3.083c-.076.334-.178.769-.306 1.303a41.644 41.644 0 01-.442 1.685 37.6 37.6 0 01-.502 1.746 26.896 26.896 0 01-1.127 3.072 43.144 43.144 0 01-1.526 3.176 26.373 26.373 0 01-1.671 2.758l-2.433-1.214c.448-.565.888-1.189 1.32-1.874.433-.685.839-1.389 1.218-2.113s.718-1.421 1.018-2.091a18.72 18.72 0 001.375-4.215c.19-.882.295-1.71.313-2.484l2.763.251zm4.746 6.17c-.022.427-.031.853-.026 1.28l.053 1.279c.017.307.035.7.053 1.18.032.466.064.966.096 1.499.032.52.058 1.019.076 1.499.032.467.049.84.052 1.12a3.7 3.7 0 01-.362 1.684c-.248.496-.65.893-1.207 1.193-.544.299-1.296.454-2.256.464-.826.009-1.574-.11-2.243-.356-.67-.233-1.207-.587-1.612-1.063-.405-.489-.612-1.1-.619-1.834a3.102 3.102 0 01.501-1.765c.341-.537.836-.956 1.486-1.256.664-.314 1.462-.476 2.395-.486 1.174-.012 2.255.143 3.245.466.991.309 1.882.713 2.674 1.211.792.499 1.47.998 2.036 1.499l-1.317 2.154a96.873 96.873 0 00-1.252-1.067 10.582 10.582 0 00-1.552-1.103 8.956 8.956 0 00-1.849-.841 6.444 6.444 0 00-2.123-.317c-.574.006-1.032.124-1.377.355-.344.23-.514.525-.51.885.004.374.154.672.449.895.309.224.737.333 1.284.327.453-.005.812-.082 1.078-.232.264-.163.449-.385.552-.666a2.83 2.83 0 00.15-.981 28.36 28.36 0 00-.054-1.3c-.033-.559-.072-1.179-.12-1.859l-.102-2.039c-.033-.679-.066-1.279-.099-1.799l2.5-.026zm3.451 1.023c-.39-.316-.873-.651-1.451-1.005a25.998 25.998 0 00-1.79-1.001 19.621 19.621 0 00-1.589-.783l1.259-1.993c.362.156.77.351 1.226.587.469.221.939.456 1.408.705a19.3 19.3 0 011.328.745c.416.236.751.446 1.007.63l-1.398 2.115zm12.268-1.211l2.48-.027c.08 1.24.266 2.418.558 3.535a16.554 16.554 0 001.071 2.968c.423.862.87 1.544 1.342 2.046.472.488.928.73 1.368.726.253-.003.431-.232.533-.686.115-.455.194-1.189.236-2.203a6.88 6.88 0 001.008.689 5.8 5.8 0 001.085.449c-.095 1.121-.266 1.976-.513 2.565-.234.603-.549 1.013-.947 1.231-.397.231-.896.349-1.496.356-.894.009-1.724-.302-2.49-.934-.767-.618-1.449-1.464-2.048-2.538-.585-1.087-1.064-2.329-1.439-3.725a24.894 24.894 0 01-.748-4.452zm-5.554 2.479l14.739-.157.024 2.22-14.739.157-.024-2.22zm-3.291 6.456a277.426 277.426 0 006.312-.768 595.93 595.93 0 003.555-.478l.126 2.379c-1.105.172-2.224.337-3.355.496-1.119.172-2.197.33-3.235.475-1.039.144-1.998.281-2.876.41l-.527-2.514zm1.939-15.042l2.5-.027.17 15.94-2.499.026-.171-15.939zm1.22-.013l13.36-.142.07 6.599-13.359.143-.024-2.22 10.92-.117-.024-2.16-10.919.117-.024-2.22zm17.671.892l1.341-1.755c.415.156.851.351 1.307.586.469.222.911.464 1.327.726.416.249.752.492 1.008.729l-1.399 1.915a7.47 7.47 0 00-.988-.749 12.88 12.88 0 00-1.269-.787 12.547 12.547 0 00-1.327-.665zm-1.121 5.552l1.281-1.794c.415.156.85.344 1.306.566.469.222.912.457 1.328.706.429.235.771.465 1.027.689l-1.339 1.974a5.978 5.978 0 00-.988-.749 19.133 19.133 0 00-1.288-.766 11.797 11.797 0 00-1.327-.626zm.84 9.391c.302-.523.635-1.126 1.001-1.81a56.42 56.42 0 001.137-2.213c.378-.777.736-1.554 1.075-2.331l1.855 1.44a209 209 0 01-.937 2.15 52.054 52.054 0 01-1.017 2.171 91.417 91.417 0 01-1.018 2.031l-2.096-1.438zm5.737-13.462l11.099-.118.162 15.099-2.46.026-.137-12.799-6.3.067.139 12.94-2.34.025-.163-15.24zm3.923-3.522l2.822.23a62.39 62.39 0 01-.693 2.548 29.935 29.935 0 01-.697 2.087l-2.244-.316c.116-.428.224-.909.325-1.443a34.77 34.77 0 00.303-1.604c.087-.547.148-1.048.184-1.502zm-2.66 9.429l8.34-.089.023 2.22-8.339.089-.024-2.22zm.065 6.06l8.339-.089.025 2.34-8.339.089-.025-2.34zm19.183-11.006c.574.048 1.148.088 1.722.122a41.574 41.574 0 005.438-.178 26.314 26.314 0 003.355-.536l.026 2.5c-1.038.158-2.163.29-3.376.396a55.289 55.289 0 01-3.638.159c-.587.006-1.173.006-1.76-.001a81.833 81.833 0 01-1.741-.082l-.026-2.38zm7.564-3.46c-.025.186-.049.393-.073.62l-.033.681a34.03 34.03 0 00-.038 2.08l.015 1.4a78.589 78.589 0 00.191 4.758c.047.667.087 1.28.119 1.839.046.56.072 1.08.077 1.559a4.522 4.522 0 01-.205 1.443c-.128.441-.344.83-.647 1.167-.303.336-.707.594-1.212.773-.491.192-1.097.291-1.817.299-1.386.015-2.483-.253-3.289-.805-.806-.551-1.214-1.354-1.225-2.407-.008-.68.166-1.275.521-1.786.354-.523.863-.929 1.527-1.216.663-.3 1.448-.455 2.355-.465.946-.01 1.807.081 2.583.272a10.104 10.104 0 013.84 1.859c.511.382.968.75 1.372 1.106l-1.358 2.115a21.966 21.966 0 00-2.239-1.837 9.78 9.78 0 00-2.173-1.177 5.93 5.93 0 00-2.204-.396c-.56.006-1.019.118-1.377.335-.344.217-.514.519-.51.905.004.4.187.692.549.874.362.183.803.272 1.323.266.413-.004.739-.074.978-.21.238-.149.403-.358.493-.625a2.79 2.79 0 00.149-1.002c-.003-.347-.021-.8-.054-1.36a214.39 214.39 0 00-.12-1.878c-.034-.693-.069-1.413-.103-2.159-.035-.76-.056-1.5-.064-2.22a94.245 94.245 0 00-.042-2.06l-.015-1.4a6.606 6.606 0 00-.046-.619 7.571 7.571 0 00-.108-.699l2.86-.03zm-9.757.324a25.91 25.91 0 01-.174.562c-.064.24-.122.474-.173.701-.037.228-.069.401-.094.522-.064.28-.133.661-.208 1.142-.075.467-.156 1.002-.243 1.602-.074.588-.147 1.195-.22 1.823a29.825 29.825 0 00-.162 1.762c-.034.547-.049 1.02-.044 1.42l.007.66c.015.227.044.44.086.639.091-.241.182-.475.273-.703l.313-.683c.104-.228.201-.455.292-.683l1.231.987c-.181.548-.368 1.124-.562 1.726-.18.602-.347 1.17-.501 1.705-.141.535-.25.983-.326 1.344-.025.134-.05.294-.075.481-.011.187-.016.34-.015.46l.004.38c.015.16.03.306.045.439l-2.258.205c-.221-.705-.417-1.603-.589-2.694-.172-1.105-.265-2.338-.28-3.698a28.64 28.64 0 01.075-2.34c.058-.828.123-1.622.195-2.383.085-.761.171-1.455.258-2.083.086-.641.154-1.155.203-1.542.037-.28.074-.594.11-.941.036-.36.06-.701.069-1.021l2.763.211zM81.212 135.427l2.42-.026.027 2.58-2.42.026-.027-2.58zm-.22 1.962l1.87.76c-.476.486-1.03.945-1.666 1.378-.636.42-1.325.801-2.068 1.142-.743.328-1.52.623-2.33.885a24.48 24.48 0 01-2.454.627 6.502 6.502 0 00-.59-.874 5.7 5.7 0 00-.708-.813c.785-.128 1.563-.29 2.335-.485a24.748 24.748 0 002.232-.703c.704-.275 1.34-.568 1.91-.881a7.713 7.713 0 001.47-1.036zm3.061-.012a8.632 8.632 0 001.689 2.662c.728.752 1.614 1.376 2.66 1.871 1.045.483 2.255.83 3.631 1.042a8.696 8.696 0 00-.73.928 6.31 6.31 0 00-.589 1.046c-1.51-.317-2.822-.783-3.935-1.398a9.584 9.584 0 01-2.805-2.35c-.77-.952-1.416-2.072-1.936-3.36l2.015-.441zm5.07.946l1.714 1.261c-.41.271-.848.549-1.311.834-.464.285-.928.55-1.392.795-.45.232-.875.436-1.273.614l-1.453-1.145c.398-.191.823-.415 1.273-.673a20.79 20.79 0 002.442-1.686zm-13.632 4.545c.72-.087 1.538-.196 2.457-.326l2.936-.411a232.06 232.06 0 013.075-.453l.12 1.959a158.6 158.6 0 01-2.894.451c-.986.157-1.93.3-2.836.43-.905.143-1.73.272-2.476.386l-.382-2.036zm-2.104-5.978l18.22-.194.019 1.82-18.22.194-.019-1.82zm6.951-8.374l11.14-.119.022 2.06-11.14.119-.022-2.06zm.547 4.414l10.12-.108.022 2.06-10.12.108-.022-2.06zm-3.572-6.722l2.22-.024.104 9.68-2.22.023-.104-9.679zm7.26-.078l2.42-.025.087 8.179-2.42.026-.087-8.18zm-11.235 2.401l1.365-1.375c.443.275.913.603 1.41.985.512.368.902.704 1.172 1.007l-1.444 1.516a5.086 5.086 0 00-.668-.693c-.282-.25-.585-.5-.908-.75a8.232 8.232 0 00-.927-.69zm-.31 4.603a36.888 36.888 0 001.792-.699c.69-.287 1.407-.595 2.15-.923l.5 1.895-1.87.88c-.624.286-1.221.553-1.792.799l-.78-1.952zm4.7 7.47l1.285-1.333 1.003.289.043 4.02-2.3.024-.032-3zm25.711-12.155l8.119-.087.023 2.16-8.119.087-.023-2.16zm-.187-2.518l2.345.435a20.808 20.808 0 01-1.298 3.954c-.547 1.246-1.176 2.293-1.887 3.14a4.831 4.831 0 00-.565-.454c-.242-.184-.49-.361-.745-.532a7.284 7.284 0 00-.625-.433c.673-.701 1.243-1.593 1.711-2.678a15.977 15.977 0 001.064-3.432zm2.2 3.777l2.2-.024.16 14.999-2.2.024-.16-14.999zm3.672 2.961l2.24-.024.074 6.919c.005.454-.038.828-.128 1.122a1.169 1.169 0 01-.533.706 2.26 2.26 0 01-.936.33 10.57 10.57 0 01-1.199.072 5.061 5.061 0 00-.271-1.017 7.623 7.623 0 00-.391-.996 9.7 9.7 0 00.6.014l.4-.004c.147-.002.219-.083.218-.243l-.074-6.879zm-7.039.075l7.939-.085.023 2.12-5.82.062.074 6.88-2.12.022-.096-8.999zm-5.212-2.925l1.96-.021.027 2.5-1.96.021-.027-2.5zm-2.622 1.688l2.12-.022.118 11.099-2.12.023-.118-11.1zm1.428 2.665l4.32-.046.016 1.52-4.32.046-.016-1.52zm-2.536 7.848a38.23 38.23 0 001.956-.401c.731-.168 1.51-.35 2.334-.545l2.474-.586.24 1.897c-1.09.332-2.193.65-3.31.956-1.103.318-2.107.609-3.01.872l-.684-2.193zm4.653-2.59l1.87-.84c.326.477.645.993.957 1.55.313.557.592 1.107.838 1.651.259.531.444 1.009.555 1.434l-2.03.962a8.56 8.56 0 00-.495-1.475 23.203 23.203 0 00-.798-1.671 16.621 16.621 0 00-.897-1.611zm-2.365-7.935l5.5-.059.074 6.94-5.5.058-.018-1.699 3.4-.037-.038-3.54-3.4.037-.018-1.7zm.821-5.489l1.28-.014.005.46.7-.007.007.64a25.18 25.18 0 01-.962 1.69c-.38.604-.827 1.229-1.34 1.874a13.937 13.937 0 01-1.82 1.84 5.617 5.617 0 00-.426-.536 7.995 7.995 0 00-.547-.594 3.557 3.557 0 00-.524-.434 10.412 10.412 0 001.603-1.537 13.9 13.9 0 001.202-1.713c.34-.577.615-1.134.822-1.669zm.56-.006l1.6-.017c.417.315.834.671 1.252 1.066.417.383.808.772 1.172 1.168.378.396.682.766.912 1.11l-1.501 1.776a9.24 9.24 0 00-.792-1.131c-.325-.437-.683-.86-1.074-1.269a9.468 9.468 0 00-1.151-1.068l-.4.005-.018-1.64zm22.072 2.864l.029 2.68 7.039-.075-.028-2.68-7.04.075zm-2.344-2.275l11.799-.126.078 7.26-11.8.126-.077-7.26zm-2.665 8.969l7.66-.082.095 8.94-2.4.026-.07-6.64-2.98.032.072 6.759-2.28.025-.097-9.06zm9.34-.1l7.919-.084.096 8.959-2.4.026-.071-6.66-3.22.035.072 6.759-2.3.025-.096-9.06zm-8.279 5.829l5.26-.056.025 2.3-5.26.056-.025-2.3zm9.44-.101l5.6-.059.024 2.299-5.599.06-.025-2.3zm9.409-12.301c.4-.017.78-.035 1.14-.052l.819-.069c.413-.031.919-.076 1.519-.136.612-.073 1.291-.147 2.037-.222.76-.074 1.566-.15 2.418-.225.853-.076 1.739-.159 2.658-.249a55.07 55.07 0 012.058-.182 57.673 57.673 0 011.958-.141 48.467 48.467 0 011.639-.097l.048 2.559c-.36.004-.773.015-1.24.034-.466.018-.933.05-1.399.095a6.267 6.267 0 00-1.218.193 4.92 4.92 0 00-1.671.837 6.18 6.18 0 00-1.346 1.355 6.4 6.4 0 00-.862 1.669 5.188 5.188 0 00-.301 1.783c.007.654.126 1.233.359 1.737.245.491.569.914.973 1.269.417.343.9.631 1.449.865.55.221 1.138.388 1.766.501a15.83 15.83 0 001.982.219l-.91 2.75a12.576 12.576 0 01-2.464-.374 10.431 10.431 0 01-2.23-.856 7.468 7.468 0 01-1.834-1.341 6.686 6.686 0 01-1.24-1.846c-.301-.704-.456-1.489-.465-2.356-.01-.96.134-1.841.432-2.644.298-.817.67-1.528 1.117-2.132.46-.619.915-1.097 1.365-1.435-.373.057-.826.115-1.358.174-.52.059-1.086.132-1.698.219-.599.073-1.212.153-1.838.239-.626.087-1.231.187-1.817.3-.572.099-1.091.198-1.557.296l-.289-2.737zm13.455 3.177c.176.238.359.523.549.854.203.318.4.642.59.974.19.318.354.609.49.875l-1.513.696a18.666 18.666 0 00-.756-1.472 10.905 10.905 0 00-.833-1.291l1.473-.636zm2.23-.944c.176.238.365.516.569.834.216.304.426.622.63.953.203.318.373.603.509.855l-1.492.736a18.711 18.711 0 00-.795-1.412 12.808 12.808 0 00-.874-1.271l1.453-.695zm10.232-2.709l10.579-.113.073 6.859-2.36.025-.049-4.599-8.219.087-.024-2.259zm-.917 5.91l13.059-.14.024 2.24-13.059.14-.024-2.24zm4.224-9.006l2.4-.026.074 7a29.832 29.832 0 01-.145 3.262 13.288 13.288 0 01-.726 3.208c-.362 1.03-.925 2.01-1.688 2.938-.764.915-1.795 1.746-3.094 2.493a5.879 5.879 0 00-.586-.574 17.46 17.46 0 00-.727-.632 5.408 5.408 0 00-.705-.472c1.22-.667 2.185-1.391 2.897-2.172.712-.794 1.236-1.626 1.573-2.496.351-.884.575-1.793.671-2.728.097-.934.14-1.875.13-2.821l-.074-6.98zm3.609 10.182a11.392 11.392 0 002.041 3.879 8.71 8.71 0 003.488 2.562 4.837 4.837 0 00-.594.587c-.211.255-.415.518-.612.786a7.18 7.18 0 00-.452.745c-1.554-.743-2.819-1.796-3.794-3.159-.974-1.377-1.738-2.989-2.292-4.836l2.215-.564zm-12.509-8.247l1.281-1.774c.415.156.85.345 1.306.566.469.222.912.451 1.327.686a5.2 5.2 0 011.028.709l-1.359 1.975a6.37 6.37 0 00-.968-.75 17.181 17.181 0 00-1.308-.766 17.269 17.269 0 00-1.307-.646zm-1.102 5.472l1.261-1.833c.428.142.876.317 1.345.525.469.209.918.431 1.348.666.429.235.778.465 1.047.689l-1.359 2.014a6.021 6.021 0 00-.987-.709 15.63 15.63 0 00-1.328-.746 14.53 14.53 0 00-1.327-.606zm.664 9.694c.327-.524.694-1.134 1.1-1.832.406-.711.811-1.462 1.216-2.253.418-.791.803-1.582 1.155-2.373l1.856 1.481c-.326.71-.671 1.44-1.037 2.191-.352.75-.711 1.481-1.076 2.191a95.467 95.467 0 01-1.098 2.072l-2.116-1.477zm30.645-16.528c-.025.2-.049.427-.073.68l-.032.741a56.099 56.099 0 00-.033 2.54l.017 1.58.015 1.42c.006.56.026 1.187.06 1.88.034.679.075 1.372.123 2.078.06.693.107 1.346.141 1.959.046.6.071 1.099.076 1.499a2.842 2.842 0 01-.424 1.545c-.288.456-.725.821-1.308 1.094-.571.273-1.296.414-2.176.423-1.6.017-2.816-.263-3.649-.841-.833-.578-1.255-1.393-1.266-2.447-.008-.679.179-1.275.561-1.786.394-.524.956-.937 1.686-1.238.744-.301 1.629-.457 2.656-.468a12.397 12.397 0 013.063.327c.963.217 1.839.507 2.63.872.79.365 1.495.751 2.112 1.158.618.406 1.142.774 1.572 1.103l-1.416 2.255a16.9 16.9 0 00-1.634-1.322 13.229 13.229 0 00-1.953-1.18 11.147 11.147 0 00-2.229-.836 8.728 8.728 0 00-2.463-.314c-.694.008-1.232.134-1.616.378-.371.244-.555.539-.551.886a.983.983 0 00.247.657c.162.185.397.322.704.413.308.09.695.132 1.162.127a3.08 3.08 0 00.919-.13c.265-.083.47-.231.615-.446.144-.215.214-.516.21-.903a28.215 28.215 0 00-.053-1.259c-.019-.547-.046-1.146-.079-1.799l-.101-1.959a41.971 41.971 0 01-.059-1.7l-.016-1.5c.008-.533.009-1.06.004-1.58l-.016-1.42c.009-.44.012-.8.009-1.08a7.136 7.136 0 00-.047-.679 4.523 4.523 0 00-.088-.7l2.7-.028zm-8.279 1.968c.36.05.761.099 1.201.147.441.049.888.097 1.342.146.467.035.907.064 1.321.086.413.009.773.012 1.08.008a68.28 68.28 0 004.058-.163 44.945 44.945 0 004.215-.545l.004 2.3c-.679.101-1.464.196-2.357.285a76.89 76.89 0 01-2.857.231c-1 .05-2.006.081-3.02.092a35.82 35.82 0 01-1.54-.024c-.6-.033-1.201-.073-1.801-.12-.601-.061-1.122-.115-1.562-.164l-.084-2.279zm-.054 4.321c.32.05.701.099 1.141.148.441.048.888.084 1.342.105.466.022.907.044 1.32.066.414.009.754.012 1.02.009 1.24-.013 2.36-.051 3.359-.115a75.43 75.43 0 002.838-.231 62.443 62.443 0 002.537-.307l.005 2.36c-.692.088-1.365.162-2.018.222-.639.06-1.298.114-1.978.161-.666.047-1.386.081-2.159.103-.773.022-1.64.038-2.6.048-.386.004-.866.002-1.44-.005-.573-.02-1.16-.047-1.761-.081a33.361 33.361 0 01-1.561-.123l-.045-2.36zm23.613-6.333c-.064.241-.134.542-.21.903-.076.361-.152.741-.228 1.142-.076.388-.145.769-.208 1.143-.049.373-.085.701-.109.981.236-.403.518-.792.847-1.169.33-.391.699-.741 1.109-1.052a5.592 5.592 0 011.372-.775 4.595 4.595 0 011.597-.297 4.036 4.036 0 012.529.833c.753.565 1.348 1.379 1.786 2.441.452 1.062.685 2.326.701 3.793.015 1.413-.179 2.655-.581 3.726a7.503 7.503 0 01-1.751 2.719c-.765.755-1.685 1.372-2.76 1.85-1.061.491-2.251.864-3.568 1.118l-1.545-2.304a20.39 20.39 0 003.032-.732c.93-.317 1.726-.739 2.387-1.266a5.045 5.045 0 001.539-2.016c.364-.831.54-1.846.527-3.046-.011-1.027-.127-1.892-.348-2.597-.221-.717-.54-1.261-.957-1.629a2.037 2.037 0 00-1.446-.545c-.587.006-1.145.206-1.674.598-.529.392-1.003.904-1.423 1.535a8.779 8.779 0 00-.979 2.011 7.552 7.552 0 00-.378 2.084c-.01.28-.013.587-.01.92.017.333.061.733.133 1.199l-2.458.186a66.929 66.929 0 01-.196-1.438 21.179 21.179 0 01-.1-1.899 30.05 30.05 0 01.024-1.5l.103-1.622c.047-.56.101-1.121.162-1.681.074-.561.141-1.095.203-1.603.049-.387.085-.767.108-1.141.022-.373.032-.694.029-.96l2.741.09zm24.718-.383c-.025.2-.049.427-.073.68l-.032.741a54.722 54.722 0 00-.033 2.54l.017 1.58.015 1.42c.006.56.026 1.187.06 1.88.034.679.075 1.372.122 2.078.061.693.108 1.346.141 1.959.047.6.072 1.099.076 1.499a2.84 2.84 0 01-.423 1.545c-.289.456-.725.821-1.309 1.094-.57.273-1.295.414-2.175.423-1.6.017-2.817-.263-3.649-.841-.833-.578-1.255-1.393-1.267-2.447-.007-.68.18-1.275.561-1.786.395-.524.957-.937 1.687-1.238.744-.301 1.629-.457 2.655-.468a12.4 12.4 0 013.064.327c.962.217 1.839.507 2.629.872.791.365 1.495.751 2.113 1.158.618.406 1.142.774 1.572 1.103l-1.416 2.255a17.023 17.023 0 00-1.634-1.322 13.334 13.334 0 00-1.953-1.18 11.147 11.147 0 00-2.229-.836 8.73 8.73 0 00-2.464-.314c-.693.008-1.232.134-1.616.378-.37.244-.554.539-.55.886a.978.978 0 00.247.657c.162.185.397.322.704.413.308.09.695.132 1.162.127.36-.004.666-.047.918-.13.266-.083.471-.231.616-.446.144-.215.214-.516.21-.903a27.04 27.04 0 00-.054-1.259c-.019-.547-.045-1.146-.079-1.799-.034-.667-.067-1.32-.101-1.959a41.811 41.811 0 01-.058-1.7l-.016-1.5c.008-.533.009-1.06.003-1.58l-.015-1.42c.009-.44.012-.8.009-1.08a6.857 6.857 0 00-.048-.679 4.417 4.417 0 00-.087-.7l2.7-.028zm-8.28 1.968c.361.05.761.099 1.202.147.44.049.888.097 1.342.146.467.035.907.064 1.321.086.413.009.773.012 1.08.008a68.315 68.315 0 004.058-.163 44.945 44.945 0 004.215-.545l.004 2.3c-.679.101-1.464.196-2.357.285-.892.09-1.845.167-2.858.231-.999.05-2.006.081-3.019.092-.413.004-.927-.003-1.54-.024a77.832 77.832 0 01-1.802-.12c-.6-.061-1.121-.115-1.561-.164l-.085-2.279zm-.054 4.321c.321.05.702.099 1.142.148.441.048.888.084 1.341.105.467.022.907.044 1.321.066.413.009.754.012 1.02.009 1.24-.013 2.36-.051 3.359-.115a75.43 75.43 0 002.838-.231 64.273 64.273 0 002.537-.307l.005 2.36c-.693.088-1.365.161-2.018.222-.639.06-1.299.114-1.978.161-.666.047-1.386.081-2.159.103-.773.022-1.64.037-2.6.048-.387.004-.867.002-1.44-.005a87.841 87.841 0 01-1.761-.081 33.252 33.252 0 01-1.561-.123l-.046-2.36zm29.453-6.455l-.054.521-.033.7a8.921 8.921 0 01-.034.501c-.011.266-.014.626-.009 1.08l.016 1.48.018 1.659c.019.547.031 1.067.036 1.56.019.48.03.88.033 1.2l-2.509-.813-.01-1-.015-1.38a60.85 60.85 0 00-.036-1.5c-.005-.493-.017-.94-.034-1.34a32.628 32.628 0 00-.05-.899 16.278 16.278 0 00-.219-1.738l2.9-.031zm-11.273 2.601c.587-.007 1.253-.02 2-.042l2.339-.065 2.4-.065a124.63 124.63 0 012.22-.044 89.821 89.821 0 011.799-.039l1.66-.018c.6-.02 1.193-.033 1.78-.039l1.6-.017 1.14-.012.005 2.36a89.962 89.962 0 00-2.481-.034c-1.027-.015-2.28-.015-3.76 0-.907.01-1.826.033-2.759.07a178.92 178.92 0 00-5.438.218c-.853.036-1.659.084-2.419.146l-.086-2.419zm10.883 5.804c.012 1.093-.112 2.001-.371 2.724-.246.723-.627 1.273-1.142 1.652-.517.366-1.161.553-1.935.561a3.26 3.26 0 01-1.182-.228 3.82 3.82 0 01-1.128-.688 3.489 3.489 0 01-.852-1.131c-.204-.451-.31-.983-.317-1.596-.008-.76.165-1.415.519-1.966a3.663 3.663 0 011.426-1.315 4.3 4.3 0 012.015-.502c.88-.009 1.616.183 2.206.577.605.38 1.057.902 1.357 1.565.314.664.475 1.415.484 2.255a7.043 7.043 0 01-.298 2.044c-.206.709-.552 1.406-1.038 2.091-.472.672-1.119 1.285-1.94 1.841-.808.555-1.823 1.012-3.046 1.372l-2.162-2.097a15.015 15.015 0 002.372-.705 7.35 7.35 0 001.909-1.081 4.38 4.38 0 001.283-1.593c.313-.63.465-1.385.456-2.265-.007-.64-.172-1.119-.495-1.435a1.49 1.49 0 00-1.125-.468 1.63 1.63 0 00-.738.188 1.403 1.403 0 00-.575.546c-.144.241-.214.536-.21.882.005.453.162.818.471 1.095.323.263.685.393 1.085.389.32-.004.599-.107.836-.309.252-.203.415-.538.49-1.006.075-.467.001-1.093-.22-1.877l1.865.48zm16.426 2.405l-.613-6.834-.131-2.979 3.319-.036-.068 2.981-.467 6.846-2.04.022zm1.077 5.308c-.506.006-.928-.156-1.265-.486-.337-.33-.508-.748-.513-1.255-.006-.52.156-.948.486-1.285.33-.337.748-.508 1.254-.513.507-.006.929.156 1.266.486.337.33.508.755.513 1.275.006.506-.156.928-.486 1.265-.33.337-.748.508-1.255.513z" fill="#000"/></svg>