<svg width="69" height="65" fill="none" xmlns="http://www.w3.org/2000/svg"><path d="M28.798 57.127c-3.797.14-8.316-.575-12.168-1.797-2.596-.82-6.078-2.717-7.96-4.76-4.792-5.215-6.626-8.64-7.292-17.447C.8 25.518 3.156 17.4 10.93 11.296c4.896-3.846 7.252-5.622 14.002-7.685 7.457-2.277 13.13-3.084 21.096-1.609 4.168.775 10.451 4.327 12.69 6.23 7.663 6.516 8.316 11.377 8.604 19.763.096 2.911-.755 8.94-2.795 12.867-3.941 7.558-11.736 11.604-20.1 14.408a279.8 279.8 0 01-5.706 1.803 2.553 2.553 0 00-1.641 1.556c-.543 1.435-.577 3.272-.838 3.986a.355.355 0 01-.618.08c-.59-.815-2.507-2.15-5.034-4.534-.528-.5-1.085-.954-1.778-1.035h-.014z" fill="#F6E900"/><path d="M67.808 20.247c-.082-.36-.179-.713-.275-1.067-.104-.354-.235-.7-.352-1.048-.118-.347-.31-.674-.449-1.007-.138-.34-.2-.714-.358-1.048-.16-.334-.38-.634-.552-.961-.173-.327-.387-.627-.58-.948-.193-.313-.366-.64-.572-.947-.207-.3-.36-.654-.587-.948-.22-.287-.517-.527-.752-.807-.234-.28-.462-.567-.71-.84-.249-.274-.483-.555-.739-.815-.255-.26-.593-.447-.855-.7-.262-.254-.566-.468-.842-.708-.276-.24-.559-.474-.841-.707-.283-.234-.463-.588-.76-.814-.289-.227-.675-.334-.972-.548-.297-.213-.573-.46-.883-.66-.303-.207-.531-.527-.849-.721-.31-.194-.738-.214-1.062-.4-.317-.187-.531-.548-.862-.728-.325-.173-.739-.2-1.07-.367-.33-.167-.662-.32-1-.48-.338-.154-.683-.294-1.021-.44-.345-.147-.62-.434-.966-.568-.345-.133-.703-.24-1.055-.367s-.76-.08-1.111-.193a29.173 29.173 0 00-1.09-.327c-.366-.1-.69-.38-1.063-.46-.372-.08-.758-.114-1.138-.181-.372-.067-.745-.2-1.124-.254-.38-.053-.78.04-1.16 0-.379-.04-.772.054-1.151.027-.38-.027-.752-.2-1.139-.213-.386-.014-.766.06-1.152.06-.386 0-.766-.027-1.145-.02-.386 0-.766.12-1.145.133-.366.013-.738-.087-1.104-.06-.366.027-.724.154-1.09.194-.366.04-.745-.047-1.11 0-.366.046-.725.14-1.084.193-.359.06-.717.154-1.076.22-.359.067-.752.007-1.11.087-.36.073-.725.12-1.084.207-.359.08-.67.334-1.028.42-.352.087-.745.047-1.104.147-.351.094-.662.347-1.014.447-.352.1-.752.06-1.097.167-.345.107-.641.38-.986.487-.345.107-.76.027-1.104.14-.345.114-.67.287-1.014.407-.338.127-.614.414-.952.548-.338.133-.71.18-1.042.32-.331.14-.662.293-.986.447-.332.153-.704.213-1.028.38-.325.167-.538.514-.856.694-.317.174-.662.294-.973.487-.31.194-.648.354-.952.561-.303.207-.538.507-.834.72-.297.214-.642.368-.939.588-.296.22-.565.467-.855.687-.304.234-.697.367-1 .6-.304.234-.504.601-.807.842-.304.24-.566.52-.863.767-.297.247-.683.394-.966.654-.283.26-.614.474-.883.747-.255.247-.531.48-.766.741-.241.26-.448.554-.676.82-.227.268-.448.548-.669.828-.22.28-.296.654-.503.941-.207.287-.435.554-.628.848-.193.293-.545.5-.725.8-.179.3-.179.701-.345 1.008-.165.307-.434.567-.586.887-.152.314-.2.674-.338 1.001-.138.327-.22.661-.345.988-.124.327-.331.62-.441.954-.11.334-.16.68-.256 1.015-.096.333-.207.667-.29 1.007-.082.34-.296.654-.365.994-.07.34.076.721.02 1.061-.055.34-.11.681-.151 1.028-.042.347-.207.68-.235 1.028-.027.347 0 .7 0 1.047-.02.34-.186.688-.186 1.035 0 .36.069.72.076 1.074.007.36-.042.72-.02 1.081.02.36.22.707.248 1.061.027.36.02.72.055 1.074.041.354.083.715.13 1.068.05.354.077.714.132 1.068.062.354.055.72.131 1.074.076.354.207.694.29 1.041.083.347.338.654.434 1.001.097.347.035.74.145 1.081.11.34.366.634.497.974.124.334.29.654.428.988.138.334.276.66.427.988.16.327.145.727.318 1.047.172.32.386.614.572.928.187.307.394.607.6.907.2.3.428.588.642.881.228.3.587.507.814.801.235.294.47.58.718.867.248.287.434.614.69.888.255.28.4.654.669.92.269.268.586.488.869.742.283.253.683.367.98.607.29.24.42.674.73.9.304.22.69.348 1.015.554.317.207.62.441.952.635.304.173.649.273.959.433.31.16.6.36.918.5.317.148.682.18 1.007.314.324.134.635.287.966.407.33.12.627.32.959.428.33.106.683.16 1.02.253.339.093.642.314.98.394.338.087.683.167 1.028.24.345.073.71.04 1.056.1.345.067.717-.007 1.062.047.345.053.683.173 1.028.22.38.053.745.2 1.131.247.38.04.76.153 1.146.18.379.027.772.007 1.159.027.386.02.772-.194 1.159-.194.386 0 .765.1 1.152.094.303.066.586.227.848.42.242.18.56.327.78.547.228.234.428.474.641.668.242.213.407.5.649.714.241.206.517.38.766.587.248.207.517.387.758.594.408.34.835.667 1.208 1.04.048.047-.02.2.027.254.007.014.021.014.035.034.186.22.476.38.731.56.255.18.524.46.842.434.372-.027.586-.354.717-.627.124-.274.235-.594.283-.875.076-.433-.062-.894.007-1.328.07-.433.366-.82.483-1.247.117-.4.172-.781.407-1.081.235-.3.517-.574.931-.741.366-.147.8-.107 1.187-.227.38-.12.69-.467 1.076-.574.386-.107.8-.12 1.18-.24.345-.107.67-.28 1.014-.394.345-.113.724-.12 1.07-.233.344-.114.648-.347.986-.467.345-.12.676-.267 1.014-.387.338-.12.738-.107 1.076-.234.338-.127.614-.42.945-.554.338-.133.766-.06 1.097-.193.338-.14.6-.428.932-.574.33-.147.752-.107 1.083-.26.33-.154.662-.3.986-.461.325-.16.538-.527.856-.694.317-.167.641-.334.952-.507.317-.174.607-.387.917-.567.31-.187.614-.374.918-.568.303-.193.69-.266.986-.473.297-.207.6-.4.89-.614.29-.214.525-.494.808-.714.282-.227.496-.514.765-.754.27-.234.676-.334.932-.58.262-.248.455-.561.703-.815.242-.247.51-.474.738-.727.228-.26.304-.634.525-.901.22-.267.455-.514.662-.788.207-.273.573-.447.766-.727.193-.287.296-.627.476-.92.18-.294.255-.641.42-.942.166-.3.373-.574.525-.887.145-.307.359-.587.49-.908.13-.313.365-.594.483-.92.117-.32.138-.675.234-1.002.104-.333.304-.64.394-.98.096-.334-.076-.735.006-1.075.083-.34.214-.66.283-1 .076-.341.117-.688.18-1.028.062-.34.117-.681.172-1.028.055-.347.304-.66.345-1.008.041-.347-.028-.7 0-1.047s.152-.688.166-1.035c.013-.347-.076-.7-.076-1.047 0-.367.034-.741.027-1.115 0-.373.014-.74 0-1.114-.013-.374-.027-.74-.048-1.115-.02-.373-.055-.74-.09-1.114-.034-.374-.207-.727-.248-1.094-.041-.367.138-.768.083-1.135-.055-.367-.118-.74-.18-1.107-.069-.367-.213-.721-.29-1.081l.007-.02zM35.26 61.534c-.014.074.09-.026.131-.04-.035-.026-.131.04-.131.04zm30.12-26.418c-.083.334-.172.66-.269.988-.097.327-.18.66-.29.98-.11.32-.172.668-.296.982-.125.32-.345.593-.49.907-.145.314-.235.64-.393.948-.159.306-.297.62-.47.914-.172.293-.379.574-.572.86-.186.287-.449.521-.656.801-.2.28-.344.594-.558.861-.214.267-.442.514-.67.768-.227.253-.476.487-.71.734-.242.247-.407.553-.655.787-.249.234-.47.5-.732.727-.255.227-.517.454-.786.674-.27.214-.642.3-.918.508-.276.206-.469.52-.752.713-.282.194-.593.354-.883.541-.29.187-.662.247-.959.427-.303.187-.503.54-.814.714-.31.18-.731.167-1.048.334-.318.167-.552.48-.87.64-.317.16-.641.32-.965.474-.325.154-.642.314-.973.46-.324.147-.725.14-1.056.28-.33.141-.648.301-.986.435-.331.133-.6.42-.939.547-.337.127-.676.247-1.014.367-.351.127-.78.067-1.138.187-.359.12-.697.28-1.055.4-.36.12-.739.16-1.104.274-.359.113-.676.36-1.035.473-.359.114-.683.34-1.042.454-.324.1-.703.047-1.035.14-.33.094-.634.274-.952.394-.324.12-.641.24-.931.414-.29.173-.47.447-.69.707-.207.24-.469.454-.6.788-.138.367-.145.76-.228 1.134-.082.38-.29.734-.345 1.114-.055.34-.062.688-.117 1.021-.014.067-.02.167-.041.24-.09-.08-.097-.26-.187-.34-.303-.267-.593-.554-.896-.814-.31-.26-.732-.394-1.042-.654-.255-.22-.414-.547-.67-.767-.255-.227-.613-.334-.869-.56-.248-.228-.393-.568-.641-.795-.249-.227-.621-.313-.883-.514-.27-.207-.442-.567-.745-.714-.297-.147-.663-.22-1.008-.28-.082-.013-.158.16-.22.167l-.035-.094c-.372.014-.745.027-1.11.02-.373 0-.739-.12-1.111-.14-.373-.013-.752.167-1.125.14-.372-.026-.731-.14-1.103-.18-.366-.04-.732-.133-1.098-.187-.365-.053-.751 0-1.117-.06s-.718-.206-1.083-.28c-.366-.073-.731-.12-1.097-.2-.359-.08-.69-.294-1.049-.387-.359-.094-.766-.034-1.117-.134-.338-.093-.697-.153-1.035-.267-.331-.113-.621-.36-.952-.487-.331-.127-.628-.32-.952-.46-.325-.14-.621-.32-.939-.48-.317-.16-.641-.294-.945-.468a15.118 15.118 0 01-.896-.547c-.297-.193-.676-.273-.96-.487-.282-.213-.524-.474-.786-.707-.262-.234-.372-.608-.614-.861-.234-.247-.614-.374-.841-.627-.228-.254-.36-.588-.58-.848-.22-.26-.524-.46-.738-.727-.214-.267-.47-.507-.67-.788-.2-.273-.324-.607-.51-.887-.186-.287-.42-.547-.593-.834-.173-.294-.324-.6-.476-.901-.166-.314-.18-.688-.324-1.014-.138-.32-.47-.581-.587-.908-.117-.334-.22-.674-.324-1.008-.104-.333-.07-.707-.152-1.054-.083-.34-.214-.674-.283-1.014-.069-.347.021-.714-.034-1.061-.062-.347-.173-.68-.221-1.028-.048-.347-.028-.694-.069-1.04-.041-.348-.255-.675-.29-1.022-.034-.347-.014-.7-.034-1.047-.02-.348-.042-.694-.048-1.041-.014-.348.013-.695.013-1.048 0-.347.076-.694.09-1.041.014-.347-.028-.694 0-1.041s-.11-.707-.069-1.055c.034-.347.255-.673.31-1.014.049-.347-.034-.714.035-1.054.069-.34.11-.694.186-1.034.083-.34.18-.681.276-1.015.097-.333.386-.614.497-.947.11-.334.186-.668.317-.995.124-.326.242-.654.387-.974.144-.32.276-.64.434-.954.159-.314.18-.694.352-1.001.186-.32.38-.647.573-.96.2-.315.469-.588.683-.895.213-.307.565-.514.793-.808.228-.293.414-.614.655-.9.242-.28.36-.681.614-.948.256-.274.71-.36.98-.62.269-.26.448-.601.731-.855.276-.253.587-.467.876-.707.29-.24.532-.534.828-.76.27-.214.58-.381.849-.595.269-.213.476-.507.745-.72.276-.207.572-.387.848-.594.276-.207.614-.334.897-.534.283-.2.532-.44.814-.634.283-.194.649-.274.939-.46.29-.187.58-.367.876-.541.296-.173.538-.434.841-.6.31-.167.56-.448.877-.601.317-.154.669-.247.993-.387.324-.14.69-.187 1.014-.32.324-.134.683-.187 1.014-.314.331-.12.642-.287.98-.4.331-.114.593-.44.931-.548.338-.106.704-.12 1.049-.22.338-.1.683-.193 1.02-.293.339-.1.65-.3.987-.4.338-.094.683-.168 1.028-.254.338-.087.71-.074 1.049-.154.338-.08.67-.207 1.014-.28.345-.074.683-.187 1.028-.254.345-.066.69-.153 1.035-.213s.717.033 1.07-.02c.344-.054.689-.107 1.04-.154.353-.04.69-.187 1.036-.22.351-.033.717.113 1.062.093.352-.02.697-.14 1.049-.146.352-.014.703.04 1.055.04s.704-.187 1.056-.18c.352 0 .697.233 1.048.246.352.014.704-.06 1.056-.04.352.027.704.014 1.055.047.352.033.676.254 1.021.3.352.047.739-.146 1.084-.086.345.06.676.226 1.014.3.345.073.703.093 1.041.18.339.087.649.294.98.4.352.114.752.114 1.104.247.352.127.71.234 1.055.374.345.14.628.427.966.574.338.153.76.153 1.09.32.331.16.559.534.883.708.331.173.738.206 1.063.387.324.18.53.547.848.734.318.193.628.387.939.587.31.2.758.213 1.062.42.303.214.607.434.897.66.296.221.614.428.897.661.282.234.572.481.841.728.276.247.435.614.697.874.262.26.497.54.745.814.248.274.545.507.78.787.234.287.53.528.745.828.214.3.255.707.448 1.014.2.307.462.58.635.895.18.32.303.66.462.994.159.327.476.594.614.934.131.34.228.7.331 1.048.11.347 0 .747.09 1.1.083.361.255.701.317 1.062.07.36.228.714.283 1.08.048.368.035.741.07 1.108.034.367 0 .741.02 1.108.027.367-.062.74-.042 1.108.021.367.138.734.152 1.1.014.368-.069.742-.062 1.109.014.34.283.674.283 1.014 0 .34-.062.68-.083 1.02-.02.341-.014.688-.048 1.022-.035.34-.07.68-.11 1.02-.042.341-.297.648-.352.982-.056.333-.014.687-.076 1.02-.07.334-.242.648-.318.982-.076.333-.138.667-.22.994l.034.04z" fill="#000001"/><path d="M30.24 14.698h7.58l10.88 26.4h-8.26l-1.68-4.58h-9.42l-1.7 4.58h-8.28l10.88-26.4zm1.7 15.1h4.22l-2.08-5.82h-.06l-2.08 5.82z" fill="#000"/></svg>