<svg width="107" height="98" fill="none" xmlns="http://www.w3.org/2000/svg"><path d="M56.533 78.131c39.233 11.132 60.768-27.883 41.586-34.537 5.324-4.36 11.522-31.669-17.103-39.709-28.607-8.027-56.632 4.36-57.209 20.899-29.79 1.604-31.572 44.976 8.255 49.798 0 0 14.452 6.654 24.471 3.554v-.005z" fill="#fff"/><path d="M55.939 74.351c4.45 4.73-2.354 9.41-11.796 8.49-9.443-.925-17.103-6.013-11.5-12.17" fill="#fff"/><path d="M55.939 74.312c.135-.078.415-.126.706-.126.28.013.61.078.723.257.213.257.69.833.958 1.243.118.152.135.31.146.436.011.126 0 .257.034.383.033.166.117.244.145.397.034.105.135.41.163.733.017.091.017.165.033.244v.218c0 .14 0 .244-.016.31-.017.104-.05.204-.101.309-.101.231-.196.462-.28.693-.101.218-.213.436-.382.615-.1.091-.212.192-.313.296-.034.04-.068.079-.101.114-.28.331-.628.64-.987.937a5.05 5.05 0 01-.543.41c-.196.127-.398.257-.594.37-.196.114-.381.258-.56.385a3.16 3.16 0 01-.611.357c-.213.105-.443.153-.695.205-.247.052-.476.105-.706.166a3.05 3.05 0 01-.695.152c-.247.04-.476.079-.706.127-.443.113-.807.501-1.283.575-.494.066-1.02-.052-1.485-.013-.247.026-.477 0-.723-.013-.23-.013-.477-.026-.706-.026-.477.026-.942.166-1.418.153-.477-.027-.942-.14-1.401-.192-.493-.04-.942-.114-1.384-.18-.46-.078-.942-.012-1.384-.104-.28-.052-.135.013-.398-.065-.196-.04-.415-.092-.628-.127-.426-.065-.874-.178-1.317-.27-.426-.105-.857-.205-1.3-.331-.426-.114-.925-.14-1.35-.297-.426-.157-.757-.436-1.172-.615a4.482 4.482 0 01-.56-.322c-.18-.114-.364-.231-.56-.332-.382-.192-.987-.178-1.385-.41a2.363 2.363 0 01-.493-.449c-.145-.165-.28-.344-.46-.475-.363-.283-.576-.654-.873-.963-.314-.323-.757-.563-1.004-.925-.263-.37-.347-.78-.51-1.168a4.879 4.879 0 01-.347-1.204c-.05-.257-.1-.501-.162-.745a1.302 1.302 0 01-.068-.358.878.878 0 010-.296c.05-.232.034-.463.05-.68.018-.219.034-.437.135-.629a6.51 6.51 0 01.891-1.334c.381-.436.628-.68.858-.998.398-.463 1.266-.284 1.546-.114.297.166.858.755.578 1.077-.101.127-.146.297-.18.476-.033.178-.033.37-.084.562-.067.31-.196.528-.23.872-.016.079-.033.218-.05.331-.017.066-.034.114-.034.153-.016.04-.016.066-.016.066-.034.152-.101.31-.084.462 0 .244-.017.501.05.754.067.231-.017.514.118.767.117.245.196.502.38.746.18.231.348.475.578.706.23.218.493.423.756.628.135.105.314.166.493.231.18.053.365.114.51.205.297.18.477.463.79.615.146.092.331.153.494.218.162.079.33.14.493.205.33.153.594.384.941.515.365.126.84.026 1.188.126.348.113.611.45.97.55.38.091.84-.04 1.205.039.196.039.398.091.594.126v.013c.117.026.23.066.347.079.381.052.773.126 1.188.178.381.04.757.205 1.171.231.381.04.774.092 1.188.105.381 0 .79.026 1.188.013.196 0 .398-.026.594-.039.196-.013.398-.026.594-.052.381-.04.723-.297 1.104-.345.364-.065.774.013 1.121-.078.18-.04.347-.105.51-.153.163-.052.33-.113.493-.166.163-.052.347-.078.527-.113.18-.026.364-.065.51-.126.33-.127.46-.489.723-.628.134-.079.313-.105.493-.14.18-.035.364-.078.476-.165.017-.027.05-.053.067-.079.017-.026.05-.052.068-.091l.033-.053c.05-.091.084-.179.118-.27a.624.624 0 01.134-.218c.118-.092.18-.192.28-.297 0 0 .034-.013.085-.052.05-.026.117-.079.196-.127.134-.113.28-.27.297-.396 0-.066 0-.114-.017-.179.034-.105.1-.192.135-.297.084-.244.162-.475.179-.719a.422.422 0 000-.205c-.017-.065-.034-.126-.05-.192-.034-.113-.102-.23-.102-.357-.016-.31-.016-.641-.179-.846-.246-.323.05-.78.348-.999l-.006.009z" fill="#000"/><path d="M36.376 85.003c-3.905-1.421-6.937-.998-8.45.092-2.107 1.5-1.334 4.295 4.007 5.206 6.707 1.156 10.658-3.026 4.449-5.293l-.006-.005z" fill="#fff"/><path d="M31.781 90.301c.05-.179.46-.576.757-.54.118.013.314.013.51.013.213-.014.414-.027.577-.053.246-.052.415.052.594.04.118-.014.18-.053.28-.066.163-.013.79-.231.925-.257.067 0 .117-.013.18-.026.313-.027.543-.18.79-.218a6.38 6.38 0 00.229-.04l.084-.026c.118-.052.213-.091.314-.14.117-.039.196-.104.297-.152.18-.113.33-.231.46-.358.134-.113.117-.296.162-.396.045-.1.23-.192.213-.323 0-.113.084-.257 0-.397-.067-.152-.426-.165-.527-.283-.084-.066-.1-.153-.146-.244a.596.596 0 00-.196-.244c-.095-.066-.18-.153-.263-.232-.101-.078-.18-.152-.297-.218-.247-.113-.544-.14-.79-.23-.23-.105-.477-.258-.74-.358-.28-.092-.544-.192-.807-.27-.28-.08-.594-.066-.857-.114-.18-.04-.084 0-.247-.052a3.184 3.184 0 00-.381-.066c-.135-.026-.263-.026-.398-.039a4.405 4.405 0 00-.414-.026h-.398c-.135 0-.264.013-.398.013-.264.026-.493.14-.74.179-.23.039-.51-.013-.74.052-.23.066-.476.079-.695.166-.1.052-.145.152-.196.244-.05.105-.084.192-.145.244-.068.066-.18.092-.28.127-.085.052-.18.091-.247.152-.034.079-.101.127-.18.192a.54.54 0 00-.145.205c-.028.078 0 .153.017.231.033.079.067.153.067.218a.536.536 0 010 .231.59.59 0 00.05.244c.084.153.163.323.314.463.05.052.101.091.146.126l.18.105c.083.039.145.065.178.091.05.04.101.052.146.092.101.078.213.126.348.178.134.04.263.092.364.153.117.092.28.166.426.257.146.079.297.166.426.231.347.166.543.258.84.31.426.092.476.602.426.807-.05.205-.426.654-.874.562-.33-.065-.757-.026-1.25-.091-.18-.014-.347-.079-.527-.127-.162-.065-.347-.105-.577-.179-.1-.026-.28-.104-.426-.165-.084-.04-.145-.066-.196-.092-.05-.026-.084-.04-.084-.04-.18-.113-.364-.23-.56-.344-.163-.091-.297-.204-.443-.322-.067-.066-.146-.114-.213-.179l-.196-.192c-.263-.244-.398-.588-.577-.898-.067-.153-.146-.323-.196-.488l-.101-.528c0-.179-.017-.344 0-.528.034-.178.067-.357.118-.527.067-.166.134-.332.196-.502.1-.152.196-.31.297-.462.117-.14.196-.296.297-.462.1-.153.23-.297.38-.423a2.83 2.83 0 01.51-.27c.18-.066.365-.14.527-.218.348-.153.678-.323 1.037-.423.381-.114.774-.105 1.12-.153.365-.052.707-.27 1.071-.283.196 0 .381.052.56.091.18.053.365.105.527.114.18.013.365-.013.544-.04.18-.026.364-.052.527-.026.196.026.38.066.56.092v.013c.101.026.196.052.297.065.348.053.678.153 1.02.231.347.079.628.27.958.358.314.105.611.231.942.358.313.113.627.27.941.422.146.079.314.166.46.245.162.091.313.192.46.283.145.105.313.192.492.27.163.092.348.192.477.323.246.27.364.602.51.924.179.323.313.694.313 1.051 0 .37-.213.72-.364 1.038-.1.166-.134.344-.196.514-.05.18-.146.345-.28.476-.135.14-.348.23-.527.31a4.705 4.705 0 00-.544.217l-.1.079c-.05.026-.084.065-.118.091l-.067.04c-.196.152-.381.331-.611.41-.196.078-.398.126-.577.178 0 0-.196.026-.443.04-.23.026-.527.039-.706.091-.084.013-.163.052-.247.079-.162.013-.313.026-.476.026-.18 0-.364-.013-.544-.013a38.784 38.784 0 01-.51-.04c-.38-.039-.722.014-1.02-.065-.397-.079-.694-.231-.969-.257-.443-.066-.594-.436-.695-.654v.004z" fill="#000"/><path d="M26.985 92.35c-3.032-1.103-5.375-.78-6.54.066-1.63 1.169-1.02 3.323 3.099 4.025 5.172.898 8.237-2.333 3.446-4.09h-.005z" fill="#fff"/><path d="M23.544 96.453c.067-.178.398-.601.627-.562h.381c.146 0 .314-.026.426-.052.196-.053.314.052.443.039.084 0 .117-.04.196-.052.118-.014.577-.205.678-.232.05-.013.084-.026.135-.026.212-.013.38-.152.56-.165.05 0 .118 0 .162-.014l.05-.013c.068-.039.147-.065.214-.104l.196-.114c.118-.078.213-.165.297-.244.084-.091.017-.218.05-.27.017-.066.163-.092.163-.166-.017-.065.084-.152.034-.244-.034-.105-.365-.065-.426-.14a.603.603 0 01-.068-.178c-.033-.066-.05-.14-.117-.18-.084-.038-.118-.104-.18-.165a.585.585 0 00-.196-.165c-.18-.079-.426-.079-.61-.14-.163-.079-.348-.218-.544-.297-.213-.065-.415-.152-.61-.204-.197-.053-.444-.027-.645-.066-.135-.04-.068.013-.18-.04a1.708 1.708 0 00-.28-.051c-.196-.014-.398-.04-.594-.04h-.297c-.1 0-.196.014-.297.014-.18.013-.364.126-.527.152-.162.026-.364-.04-.526.013-.146.04-.348.026-.494.092-.084.026-.1.113-.117.192-.017.091-.017.152-.067.191-.034.04-.118.053-.197.066-.067.013-.145.04-.179.078-.017.053-.067.079-.134.114a.547.547 0 00-.118.126c-.017.052.017.105.034.153.033.039.067.091.067.126.017.04 0 .092-.017.14 0 .052 0 .104.017.152.067.105.117.218.213.323.033.04.05.065.1.091l.135.066a.69.69 0 01.135.065c.033.027.067.04.1.066a.482.482 0 00.247.126c.1.022.196.052.263.105.084.078.197.14.297.205.101.065.197.14.297.192.247.14.415.218.628.257.33.065.33.562.28.767-.067.205-.398.667-.74.589-.263-.052-.627.013-1.02-.026-.313-.04-.543-.14-.907-.231-.084-.026-.23-.092-.365-.14-.134-.052-.23-.105-.23-.105-.145-.104-.28-.204-.442-.296-.134-.078-.246-.179-.364-.27l-.18-.14-.162-.166c-.23-.204-.314-.501-.46-.754-.067-.14-.134-.27-.162-.41a3.964 3.964 0 01-.084-.436 1.892 1.892 0 010-.436c.034-.14.067-.296.1-.436.051-.126.102-.27.163-.41l.247-.383c.1-.114.162-.245.23-.384.067-.127.162-.257.297-.358.117-.091.28-.152.425-.218.146-.052.314-.104.443-.165.28-.127.544-.27.84-.345.298-.091.628-.065.909-.104.297-.04.56-.245.857-.258.314-.013.61.166.874.192.28.013.577-.126.858-.091l.442.078v.013c.084.013.163.04.247.052.28.04.543.127.824.192.263.066.476.231.74.31.246.091.476.192.739.296.247.092.493.232.74.345.134.065.246.126.38.192.135.065.264.14.382.218.117.078.263.14.414.205.152.065.297.152.415.257.213.218.28.514.415.78.134.27.263.576.263.886 0 .322-.196.614-.33.885-.084.126-.101.296-.146.436-.05.14-.118.283-.23.397-.134.113-.297.178-.46.244-.179.052-.33.104-.459.165l-.084.066c-.034.026-.05.052-.084.078l-.05.04c-.146.126-.28.283-.477.344a4.593 4.593 0 01-.46.14s-.162 0-.363.012c-.202.014-.426.027-.578.066-.067.026-.134.052-.196.078-.134.014-.263.014-.398.014a5.74 5.74 0 01-.857-.066c-.297-.04-.56 0-.807-.065-.297-.079-.544-.218-.756-.244-.348-.053-.443-.41-.382-.615l-.016-.005zM23.23 24.27c.314.126.493.296.51.422.017.127-.163.358-.443.563-.28.205-.661.37-1.07.436-.645.065-2.012.331-2.802.628-.33.104-.594.152-.84.204-.247.053-.477.079-.707.153-.28.105-.426.192-.678.297-.18.065-.678.31-1.154.549-.477.257-.942.515-1.121.602-.146.078-.297.165-.46.23-.773.332-1.35.834-1.995 1.182-.196.092-.364.218-.56.323-.067.04-.134.092-.196.126-.544.397-1.07.833-1.58 1.296-.477.449-.959.924-1.401 1.421-.443.475-.706 1.05-1.104 1.578-.381.502-.908.973-1.239 1.526-.33.55-.756 1.064-1.036 1.64-.264.562-.146 1.243-.365 1.823-.23.601-.66 1.168-.823 1.77-.101.31-.197.602-.314.911a4.408 4.408 0 00-.264.911c-.067.31-.067.628-.067.95v.476c0 .153 0 .31-.017.462-.033.323-.1.641-.145.95-.05.324-.101.629-.101.938a23.68 23.68 0 00.017 1.897c.033.641.28 1.256.347 1.87.067.384.067.18.1.55.035.297.085.576.163.872.146.589.314 1.19.51 1.797.101.283.197.575.314.872.118.296.23.588.348.885.134.296.297.562.46.846.162.283.363.549.492.846.28.549.415 1.168.757 1.73.084.14.162.284.23.423.084.14.145.284.23.423.145.297.296.576.492.846.382.54 1.138.898 1.547 1.409.23.27.398.549.577.832.18.284.381.563.611.807.493.501.874 1.064 1.401 1.526.263.244.577.436.891.641.314.205.61.41.908.615.577.449 1.104.95 1.698 1.347.314.205.627.397.941.602.33.192.645.384.958.562.398.245.841.41 1.25.602.28.127.51.205.628.257.18.079.347.153.493.231.381.205.773.332 1.171.476.196.065.398.126.577.205.18.065.365.14.544.218.426.205.908.423 1.367.601.46.192.908.384 1.3.528.987.397 1.614.563 2.388.754 1.17.245 1.485.999 1.4 1.27-.083.27-.907.806-2.011.575-.415-.105-.874-.153-1.384-.218-.51-.053-1.054-.14-1.631-.258-.46-.091-.857-.218-1.267-.33a25.294 25.294 0 00-.66-.193c-.214-.078-.46-.152-.724-.23-.23-.08-.678-.219-1.036-.358-.365-.153-.678-.27-.678-.27-.23-.105-.46-.206-.695-.31-.23-.105-.46-.218-.695-.323a14.814 14.814 0 01-1.121-.54c-.364-.193-.757-.384-1.12-.59a14.334 14.334 0 01-1.02-.653c-.331-.231-.645-.476-1.004-.694-.661-.436-1.3-.924-1.944-1.408a11.21 11.21 0 01-.925-.733 27.905 27.905 0 01-.89-.767A24.94 24.94 0 017.846 65.1c-.263-.27-.577-.515-.89-.768-.298-.257-.611-.514-.858-.806-.46-.563-.773-1.204-1.171-1.784-.213-.283-.415-.575-.628-.872-.213-.296-.426-.588-.594-.885-.38-.602-.56-1.269-.874-1.87-.146-.323-.381-.602-.594-.899-.213-.296-.415-.588-.544-.898-.246-.654-.179-1.36-.364-1.988a7.824 7.824 0 00-.426-.95 9.8 9.8 0 01-.23-.476 2.202 2.202 0 01-.145-.475c-.067-.358-.146-.72-.196-1.064h.016c-.033-.205-.05-.397-.1-.602-.118-.667-.163-1.347-.23-2.05-.067-.68.067-1.373.067-2.062-.017-.33.017-.667.05-1.011.017-.345.068-.693.101-1.038l.05-.501c.034-.18.051-.345.085-.515.05-.344.118-.68.18-1.025.066-.33.117-.68.195-1.011.079-.331.146-.68.247-1.012.18-.667.146-1.386.398-2.062.23-.654.678-1.243.97-1.858.296-.627.576-1.268.94-1.87a9.4 9.4 0 01.645-.885c.247-.284.476-.563.695-.846.23-.297.381-.615.544-.938.162-.31.347-.627.594-.898.263-.27.594-.514.924-.745a7.66 7.66 0 00.958-.694c.084-.065.135-.126.197-.192a2.22 2.22 0 00.196-.218c.033-.039.084-.078.117-.113.163-.205.348-.384.527-.575.18-.18.364-.371.594-.515.364-.244.706-.501 1.087-.72 0 0 .398-.178.891-.41.51-.204 1.104-.488 1.502-.693.18-.104.348-.204.51-.322a68.4 68.4 0 011.07-.397c.426-.153.858-.27 1.267-.397.415-.113.824-.205 1.222-.31.459-.104.89-.204 1.3-.322.414-.105.806-.179 1.204-.231 1.003-.113 1.878-.092 2.59-.166a3.13 3.13 0 011.3.105l-.006.004zm38.604 55.083c.068-.245.908-.746 1.614-.628a18.6 18.6 0 002.539.14c.594 0 .958.139 1.4.152.264 0 .427-.026.679-.026.18 0 .678-.04 1.188-.079.493-.039 1.003-.104 1.188-.104h.493c.381 0 .757-.027 1.12-.066.382-.04.724-.091 1.071-.078.196 0 .415.013.61 0 .085 0 .147-.013.23-.013.315-.04.645-.079.97-.114.314-.052.661-.091.986-.14.331-.038.645-.113.97-.165.162-.026.33-.065.493-.092.162-.039.33-.065.493-.104.628-.114 1.222-.397 1.86-.55.611-.152 1.3-.191 1.928-.383.297-.092.628-.166.942-.244.33-.079.661-.153.958-.27.297-.114.56-.297.807-.476.246-.192.493-.384.79-.501.61-.258 1.317-.358 1.894-.641.297-.14.594-.258.908-.384.314-.127.61-.244.891-.397.297-.166.544-.344.79-.54.247-.197.493-.371.757-.541.543-.345 1.154-.602 1.664-.964.263-.166.51-.357.773-.54.247-.18.51-.358.74-.55.51-.384.857-.859 1.317-1.243.28-.244.1-.14.398-.357.213-.166.426-.358.627-.563.197-.191.398-.396.594-.614.197-.205.398-.423.594-.641.382-.423.74-.86 1.104-1.308.163-.218.314-.45.443-.694.135-.244.264-.488.426-.72.33-.435.807-.832 1.104-1.307.146-.231.314-.45.493-.68a4.17 4.17 0 00.476-.694c.129-.244.163-.514.197-.78.016-.27.05-.54.162-.78.23-.502.678-.951.874-1.448.196-.515.527-.999.678-1.513.084-.258.101-.528.118-.794a6.01 6.01 0 01.084-.78c.034-.14.067-.27.101-.397l.101-.384c.084-.257.145-.514.162-.767a16.33 16.33 0 00.084-1.566c0-.322-.067-.627-.134-.937-.051-.205-.101-.37-.118-.45-.017-.126-.05-.243-.067-.357-.067-.575-.398-1.077-.51-1.565a8.899 8.899 0 00-.661-1.797c-.297-.64-.594-.985-.987-1.373a.987.987 0 01-.313-.436.941.941 0 01-.084-.423c0-.27.134-.514.246-.615.135-.113.426-.218.807-.218.179 0 .398.026.594.092.196.078.398.179.56.331.494.475 1.267.938 1.878 1.653.476.562.739 1.064 1.137 1.81.101.165.23.488.331.754a7.1 7.1 0 01.162.514c.034.179.085.37.118.55.034.178.067.357.118.549.067.296.101.589.134.898.017.31.051.615.068.924.033.602-.135 1.204-.18 1.81a5.37 5.37 0 01-.117.885c-.034.153-.051.297-.084.45-.017.152-.051.296-.085.448-.05.297-.117.576-.196.872-.078.297-.162.576-.246.872a20.977 20.977 0 01-.544 1.718c-.213.563-.196 1.182-.459 1.744-.135.27-.297.515-.477.768-.162.257-.347.501-.493.754-.28.528-.543 1.064-.857 1.566-.331.514-.807.95-1.155 1.434-.179.244-.297.528-.414.794-.135.283-.247.549-.443.78-.415.488-1.07.82-1.502 1.256-.23.23-.38.501-.543.754-.146.27-.314.528-.544.733-.263.23-.493.475-.756.693l-.017-.013c-.146.126-.297.244-.443.384-.476.436-1.003.846-1.547 1.281-.246.218-.543.397-.84.576-.297.179-.594.37-.874.563-.527.396-1.138.732-1.732 1.116-.297.178-.594.344-.89.527-.315.166-.612.345-.926.515-.297.165-.594.331-.907.501a16.1 16.1 0 01-.942.489c-.627.31-1.154.767-1.827 1.064-.33.126-.678.23-1.02.33-.347.106-.694.193-1.02.31-.33.127-.66.245-.986.371a12.42 12.42 0 01-1.003.345c-.695.218-1.434.283-2.107.462-.706.165-1.317.562-2.028.693-.723.153-1.52.013-2.208.113-.084.013-.163.04-.247.053-.1.026-.18.052-.28.078-.05.013-.101.013-.146.026-.476.127-.958.284-1.434.323-.197.026-.398.04-.594.052-.197.013-.398.013-.594.026 0 0-.382-.039-.858-.065-.476-.04-1.053-.065-1.451-.04-.163.014-.348.027-.527.053-.33-.026-.661-.04-.97-.065-.397-.04-.756-.079-1.12-.114-.364-.039-.706-.091-1.037-.14-.38-.051-.756-.078-1.12-.104a11.825 11.825 0 01-1.02-.14c-.415-.078-.774-.191-1.121-.283a8.075 8.075 0 00-.959-.218c-.941-.152-1.35-.693-1.266-.985l-.006.009zm37.21-35.863c-.46.204-.79.23-.908.139-.118-.092-.135-.41-.067-.767.016-.192.05-.397.134-.602.084-.205.146-.436.297-.641.118-.14.23-.37.364-.615.068-.126.135-.257.197-.397.05-.14.117-.283.179-.436.067-.152.118-.296.18-.449.05-.153.1-.296.145-.449.1-.297.196-.576.246-.833.197-.78.494-1.255.645-1.831.084-.358.067-.576.134-.911.051-.231.118-.912.163-1.592.033-.68.05-1.373.084-1.617.017-.218.033-.436.067-.655.034-.27.067-.527.067-.78-.016-.257-.016-.515-.016-.754 0-.502-.051-.973-.017-1.448.017-.27.033-.54.033-.82 0-.104-.016-.205-.016-.31a26.155 26.155 0 00-.348-2.703c-.101-.436-.179-.872-.28-1.32-.118-.437-.247-.886-.364-1.335-.135-.436-.33-.859-.51-1.282a5.276 5.276 0 00-.297-.628 5.461 5.461 0 01-.297-.64c-.163-.424-.33-.847-.493-1.27-.101-.205-.18-.423-.264-.64-.084-.219-.213-.424-.33-.628-.443-.807-.891-1.627-1.469-2.425-.313-.37-.689-.706-1.087-1.038-.398-.33-.84-.627-1.171-.985-.347-.37-.678-.732-1.02-1.103-.162-.179-.33-.37-.51-.55-.18-.178-.398-.344-.594-.5-.196-.167-.415-.332-.61-.502-.197-.17-.399-.345-.611-.502a27.312 27.312 0 00-1.3-.924c-.477-.284-1.004-.502-1.502-.746-.264-.113-.493-.244-.757-.344-.246-.114-.51-.218-.756-.332-.264-.113-.51-.244-.757-.37l-.364-.192c-.118-.065-.247-.113-.381-.179-.51-.23-1.02-.462-1.547-.667a9.543 9.543 0 00-.824-.296c-.28-.092-.543-.18-.823-.27-.56-.18-1.087-.371-1.648-.515-.594-.166-1.188-.284-1.765-.41-.594-.105-1.171-.205-1.732-.332-.706-.165-.347-.052-1.02-.218-.543-.104-1.07-.218-1.63-.31-.56-.104-1.138-.165-1.715-.256-.577-.079-1.171-.166-1.765-.218a77.752 77.752 0 00-1.732-.18c-.577-.038-1.171-.078-1.765-.112-.577-.053-1.171-.014-1.748-.014-.28 0-.578.014-.875.014-.297 0-.594.013-.89.013-.561 0-1.155-.053-1.732-.066a39.522 39.522 0 00-1.765-.013c-1.155.079-2.343.026-3.508.166a9.907 9.907 0 00-.858.14c-.28.06-.56.139-.84.217a19.39 19.39 0 01-1.681.41c-.595.105-1.189.14-1.783.218-.593.079-1.17.153-1.748.27a41.61 41.61 0 01-1.748.371c-.578.114-1.138.27-1.698.423l-.426.127-.415.152c-.28.105-.543.218-.807.323-.527.218-1.037.462-1.563.654-.28.104-.544.192-.824.296-.263.105-.544.205-.807.31a20.01 20.01 0 00-.807.296c-.246.114-.51.232-.756.345-.264.113-.51.244-.774.357-.263.127-.51.258-.756.384-.493.257-.987.502-1.452.78-.297.166-.577.345-.857.528-.28.179-.527.37-.79.563-.33.257-.611.462-.74.562-.196.153-.415.31-.61.45-.494.33-.908.719-1.318 1.09-.425.37-.773.754-1.188 1.09-.117.104-.246.204-.38.322-.118.113-.247.231-.365.345-.247.23-.51.462-.74.693-.23.244-.442.475-.66.693-.102.105-.214.218-.315.323-.084.113-.179.218-.263.322-.213.27-.415.502-.594.72-.163.23-.297.436-.443.64-.134.206-.263.398-.398.59-.117.204-.213.41-.33.614-.348.628-.706 1.051-1.087 1.308-.381.258-.74.345-.908.31-.18-.04-.415-.284-.527-.667a2.036 2.036 0 01.18-1.553c.117-.244.23-.488.33-.745.118-.257.23-.515.364-.794.23-.562.56-1.142.942-1.77.313-.488.66-.898 1.003-1.347.364-.436.756-.872 1.238-1.409.23-.244.661-.667 1.037-1.024.18-.179.38-.332.51-.45l.213-.191c.263-.205.543-.436.823-.641.28-.205.578-.423.858-.641.443-.358.958-.667 1.451-.999.493-.344 1.02-.64 1.547-.963.493-.323 1.037-.576 1.597-.833.28-.127.56-.27.84-.397.28-.113.561-.244.841-.384.28-.126.544-.257.824-.383.28-.114.577-.231.857-.345.28-.113.578-.23.858-.344.28-.114.577-.218.874-.332.577-.218 1.154-.449 1.748-.627.297-.105.594-.192.891-.297l.443-.14.46-.126c.593-.166 1.188-.357 1.798-.527.611-.153 1.239-.323 1.844-.476.61-.126 1.205-.31 1.81-.488a21.25 21.25 0 011.86-.436c.611-.114 1.25-.153 1.861-.205l.925-.079.924-.078c1.239-.14 2.471-.27 3.693-.344 1.25-.04 2.488.026 3.71.052.314 0 .628-.013.941-.04.314-.012.628-.039.942-.052.61-.039 1.238-.091 1.843-.039a17.04 17.04 0 011.844.27c.61.114 1.205.258 1.799.323.314.04.627.065.941.078.314.014.628.04.942.053.627.04 1.238.052 1.827.166.66.126 1.3.244 1.944.37v.013c.364.066.706.166 1.07.244.611.127 1.222.258 1.827.41.611.166 1.222.332 1.844.489.594.14 1.171.383 1.765.588.297.105.594.218.891.323.297.105.594.205.891.323.577.218 1.155.449 1.732.68.145.065.28.113.426.179l.414.204c.28.127.56.27.84.397.264.127.544.257.825.384.263.126.526.296.79.436.527.296 1.07.576 1.597.898.493.323.986.641 1.502.964.246.152.493.331.723.514.23.18.476.358.706.541.23.183.493.331.723.514.23.18.46.345.706.528.476.358.986.706 1.367 1.13.381.41.757.806 1.07 1.242.314.436.628.859.959 1.269.644.859 1.317 1.705 1.81 2.59.134.218.263.449.381.68.101.244.196.475.297.706.196.463.414.925.577 1.387.179.475.476.911.706 1.373.23.45.459.912.611 1.374.134.488.162.985.213 1.474.05.488.033.972.134 1.434.017.114.051.218.084.332.034.113.068.244.101.37.017.066.017.14.034.205.101.323.196.654.28.973.084.33.134.654.146.972l.05.78v.768s0 .113-.034.322c-.016.205-.05.489-.1.794-.084.615-.18 1.373-.213 1.897 0 .244 0 .475.016.72-.067.435-.162.871-.246 1.281-.101.515-.247.998-.364 1.474-.135.475-.297.937-.426 1.373-.18.515-.331.999-.477 1.474-.162.475-.297.924-.526 1.334-.527 1.051-1.205 1.91-1.665 2.656-.38.588-.89.985-1.35 1.216l.017-.022z" fill="#000"/><path d="M25.27 44.48h6.77v.91a7.61 7.61 0 01-.47 2.7 6.472 6.472 0 01-1.36 2.18 6.157 6.157 0 01-2.12 1.45c-.827.347-1.753.52-2.78.52-1.06 0-2.017-.173-2.87-.52a6.405 6.405 0 01-2.18-1.45 6.575 6.575 0 01-1.4-2.18 7.468 7.468 0 01-.48-2.7c0-.96.16-1.853.48-2.68a6.442 6.442 0 011.4-2.18 6.405 6.405 0 012.18-1.45c.853-.347 1.81-.52 2.87-.52.96 0 1.79.103 2.49.31.7.207 1.29.477 1.77.81.48.327.873.68 1.18 1.06.307.373.55.727.73 1.06l-3.72 1.68c-.187-.32-.463-.62-.83-.9-.36-.28-.9-.42-1.62-.42a2.708 2.708 0 00-2.1.96 3.2 3.2 0 00-.59 1.03c-.133.387-.2.8-.2 1.24 0 .447.067.867.2 1.26.14.387.337.73.59 1.03.253.293.557.523.91.69.36.167.757.25 1.19.25.347 0 .657-.023.93-.07.28-.053.517-.13.71-.23.2-.107.357-.237.47-.39.12-.16.197-.343.23-.55h-2.38v-2.9zm12.072.91c0 .593.12 1.137.36 1.63.24.487.577.877 1.01 1.17.433.287.94.43 1.52.43.587 0 1.096-.143 1.53-.43a2.97 2.97 0 001.01-1.17c.24-.493.36-1.037.36-1.63s-.12-1.133-.36-1.62a2.971 2.971 0 00-1.01-1.17c-.434-.293-.944-.44-1.53-.44-.58 0-1.087.147-1.52.44a2.97 2.97 0 00-1.01 1.17 3.613 3.613 0 00-.36 1.62zm-4.04 0c0-.96.173-1.853.52-2.68a6.726 6.726 0 011.47-2.18 6.76 6.76 0 012.2-1.45 7.16 7.16 0 012.74-.52c1 0 1.92.173 2.76.52.847.347 1.58.83 2.2 1.45a6.471 6.471 0 011.45 2.18c.346.827.52 1.72.52 2.68 0 .967-.167 1.867-.5 2.7a6.551 6.551 0 01-1.43 2.18 6.514 6.514 0 01-2.19 1.45c-.847.347-1.784.52-2.81.52-1.053 0-2.007-.173-2.86-.52a6.404 6.404 0 01-2.18-1.45 6.573 6.573 0 01-1.4-2.18 7.332 7.332 0 01-.49-2.7zm19.157 0c0 .593.12 1.137.36 1.63.24.487.577.877 1.01 1.17.433.287.94.43 1.52.43.587 0 1.097-.143 1.53-.43a2.97 2.97 0 001.01-1.17c.24-.493.36-1.037.36-1.63s-.12-1.133-.36-1.62a2.971 2.971 0 00-1.01-1.17c-.433-.293-.943-.44-1.53-.44-.58 0-1.087.147-1.52.44a2.97 2.97 0 00-1.01 1.17 3.613 3.613 0 00-.36 1.62zm-4.04 0c0-.96.173-1.853.52-2.68a6.726 6.726 0 011.47-2.18 6.76 6.76 0 012.2-1.45 7.16 7.16 0 012.74-.52c1 0 1.92.173 2.76.52.847.347 1.58.83 2.2 1.45a6.471 6.471 0 011.45 2.18c.347.827.52 1.72.52 2.68 0 .967-.167 1.867-.5 2.7a6.551 6.551 0 01-1.43 2.18 6.514 6.514 0 01-2.19 1.45c-.847.347-1.783.52-2.81.52-1.053 0-2.007-.173-2.86-.52a6.404 6.404 0 01-2.18-1.45 6.573 6.573 0 01-1.4-2.18 7.332 7.332 0 01-.49-2.7zm15.457-6.59h4.56c1.407 0 2.577.283 3.51.85a5.314 5.314 0 012.12 2.33c.474.993.71 2.13.71 3.41 0 1.287-.236 2.427-.71 3.42a5.375 5.375 0 01-2.12 2.34c-.933.567-2.103.85-3.51.85h-4.56V38.8zm3.87 3.41v6.38h.34c.554 0 1.02-.14 1.4-.42.38-.28.67-.66.87-1.14.2-.487.3-1.027.3-1.62 0-.6-.1-1.14-.3-1.62a2.537 2.537 0 00-.87-1.15c-.38-.287-.846-.43-1.4-.43h-.34zm10.692 10.03a2.06 2.06 0 01-1.51-.63 2.06 2.06 0 01-.63-1.51c0-.593.21-1.1.63-1.52.42-.42.924-.63 1.51-.63.593 0 1.1.21 1.52.63.42.42.63.927.63 1.52 0 .587-.21 1.09-.63 1.51-.42.42-.927.63-1.52.63zm5.977 0a2.06 2.06 0 01-1.51-.63 2.06 2.06 0 01-.63-1.51c0-.593.21-1.1.63-1.52.42-.42.923-.63 1.51-.63.593 0 1.1.21 1.52.63.42.42.63.927.63 1.52 0 .587-.21 1.09-.63 1.51-.42.42-.927.63-1.52.63zm5.976 0a2.06 2.06 0 01-1.51-.63 2.06 2.06 0 01-.63-1.51c0-.593.21-1.1.63-1.52.42-.42.924-.63 1.51-.63.594 0 1.1.21 1.52.63.42.42.63.927.63 1.52 0 .587-.21 1.09-.63 1.51-.42.42-.926.63-1.52.63z" fill="#3068E3"/></svg>