<svg width="160" height="159" fill="none" xmlns="http://www.w3.org/2000/svg"><path d="M119.196 128.331c3.202 15.462 6.079 22.928 11.098 28.172-3.89-2.373-11.902-8.415-21.508-22.011l-2.637 2.231c-8.825 20.792-69.985 17.336-79.907-14.125 0 0-.287-3.638-.147-7.3-49.637-33.201-14.323-93.364 25.413-91.687 1.083-2.262 2.6-4.785 4.64-7.047C86.297-13.909 175.338 1 152.399 70.281c2.181 2.966 3.735 6.066 3.735 6.066 7.131 16.632-5.065 50.624-36.945 51.984h.008z" fill="#fff"/><path d="M25.26 116.744c-1.339-.933-2.67-1.914-3.636-3.108-.526-.19-1.005-.38-1.454-.585a7.835 7.835 0 01-1.206-.752 6.472 6.472 0 01-1.044-.988 8.42 8.42 0 01-.882-1.4c-2.057-2.088-4.3-3.986-6.28-6.209-1.98-2.198-3.728-4.69-4.648-7.6-1.787-2.665-3-5.623-3.914-8.636C1.284 84.436.657 81.352 0 78.157c.387-2.594.294-5.085.356-7.624.054-2.53.286-5.11 1.3-7.474.2-1.93.587-3.907 1.244-5.797.302-.957.704-1.874 1.122-2.776.208-.45.456-.886.696-1.313.24-.427.487-.854.765-1.257a6.44 6.44 0 00.712-1.305c.209-.46.387-.926.58-1.392.1-.23.193-.46.302-.688a8.39 8.39 0 01.37-.633 3.758 3.758 0 011.006-1.044c1.37-2.301 2.336-4.326 4.393-6.153.356-.791.951-1.685 1.647-2.444.712-.735 1.524-1.329 2.313-1.479.905-1.582 2.428-2.966 4.052-4.215 1.64-1.234 3.341-2.38 4.718-3.599.51-.166.89-.26 1.199-.332.31-.08.541-.142.75-.23.217-.086.41-.213.65-.395.247-.182.541-.427.936-.783.293-.079.587-.174.889-.292.31-.103.619-.23.928-.364.31-.135.627-.285.936-.443.317-.15.634-.3.951-.459.317-.158.627-.324.936-.49l.913-.467c.595-.308 1.152-.609 1.662-.838.426.198 1.075.095 1.733-.11.665-.206 1.322-.586 1.763-.99.603 0 1.237-.023 1.856-.079a11.73 11.73 0 001.802-.205c2.189.206 3.465-.396 5.685-.838.935-.246 1.995-.016 3 .19 1.014.276 1.98.521 2.839.537.858.388 1.183 1.147 1.114 1.867-.078.727-.503 1.226-1.485 1.194-.248.024-.51.008-.797 0-.278 0-.58-.024-.882-.056a11.809 11.809 0 01-.904-.126c-.302-.04-.604-.08-.89-.127-1.044-.095-2.073-.095-3.093-.095-1.014.048-2.027.095-3.025.261-1.995.301-3.967.83-5.877 1.78-.704.119-1.392.332-2.096.506-.696.198-1.392.443-2.088.672-.68.27-1.377.53-2.058.83-.672.317-1.36.602-2.018.966-2.66 1.36-5.166 3.02-7.471 4.737-1.245 1.51-2.746 2.831-4.262 4.192-1.508 1.352-3.1 2.673-4.447 4.097-.378.332-.634.72-.858 1.107-.224.395-.41.79-.603 1.178-.371.799-.836 1.51-1.802 2.096-.054.522-.232.957-.457 1.36-.224.412-.51.775-.812 1.14a13.4 13.4 0 00-.874 1.114c-.263.396-.51.8-.618 1.274-.217.593-.518 1.162-.812 1.724-.294.561-.627 1.1-.96 1.574-.2 2.182.101 1.724-1.183 3.543-.139 2.19-.65 4.247-1.19 6.343-.527 2.088-1.06 4.215-1.254 6.335-.131 2.538.04 4.982.395 7.379.356 2.396.866 4.753 1.462 7.197a54.233 54.233 0 001.871 5.22c.758 1.644 1.609 3.258 2.862 4.697.209.3.41.617.618.933.217.309.434.625.642.95l.635.98.68.965c.232.316.456.641.688.957.248.301.488.601.735.894.248.292.495.569.75.846.256.269.526.506.797.743.062.855.55 1.717 1.245 2.42.34.356.72.696 1.098.997.387.293.79.538 1.145.751 2.452 1.748 4.74 3.638 7.154 5.402 2.405 1.764 4.88 3.464 7.595 4.674 1.632 1.329.75 2.025-.689 2.215-.719.095-1.577.055-2.304-.079-.72-.151-1.3-.42-1.485-.736-.596-.411-1.269-.783-1.926-1.21-.665-.427-1.354-.862-2.042-1.297l.031-.016zm131.909-77.332c-.054 1.202-.132 1.732-.139 2.254 0 .522.154 1.013.526 2.128a12.916 12.916 0 00-.07 2.143c.039.751.046 1.534.116 2.317.077.783.116 1.55.17 2.294.054.735.132 1.431.139 2.048-.332.356-.51 1.068-.549 1.827-.023.767.016 1.59.24 2.19-.387 1.258-.866 2.642-1.044 3.884-.951 2.199-.835 3.74-1.091 6.185-.015.26-.061.522-.116.783a7.306 7.306 0 01-.255.775 18.052 18.052 0 01-.696 1.534c-.479 1.012-1.052 1.954-1.237 2.879-.573.83-1.377 1.036-2.058.822-.688-.221-1.059-.782-.781-1.866.085-.554.279-1.186.519-1.835.224-.648.479-1.313.742-1.914.186-.561.402-1.115.565-1.677.162-.561.324-1.115.487-1.668.34-1.1.564-2.223.796-3.338.055-.277.116-.561.163-.838l.116-.846c.069-.57.139-1.14.193-1.709.062-.57.054-1.154.07-1.74 0-.585.015-1.17-.023-1.763.549-3.148.642-6.493.363-9.783-.286-3.298-.974-6.525-1.918-9.523-.247-.466-.534-.917-.766-1.4-.239-.474-.464-.964-.711-1.439-.24-.482-.456-.98-.681-1.479a33.86 33.86 0 01-.704-1.487c-.951-1.977-1.91-4.01-3.078-5.781-.255-.482-.611-.838-.959-1.178a14.678 14.678 0 00-1.082-.918c-.743-.577-1.385-1.226-1.841-2.349-1.021-.356-1.709-1.067-2.367-1.858a13.952 13.952 0 00-1.036-1.131c-.363-.356-.758-.68-1.23-.886-.58-.34-1.129-.767-1.686-1.179a19.797 19.797 0 01-1.523-1.289c-1.122-.308-1.57-.356-1.957-.545-.394-.182-.719-.49-1.593-1.321-2.274-.546-4.385-1.463-6.52-2.428-2.142-.941-4.292-1.938-6.489-2.626-2.66-.712-5.266-1.155-7.873-1.495-2.614-.348-5.22-.609-7.943-.878l-3.055-.118c-.997-.016-1.987-.063-2.977-.032-.495.008-.982.024-1.477.048-.495.04-.99.079-1.485.134-.99.095-1.988.3-2.993.538-3.148.49-6.883.727-9.784 1.819-1.662-.72-4.184.324-5.746 1.234-2.939 1.431-5.878 2.704-8.708 4.215-2.816 1.51-5.546 3.266-7.719 5.592-1.84 1.233-2.22.166-1.825-1.377.1-.38.232-.806.418-1.194.185-.387.402-.775.634-1.123.448-.704.982-1.178 1.369-1.257.325-.238.665-.475 1.005-.72.348-.237.704-.49 1.06-.736.703-.522 1.477-.98 2.227-1.47a27.268 27.268 0 012.359-1.266c.812-.34 1.6-.672 2.413-.854.464-.403.897-.767 1.33-1.084a8.94 8.94 0 011.338-.783 5.932 5.932 0 011.477-.498 9.079 9.079 0 011.748-.182c3.032-.917 5.994-2.017 9.064-2.807C86.094.596 89.25.105 92.443.469c3.357-.538 6.698-.538 10-.372 3.311.174 6.598.515 10 .728 2.529 1.06 5.113 1.582 7.711 2.199 2.591.617 5.213 1.328 7.518 2.8 1.972.561 3.967 1.312 5.854 2.325 1.895.98 3.674 2.23 5.244 3.654.379.387.812.703 1.268.996.457.293.913.593 1.369.886.92.577 1.74 1.281 2.212 2.254.549.49 1.06.957 1.578 1.4.518.443.982.925 1.461 1.384.48.458.913.98 1.338 1.526.209.277.426.554.627.854.193.309.379.625.557.957.356.3.758.657 1.106 1.076.355.419.703.886 1.013 1.36.317.475.533.997.711 1.48.163.497.279.964.248 1.407.634.743 1.268 1.605 1.732 2.594.24.49.487.989.696 1.518.201.53.395 1.068.58 1.606.201.538.341 1.091.503 1.637.155.546.34 1.084.472 1.621.271 1.076.619 2.096.936 3.061l-.008-.008zm-50.062 98.844c-.077.388-.294.807-.541 1.218-.279.388-.588.783-.921 1.092-1.044 1.257-2.188 2.269-3.341 3.25-1.152.981-2.328 1.906-3.542 2.982a71.205 71.205 0 01-6.063 2.198c-2.05.633-4.122 1.147-6.133 1.448-1.253.656-2.684.901-4.13.941-1.446.055-2.9-.119-4.254-.222-.688-.126-1.276.135-1.871.301-.596.15-1.207.229-1.91-.293-.643.475-1.292.38-1.942.198-.642-.174-1.284-.427-1.941-.261-.866.079-1.794-.111-2.56-.411-1.485.482-1.176.664-2.568-.135-1.523.388-3.04.182-4.509-.229-1.47-.403-2.892-1.028-4.3-1.471-1.709-.451-3.364-.854-4.996-1.352-1.624-.507-3.233-1.108-4.795-1.962-2.498-1.067-4.44-2.562-7.03-3.503-1.887-.997-3.604-2.808-5.352-3.915-.03-.72-.379-1.345-.874-1.835-.48-.514-1.098-.918-1.624-1.234-1.732-1.336-3.055-3.132-4.114-5.038-1.075-1.914-1.895-3.93-2.8-5.916-.14-1.566.967-1.494 2.01-1.028 1.03.483 2.089 1.297 1.91 1.811.163.427.349.87.573 1.305.24.435.48.886.735 1.321.51.886 1.013 1.78 1.307 2.744.34.174.634.341.897.515s.51.34.704.553c.394.427.68.941.85 1.772 1.169 1.463 2.739 2.507 4.278 3.511 1.554 1.005 3.078 1.977 4.377 3.464 1.864.783 3.58 1.701 5.367 2.515 1.787.807 3.628 1.495 5.63 1.748 1.3 1.076 2.854 1.44 4.409 1.685 1.554.261 3.117.411 4.594 1.123 2.46-.095 4.957.071 7.34.767 1.214.435 2.552-.522 3.673.332 1.701-.032 3.032-.474 4.756-.103 1.03-.482 2.584-.791 3.527.016 1.052-.601 2.297-.775 3.573-.941 1.26-.182 2.552-.356 3.558-.941.696.126 1.02.213 1.322.198.294-.016.565-.167 1.099-.602.394.024.804-.023 1.206-.15a6.09 6.09 0 001.214-.49 8.282 8.282 0 001.114-.672c.348-.238.657-.467.928-.681.642.396 1.663-.284 1.895-1.115.727-.134 1.516-.403 2.05-.838 1.337-.364 1.716-1.321 2.273-2.523a1.33 1.33 0 01.217-.364 2.18 2.18 0 01.27-.324c.209-.198.457-.38.689-.569.487-.372.943-.791 1.067-1.29.449-.348 1.206-.316 1.872-.055.672.261 1.059.712.812 1.471l.015-.016zM160 85.749c-.34 3.448-.557 7.102-1.408 10.36.101.593.039 1.17-.061 1.756a7.205 7.205 0 01-.511 1.708 20.81 20.81 0 01-.773 1.622c-.294.514-.588 1.02-.874 1.51-.325.483-.302 1.02-.364 1.535-.062.514-.209 1.012-.897 1.328.194.68-.124 1.131-.495 1.542-.185.206-.387.404-.549.617-.17.214-.309.443-.348.728a4.145 4.145 0 01-.851 1.384 3.96 3.96 0 01-.394.348c-.108 1.337.147 1.194-1.013 1.874-.248 1.313-.936 2.397-1.841 3.283-.858.925-1.941 1.637-2.807 2.475-2.027 2.064-3.891 4.105-6.458 5.489a21.69 21.69 0 01-2.769 1.581 15.01 15.01 0 00-1.361.783c-.456.269-.905.562-1.346.926a9.308 9.308 0 01-1.191.577c-.425.15-.866.285-1.299.419-.433.143-.866.277-1.276.443-.418.135-.82.293-1.191.491-.518-.412-1.083-.459-1.624-.325a4.58 4.58 0 00-1.493.649c-.395.182-.804.34-1.214.474-.41.135-.828.198-1.253.277a22 22 0 01-1.269.174l-.634.063c-.209.016-.425.016-.634.024-.325 0-.65.016-.974.016.061.221.131.443.193.664.348 1.107.719 2.183.742 2.278.07.182.519 3.828 1.13 4.089.409.19 1.624 3.717 1.33 4.563-.047.19.487 2.286 1.229 4.271.727 1.993 1.663 3.852 1.787 3.915.108.039.294.356.526.814.224.459.541 1.013.812 1.59.309.554.603 1.107.843 1.511.247.395.41.664.41.664l.263.395.286.38.077.103.542.419c.131.103.209.158.209.158.324.206.641.443.966.633.317.198.673.411.952.554l-.789 2.119a14.665 14.665 0 01-1.215-.482s-.092-.048-.255-.127c-.154-.087-.379-.205-.642-.348-.533-.269-1.183-.64-1.825-.917-1.322-.578-3.596-2.286-4.725-3.195-.596-.427-1.23-.981-1.872-1.511-.317-.269-.626-.53-.92-.775a47.737 47.737 0 00-.781-.712c-.039-.039-.526-.15-1.199-1.115-.472-.672-1.408-1.582-2.297-2.381-.449-.395-.851-.79-1.168-1.123-.317-.332-.541-.601-.603-.767-.147-.387-.596-.901-1.129-1.455-.519-.569-1.099-1.194-1.539-1.756-.441-.569-.782-1.17-1.176-1.755-.371-.602-.789-1.179-1.4-1.693-.619-.522-1.152-1.289-1.601-2.033-.425-.759-.765-1.486-1.044-1.921-.595-.957-1.307-2.065-1.771-2.879-.456-.823-1.408-2.531-1.74-3.124-.232-.411-.549-.918-.248-1.495.171-.324.929-.775 1.153-.68.309.134.781.356 1.036.688.31.403 1.385 1.851 1.965 2.776.17.277.456.395.471.562.039.284.913 1.439 1.795 2.538.44.554.881 1.092 1.229 1.503.356.395.604.68.65.72.085.087.704 1.075 1.4 2.064.68.996 1.5 1.914 1.848 1.953.248.016 1.129.878 1.988 1.851.882.949 1.709 2.025 1.794 2.555.016.055.124.229.325.474a63.686 63.686 0 001.941 2.23c.41.467.882.918 1.338 1.384.34.348.681.688 1.021 1.013-.278-.593-.565-1.163-.758-1.622-.015-.047-.387-.284-.526-1.257-.108-.68-.51-1.677-.912-2.586-.372-.91-.72-1.732-.681-2.025.101-.688-.626-2.167-.889-3.306-.132-.569-.163-1.147-.24-1.716-.07-.569-.186-1.147-.518-1.716-.665-1.179-.534-2.982-.681-3.812-.054-.34-.108-.696-.162-1.052a15.3 15.3 0 00-1.044.087c-1.161-.38-.836-1.424-.194-2.278.248-.332.542-.633.828-.862-.07-.609-.139-1.21-.17-1.511-.047-.379-.14-.862.363-1.225.279-.206 1.145-.348 1.315-.222.232.19.564.49.665.823.085.276.302 1.052.487 1.795l.805-.071c.409-.032.827-.032 1.237-.016.41 0 .812.047 1.206.158.495-.411.913-.72 1.362-.83.448-.135.928-.095 1.57.205a9.751 9.751 0 001.09-.205c.364-.079.704-.238 1.052-.372.348-.142.688-.293 1.021-.443.34-.15.68-.293 1.005-.474a12.946 12.946 0 012.019-.863 6.85 6.85 0 012.204-.482c.657-.474 1.307-.933 1.988-1.321.34-.19.665-.411.99-.617l.982-.624c1.291-.855 2.537-1.812 3.48-3.148.681-.15 1.207-.498 1.686-.91.472-.411.905-.87 1.268-1.392.372-.514.751-1.012 1.153-1.494.394-.491.835-.934 1.4-1.282.208-.45.386-.925.618-1.368.217-.451.48-.862.727-1.297.488-.862 1.129-1.621 1.802-2.349.387-.34.503-.87.642-1.36.132-.498.302-.957.874-1.186.286-.625.402-1.242.596-1.827.093-.293.209-.578.355-.862.14-.285.302-.57.526-.855-.054-.474 0-1.028.178-1.502.163-.483.48-.894 1.013-1.092a3.551 3.551 0 01-.054-.743c0-.245.016-.498.054-.751.07-.499.217-.997.364-1.495.24-1.005.572-2.017.387-2.966.696-.949.912-.83.526-1.93.332-.561.433-1.297.355-2.016-.031-.364-.085-.72-.139-1.052-.062-.34-.162-.649-.224-.926.603-.34.487-1.344-.147-1.81.201-.594.387-1.282.263-1.843.17-.562.139-1.013-.039-1.432-.186-.42-.487-.807-.789-1.29-.286-.395-.294-.9-.255-1.439.054-.537.031-1.051-.224-1.407.085-.506.642-1.005 1.284-1.321.649-.316 1.214-.356 1.523.182.201.237.356.561.48.917.108.356.154.744.178 1.107.541 2.508.711 4.754 1.531 7.26H160z" fill="#000"/><path d="M31.44 70.64l.58.1V90h-7.74V63.6h10.46l8.62 19.2-.58.12V63.6h7.74V90H40l-8.56-19.36zm23.156-7.04h7.74V90h-7.74V63.6zm26.456 19.2c.933 0 1.833-.147 2.7-.44.88-.293 1.56-.587 2.04-.88l3.3 6.56c-.64.533-1.727 1.073-3.26 1.62-1.533.547-3.34.82-5.42.82-1.947 0-3.787-.333-5.52-1a14.85 14.85 0 01-4.62-2.86 13.44 13.44 0 01-3.14-4.32c-.76-1.667-1.14-3.487-1.14-5.46 0-1.973.38-3.793 1.14-5.46a13.317 13.317 0 013.14-4.36 14.421 14.421 0 014.6-2.88 15.135 15.135 0 015.54-1.02c2.08 0 3.887.273 5.42.82 1.534.547 2.62 1.087 3.26 1.62l-3.3 6.56c-.48-.293-1.16-.587-2.04-.88a8.366 8.366 0 00-2.7-.44c-1.267 0-2.327.18-3.18.54-.853.36-1.54.84-2.06 1.44a5.532 5.532 0 00-1.1 1.94 6.978 6.978 0 00-.32 2.06c0 .693.107 1.393.32 2.1.227.707.593 1.36 1.1 1.96.52.587 1.207 1.06 2.06 1.42.853.36 1.913.54 3.18.54zm11.353-19.2h17.72v6.72h-9.98v3.2h9.98v6.5h-9.98v3.26h9.98V90h-17.72V63.6zm23.461 16.9l-1.56-18.02h8.38l-1.54 18.02h-5.28zm2.62 9.98a4.123 4.123 0 01-2.14-.58 4.66 4.66 0 01-1.56-1.54 4.16 4.16 0 01-.58-2.16c0-1.187.42-2.2 1.26-3.04.84-.853 1.846-1.28 3.02-1.28 1.2 0 2.22.427 3.06 1.28.84.84 1.26 1.853 1.26 3.04 0 1.173-.42 2.18-1.26 3.02-.84.84-1.86 1.26-3.06 1.26zm9.333-9.98l-1.56-18.02h8.38l-1.54 18.02h-5.28zm2.62 9.98a4.123 4.123 0 01-2.14-.58 4.66 4.66 0 01-1.56-1.54 4.16 4.16 0 01-.58-2.16c0-1.187.42-2.2 1.26-3.04.84-.853 1.846-1.28 3.02-1.28 1.2 0 2.22.427 3.06 1.28.84.84 1.26 1.853 1.26 3.04 0 1.173-.42 2.18-1.26 3.02-.84.84-1.86 1.26-3.06 1.26z" fill="#3068E3"/></svg>