<svg width="103" height="121" fill="none" xmlns="http://www.w3.org/2000/svg"><path d="M48.58 96.227C10.814 109.937-9.916 61.885 8.55 53.69 3.424 48.32-2.541 14.688 25.012 4.785c27.538-9.886 54.515 5.37 55.071 25.739 28.676 1.976 30.392 55.392-7.946 61.332 0 0-13.912 8.195-23.557 4.377v-.006z" fill="#fff"/><path d="M49.152 91.571c-4.283 5.827 2.266 11.589 11.355 10.456 9.09-1.138 16.464-7.405 11.07-14.988" fill="#fff"/><path d="M49.152 91.523c-.13-.097-.4-.156-.68-.156-.27.016-.588.097-.696.317-.205.317-.663 1.026-.922 1.53-.113.188-.13.382-.14.537-.011.156 0 .317-.033.473-.032.204-.113.3-.14.489-.032.129-.13.505-.156.902-.017.113-.017.204-.033.3v.27c0 .171 0 .3.017.38.016.13.048.253.097.382.097.284.188.569.27.854.096.268.204.537.366.757.097.112.205.236.302.365.033.048.065.097.097.14.27.408.605.789.95 1.154.156.172.334.349.523.505.189.156.383.317.572.456.188.14.367.317.54.473.188.172.382.333.587.44.205.129.426.188.67.253.236.064.458.129.679.204.205.096.442.155.669.188.237.048.458.096.68.155.425.14.776.618 1.235.709.474.081.981-.064 1.43-.016.236.032.458 0 .695-.016a9.66 9.66 0 01.68-.032c.458.032.906.204 1.364.188.459-.032.907-.172 1.349-.236.475-.049.906-.14 1.332-.221.443-.096.907-.016 1.333-.129.27-.064.13.017.383-.08.189-.048.399-.113.604-.156.41-.08.842-.22 1.268-.333.41-.129.825-.252 1.251-.408.41-.14.89-.172 1.3-.365.41-.193.728-.537 1.128-.757.188-.113.366-.253.539-.398.173-.139.35-.284.54-.408.366-.236.949-.22 1.332-.505.189-.155.334-.349.475-.553.14-.204.27-.424.442-.585.35-.35.555-.806.841-1.187.303-.397.729-.693.966-1.138.254-.457.334-.962.49-1.44a7.33 7.33 0 00.335-1.482c.049-.317.097-.617.157-.918.048-.188.064-.365.064-.44a1.376 1.376 0 000-.365c-.048-.285-.032-.57-.048-.838-.016-.269-.032-.537-.13-.773-.237-.602-.555-1.214-.857-1.644-.367-.537-.604-.837-.826-1.23-.383-.569-1.219-.349-1.488-.14-.286.205-.826.93-.556 1.327.097.156.14.365.173.586.032.22.032.456.08.692.065.382.19.65.222 1.074.016.097.032.269.048.409.016.08.033.14.033.188.016.048.016.08.016.08.032.188.097.381.08.57 0 .3.017.617-.048.928-.065.285.016.634-.113.945-.113.301-.189.618-.367.919-.173.284-.334.585-.556.87-.22.268-.474.52-.728.773-.13.129-.302.204-.474.285a1.77 1.77 0 00-.491.252c-.286.22-.459.57-.761.757-.14.113-.318.188-.475.269-.156.096-.318.172-.474.252-.319.188-.572.473-.907.634-.35.155-.809.032-1.143.155-.335.14-.588.554-.933.677-.367.113-.81-.048-1.16.049-.189.048-.383.112-.572.155v.016c-.113.032-.221.08-.334.097-.367.064-.745.156-1.144.22-.367.048-.728.253-1.127.285-.367.048-.745.113-1.144.129-.367 0-.76.032-1.144.016-.188 0-.383-.032-.572-.049-.188-.016-.383-.032-.571-.064-.367-.048-.696-.365-1.063-.424-.35-.08-.744.016-1.079-.097-.172-.048-.334-.129-.49-.188-.157-.064-.319-.14-.475-.204-.157-.064-.335-.097-.508-.14a1.75 1.75 0 01-.49-.155c-.319-.156-.443-.602-.696-.774-.13-.096-.302-.129-.475-.171-.173-.043-.35-.097-.459-.204-.016-.033-.048-.065-.064-.097s-.049-.065-.065-.113l-.032-.064a2.701 2.701 0 01-.114-.333.824.824 0 00-.129-.269c-.113-.113-.173-.236-.27-.365 0 0-.032-.016-.08-.064-.05-.033-.114-.097-.19-.156-.129-.14-.27-.333-.285-.489 0-.08 0-.14.016-.22-.033-.129-.097-.236-.13-.365-.08-.3-.156-.586-.172-.886a.664.664 0 010-.253l.048-.236c.033-.14.097-.285.097-.44.017-.382.017-.79.173-1.042.237-.398-.049-.961-.334-1.23l.005.01z" fill="#000"/><path d="M67.984 104.69c3.76-1.75 6.678-1.23 8.134.113 2.029 1.847 1.284 5.29-3.856 6.412-6.457 1.423-10.26-3.727-4.284-6.519l.006-.006z" fill="#fff"/><path d="M72.407 111.215c-.049-.22-.442-.709-.728-.666-.114.016-.302.016-.491.016a4.844 4.844 0 01-.556-.064c-.237-.065-.399.064-.572.048-.113-.016-.172-.064-.27-.08-.156-.016-.76-.285-.89-.317-.064 0-.113-.016-.172-.032-.302-.033-.523-.221-.76-.269a4.989 4.989 0 01-.222-.048l-.08-.032c-.114-.065-.206-.113-.303-.172-.113-.049-.189-.129-.286-.188a2.86 2.86 0 01-.442-.441c-.13-.139-.113-.365-.156-.488-.044-.124-.222-.237-.205-.398 0-.139-.081-.316 0-.488.064-.188.41-.204.507-.349.08-.081.097-.188.14-.301a.734.734 0 01.189-.301c.091-.08.172-.188.253-.284.097-.097.173-.188.286-.269.237-.14.523-.172.76-.285.222-.128.46-.316.713-.44.27-.113.523-.236.777-.333.27-.097.571-.08.825-.139.172-.049.08 0 .237-.065a2.5 2.5 0 01.367-.08c.13-.033.254-.033.383-.049.13-.016.27-.032.4-.032h.382c.13 0 .254.016.383.016.254.032.475.172.712.22.221.049.491-.016.712.065.222.08.459.096.67.204.096.064.14.188.188.3.049.129.08.237.14.301.065.081.173.113.27.156.08.064.173.113.237.188.033.097.097.156.173.236a.692.692 0 01.14.253c.027.096 0 .188-.016.284-.032.097-.065.188-.065.269a.836.836 0 000 .284.906.906 0 01-.048.301c-.081.188-.157.397-.302.569a1.426 1.426 0 01-.14.156l-.173.129c-.081.048-.14.08-.173.113-.048.048-.097.064-.14.112a1.211 1.211 0 01-.335.221 1.328 1.328 0 00-.35.188c-.113.112-.27.204-.41.316-.14.097-.286.204-.41.285-.334.204-.523.317-.81.381-.41.113-.458.741-.41.994.05.252.41.805.842.693.319-.081.728-.033 1.203-.113.173-.016.335-.097.507-.156.157-.081.335-.129.556-.22.097-.032.27-.129.41-.204.08-.049.14-.081.189-.113.048-.032.08-.048.08-.048.173-.14.351-.285.54-.425.157-.112.286-.252.426-.397.065-.081.14-.14.205-.22l.189-.236c.254-.301.383-.725.556-1.107.064-.188.14-.397.188-.601.033-.22.065-.424.097-.65 0-.22.017-.424 0-.65a7.766 7.766 0 00-.113-.649c-.064-.205-.13-.409-.189-.618-.097-.188-.188-.381-.285-.569-.114-.172-.19-.365-.286-.569a2.315 2.315 0 00-.367-.521 2.586 2.586 0 00-.491-.333 5.058 5.058 0 01-.507-.269c-.335-.188-.653-.397-.998-.521-.367-.139-.744-.129-1.079-.188-.35-.064-.68-.333-1.03-.349-.19 0-.367.065-.54.113-.172.064-.35.129-.507.14a1.896 1.896 0 01-.523-.049c-.173-.032-.35-.064-.507-.032-.189.032-.367.081-.54.113v.016c-.097.032-.188.064-.285.081-.335.064-.653.187-.982.284-.335.097-.604.333-.923.44-.302.129-.588.285-.906.441-.302.139-.604.333-.906.521l-.442.3c-.157.113-.303.237-.443.35-.14.128-.302.236-.474.332-.157.113-.335.237-.459.398-.237.333-.35.741-.49 1.138-.174.398-.303.854-.303 1.295 0 .456.205.886.35 1.278.098.204.13.424.19.633.048.22.14.425.27.586.129.171.334.284.506.381.189.08.367.172.523.268l.098.097c.048.032.08.081.113.113l.065.048c.188.188.366.408.588.505.188.097.383.156.555.22 0 0 .189.032.426.048.221.033.507.049.68.113.08.016.156.065.237.097.157.016.303.032.459.032.172 0 .35-.016.523-.016l.491-.048c.367-.049.696.016.982-.081.383-.097.669-.284.933-.317.426-.08.572-.537.669-.805v.005z" fill="#000"/><path d="M77.024 113.739c2.919-1.358 5.174-.961 6.296.081 1.57 1.439.981 4.092-2.983 4.956-4.98 1.107-7.93-2.873-3.318-5.037h.005z" fill="#fff"/><path d="M80.337 118.792c-.065-.22-.383-.741-.605-.692h-.366c-.14 0-.302-.032-.41-.065-.189-.064-.302.065-.426.049-.081 0-.114-.049-.19-.065-.112-.016-.555-.252-.652-.284-.049-.017-.08-.033-.13-.033-.204-.016-.366-.188-.539-.204-.048 0-.113 0-.156-.016l-.049-.016c-.064-.048-.14-.08-.205-.129l-.189-.139a2.52 2.52 0 01-.285-.301c-.081-.113-.017-.269-.049-.333-.016-.081-.156-.113-.156-.204.016-.081-.081-.188-.033-.301.032-.129.35-.08.41-.172a.864.864 0 00.065-.22c.032-.08.048-.172.113-.22.081-.048.113-.129.173-.204a.618.618 0 01.189-.204c.172-.097.41-.097.588-.172.156-.097.334-.269.523-.365.205-.081.399-.188.588-.253.189-.064.426-.032.62-.08.13-.049.065.016.173-.049.08-.032.172-.048.27-.064.188-.016.383-.048.571-.048h.286c.097 0 .189.016.286.016.173.016.35.156.507.188.157.032.35-.049.507.016.14.048.335.032.475.113.08.032.097.139.113.236.016.113.016.188.065.236.032.049.113.065.189.081.064.016.14.048.172.096.016.065.065.097.13.14.048.048.08.097.113.156.016.064-.016.129-.032.188a.345.345 0 00-.065.155c-.016.049 0 .113.016.172 0 .065 0 .129-.016.188-.065.129-.113.269-.205.398-.032.048-.049.08-.097.112l-.13.081a.565.565 0 00-.129.081c-.032.032-.065.048-.097.08a.44.44 0 01-.237.156.564.564 0 00-.254.129c-.08.096-.189.172-.286.252-.097.081-.189.172-.286.236-.237.172-.399.269-.604.317-.318.081-.318.693-.27.945.065.253.383.822.712.725.254-.064.604.016.982-.032.302-.048.523-.172.874-.285.08-.032.221-.112.35-.171.13-.065.222-.129.222-.129.14-.129.27-.253.426-.365.13-.097.237-.221.35-.333l.173-.172.157-.204c.22-.253.302-.618.442-.929.065-.172.13-.333.156-.505.033-.172.065-.365.081-.537a2.973 2.973 0 000-.537c-.032-.172-.064-.365-.097-.537-.048-.156-.097-.333-.156-.505l-.238-.472c-.097-.14-.156-.301-.22-.473a1.283 1.283 0 00-.287-.44c-.113-.113-.27-.188-.41-.269-.14-.064-.302-.129-.426-.204-.27-.156-.523-.333-.809-.424-.286-.113-.604-.081-.874-.129-.286-.048-.54-.301-.825-.317-.302-.016-.588.204-.842.236-.27.016-.555-.155-.825-.112l-.426.096v.016c-.081.016-.156.049-.237.065-.27.048-.524.156-.793.236-.254.081-.459.285-.712.381-.238.113-.459.237-.712.366-.238.112-.475.284-.713.424-.129.08-.237.156-.366.236a3.01 3.01 0 00-.367.269c-.114.096-.254.171-.4.252a1.513 1.513 0 00-.399.317c-.204.268-.27.633-.399.961-.13.333-.253.709-.253 1.09 0 .398.189.757.318 1.09.08.156.097.365.14.537.049.172.114.349.221.489.13.14.286.22.443.301.172.064.318.129.442.204l.081.08c.032.033.049.065.08.097l.05.048c.14.156.27.349.458.425.14.064.302.128.442.171 0 0 .157 0 .35.017.195.016.41.032.557.08a6.2 6.2 0 01.188.097 4.3 4.3 0 001.209-.065c.286-.048.54 0 .776-.08.286-.097.524-.269.729-.301.334-.064.426-.505.367-.757l.016-.006zm.302-88.902c-.302.156-.475.365-.491.521-.016.156.156.44.426.693.27.252.636.456 1.03.537.62.08 1.937.408 2.697.773.319.129.572.188.81.252.237.065.458.097.68.189.269.128.41.236.652.365.172.08.653.38 1.111.676.459.317.906.634 1.079.741.14.097.286.204.442.285.745.408 1.3 1.026 1.92 1.455.19.113.351.269.54.398.065.048.13.112.189.155.523.49 1.03 1.026 1.521 1.595.459.553.923 1.139 1.349 1.751.426.585.68 1.294 1.062 1.944.367.617.874 1.197 1.193 1.88.318.676.728 1.31.998 2.019.253.692.14 1.53.35 2.244.221.741.637 1.44.793 2.18.097.382.189.742.302 1.123.114.365.205.741.254 1.122.064.382.064.774.064 1.171v.585c0 .188 0 .382.017.57.032.397.097.789.14 1.17.049.398.097.773.097 1.155.016.79.016 1.579-.016 2.336-.032.79-.27 1.546-.335 2.304-.064.472-.064.22-.097.676-.032.365-.08.71-.156 1.074a39.77 39.77 0 01-.491 2.213c-.097.349-.189.709-.302 1.074-.113.365-.221.725-.335 1.09-.129.365-.285.693-.442 1.042-.156.349-.35.676-.475 1.041-.27.677-.399 1.44-.728 2.132a7.18 7.18 0 00-.221.521c-.08.172-.14.35-.221.521-.14.365-.286.71-.475 1.042-.367.666-1.095 1.106-1.489 1.735-.22.333-.383.676-.555 1.025a6.699 6.699 0 01-.588.994c-.475.617-.842 1.31-1.349 1.88-.253.3-.555.536-.858.789-.302.252-.588.505-.873.757-.556.553-1.063 1.17-1.635 1.66-.302.252-.604.488-.906.74-.318.237-.62.473-.923.693-.383.3-.809.505-1.203.741-.27.156-.49.252-.604.317a6.092 6.092 0 00-.474.285c-.367.252-.745.408-1.128.585-.189.08-.383.156-.555.252-.173.08-.351.172-.524.269-.41.252-.874.52-1.316.74-.442.237-.874.474-1.251.65-.95.49-1.554.693-2.298.93-1.128.3-1.43 1.23-1.349 1.562.08.333.874.994 1.937.71.399-.13.841-.189 1.332-.27.49-.064 1.014-.171 1.57-.316.442-.113.825-.269 1.219-.408.205-.08.41-.156.636-.237.205-.096.443-.188.696-.284.221-.097.653-.269.998-.44.35-.188.653-.333.653-.333.221-.13.442-.253.669-.382.221-.129.442-.268.669-.397.367-.204.728-.424 1.079-.666.35-.236.728-.472 1.078-.725.335-.252.67-.52.982-.806.319-.284.62-.585.966-.853.636-.537 1.251-1.139 1.872-1.735.318-.284.604-.585.89-.902.286-.3.572-.618.857-.945a27.553 27.553 0 001.651-1.944c.254-.333.556-.634.858-.945.286-.317.588-.634.825-.994.442-.692.745-1.482 1.127-2.196.206-.35.4-.709.605-1.074.205-.365.41-.725.572-1.09.366-.741.539-1.563.841-2.304.14-.397.367-.741.572-1.106.205-.365.399-.725.523-1.106.237-.806.173-1.676.351-2.45.113-.397.253-.789.41-1.17.081-.204.156-.397.221-.585a3.28 3.28 0 00.14-.586c.065-.44.14-.886.189-1.31h-.016c.032-.252.048-.489.097-.741.113-.822.156-1.66.221-2.524.065-.838-.065-1.692-.065-2.54.016-.408-.016-.822-.048-1.246-.017-.424-.065-.854-.097-1.278a89.847 89.847 0 01-.049-.618c-.032-.22-.049-.424-.081-.633-.048-.425-.113-.838-.173-1.262-.064-.408-.113-.838-.188-1.246-.076-.408-.141-.838-.238-1.246-.172-.822-.14-1.708-.383-2.54-.221-.806-.652-1.53-.933-2.288-.286-.773-.556-1.562-.906-2.303-.189-.382-.4-.742-.62-1.09-.238-.35-.459-.693-.67-1.042-.22-.366-.366-.758-.523-1.155-.156-.381-.334-.773-.571-1.106-.254-.333-.572-.634-.89-.919a7.803 7.803 0 01-.923-.853c-.08-.08-.13-.156-.189-.237a2.622 2.622 0 01-.189-.268c-.032-.048-.08-.097-.113-.14-.156-.252-.334-.472-.507-.709-.172-.22-.35-.456-.572-.633-.35-.301-.68-.618-1.046-.886 0 0-.383-.22-.858-.505a17.103 17.103 0 01-1.446-.854 5.844 5.844 0 01-.49-.397c-.351-.172-.696-.333-1.03-.49-.41-.187-.826-.332-1.22-.488-.399-.14-.793-.252-1.176-.381a19.118 19.118 0 01-1.251-.397 8.06 8.06 0 00-1.16-.285c-.966-.14-1.807-.113-2.492-.204a2.39 2.39 0 00-1.252.129l.006.005zM43.477 97.731c-.065-.3-.874-.918-1.553-.773-.524.096-1.7.204-2.444.171-.572 0-.922.172-1.349.188-.253 0-.41-.032-.652-.032-.173 0-.653-.048-1.144-.096-.475-.049-.965-.13-1.144-.13h-.474c-.367 0-.728-.031-1.08-.08-.366-.048-.695-.113-1.03-.097-.188 0-.399.017-.587 0-.081 0-.14-.016-.222-.016-.302-.048-.62-.096-.933-.14-.302-.064-.636-.112-.95-.171-.317-.048-.62-.14-.932-.204-.157-.032-.319-.08-.475-.113-.156-.048-.318-.08-.475-.129-.604-.14-1.176-.488-1.79-.676-.589-.188-1.252-.237-1.856-.473-.286-.113-.605-.204-.907-.3-.318-.097-.636-.189-.922-.334-.286-.14-.54-.365-.777-.585-.237-.236-.474-.473-.76-.618-.588-.316-1.268-.44-1.824-.789-.286-.172-.572-.317-.874-.473-.302-.155-.588-.3-.857-.488a5.667 5.667 0 01-.76-.666 9.36 9.36 0 00-.73-.666c-.522-.424-1.11-.741-1.601-1.187-.254-.204-.491-.44-.745-.666-.237-.22-.49-.44-.712-.676-.49-.473-.825-1.058-1.267-1.53-.27-.302-.098-.173-.383-.441a7.052 7.052 0 01-.605-.693 15.463 15.463 0 01-.571-.757c-.19-.252-.383-.521-.572-.79a39.75 39.75 0 01-1.063-1.61 7.013 7.013 0 01-.426-.854c-.13-.301-.254-.602-.41-.886-.318-.537-.777-1.026-1.063-1.611-.14-.285-.302-.554-.474-.838a5.405 5.405 0 01-.459-.854c-.124-.3-.156-.634-.189-.961-.016-.333-.048-.666-.156-.962-.221-.617-.653-1.17-.842-1.782-.188-.634-.507-1.23-.652-1.864-.081-.317-.097-.65-.114-.977a9.236 9.236 0 00-.08-.962 26.525 26.525 0 00-.098-.488l-.097-.473a4.87 4.87 0 01-.156-.945 25.714 25.714 0 01-.081-1.928c0-.397.065-.773.13-1.154.048-.253.096-.457.113-.553.016-.156.048-.301.064-.44.065-.71.383-1.327.491-1.929.14-.773.4-1.595.637-2.212a5.4 5.4 0 01.95-1.692c.156-.172.253-.349.301-.537.065-.172.081-.349.081-.52 0-.334-.13-.634-.237-.758-.13-.14-.41-.268-.777-.268-.173 0-.383.032-.572.112-.189.097-.383.22-.54.409-.474.585-1.218 1.154-1.806 2.035-.459.693-.712 1.31-1.095 2.228-.097.204-.221.602-.319.93-.097.349-.156.633-.156.633-.032.22-.08.457-.113.677-.033.22-.065.44-.114.676-.064.366-.097.725-.129 1.107-.016.38-.049.757-.065 1.138-.032.741.13 1.482.173 2.229.016.365.048.725.113 1.09.033.188.049.365.081.553.016.188.049.365.081.553.049.365.113.709.189 1.074.075.365.156.709.237 1.074.157.709.318 1.423.523 2.116.205.693.19 1.455.443 2.148.13.333.286.634.458.945.157.317.335.618.475.93.27.649.523 1.31.825 1.927.319.634.777 1.17 1.111 1.767.173.3.286.65.4.977.13.35.237.677.426.961.399.602 1.03 1.01 1.446 1.547.22.285.366.618.523.929.14.333.302.65.523.902.254.285.475.586.728.854l.016-.016c.14.156.286.3.427.472.458.537.965 1.042 1.488 1.58.238.268.524.488.81.708.286.22.571.457.841.693.507.489 1.095.902 1.667 1.375.286.22.572.424.858.65.302.204.588.424.89.633.286.204.572.408.874.618.286.204.588.408.906.601.604.381 1.111.945 1.758 1.31.319.156.653.285.982.409.335.129.669.236.982.38.318.157.636.302.95.457.312.156.636.301.965.424.669.27 1.38.35 2.028.57.68.204 1.268.692 1.953.854.696.188 1.462.016 2.125.14.081.015.157.048.238.064.097.032.172.064.27.096.048.017.096.017.14.033.458.155.922.349 1.38.397.19.032.384.048.572.064.19.017.383.017.572.033 0 0 .367-.049.825-.081.459-.048 1.015-.08 1.398-.048.156.016.334.032.507.064.318-.032.636-.048.933-.08.383-.049.728-.097 1.079-.14.35-.048.68-.113.998-.172.366-.064.728-.097 1.079-.129.35-.048.68-.096.981-.172.4-.096.745-.236 1.08-.349a6.36 6.36 0 01.922-.268c.906-.188 1.3-.854 1.219-1.214l.005.011zM7.659 53.562c.442.252.76.284.874.172.113-.113.13-.505.064-.946a3.1 3.1 0 00-.13-.74c-.08-.253-.14-.538-.285-.79-.113-.172-.221-.457-.35-.757a8.475 8.475 0 01-.19-.489c-.048-.172-.113-.349-.172-.537-.065-.188-.113-.365-.173-.553-.048-.188-.097-.365-.14-.553-.097-.365-.189-.709-.237-1.026-.19-.961-.475-1.547-.62-2.255-.082-.44-.065-.71-.13-1.123-.049-.284-.113-1.122-.157-1.96-.032-.838-.048-1.691-.08-1.992a13.5 13.5 0 00-.065-.806c-.033-.333-.065-.65-.065-.96.016-.318.016-.635.016-.93 0-.617.049-1.197.016-1.783-.016-.333-.032-.666-.032-1.01 0-.128.016-.252.016-.38.065-1.09.173-2.197.335-3.33.097-.537.172-1.074.27-1.627.113-.537.237-1.09.35-1.643.13-.538.318-1.058.49-1.58.082-.252.174-.52.287-.773.113-.268.205-.52.286-.789.156-.52.318-1.042.474-1.563.098-.252.173-.52.254-.79.08-.268.205-.52.318-.772.426-.994.858-2.003 1.414-2.986.302-.457.663-.87 1.046-1.278.383-.408.81-.774 1.127-1.214.335-.456.653-.902.982-1.358.157-.22.319-.457.491-.677.173-.22.383-.424.572-.618.189-.204.4-.408.588-.617.189-.21.383-.425.588-.618.41-.397.825-.773 1.251-1.138.459-.35.966-.618 1.446-.919.254-.14.475-.3.728-.424.238-.14.491-.268.729-.408.253-.14.49-.3.728-.456l.35-.237c.114-.08.238-.14.367-.22.491-.284.982-.57 1.489-.822a8.17 8.17 0 01.793-.365c.27-.112.523-.22.793-.333.54-.22 1.047-.456 1.586-.633.572-.204 1.143-.35 1.7-.505.57-.129 1.127-.252 1.666-.408.68-.204.334-.065.982-.269.523-.129 1.03-.268 1.57-.381.539-.129 1.095-.204 1.65-.317.556-.096 1.128-.204 1.7-.268a58.86 58.86 0 011.666-.22c.556-.049 1.128-.097 1.7-.14.555-.065 1.127-.016 1.682-.016.27 0 .556.016.842.016.286 0 .572.016.858.016.54 0 1.11-.064 1.666-.08a29.737 29.737 0 011.7-.017c1.111.097 2.255.033 3.377.204.285.049.555.097.825.172.27.075.54.172.81.269.538.204 1.078.365 1.617.505.572.128 1.144.171 1.716.268.572.097 1.127.188 1.683.333.555.172 1.127.317 1.683.456.555.14 1.095.333 1.634.521l.41.156.4.188c.27.129.523.269.776.397.507.269.998.57 1.505.806.27.129.523.236.793.365.254.129.524.252.777.381.254.113.523.237.777.366.237.14.49.284.728.424.254.14.49.3.745.44.253.156.49.317.728.473.474.317.95.617 1.397.96.286.205.555.425.825.65.27.22.507.457.76.694.319.316.589.569.713.692.189.188.399.382.588.553.475.409.874.886 1.268 1.343.41.456.744.929 1.143 1.342.113.13.237.253.367.398.113.14.237.284.35.424.238.285.491.57.713.854.22.3.426.585.636.854l.302.397c.081.14.173.269.254.398.205.332.399.617.572.886.156.284.285.537.426.789.13.252.253.489.383.725.113.252.205.505.318.757.334.773.68 1.294 1.046 1.611.367.317.713.424.874.381.173-.048.4-.349.507-.821.108-.473.14-1.17-.172-1.912-.114-.3-.221-.601-.319-.918-.113-.317-.22-.634-.35-.978-.221-.692-.54-1.407-.906-2.18-.302-.601-.637-1.106-.966-1.66-.35-.536-.728-1.073-1.192-1.734-.221-.3-.637-.821-.998-1.262-.173-.22-.367-.408-.491-.553a17.46 17.46 0 00-.205-.236c-.254-.253-.523-.537-.793-.79-.27-.252-.556-.52-.825-.789-.426-.44-.923-.822-1.397-1.23-.475-.424-.982-.79-1.49-1.187-.474-.397-.997-.708-1.537-1.025-.27-.156-.539-.333-.809-.489-.27-.14-.54-.3-.809-.472-.27-.156-.523-.317-.793-.473-.27-.14-.555-.285-.825-.424l-.826-.425c-.27-.14-.555-.268-.841-.408-.556-.268-1.111-.553-1.683-.773-.286-.129-.572-.236-.858-.365l-.426-.172-.442-.156c-.572-.204-1.144-.44-1.732-.65-.588-.187-1.192-.397-1.775-.585-.588-.156-1.16-.381-1.742-.601a16.778 16.778 0 00-1.79-.537c-.589-.14-1.204-.188-1.792-.253l-.89-.096-.89-.097C48.003.376 46.816.215 45.64.124c-1.203-.049-2.395.032-3.57.064a8.54 8.54 0 01-.907-.048c-.302-.016-.604-.048-.906-.065-.588-.048-1.192-.112-1.775-.048-.604.065-1.192.188-1.775.333-.588.14-1.16.317-1.731.397a8.486 8.486 0 01-.907.097c-.302.016-.604.048-.906.065-.604.048-1.192.064-1.758.204-.637.155-1.252.3-1.872.456v.016c-.35.08-.68.204-1.03.3a35.55 35.55 0 00-1.76.506c-.587.204-1.175.408-1.774.601-.572.172-1.127.473-1.7.725-.285.129-.57.269-.857.398-.286.128-.572.252-.857.397-.556.268-1.112.553-1.667.838-.14.08-.27.14-.41.22l-.4.252c-.27.156-.539.333-.809.489a34.25 34.25 0 01-.793.472c-.253.156-.507.366-.76.537-.507.366-1.03.71-1.538 1.107-.474.397-.949.79-1.445 1.187a7.614 7.614 0 00-.696.633c-.221.22-.459.44-.68.666-.221.226-.474.408-.696.634-.22.22-.442.424-.68.65-.458.44-.949.87-1.316 1.39-.366.505-.728.994-1.03 1.53a36.227 36.227 0 01-.922 1.564c-.62 1.058-1.268 2.1-1.743 3.19-.13.268-.253.552-.366.837-.098.3-.19.585-.286.87-.19.57-.4 1.139-.556 1.708-.173.585-.459 1.122-.68 1.691-.22.554-.442 1.123-.588 1.692-.13.601-.156 1.214-.205 1.815-.048.602-.032 1.198-.13 1.767-.015.14-.048.268-.08.408-.032.14-.065.3-.097.456-.016.081-.016.172-.033.253-.097.397-.188.805-.27 1.197-.08.408-.129.806-.14 1.198l-.048.961v.945s0 .14.032.398c.017.252.049.601.097.977.081.757.173 1.692.205 2.336 0 .3 0 .585-.016.886.065.537.157 1.074.238 1.579.097.634.237 1.23.35 1.815.13.585.286 1.155.41 1.692.173.633.318 1.23.459 1.815.156.585.286 1.138.507 1.643.507 1.294 1.16 2.352 1.602 3.27.367.725.858 1.214 1.3 1.499l-.016-.027z" fill="#000"/><path d="M20.864 47.16h4.644V63h-4.644V47.16zm7.102 0h4.644V63h-4.644V47.16zm11.301 4.224l.348.06V63h-4.644V47.16h6.276l5.172 11.52-.348.072V47.16h4.644V63h-6.312l-5.136-11.616zm13.798-4.224h10.632v4.032h-5.988v1.92h5.988v3.9h-5.988v1.956h5.988V63H53.065V47.16zM67.14 57.3l-.936-10.812h5.028L70.31 57.3h-3.168zm1.572 5.988c-.464 0-.892-.116-1.284-.348a2.794 2.794 0 01-.936-.924 2.498 2.498 0 01-.348-1.296c0-.712.252-1.32.756-1.824.504-.512 1.108-.768 1.812-.768.72 0 1.332.256 1.836.768.504.504.756 1.112.756 1.824 0 .704-.252 1.308-.756 1.812a2.5 2.5 0 01-1.836.756zm5.6-5.988l-.936-10.812h5.028L77.481 57.3h-3.168zm1.572 5.988c-.464 0-.892-.116-1.284-.348a2.794 2.794 0 01-.936-.924 2.498 2.498 0 01-.348-1.296c0-.712.252-1.32.756-1.824.504-.512 1.108-.768 1.812-.768.72 0 1.332.256 1.836.768.504.504.756 1.112.756 1.824 0 .704-.252 1.308-.756 1.812a2.5 2.5 0 01-1.836.756z" fill="#3068E3"/></svg>