<svg width="76" height="50" fill="none" xmlns="http://www.w3.org/2000/svg"><ellipse cx="24.5" cy="25" rx="24.5" ry="25" fill="#F6E900"/><ellipse cx="51.5" cy="25" rx="24.5" ry="25" fill="#F6E900"/><path d="M14.22 23.32l.29.05V33h-3.87V19.8h5.23l4.31 9.6-.29.06V19.8h3.87V33H18.5l-4.28-9.68zm11.578-3.52h3.87V33h-3.87V19.8zm13.228 9.6a4.17 4.17 0 001.35-.22c.44-.147.78-.293 1.02-.44l1.65 3.28c-.32.267-.863.537-1.63.81-.767.273-1.67.41-2.71.41a7.622 7.622 0 01-2.76-.5 7.425 7.425 0 01-2.31-1.43 6.718 6.718 0 01-1.57-2.16c-.38-.833-.57-1.743-.57-2.73 0-.987.19-1.897.57-2.73a6.65 6.65 0 011.57-2.18 7.21 7.21 0 012.3-1.44 7.567 7.567 0 012.77-.51c1.04 0 1.943.137 2.71.41.767.273 1.31.543 1.63.81l-1.65 3.28c-.24-.147-.58-.293-1.02-.44a4.181 4.181 0 00-1.35-.22c-.633 0-1.163.09-1.59.27-.427.18-.77.42-1.03.72a2.766 2.766 0 00-.55.97 3.48 3.48 0 00-.16 1.03c0 .347.053.697.16 1.05.113.353.297.68.55.98.26.293.603.53 1.03.71.427.18.957.27 1.59.27zm5.676-9.6h8.86v3.36h-4.99v1.6h4.99v3.25h-4.99v1.63h4.99V33h-8.86V19.8zm11.73 8.45l-.78-9.01h4.19l-.77 9.01h-2.64zm1.31 4.99c-.386 0-.742-.097-1.07-.29-.32-.193-.58-.45-.78-.77a2.082 2.082 0 01-.29-1.08c0-.593.21-1.1.63-1.52.42-.427.924-.64 1.51-.64.6 0 1.11.213 1.53.64.42.42.63.927.63 1.52 0 .587-.21 1.09-.63 1.51-.42.42-.93.63-1.53.63zm4.667-4.99l-.78-9.01h4.19l-.77 9.01h-2.64zm1.31 4.99c-.386 0-.743-.097-1.07-.29-.32-.193-.58-.45-.78-.77a2.08 2.08 0 01-.29-1.08c0-.593.21-1.1.63-1.52.42-.427.924-.64 1.51-.64.6 0 1.11.213 1.53.64.42.42.63.927.63 1.52 0 .587-.21 1.09-.63 1.51-.42.42-.93.63-1.53.63z" fill="#000"/></svg>