<svg width="44" height="42" fill="none" xmlns="http://www.w3.org/2000/svg"><path d="M18.465 37.53c-2.435.09-5.332-.368-7.803-1.151-1.664-.527-3.896-1.743-5.103-3.053-3.073-3.343-4.248-5.54-4.676-11.186-.37-4.876 1.14-10.082 6.125-13.995 3.14-2.466 4.65-3.605 8.978-4.927 4.781-1.46 8.418-1.978 13.526-1.032 2.672.496 6.701 2.774 8.136 3.994 4.914 4.178 5.332 7.295 5.517 12.672.062 1.867-.484 5.732-1.792 8.25-2.527 4.846-7.524 7.44-12.887 9.238a179.87 179.87 0 01-3.66 1.156c-.48.146-.87.514-1.051.997-.348.92-.37 2.098-.538 2.556a.228.228 0 01-.396.052c-.379-.523-1.607-1.379-3.227-2.907-.34-.321-.696-.612-1.14-.664h-.01z" fill="#fff"/><path d="M43.477 13.885a17.324 17.324 0 00-.177-.685c-.066-.227-.15-.45-.225-.672-.076-.222-.2-.432-.288-.646-.088-.218-.128-.458-.23-.671-.102-.215-.243-.407-.354-.617-.11-.21-.248-.402-.371-.607-.124-.201-.235-.411-.367-.608-.133-.192-.23-.42-.377-.607-.141-.184-.331-.338-.482-.518-.15-.18-.296-.364-.455-.54-.16-.175-.31-.354-.474-.521-.163-.167-.38-.287-.548-.45-.168-.162-.363-.299-.54-.453a23.51 23.51 0 00-.54-.453c-.18-.15-.296-.377-.486-.522-.186-.146-.433-.214-.624-.351-.19-.137-.367-.295-.566-.424-.194-.132-.34-.338-.544-.462-.199-.124-.473-.137-.681-.257-.204-.12-.34-.35-.553-.466-.208-.111-.473-.128-.686-.235-.212-.107-.424-.206-.641-.308-.217-.099-.438-.189-.655-.283-.22-.094-.398-.278-.619-.363-.221-.086-.451-.154-.677-.236-.225-.081-.486-.051-.712-.124-.23-.073-.464-.145-.699-.21-.234-.064-.442-.243-.68-.295-.24-.051-.488-.072-.73-.115-.24-.043-.479-.129-.722-.163s-.5.026-.743 0c-.243-.025-.495.034-.739.017-.243-.017-.482-.128-.73-.137-.247-.008-.49.039-.738.039s-.491-.017-.734-.013c-.248 0-.491.077-.735.086-.234.008-.473-.056-.707-.039-.235.017-.465.099-.7.124-.234.026-.477-.03-.712 0-.234.03-.464.09-.694.124-.23.039-.46.099-.69.141-.23.043-.482.005-.712.056-.23.047-.465.077-.695.133-.23.051-.429.214-.659.27-.225.055-.477.03-.707.093-.226.06-.425.223-.65.287-.226.064-.483.039-.704.107-.221.068-.411.244-.633.312-.22.069-.486.017-.707.09-.221.073-.43.184-.65.261-.217.081-.394.265-.61.351-.218.086-.457.116-.669.205-.212.09-.425.189-.632.287-.213.098-.452.137-.66.244-.207.107-.345.33-.548.445-.203.111-.425.188-.624.312s-.415.227-.61.36c-.195.132-.345.325-.535.462-.19.137-.412.235-.602.376-.19.141-.363.3-.548.441-.195.15-.447.235-.642.385-.194.15-.323.385-.517.54-.195.153-.363.333-.553.491-.19.158-.438.253-.62.42-.18.166-.393.303-.566.479-.163.158-.34.308-.49.475-.155.166-.288.355-.434.526-.146.171-.288.35-.43.53-.14.18-.19.42-.322.604-.133.184-.279.355-.403.543-.123.188-.35.32-.464.514-.115.192-.115.449-.221.646-.106.196-.279.363-.376.569-.098.2-.129.432-.217.641-.088.21-.142.424-.221.634-.08.21-.212.397-.283.611-.071.214-.102.437-.164.65-.062.215-.133.429-.186.647-.053.218-.19.42-.234.637-.044.219.049.462.013.68-.035.219-.07.437-.097.66-.027.222-.133.436-.15.658-.018.223 0 .45 0 .672-.014.218-.12.44-.12.663 0 .231.044.462.049.69.004.23-.027.461-.014.692.014.231.142.454.16.68.017.232.013.463.035.69.027.226.053.457.084.684.031.227.049.458.084.685.04.226.035.462.084.689.049.226.133.444.186.667.053.222.217.42.279.642.062.222.022.475.092.693.071.218.235.406.319.625.08.213.186.419.274.633.089.214.177.423.274.633.102.21.093.466.204.672.11.205.248.393.367.594.12.197.252.39.385.582.128.193.274.377.411.565.146.193.376.325.522.514.15.188.301.372.46.556.16.184.279.393.443.569.163.18.256.42.429.59.172.171.376.313.557.475.181.163.438.235.628.39.186.154.27.432.469.577.195.141.442.223.65.355.204.133.398.283.61.407.195.11.416.175.615.278.2.102.385.23.589.32.203.095.438.116.646.202.207.085.407.184.619.26.212.078.402.206.615.275.212.068.438.102.654.162.217.06.412.201.629.253.216.055.437.107.659.154.22.047.455.025.676.064.221.043.46-.005.681.03.222.034.439.111.66.14.243.035.477.13.725.16.243.025.487.098.734.115.244.017.496.004.744.017.247.013.495-.124.743-.124.247 0 .49.064.738.06.195.042.376.145.544.27.155.115.359.209.5.35.146.15.274.304.412.428.154.137.26.32.415.458.155.132.332.244.491.376.16.133.332.248.487.381.26.218.535.428.774.668.031.03-.013.128.018.162.004.009.013.009.022.021.12.142.305.244.469.36.163.115.336.295.54.278.238-.017.375-.227.46-.402.079-.176.15-.381.18-.56.05-.279-.04-.574.005-.852.044-.278.235-.526.31-.8.075-.257.11-.5.26-.693.151-.193.332-.368.598-.475.234-.094.513-.069.76-.146.244-.077.443-.3.69-.368.248-.068.514-.077.757-.154.221-.068.43-.18.65-.252.222-.073.465-.077.686-.15.221-.073.416-.222.633-.3.22-.076.433-.17.65-.248.216-.077.473-.068.69-.15.217-.08.394-.269.606-.354.217-.086.49-.039.703-.124.217-.09.385-.274.597-.368.213-.095.482-.069.695-.167.212-.099.424-.193.632-.295.208-.103.345-.338.549-.445.203-.107.411-.214.61-.326.204-.11.39-.248.588-.363.2-.12.394-.24.589-.364.194-.124.442-.171.632-.304.19-.132.385-.256.571-.393.186-.137.336-.317.518-.458.18-.146.318-.33.49-.484.173-.15.434-.214.598-.372.168-.158.292-.36.45-.522.156-.158.328-.304.474-.466.146-.167.195-.407.336-.578.142-.171.292-.33.425-.505s.367-.286.49-.466c.125-.184.191-.402.306-.59.115-.189.164-.411.27-.604.106-.192.239-.368.336-.569.093-.197.23-.376.314-.582.084-.2.235-.38.31-.59.075-.206.088-.432.15-.642.067-.214.195-.41.252-.629.062-.214-.048-.47.005-.689.053-.218.137-.423.181-.642.049-.218.075-.44.115-.659.04-.218.075-.436.11-.658.036-.223.195-.424.222-.646.026-.223-.018-.45 0-.672.018-.223.097-.44.106-.663.009-.223-.049-.45-.049-.672 0-.235.022-.475.018-.715 0-.24.009-.475 0-.714-.009-.24-.018-.475-.03-.715-.014-.24-.036-.475-.058-.714-.023-.24-.133-.467-.16-.702-.026-.235.089-.492.053-.727a39.59 39.59 0 00-.115-.71c-.044-.236-.137-.463-.185-.694l.004-.012zm-20.87 26.471c-.008.047.058-.017.085-.026-.022-.017-.084.026-.084.026zM41.92 23.417c-.053.214-.11.424-.172.633-.062.21-.115.424-.186.63-.071.205-.11.427-.19.628-.08.206-.222.381-.315.582-.092.201-.15.411-.252.608-.101.197-.19.398-.3.586-.111.188-.244.368-.367.552-.12.184-.288.334-.42.513-.129.18-.222.381-.359.552-.137.171-.283.33-.43.492-.145.163-.304.313-.455.47-.154.16-.26.356-.42.506-.16.15-.3.32-.469.466-.163.146-.331.291-.504.432-.173.137-.411.193-.588.325-.177.133-.301.334-.483.458-.18.124-.38.227-.566.347-.186.12-.424.158-.614.274-.195.12-.323.346-.523.458-.199.115-.468.106-.672.213-.203.107-.354.308-.557.411a25.43 25.43 0 01-.62.304c-.207.098-.41.201-.623.295-.208.094-.465.09-.677.18-.212.09-.416.192-.633.278-.212.086-.384.27-.601.35-.217.082-.433.16-.65.236-.226.081-.5.043-.73.12-.23.077-.447.18-.677.257-.23.077-.473.102-.708.175-.23.073-.433.231-.663.304-.23.072-.438.218-.668.29-.208.065-.451.03-.664.09-.212.06-.407.176-.61.253a3.553 3.553 0 00-.597.265c-.186.111-.3.287-.442.454-.133.154-.301.29-.385.505-.089.235-.093.488-.146.727-.053.244-.186.47-.221.715-.036.218-.04.44-.076.654-.009.043-.013.107-.026.154-.058-.051-.062-.167-.12-.218-.194-.171-.38-.355-.575-.522-.199-.167-.469-.252-.668-.42-.163-.14-.265-.35-.429-.491-.163-.146-.393-.214-.557-.36-.16-.145-.252-.363-.411-.509-.16-.145-.398-.2-.567-.33-.172-.132-.283-.363-.477-.457-.19-.094-.425-.141-.646-.18-.053-.008-.102.103-.142.107l-.022-.06a13.08 13.08 0 01-.712.013c-.239 0-.473-.077-.712-.09-.239-.008-.482.107-.721.09s-.469-.09-.708-.115c-.234-.026-.469-.086-.703-.12-.234-.034-.482 0-.717-.039-.234-.038-.46-.132-.694-.18-.235-.047-.469-.076-.704-.128-.23-.051-.442-.188-.672-.248-.23-.06-.49-.021-.716-.086-.217-.06-.447-.098-.664-.17-.212-.073-.398-.232-.61-.313-.213-.081-.403-.205-.61-.295-.209-.09-.399-.206-.602-.308-.204-.103-.412-.188-.606-.3a9.684 9.684 0 01-.575-.35c-.19-.125-.434-.176-.615-.313-.182-.137-.336-.304-.504-.454-.169-.15-.24-.389-.394-.551-.15-.159-.394-.24-.54-.403-.146-.162-.23-.376-.371-.543-.142-.167-.337-.295-.474-.466-.137-.172-.3-.326-.429-.505-.128-.176-.208-.39-.327-.57-.12-.183-.27-.35-.38-.534-.111-.188-.208-.385-.306-.578-.106-.2-.115-.44-.208-.65-.088-.205-.3-.372-.376-.582-.075-.214-.141-.432-.207-.646-.067-.214-.045-.454-.098-.676-.053-.218-.137-.432-.181-.65-.044-.223.013-.458-.022-.68-.04-.223-.11-.437-.142-.66-.03-.222-.017-.445-.044-.667-.027-.223-.164-.432-.186-.655-.022-.222-.009-.449-.022-.671a16.838 16.838 0 01-.03-.668c-.01-.222.008-.445.008-.671 0-.223.049-.445.057-.668.01-.223-.017-.445 0-.667.018-.223-.07-.454-.044-.677.022-.222.164-.432.2-.65.03-.222-.023-.458.021-.676.045-.218.071-.445.12-.663.053-.218.115-.436.177-.65.062-.214.247-.394.318-.608.071-.214.12-.428.204-.637.08-.21.155-.42.247-.625.093-.205.177-.41.28-.612.1-.201.114-.445.225-.642.12-.205.243-.415.367-.616.128-.2.3-.376.438-.573.137-.197.362-.33.508-.518.146-.188.266-.393.42-.577.155-.18.23-.437.394-.608.164-.175.456-.231.628-.398.173-.167.288-.385.47-.548.176-.162.375-.299.561-.453.186-.154.34-.342.53-.488.173-.137.372-.244.545-.38.172-.138.305-.326.478-.463.177-.132.367-.248.544-.38.177-.133.393-.214.575-.343.181-.128.34-.282.522-.406.181-.124.416-.176.601-.295.186-.12.372-.236.562-.347.19-.111.345-.278.54-.385.199-.107.358-.287.562-.385.203-.099.429-.158.636-.248.208-.09.443-.12.65-.206.209-.085.439-.12.65-.2.213-.078.412-.185.63-.258.211-.072.38-.282.596-.35.217-.069.451-.077.673-.142.216-.064.438-.124.654-.188.217-.064.416-.192.633-.257.216-.06.438-.106.659-.162.217-.056.455-.047.672-.099.217-.05.43-.132.65-.18.222-.046.438-.119.66-.162.22-.043.442-.098.663-.137.221-.038.46.022.686-.013.22-.034.442-.068.667-.098.226-.026.443-.12.664-.141.226-.022.46.073.681.06.226-.013.447-.09.673-.094.225-.009.45.025.676.025.226 0 .452-.12.677-.115.226 0 .447.15.673.158.225.009.45-.038.676-.026.226.018.451.009.677.03.226.022.433.163.655.193.225.03.473-.094.694-.056.221.039.434.146.65.193.221.047.452.06.668.115.217.056.416.189.628.257.226.073.483.073.708.158.226.082.456.15.677.24.221.09.403.274.62.368.216.098.486.098.698.205.212.103.358.343.566.454.213.111.474.132.681.248.208.115.341.35.544.47.204.125.403.249.602.377.2.128.487.137.681.27.195.137.39.278.575.423.19.141.394.274.575.424.182.15.367.308.54.466.177.158.279.394.447.56.168.168.318.347.477.523.16.175.35.325.5.505.15.184.341.338.478.53.137.193.164.454.288.65.128.197.296.373.406.574.116.205.195.423.297.637.102.21.305.381.394.6.084.218.146.449.212.671.07.222 0 .48.057.706.053.231.164.45.204.68.044.231.146.458.181.693.031.236.022.475.044.71.023.236 0 .476.014.71.017.236-.04.476-.027.711.014.235.089.47.098.706.008.235-.045.475-.04.71.009.218.181.432.181.65 0 .219-.04.437-.053.655-.013.218-.009.441-.031.655-.022.218-.044.436-.07.654-.027.219-.191.415-.226.63-.036.213-.01.44-.049.654-.044.214-.155.415-.204.629-.048.214-.088.428-.141.637l.022.026z" fill="#000001"/><path d="M23.9 26.264c.448 0 .86-.056 1.236-.168.384-.104.696-.216.936-.336.248-.128.388-.216.42-.264l1.464 2.976c-.272.504-.756.964-1.452 1.38-.696.424-1.544.636-2.544.636-.616 0-1.136-.072-1.56-.216a8.668 8.668 0 01-1.176-.504c-.36-.192-.76-.36-1.2-.504-.432-.144-.976-.216-1.632-.216-.496 0-.928.064-1.296.192-.36.136-.64.272-.84.408-.2.136-.308.22-.324.252l-1.788-2.136c.48-.624 1.184-1.144 2.112-1.56.936-.408 1.988-.612 3.156-.612.696 0 1.288.056 1.776.168.488.112.94.224 1.356.336.424.112.876.168 1.356.168zm-7.596-8.196c0 .712.144 1.364.432 1.956a3.565 3.565 0 001.212 1.404c.52.344 1.128.516 1.824.516.704 0 1.316-.172 1.836-.516.52-.352.924-.82 1.212-1.404a4.411 4.411 0 00.432-1.956c0-.712-.144-1.36-.432-1.944a3.565 3.565 0 00-1.212-1.404c-.52-.352-1.132-.528-1.836-.528-.696 0-1.304.176-1.824.528-.52.352-.924.82-1.212 1.404a4.335 4.335 0 00-.432 1.944zm-4.848 0c0-1.152.208-2.224.624-3.216a8.072 8.072 0 011.764-2.616 8.112 8.112 0 012.64-1.74 8.593 8.593 0 013.288-.624c1.2 0 2.304.208 3.312.624a7.946 7.946 0 012.64 1.74 7.764 7.764 0 011.74 2.616c.416.992.624 2.064.624 3.216 0 1.16-.2 2.24-.6 3.24a7.86 7.86 0 01-1.716 2.616 7.815 7.815 0 01-2.628 1.74c-1.016.416-2.14.624-3.372.624-1.264 0-2.408-.208-3.432-.624a7.686 7.686 0 01-2.616-1.74 7.89 7.89 0 01-1.68-2.616c-.392-1-.588-2.08-.588-3.24z" fill="#000"/></svg>