<svg width="44" height="42" fill="none" xmlns="http://www.w3.org/2000/svg"><path d="M18.465 36.628c-2.435.09-5.332-.368-7.803-1.152-1.664-.526-3.896-1.742-5.103-3.052-3.073-3.344-4.248-5.54-4.676-11.186-.37-4.877 1.14-10.082 6.125-13.995 3.14-2.466 4.65-3.605 8.978-4.928C20.767.855 24.404.337 29.512 1.284c2.672.496 6.701 2.774 8.136 3.994 4.914 4.178 5.332 7.295 5.517 12.672.062 1.866-.484 5.732-1.792 8.25-2.527 4.845-7.524 7.44-12.887 9.238a186.38 186.38 0 01-3.66 1.156c-.48.145-.87.513-1.051.997-.348.92-.37 2.098-.538 2.556a.228.228 0 01-.396.051c-.379-.522-1.607-1.378-3.227-2.907-.34-.32-.696-.612-1.14-.663h-.01z" fill="#fff"/><path d="M43.477 12.982a17.13 17.13 0 00-.177-.684c-.066-.227-.15-.45-.225-.672-.076-.223-.2-.432-.288-.646-.088-.218-.128-.458-.23-.672-.102-.214-.243-.406-.354-.616-.11-.21-.248-.402-.371-.608-.124-.2-.235-.41-.367-.607-.133-.193-.23-.42-.377-.608-.141-.184-.331-.338-.482-.517-.15-.18-.296-.364-.455-.54-.16-.175-.31-.355-.474-.521-.163-.167-.38-.287-.548-.45-.168-.162-.363-.3-.54-.453a26.422 26.422 0 00-.54-.454c-.18-.15-.296-.376-.486-.522-.186-.145-.433-.214-.624-.35-.19-.138-.367-.296-.566-.424-.194-.133-.34-.338-.544-.462-.199-.124-.473-.137-.681-.257-.204-.12-.34-.35-.553-.466-.208-.112-.473-.129-.686-.236-.212-.107-.424-.205-.641-.308-.217-.098-.438-.188-.655-.282-.22-.094-.398-.278-.619-.364-.221-.085-.451-.154-.677-.235-.225-.081-.486-.051-.712-.124-.23-.073-.464-.146-.699-.21-.234-.064-.442-.244-.68-.295-.24-.051-.488-.073-.73-.116-.24-.042-.479-.128-.722-.162s-.5.026-.743 0-.495.034-.739.017c-.243-.017-.482-.128-.73-.137-.247-.009-.49.039-.738.039s-.491-.018-.734-.013c-.248 0-.491.077-.735.085-.234.009-.473-.055-.707-.038-.235.017-.465.098-.7.124-.234.026-.477-.03-.712 0-.234.03-.464.09-.694.124-.23.038-.46.098-.69.141-.23.043-.482.004-.712.056-.23.047-.465.077-.695.132-.23.052-.429.214-.659.27-.225.056-.477.03-.707.094-.226.06-.425.223-.65.287-.226.064-.483.038-.704.107-.221.068-.411.244-.633.312-.22.068-.486.017-.707.09-.221.073-.43.184-.65.26-.217.082-.394.266-.61.352-.218.085-.457.115-.669.205-.212.09-.425.188-.632.287-.213.098-.452.137-.66.244-.207.107-.345.33-.548.445-.203.11-.425.188-.624.312s-.415.227-.61.36c-.195.132-.345.325-.535.461-.19.137-.412.236-.602.377-.19.141-.363.3-.548.44-.195.15-.447.236-.642.386-.194.15-.323.385-.517.539-.195.154-.363.334-.553.492-.19.158-.438.252-.62.42-.18.166-.393.303-.566.478-.163.159-.34.308-.49.475-.155.167-.288.355-.434.527-.146.17-.288.35-.43.53-.14.18-.19.42-.322.603-.133.184-.279.355-.403.544-.123.188-.35.32-.464.513-.115.193-.115.45-.221.646-.106.197-.279.364-.376.57-.098.2-.129.431-.217.641-.088.21-.142.424-.221.633-.08.21-.212.398-.283.612-.071.214-.102.437-.164.65-.062.214-.133.428-.186.646-.053.219-.19.42-.234.638-.044.218.049.462.013.68-.035.218-.07.437-.097.66-.027.222-.133.436-.15.658-.018.223 0 .45 0 .672-.014.218-.12.44-.12.663 0 .231.044.462.049.689.004.23-.027.462-.014.693.014.231.142.453.16.68.017.231.013.462.035.69.027.226.053.457.084.684.031.227.049.457.084.684.04.227.035.462.084.69.049.226.133.444.186.667.053.222.217.419.279.641.062.223.022.475.092.694.071.218.235.406.319.624.08.214.186.42.274.633.089.214.177.424.274.634.102.21.093.466.204.671.11.206.248.394.367.595.12.197.252.39.385.582.128.192.274.377.411.565.146.192.376.325.522.513.15.188.301.372.46.556.16.184.279.394.443.57.163.18.256.419.429.59.172.171.376.312.557.475.181.162.438.235.628.39.186.153.27.431.469.577.195.14.442.222.65.355.204.133.398.282.61.406.195.112.416.176.615.278.2.103.385.231.589.321.203.094.438.116.646.201.207.086.407.184.619.261.212.077.402.206.615.274.212.069.438.103.654.163.217.06.412.2.629.252.216.056.437.107.659.154.22.047.455.026.676.065.221.042.46-.005.681.03.222.034.439.11.66.14.243.035.477.129.725.159.243.026.487.098.734.115.244.017.496.005.744.017.247.013.495-.123.743-.123.247 0 .49.064.738.06.195.042.376.145.544.269.155.115.359.21.5.35.146.15.274.305.412.429.154.136.26.32.415.457.155.133.332.244.491.377.16.133.332.248.487.38.26.219.535.429.774.668.031.03-.013.129.018.163.004.008.013.008.022.021.12.141.305.244.469.36.163.115.336.295.54.278.238-.017.375-.227.46-.403.079-.175.15-.38.18-.56.05-.278-.04-.573.005-.851.044-.279.235-.527.31-.8.075-.257.11-.501.26-.694.151-.192.332-.368.598-.475.234-.094.513-.068.76-.145.244-.077.443-.3.69-.368.248-.069.514-.077.757-.154.221-.069.43-.18.65-.252.222-.073.465-.078.686-.15.221-.073.416-.223.633-.3.22-.077.433-.17.65-.248.216-.077.473-.068.69-.15.217-.08.394-.27.606-.355.217-.085.49-.038.703-.124.217-.09.385-.274.597-.368.213-.094.482-.068.695-.167.212-.098.424-.192.632-.295.208-.103.345-.338.549-.445.203-.107.411-.214.61-.325.204-.111.39-.248.588-.364.2-.12.394-.24.589-.363.194-.124.442-.172.632-.304.19-.133.385-.257.571-.394.186-.137.336-.316.518-.458.18-.145.318-.329.49-.483.173-.15.434-.214.598-.372.168-.159.292-.36.45-.522.156-.159.328-.304.474-.467.146-.166.195-.406.336-.577.142-.171.292-.33.425-.505s.367-.287.49-.466c.125-.184.191-.403.306-.59.115-.19.164-.412.27-.604.106-.193.239-.368.336-.57.093-.196.23-.376.314-.581.084-.201.235-.38.31-.59.075-.206.088-.433.15-.642.067-.214.195-.411.252-.63.062-.213-.048-.47.005-.688.053-.218.137-.424.181-.642.049-.218.075-.44.115-.659.04-.218.075-.436.11-.659.036-.222.195-.423.222-.646.026-.222-.018-.45 0-.672.018-.222.097-.44.106-.663.009-.222-.049-.449-.049-.671 0-.236.022-.475.018-.715 0-.24.009-.475 0-.715s-.018-.474-.03-.714c-.014-.24-.036-.475-.058-.715-.023-.24-.133-.466-.16-.701-.026-.236.089-.492.053-.728a39.724 39.724 0 00-.115-.71c-.044-.235-.137-.462-.185-.693l.004-.013zm-20.87 26.472c-.008.047.058-.017.085-.026-.022-.017-.084.026-.084.026zm19.313-16.94c-.053.215-.11.424-.172.634-.062.21-.115.424-.186.629-.071.205-.11.428-.19.629-.08.205-.222.38-.315.582-.092.201-.15.41-.252.607-.101.197-.19.398-.3.587-.111.188-.244.367-.367.552-.12.183-.288.333-.42.513-.129.18-.222.38-.359.552-.137.171-.283.33-.43.492-.145.162-.304.312-.455.47-.154.159-.26.356-.42.505-.16.15-.3.321-.469.467-.163.145-.331.29-.504.432-.173.137-.411.193-.588.325-.177.133-.301.334-.483.458-.18.124-.38.227-.566.346-.186.12-.424.159-.614.274-.195.12-.323.347-.523.458-.199.116-.468.107-.672.214-.203.107-.354.308-.557.41-.204.104-.412.206-.62.305-.207.098-.41.2-.623.295-.208.094-.465.09-.677.18-.212.09-.416.192-.633.278-.212.085-.384.27-.601.35-.217.082-.433.159-.65.236-.226.081-.5.043-.73.12-.23.077-.447.18-.677.256-.23.077-.473.103-.708.176-.23.072-.433.23-.663.304-.23.072-.438.218-.668.29-.208.065-.451.03-.664.09-.212.06-.407.176-.61.253a3.537 3.537 0 00-.597.265c-.186.111-.3.287-.442.453-.133.155-.301.291-.385.505-.089.236-.093.488-.146.728-.053.244-.186.47-.221.714-.036.218-.04.44-.076.655-.009.043-.013.107-.026.154-.058-.051-.062-.167-.12-.218-.194-.172-.38-.355-.575-.522-.199-.167-.469-.253-.668-.42-.163-.14-.265-.35-.429-.492-.163-.145-.393-.214-.557-.359-.16-.146-.252-.364-.411-.51-.16-.145-.398-.2-.567-.329-.172-.132-.283-.363-.477-.457-.19-.095-.425-.142-.646-.18-.053-.009-.102.102-.142.107l-.022-.06a13.3 13.3 0 01-.712.013c-.239 0-.473-.077-.712-.09-.239-.009-.482.107-.721.09s-.469-.09-.708-.116c-.234-.025-.469-.085-.703-.12-.234-.034-.482 0-.717-.038-.234-.039-.46-.133-.694-.18-.235-.047-.469-.077-.704-.128-.23-.051-.442-.188-.672-.248-.23-.06-.49-.022-.716-.086-.217-.06-.447-.098-.664-.171-.212-.073-.398-.231-.61-.312-.213-.082-.403-.206-.61-.296-.209-.09-.399-.205-.602-.308-.204-.102-.412-.188-.606-.3a9.74 9.74 0 01-.575-.35c-.19-.124-.434-.175-.615-.312-.182-.137-.336-.304-.504-.454-.169-.15-.24-.39-.394-.552-.15-.158-.394-.24-.54-.402-.146-.163-.23-.377-.371-.543-.142-.167-.337-.296-.474-.467-.137-.17-.3-.325-.429-.505-.128-.175-.208-.389-.327-.569-.12-.184-.27-.35-.38-.534-.111-.189-.208-.386-.306-.578-.106-.201-.115-.44-.208-.65-.088-.206-.3-.373-.376-.582-.075-.214-.141-.432-.207-.646-.067-.214-.045-.454-.098-.676-.053-.219-.137-.433-.181-.65-.044-.223.013-.458-.022-.681-.04-.223-.11-.436-.142-.659-.03-.222-.017-.445-.044-.667-.027-.223-.164-.433-.186-.655-.022-.222-.009-.45-.022-.672a16.53 16.53 0 01-.03-.667c-.01-.223.008-.445.008-.672 0-.222.049-.445.057-.667.01-.223-.017-.445 0-.668.018-.222-.07-.453-.044-.676.022-.222.164-.432.2-.65.03-.223-.023-.458.021-.676.045-.218.071-.445.12-.663.053-.218.115-.437.177-.65.062-.215.247-.394.318-.608.071-.214.12-.428.204-.638.08-.21.155-.419.247-.624.093-.206.177-.411.28-.612.1-.201.114-.445.225-.642.12-.205.243-.415.367-.616.128-.201.3-.377.438-.573.137-.197.362-.33.508-.518.146-.188.266-.394.42-.578.155-.18.23-.436.394-.607.164-.176.456-.231.628-.398.173-.167.288-.385.47-.548.176-.162.375-.3.561-.453.186-.154.34-.343.53-.488.173-.137.372-.244.545-.381.172-.137.305-.325.478-.462.177-.133.367-.248.544-.38.177-.133.393-.215.575-.343.181-.128.34-.283.522-.407.181-.124.416-.175.601-.295.186-.12.372-.235.562-.346.19-.112.345-.278.54-.385.199-.107.358-.287.562-.386.203-.098.429-.158.636-.248.208-.09.443-.12.65-.205.209-.086.439-.12.65-.201.213-.077.412-.184.63-.257.211-.073.38-.282.596-.35.217-.07.451-.078.673-.142.216-.064.438-.124.654-.188.217-.064.416-.193.633-.257.216-.06.438-.107.659-.162.217-.056.455-.048.672-.099.217-.051.43-.133.65-.18.222-.047.438-.12.66-.162.22-.043.442-.099.663-.137.221-.039.46.021.686-.013.22-.034.442-.068.667-.098.226-.026.443-.12.664-.142.226-.02.46.073.681.06.226-.012.447-.09.673-.094.225-.008.45.026.676.026.226 0 .452-.12.677-.116.226 0 .447.15.673.159.225.008.45-.039.676-.026.226.017.451.009.677.03.226.021.433.163.655.193.225.03.473-.095.694-.056.221.038.434.145.65.192.221.048.452.06.668.116.217.056.416.188.628.257.226.072.483.072.708.158.226.081.456.15.677.24.221.09.403.273.62.368.216.098.486.098.698.205.212.103.358.342.566.453.213.112.474.133.681.249.208.115.341.35.544.47.204.124.403.248.602.377.2.128.487.137.681.27.195.136.39.277.575.423.19.141.394.274.575.423.182.15.367.309.54.467.177.158.279.393.447.56.168.167.318.347.477.522.16.176.35.325.5.505.15.184.341.338.478.53.137.193.164.454.288.651.128.197.296.372.406.573.116.206.195.424.297.638.102.21.305.38.394.599.084.218.146.45.212.672.07.222 0 .479.057.706.053.23.164.449.204.68.044.23.146.458.181.693.031.235.022.475.044.71.023.236 0 .475.014.71.017.236-.04.475-.027.71.014.236.089.471.098.707.008.235-.045.475-.04.71.009.218.181.432.181.65 0 .218-.04.437-.053.655-.013.218-.009.44-.031.655-.022.218-.044.436-.07.654-.027.218-.191.415-.226.63-.036.213-.01.44-.049.654-.044.214-.155.415-.204.629-.048.214-.088.427-.141.637l.022.026z" fill="#000001"/><path d="M19.144 9.258h4.548l6.528 15.84h-4.956l-1.008-2.748h-5.652l-1.02 2.748h-4.968l6.528-15.84zm1.02 9.06h2.532l-1.248-3.492h-.036l-1.248 3.492z" fill="#000"/></svg>