<svg width="443" height="473" fill="none" xmlns="http://www.w3.org/2000/svg"><g clip-path="url(#clip0_1198_92)"><path d="M424.931 119.151c-21.715-37.62-61.114-58.62-101.635-58.658-20.288-35.08-58.185-58.695-101.616-58.695-43.43 0-81.328 23.615-101.616 58.686-40.52.037-79.919 21.048-101.634 58.658-21.715 37.619-20.214 82.236.018 117.353-20.232 35.108-21.733 79.734-.018 117.354 21.715 37.619 61.114 58.621 101.634 58.658 20.288 35.07 58.186 58.686 101.616 58.686 43.431 0 81.328-23.616 101.616-58.686 40.521-.037 79.92-21.048 101.635-58.658 21.715-37.62 20.214-82.237-.019-117.354 20.233-35.108 21.734-79.734.019-117.353v.009z" fill="#fff" stroke="#000" stroke-width="3.88" stroke-miterlimit="10"/><path d="M305.019 68.093l-3.466-5.996c-16.469-28.463-47.082-46.146-79.891-46.146-32.81 0-63.422 17.683-79.892 46.146l-3.549 6.135a8.62 8.62 0 00-1.604 5.024 8.694 8.694 0 108.694-8.694c-.186 0-.371.019-.556.028l.333-.575c15.784-27.285 45.127-44.237 76.583-44.237 31.456 0 60.79 16.952 76.583 44.237l.333.575c-.176-.01-.352-.028-.537-.028a8.694 8.694 0 108.693 8.694 8.611 8.611 0 00-1.714-5.163h-.01zM138.332 402.061l3.466 5.997c16.47 28.462 47.082 46.146 79.892 46.146 32.809 0 63.421-17.684 79.891-46.146l3.55-6.136a8.626 8.626 0 001.603-5.023 8.694 8.694 0 10-8.693 8.694c.185 0 .37-.019.556-.028l-.334.574c-15.784 27.286-45.127 44.237-76.583 44.237-31.456 0-60.79-16.951-76.582-44.237l-.334-.574c.176.009.352.028.537.028a8.695 8.695 0 000-17.387 8.694 8.694 0 00-8.693 8.693c0 1.937.639 3.717 1.715 5.162h.009zM118.739 79.41h-6.923c-32.884.037-63.506 17.702-79.91 46.118-16.405 28.416-16.396 63.765.018 92.264l3.54 6.145a8.623 8.623 0 003.55 3.902 8.694 8.694 0 0011.873-3.179 8.693 8.693 0 00-3.18-11.872 8.692 8.692 0 00-11.872 3.179c-.092.166-.176.333-.26.5l-.333-.575c-15.737-27.313-15.746-61.197-.018-88.436 15.728-27.239 45.08-44.172 76.601-44.2h.667a5.663 5.663 0 00-.287.445 8.693 8.693 0 003.179 11.872 8.693 8.693 0 0011.872-3.179 8.692 8.692 0 00-3.179-11.872 8.68 8.68 0 00-5.329-1.103l-.009-.01zm205.873 311.335h6.924c32.883-.037 63.505-17.702 79.91-46.118 16.404-28.416 16.395-63.765-.019-92.264l-3.54-6.145a8.624 8.624 0 00-3.55-3.902 8.692 8.692 0 103.179 11.872c.093-.166.176-.333.26-.5l.333.575c15.738 27.313 15.747 61.206.019 88.436-15.728 27.239-45.081 44.172-76.602 44.2h-.667c.102-.148.204-.297.287-.445a8.692 8.692 0 00-3.178-11.872 8.693 8.693 0 00-11.873 3.179 8.693 8.693 0 003.179 11.872 8.68 8.68 0 005.329 1.103l.009.009zM35.39 246.384l-3.457 5.997c-16.413 28.49-16.423 63.848-.018 92.264 16.405 28.416 47.027 46.081 79.91 46.109h7.09a8.613 8.613 0 005.153-1.112c4.162-2.4 5.58-7.72 3.179-11.872-2.4-4.162-7.72-5.58-11.872-3.179-4.162 2.4-5.58 7.72-3.179 11.872.092.167.204.315.306.473h-.668c-31.52-.028-60.873-16.961-76.601-44.2-15.728-27.239-15.719-61.123.019-88.437l.333-.574c.084.157.158.324.241.472 2.4 4.162 7.72 5.58 11.873 3.179 4.161-2.4 5.58-7.72 3.179-11.872-2.4-4.162-7.72-5.58-11.873-3.179a8.596 8.596 0 00-3.614 4.059zm372.571-22.614l3.457-5.996c16.414-28.49 16.423-63.848.019-92.265-16.405-28.416-47.027-46.08-79.91-46.109h-7.091a8.614 8.614 0 00-5.153 1.113c-4.161 2.4-5.579 7.72-3.179 11.872a8.69 8.69 0 0011.873 3.18c4.161-2.401 5.579-7.721 3.179-11.873-.093-.167-.204-.316-.306-.473h.667c31.521.028 60.873 16.961 76.602 44.2 15.728 27.239 15.718 61.123-.019 88.436l-.334.575c-.083-.158-.157-.324-.241-.473-2.4-4.161-7.72-5.579-11.872-3.179a8.687 8.687 0 00-3.179 11.873c2.4 4.161 7.72 5.579 11.872 3.179a8.593 8.593 0 003.615-4.06z" fill="#231815"/><path d="M260.208 147.197l-.547 2.094.047 2.16-.862 1.974-.973 1.872-1.14 1.761-.983 1.872-1.158 1.798-1.613 1.4-1.557 1.501-1.946.927-1.919.927-1.983.815-2.197-.055-2.057.398-2.095.612-2.104-.538-2.094-.203-2.16-.177-2.011-.741-1.603-1.548-1.798-1.047-2.03-.816-1.576-1.445-1.418-1.604-1.131-1.816-1.232-1.771-.76-2.02-.334-2.123-.417-2.085v-2.122l.102-2.123-.028-2.168.946-1.956.862-1.937.75-2.011 1.418-1.613 1.233-1.761 1.585-1.436 1.826-1.113 1.974-.797 1.659-1.418 2.104-.435 2.048-.482 2.076-.389 2.113.268 2.123-.352 2.039.612 2.122.222 2.095.464 1.825 1.149 1.696 1.279 1.53 1.446 1.937 1.01.954 1.974 1.576 1.455 1.019 1.872.427 2.104.667 1.974.399 2.058.574 2.104z" fill="#E50012"/><path d="M343.232 147.985l-1.956-.862-1.723-1.288-1.937-.89-2.021-.705-1.993-.602-1.909.297-1.26 1.705-1.659 1.279-1.567 1.344-1.779 1.047-1.474 1.483-1.835.955-1.622 1.269-1.816.983-1.576 1.344-1.807.973-1.78 1.019-1.788 1.001-1.826.946-1.817.945-1.668 1.242-1.854.899-1.835.936-2.002.528-1.946.649-1.956.64-2.039.176-2.066.129-1.771-1.047-1.445-1.455-.38-2.048.129-2.049.204-2.048.816-1.909.574-1.956.529-2.122h1.946l1.974-.213 1.733-1.094 1.993-.537 1.863-.862 1.965-.584 1.844-.955 2.085-.241 1.835-.982 1.984-.566 1.909-.76 1.826-.963 1.835-.899 1.854-.862 1.751-1.066 1.493-1.205 1.371-1.353 1.14-1.557.769-1.77.649-1.798.575-1.873-.973-1.937-1.279-1.659-1.214-1.798-1.845-1.112-1.863-1.001-2.002-.658-2.029-.621-2.104-.296-2.113-.149-2.141-.074-2.067.649H304l-2.048.63-1.9-.25-1.863.287-1.854-.25-1.881-.046-1.808-.056-1.714-.63-1.817-.149-1.863-.222 1.937 1.344 1.873 1.325 1.844 1.363 1.622 1.538 1.64 1.335 1.752 1.084 1.483 1.418 1.678 1.261.704 1.965.778 1.955-.778 1.956-.964 1.844-1.39 1.77-1.548 1.613-1.622 1.538-1.687 1.493-1.779 1.39-2.54 1.742-1.399.723-1.863.084-1.78-.51-1.798-.51-1.798-.491-2.141-.501-2.178-.333-2.168-.436-2.197-.269-2.261.269-2.067.964-2.197.853 1.659 1.483.834 1.955.659 2.002.509 2.039.797 1.993.408 2.085.148 2.039.399 1.993.371 2.002.556 1.964.324 2.012.148 2.039.26 2.02.63 1.956v2.057l.297 2.002.51 1.984-.158 2.066.25 2.011.584 1.984-.093 2.048.278 2.011-.092 2.039.167 2.021.305 2.02-.203 2.03.129 2.03-.157 2.02v2.039l-.584 1.974.139 2.076-.593 1.956-.26 2.03-.917 1.853-.297 2.021-.547 1.955-.454 1.974.019 2.039-.464 1.975-.25 1.992-.732 1.891-.288 1.993-.574 1.918-.584 1.919-.714 1.872-.602 1.909-.871 1.807-.872 2.225-.667 2.317.074 2.344.473 1.91 1.4 1.39 1.723.927 1.78.991 2.011.195 1.993.185 2.002.149 2.02.269 2.002-.835 1.928-.862 1.483-1.51 1.334-1.613 1.316-1.715.288-2.15.602-2.057 2.419-.964 2.521-.51 2.02-.621 1.993-.704 2.15-.167 1.91-1.001 2.076-.417 2.039-.538 2.094-.306 2.011-.639 2.049-.501 1.965-.815 2.094-.297 2.048-.491 2.002-.695 2.058-.473 2.039-.547 2.113-.157 2.058-.417 1.946-.241-.213 2.215-.251 2.206-.695 2.131-.315 2.197-.194 2.234-1.27 1.371-.742 1.706-.889 1.64.815 1.863 1.465 1.409 1.622 1.121 1.9.612 1.964.398 2.012.223 2.02-.074 2.02-.102 1.975-.121 1.964-.417 1.669-1.121 1.344-1.455 1.214-1.548.936-1.742.695-1.882-.158-2.002.037-2.011-1.306-1.501-1.094-1.808-1.27-1.659-1.047-1.816-.436-2.067-.936-1.891-.204-2.094-.713-1.984-.028-2.104-.362-2.048-.435-2.048.018-2.086.102-2.085-.472-2.067.074-2.085.259-2.076-.129-2.085.111-2.086.398-2.057-.231-2.113.658-2.03-.214-2.123.649-2.02v-2.104l.325-2.057.5-2.03.111-2.095.39-2.048.658-1.993.574-2.002.427-2.039.537-2.011.167-2.104.686-1.974.324-2.076.649-1.983.917-1.9.64-1.983.621-1.993.704-1.946.575-1.761.556-1.789-.111-1.872-.084-2.178-1.195-1.826-1.446-1.613-1.761-1.242-1.928-.954-1.798-1.168.028-.037zm-13.105 73.403l.222 1.928-.296 1.919.037 1.918-.528 1.891-1.947.575-2.169-.427-2.196-.055-2.039-.195-2.03.195-2.03-.176-2.029.361-2.03-.269-2.03.121-2.029-.204-2.039.259-2.03-.157-2.03-.074-2.03-.047-2.029-.074-2.039-.028-2.03.362-2.03.046-2.039.158-1.992-.167.064-2.076-.101-2.123.129-2.122-.213-2.132.287-2.131-.278-2.132.084-2.132.092-2.131-.12-2.132.324-2.132-.046-2.131-.287-2.132.083-2.076.111-2.076v-2.076l.269-2.076-.167-2.086.093-2.085-.315-2.085.473-2.095-.26-2.113.25-2.095.102-2.094-.046-2.104.093-2.095.25-2.085.194-2.095.019-2.048 1.585.556 1.742.139 2.021-.194 2.02-.149 2.03.065 1.983-.463 1.993-.325 2.057.149 1.965-.519 1.993-.343 1.983-.38 2.021-.213 1.983-.418 1.872-.444 1.919-.214 1.835-.76 1.955.093 1.91-.278 1.955-.083 1.835-.631 1.539.612.278 2.039.037 2.095-.287 2.094.278 2.095-.26 2.095.13 2.094v2.095l-.019 2.094-.185 2.095v2.095l.139 2.103-.13 2.095.38 2.095-.389 2.094.417 2.095-.306 2.094.195 2.104-.139 2.095-.232 2.085.028 2.141.139 2.141.102 2.141-.278 2.141.065 2.15.157 2.15-.074 2.151.056.064zm-116.908 24.097l-.214-.315.288-.37-.352-2.123-.019-2.132-.343-2.103-.676-2.021-.566-2.039-.788-1.965-.658-2.029-1.075-1.845-1.223-1.742-1.122-1.798-.963-1.928-1.326-1.668-1.566-1.455.074-.047-1.316-1.538-1.548-1.316-1.631-1.187-1.566-1.297-1.854-.844-1.77-.973-1.789-.936-1.844-.843-1.891-.658-1.965-.371-1.983-.232-1.984-.204-1.992.084-1.984.046-2.002-.12-1.974.269-1.038-2.327-1.01-2.28 2.197-.065 2.242-.194 2.253.129 1.983-.268 1.983-.093 1.984-.158 1.983-.231 2.002-.047 1.993-.166 1.992-.269 1.984.315 2.28.046 2.28.084 2.27.111 2.271.269 2.058-.501 2.048-.371 1.965-.695 1.835-1.075.899-1.918.658-1.919.028-2.039-.742-1.909-.769-1.854-1.14-1.649-1.353-1.493-1.696-1.093-1.752-.983-1.742-1.084-2.011-.398-1.956-.445-2.021.027-2.02.325-1.881.834-1.975.538-1.798.973-1.835.908-2.039.334-1.872.787-1.9.751-2.057.482-2.058.454-2.067.454-2.103.186-2.114.027-2.104.075-1.983.037-1.112-1.78-.602-2.104-.436-2.141-.223-2.178-.092-2.178-.195-2.168.111-2.104 1.113-.288 1.937.334 1.927-.241 1.928.093 1.937-.213 1.937.074 1.937.065h1.891l1.196 1.946 1.612 1.576 2.095 1.019 2.187.213 2.187-.139 2.16-.343 2.187-.287 2.011-.908 1.808-1.27 1.297-1.761.871-1.974.306-2.058-.018-2.141-.102-2.141.185-2.178-.102-2.159-.352-2.141-.185-2.141-.362-2.604-.686-2.048-.417-2.132.139-2.178-.259-1.863.204-1.891-.056-1.918.334-1.872.982-1.965.806-2.141 1.567-1.261 1.362-1.473.491-1.956.13-2.048-.695-1.937-.816-1.845-1.149-1.649-1.186-1.65-1.743-1.066-1.584-1.307-1.984-.537-1.844-.871-1.993-.418-2.15-.064-2.113-.297-2.132.176-2.085.232-2.011.574-2.113.186-2.067-.538-2.039-.472-1.808-.751-1.761-.834-1.631-1.094-1.853-.621.287.908 1.288 1.455 1.428 1.326 1.362 1.344 1.594 1.288 1.122 1.696 1.418 1.455 1.306 1.557 1.085 1.724 1.483 1.585-1.131 1.807-1.603 1.326-1.826.954-1.9.779-1.891.889-2.057.306-2.03.464-2.067.194-2.076-.027-2.076.074-2.058-.38h-2.066l-2.067-.121-2.067-.111-2.067-.176-2.048-.306-2.002-.556-2.011-.482-2.086-.093-2.011-.472-2.048-.334-1.993-.602-2.048-.362-1.983-.639-1.993-.584-1.956-.686-2.029-.436-2.03-.463-1.993-.575-2.002-.537-1.927-.807-1.919-.825-2.169-.556-2.215-.333-2.215-.25-2.206-.436-1.065-1.937-1.9 1.195-1.974.798-1.446 1.547-1.41 1.511-1.158 1.779-.26 2.123.418 1.965.195 1.965.658 1.862.843 1.78 1.251 1.548 1.733.964 1.734.991 1.946.492 2.011-.186 2.067.148 2.067.038 2.066.037 2.067.064 2.058.241 2.076-.213 2.067.112 2.048.398 2.067-.056 2.048.26 2.057.167 2.077-.213 2.048.38 2.076-.167 2.067.055 2.066.019 2.067.222h2.067l2.067-.166 2.057-.214 2.076.223 2.039-.445 2.095.157 2.03-.463 2.048-.278 2.058-.232 2.001-.528 1.993-.547 1.965-.63 2.057-.352 1.937-.751 1.78-1.084 1.881-.853 1.78-1.038 1.928-1.325 1.761.584.315 2.261.176 2.28.324 2.252.13 2.021-.139 2.011-.334 1.992-.167 2.012-.268 1.992.028 2.021-.251 1.9.158 1.927-.612 1.761-2.011.306-2.002.39-2.011.287-2.002.371-2.03.148-2.03.167-2.02.241-1.965.639-2.02.269-2.03.176-2.048.028-2.021.213-2.002.426-2.048-.083-2.03.074-2.011.436-2.039-.056-2.03-.056-2.039.13-2.011-.445-2.048.158-2.03-.195-2.011-.296-1.955-.621-1.993-.334-2.03-.195-1.965-.528-1.909-.732-1.974-.454-1.993-.445-2.002-.714v-2.113l-.074-2.085.297-2.086-.742-2.122-1.158-1.928-2.048-.982-1.817-.964-1.863-.918-1.844-.963-1.993-.557-1.928.112-1.937-.065-1.89.38-1.854.51-1.844.528-1.836.658-1.38 1.26 1.214 1.65 1.362 1.641.853 1.974.306 2.057.686 1.956.593 1.974.528 1.993.306 2.048.611 1.974.316 2.048.769 1.946.324 2.049.408 2.02.297 2.048.5 2.012.241 2.057.38 2.03.287 2.039.343 2.039.232 2.048.389 2.03-.139 2.076.325 2.048-.028 2.067.241 2.067-.093 2.067-.111 2.066-.241 2.049-.269 2.039-.259 2.039-.306 2.039-.25 2.057-.779 1.928-.343 2.048-.714 1.937-.936 1.854-.658 1.946-.611 1.965-.686 1.937-.862 1.872-.714 1.928-.834 2.104-1.13 1.983-1.484 1.743-1.603 1.798-.75 2.289-.223.547.074 2.039.315 2.131.51 2.095.862 1.983 1.279 1.752 1.724 1.307 1.983.815 2.187.798 2.336-.028 2.308-.297 1.965-.565 1.798-.973 1.779-.974 1.77-1 1.687-1.14 1.715-1.103 1.52-1.363 1.668-1.177 1.64-1.214 1.557-1.316 1.4-1.501 1.594-1.28 1.325-1.575 1.483-1.4 1.511-1.371 1.539-1.344 1.464-1.427 1.585-1.298v.046l1.381-1.51 1.538-1.335 1.696-1.158 1.511-1.372 1.687-1.159 1.52-1.362 1.52-1.363 1.622-1.232 1.696-1.14 1.612-1.251 1.696-1.15 1.65-1.204 1.678-1.187.769 2.123.51 2.215 1.112 1.983.565 2.002.807 1.909.954 1.845.621 2.002.973 1.835.974 1.835 1.204 1.696 1.14 1.733 1.224 1.677 1.362 1.567 1.418 1.51 1.65 1.261 1.353 1.603 1.705 1.187 1.734 1.149 1.788 1.056 1.956.714 1.733 1.205 2.048.445 1.974.612 2.002.509 2.002.529 2.03.472 2.095-.12 2.057.259 2.076.269 2.067-.343 2.057-.278 2.049-.343 2.039-.426 1.9-.871 1.779-1.075 1.455-1.456 1.252-1.603.954-1.844.269-2.067-.111.018.268-.519h-.027zm-94.832-11.715l-1.844-.111-.816-1.557-.482-2.048.241-2.085.185-2.076.037-2.095.306-2.058.204-2.076.464-2.039.12-2.085.037-2.095.25-2.076.538-2.029.167-2.067-.019-2.076.204-2.067.167-2.067.028-2.076.018-2.076.278-2.067-.157-2.085.102-2.076.13-2.067.092-2.076.047-2.067-.065-2.067-.028-2.113 2.039-.12 2.03-.288 2.039-.157 2.057.111 2.039-.185h2.048l2.039-.204 2.049-.121 2.039-.25 2.057.111 2.039-.25 2.048-.056 2.049-.111 2.039-.194 2.057-.019 2.048-.148.232 1.983-.343 1.984.158 1.992.055 1.993-.046 1.983-.297 1.984.371 1.974.111 2.02-2.159.102-2.113-.167-2.141.269-2.104-.334-2.058-.574-2.02-.13-1.956-.454-1.955-.463-1.882-.714-1.825-.918-.825-1.724-1.835.686-1.641 1.335-1.566 1.362-1.483 1.465-1.01 1.863-.028 2.113-.111 2.011.584 1.928.815 1.798.658 1.909 1.465 1.381 1.714.992 1.817.797 1.955.37h1.974l2.123-.139 2.131-.074 2.123-.194 2.122-.214 2.076-.565 2.104-.278 2.104-.334 2.113-.259 2.197-.176.408 2.011v1.993l.648 1.881.019 2.002.445.834-2.104.797-1.956 1.122-2.048.899-1.909.899-1.826 1.056-1.687 1.288-1.826 1.057-1.881.973-1.854 1.02-1.742 1.205-1.743 1.195-1.927.89-1.798 1.103-1.863 1.001-1.817 1.103-1.872 1.01-1.993.732-2.039.621-2.122.046-.037.037zm79.984 1.14l-1.585.714-1.724-.287-1.816.13-1.77-.353-2.012-.482-1.992-.63-1.743-1.158-1.631-1.298-1.26-1.659-1.363-1.557-1.307-1.631-1.001-1.826-.62-2.002-.844-1.881-.927-1.854-.63-1.974-.593-1.993-.695-1.603-.621-1.659 2.002.093 1.974-.232 1.974.12 1.965.241 1.955.297 1.937.352 1.947.352 1.918.473 1.854.704 1.863.705 1.705 1.038 1.492 1.501 1.53 1.428 1.204 1.705 1.15 1.742.806 1.928.575 2.02-.214.075.019 1.955-.371 1.909-.593 1.845-.964 1.677-1.603 1.066.009.009z" fill="#231815"/><path d="M331.174 176.901c-8.322 20.826-76.656 53.839-89.456 73.487a2.41 2.41 0 00-.306.769c-.445 2.067-1.798 3.847-4.198 4.968h-1.029c-2.567-2.697-5.468-5.533-8.545-7.933-3.411-2.688-11.558-10.27-10.38-14.292 0-.028 4.263.343 4.254.315-.149-1.705 2.799.158 3.438-2.131.167-.603.63-1.113 1.224-1.465 3.558-2.104 4.263-4.476 7.266-8.906 2.428-6.266 6.803-12.346 8.462-18.24.593-2.123-1.993-3.865-4.153-2.771a36.497 36.497 0 00-3.531 2.085c-1.112.741-2.697.649-3.679-.222-4.162-3.652-6.581-8.092-7.155-13.597a2.19 2.19 0 01.222-1.205l1.224-2.539c3.651-8.008 5.941-11.205 3.911-1.075 0 .009.194.704.204.713.621.51 1.696.241 2.521.056 4.189-.936 7.85-3.105 10.871-6.414.204-.222.454-.426.732-.584 4.838-2.585 9.982-2.215 14.959 1.131 2.224 1.344 2.734 3.29 1.539 5.533-5.302 9.129-12.967 18.555-18.092 27.981-3.309 6.349-6.914 12.447-10.945 18.054-.668.936-.445 2.16.546 2.836.01 0 .028.019.037.028.983.658 2.392.593 3.272-.167 15.496-13.364 85.73-40.288 96.213-57.768m18.406 175.835H94.012v3.105h254.994v-3.105zm0-2.799H94.012v1.029h254.994v-1.029zM97.524 293.291v-4.088c0-.426.362-.778.816-.778h24.746c.445 0 .815.343.815.778v4.088c0 .426-.361.778-.815.778h-7.081c-.426 0-.779.325-.806.723-.705 9.741-4.625 16.859-10.992 20.288a.841.841 0 01-1.122-.343l-1.9-3.726c-.185-.37-.028-.806.343-1.01 5.07-2.817 6.96-8.656 7.452-15.098.037-.445-.343-.834-.816-.834h-9.815c-.445 0-.816-.343-.816-.778h-.009zm23.467-15.478v3.049c0 .426-.361.779-.815.779h-18.88c-.445 0-.815-.343-.815-.779v-4.087c0-.426.361-.779.815-.779h16.841c.444 0 .815-.343.815-.778v-4.087c0-.427.362-.779.816-.779h2.029c.445 0 .816.343.816.779v5.134c0 .426-.361.779-.816.779-.444 0-.815.343-.815.778l.009-.009zm6.914-6.682v5.134c0 .426-.361.779-.815.779h-1.975c-.444 0-.815-.343-.815-.779v-5.134c0-.427.361-.779.815-.779h1.975c.444 0 .815.343.815.779zm37.036 6.144v1.27c0 .426.361.778.815.778h3.606c.445 0 .815.343.815.779v4.087c0 .426-.361.779-.815.779h-3.606c-.445 0-.815.343-.815.778v8.833c0 12.252-7.155 18.314-15.302 20.705a.839.839 0 01-.973-.408l-1.9-3.726c-.213-.417.018-.917.482-1.075 7.544-2.456 11.427-6.794 11.427-15.496v-8.833c0-.426-.361-.778-.815-.778h-6.386c-.445 0-.815.343-.815.778v10.621c0 .427-.362.779-.816.779H145.2c-.445 0-.816-.343-.816-.779v-10.621c0-.426-.361-.778-.816-.778h-3.605c-.445 0-.816-.343-.816-.779v-4.087c0-.426.362-.779.816-.779h3.605c.445 0 .816-.343.816-.778v-1.27c0-.426.361-.778.816-.778h4.643c.445 0 .816.342.816.778v1.27c0 .426.361.778.815.778h6.386c.445 0 .815-.343.815-.778v-1.27c0-.426.362-.778.816-.778h4.643c.445 0 .816.342.816.778h-.009zm2.437-6.729h1.974c.445 0 .816.343.816.779v5.134c0 .427-.362.779-.816.779h-1.974c-.445 0-.815-.343-.815-.779v-5.134c0-.426.361-.779.815-.779zm4.467 5.913v-5.134c0-.426.362-.779.816-.779h2.03c.445 0 .815.343.815.779v5.134c0 .427-.361.779-.815.779h-2.03c-.445 0-.816-.343-.816-.779zm24.932 14.45c-2.632 1.316-5.394 2.354-8.851 3.308a.83.83 0 01-1.01-.51l-1.317-3.92c-.139-.408.102-.843.538-.964 8.36-2.474 15.941-7.563 20.77-13.355a.828.828 0 011.084-.158l3.68 2.391c.398.26.482.788.167 1.14-2.086 2.317-4.607 4.857-7.322 7.053a.779.779 0 00-.288.584v27.156c0 .426-.361.779-.815.779h-4.644c-.444 0-.815-.343-.815-.779v-22.03c0-.575-.64-.955-1.177-.686v-.009zm44.561-5.311l-1.946 4.115a.818.818 0 01-1.057.408l-10.102-4.384a.83.83 0 01-.408-1.121l1.956-4.078a.8.8 0 011.047-.399l10.084 4.338a.83.83 0 01.408 1.121h.018zm17.851 1.576c-3.939 13.781-12.865 22.586-25.988 28.036a.813.813 0 01-1.001-.334l-2.336-3.781a.84.84 0 01.371-1.196c13.031-5.913 18.833-12.883 23.124-24.987.157-.435.639-.667 1.066-.491l4.282 1.742a.844.844 0 01.482 1.011zm17.683 22.475c8.768-4.106 11.604-9.778 12.531-16.507.083-.621-.427-1.177-1.075-1.177h-14.672c-.593 0-1.075-.473-1.075-1.047v-3.939c0-.584.482-1.047 1.075-1.047h21.604c.603 0 1.094.481 1.085 1.075-.214 14.236-4.69 23.328-16.748 28.23a1.098 1.098 0 01-1.381-.509l-1.854-3.643c-.268-.528-.027-1.167.519-1.418l-.009-.018zm18.323-34.098v3.939c0 .584-.482 1.047-1.075 1.047h-19.305c-.594 0-1.075-.472-1.075-1.047v-3.939c0-.584.481-1.047 1.075-1.047h19.305c.593 0 1.075.473 1.075 1.047zm25.988 19.723c-.111 6.72-1.344 10.538-4.921 15.33a.962.962 0 01-1.233.278l-3.475-1.937c-.529-.297-.695-1.029-.343-1.539 2.854-4.18 3.846-7.405 3.967-12.15.018-.575.444-1.038.982-1.038h4.032c.546 0 .991.482.982 1.065l.009-.009zm2.633-9.416h-7.637c-.547 0-.983-.473-.983-1.048v-3.994c0-.584.445-1.048.983-1.048h7.637c.546 0 .982-.472.982-1.047v-3.939c0-.584.445-1.047.982-1.047h4.023c.547 0 .982.473.982 1.047v3.939c0 .584.445 1.047.983 1.047h7.637c.546 0 .982.473.982 1.048v3.994c0 .584-.445 1.048-.982 1.048h-7.637c-.547 0-.983.472-.983 1.047v16.97c0 8.017-.408 11.289-7.405 11.567-.556.018-1.038-.455-1.038-1.057v-3.948c0-.519.324-1.001.806-1.085 1.631-.287 1.631-1.723 1.631-6.32v-16.136c0-.584-.444-1.048-.982-1.048l.019.01zm11.307 9.323l3.948-.787c.528-.102 1.029.259 1.14.815l2.752 13.847c.112.574-.231 1.14-.769 1.251l-3.902.825c-.528.111-1.038-.25-1.149-.806l-2.799-13.884c-.12-.575.232-1.149.779-1.251v-.01zm2.502-23.772v5.06c0 .584-.445 1.047-.982 1.047h-1.474c-.547 0-.982-.472-.982-1.047v-5.06c0-.584.444-1.048.982-1.048h1.474c.546 0 .982.473.982 1.048zm5.051 0v5.06c0 .584-.445 1.047-.982 1.047h-1.474c-.547 0-.982-.472-.982-1.047v-5.06c0-.584.445-1.048.982-1.048h1.474c.547 0 .982.473.982 1.048zm-231.629 68.037h-1.854v-9.843l-4.393 9.862h-1.77l-4.236-9.862v9.843H96.95v-11.418h3.244l3.799 8.675 3.93-8.675h3.124v11.418zm7.368.019h-1.826v-11.428h1.826v11.428zm17.174 0h-1.9l-7.813-8.722v8.722h-1.91v-11.428h1.947l7.757 8.518v-8.518h1.928v11.428h-.009zm7.201-4.356v4.356h-1.826v-11.428h7.683c2.438 0 3.652 1.372 3.652 3.559 0 2.187-1.242 3.522-3.754 3.522h-5.755v-.009zm0-5.181v3.234h5.83c1.121 0 1.77-.593 1.77-1.64s-.63-1.594-1.752-1.594h-5.848zm24.551 9.537h-2.113l-1.168-2.605h-6.089l-1.14 2.605h-1.974l5.023-11.428h2.327l5.143 11.428h-.009zm-8.675-4.356h4.718l-2.354-5.237-2.364 5.237zm18.907-3.161l5.811 7.517h-2.595l-4.689-6.33-3.152 2.456v3.874h-1.825v-11.428h1.825v5.283l6.673-5.283h2.948l-4.996 3.911zm20.437 2.271c0 3.967-2.429 5.626-5.654 5.626s-5.403-1.696-5.403-5.589v-6.219h1.881v5.876c0 3.012 1.427 3.995 3.55 3.995 2.122 0 3.809-.899 3.809-3.976v-5.895H198v6.182h.01zm17.85-6.182c3.531 0 6.451 1.149 6.451 5.709 0 2.558-1.53 5.728-6.117 5.728h-5.913v-11.428h5.579v-.009zm-3.754 1.78v7.637h3.856c3.114 0 4.458-1.659 4.458-3.773 0-2.678-1.696-3.864-4.56-3.864h-3.754zm24.505.027h-8.554v2.827h7.581v1.826h-7.581v2.984h8.749v1.984h-10.575v-11.428h10.38v1.807zm12.614 1.353c-.398-1.288-1.418-1.816-3.253-1.816-2.465 0-3.531.63-3.531 1.742 0 1.474 1.288 1.576 3.568 1.576 3.142 0 5.329.287 5.329 3.271 0 2.252-1.575 3.847-5.477 3.847-1.946 0-2.892-.204-3.605-.575-1.242-.677-1.845-1.557-1.984-3.216h2.002c.158 1.39 1.622 2.03 3.726 2.03s3.429-.696 3.429-2.03c0-1.251-1.446-1.455-3.114-1.455-.398 0-.741.018-1.112.018-1.752 0-4.699-.065-4.699-3.42 0-2.131 1.446-3.503 5.459-3.503 3.373 0 4.699 1.168 5.097 3.476l-1.825.064-.01-.009zm8.175 8.268h-1.826v-11.428h1.826v11.428zm16.886 0h-1.9l-7.813-8.722v8.722h-1.909v-11.428h1.946l7.758 8.518v-8.518h1.928v11.428h-.01zm14.783-8.379c-1.316-.982-2.966-1.539-4.819-1.539-2.456 0-4.18 1.595-4.18 4.199s1.622 4.217 4.161 4.217c1.678 0 3.198-.408 3.763-.983v-1.779h-2.845v-1.779h4.671v4.912c-.779.676-2.642 1.51-5.728 1.51-3.299 0-5.904-2.215-5.904-6.098s2.771-6.08 6.043-6.08c2.586 0 4.94.936 5.681 1.576l-.861 1.844h.018zm14.773 6.266h7.832v2.113h-9.657v-11.428h1.825v9.315zm23.857 2.113h-2.123l-1.167-2.605h-6.09l-1.14 2.605h-1.974l5.024-11.428h2.326l5.144 11.428zm-8.684-4.356h4.717l-2.354-5.237-2.363 5.237zm20.427-7.072c1.974 0 3.095 1.205 3.095 2.966 0 1.001-.454 2.104-1.325 2.502 1.168.343 1.853 1.409 1.853 2.66 0 1.845-1.14 3.3-3.623 3.3h-7.971v-11.428h7.971zm-6.154 1.872v2.79h6.172c.714 0 1.261-.538 1.261-1.335 0-.982-.631-1.455-1.539-1.455h-5.904.01zm0 4.597v2.994h5.903c1.085 0 1.78-.51 1.78-1.557 0-.918-.686-1.437-1.502-1.437h-6.181z" fill="#231815"/></g><defs><clipPath id="clip0_1198_92"><path fill="#fff" transform="translate(.895)" d="M0 0h441.562v473H0z"/></clipPath></defs></svg>