<svg width="213" height="186" fill="none" xmlns="http://www.w3.org/2000/svg"><path d="M201.626 75.434c3.961-8.364 4.323-18.793.167-27.529-4.518-9.48-13.137-14.39-21.811-13.476-3.264-11.445-12.663-20.723-24.629-22.857-6.778-1.218-13.277.034-18.744 3.116-6.275-7.382-16.037-12.122-26.999-12.122-13.5-.034-25.215 7.178-30.793 17.675-5.969-4.842-14.17-6.23-22.062-2.912-9.595 4.03-15.983 13.815-16.82 24.244-5.522.576-11.184 2.878-16.372 7.077C10.844 58.91 5.489 76.924 10.147 91.145c-4.574 5.384-7.42 13.003-7.42 21.468 0 16.592 10.962 30.035 24.462 30.035 1.45 0 2.9-.17 4.295-.474.223 11.546 7.866 23.364 19.608 28.781 7.95 3.657 16.122 3.623 22.565.576 3.487 4.368 8.702 7.145 14.532 7.145 5.774 0 10.906-2.709 14.392-7.01 4.825 7.077 12.44 11.682 21.059 11.682 9.176 0 17.265-5.214 22.006-13.171 1.507.304 3.069.474 4.658.474 13.417 0 24.462-11.513 25.94-26.31 14.225 1.354 28.143-9.583 33.108-27.427 4.24-15.204.809-31.254-7.726-41.48z" fill="#fff"/><path d="M5.489 95.547c-4.575 7.382-5.886 17.168-3.794 26.006 2.204 9.21 7.978 17.133 15.341 20.689 4.1 1.997 8.73 2.708 13.053 1.388.168 14.729 10.683 26.445 21.561 30.678 5.718 2.235 12.189 2.709 17.935.44a14.124 14.124 0 001.896-.88c.698-.373.81-.678 1.395.067a17.17 17.17 0 003.291 3.285c2.483 1.896 5.328 3.047 8.228 3.555 6.192 1.05 13.416-.88 17.796-6.603 7.949 11.784 22.481 14.323 33.609 8.195 2.873-1.592 5.551-3.725 7.782-6.434a27.607 27.607 0 002.622-3.758c.251-.407.586-1.423.949-1.524.502-.136 1.868.542 2.426.609 5.969.915 12.273-1.422 17.126-5.553a28.525 28.525 0 007.001-8.939 27.924 27.924 0 002.008-5.215c.418-1.523 1.171-4.063.725-5.654 9.149 1.388 18.548-2.506 25.243-10.125 6.638-7.551 10.515-18.522 11.017-29.526.418-9.482-1.534-19.064-6.192-26.75a26.837 26.837 0 00-1.646-2.439 22.322 22.322 0 00-1.311-1.625c-.558-.643-.669-.61-.195-1.388 1.144-1.863 1.952-4.097 2.51-6.298 1.311-5.283 1.06-11.073-.474-16.253-1.729-5.757-4.993-10.768-9.232-14.12-2.204-1.727-4.63-3.014-7.196-3.691-2.092-.542-5.383-1.287-7.392-.102-4.63-19.199-23.708-28.714-38.909-23.872-1.925.61-3.793 1.389-5.579 2.404-1.004.576-.92.644-1.701-.27a30.592 30.592 0 00-2.203-2.235c-2.929-2.71-6.276-4.808-9.707-6.366-7.782-3.42-16.289-4.199-24.294-2.032-8.06 2.201-16.233 7.856-20.5 16.728C65.762 6.866 44.787 15.5 39.851 33.718a23.55 23.55 0 00-.642 3.115c-.111.745-.028 2.404-.418 2.743-.502.406-2.008.237-2.65.338-.837.17-1.701.373-2.51.61-3.85 1.15-7.531 3.183-10.85 5.79-6.415 5.079-11.77 12.562-14.476 21.298-1.562 5.012-2.204 10.463-1.534 15.78a30.55 30.55 0 001.645 6.873c.168.44.447.847.307 1.22-.111.304-.697.676-.892.913-.865.915-1.646 1.998-2.343 3.15zm4.24-2.336c.39.745 1.338 2.98 2.203 2.98 1.339 0 .223-2.472-.028-3.25-1.004-3.218-1.701-6.536-1.841-9.956-.307-7.144 1.813-14.12 5.048-20.012 6.89-12.46 18.772-20.418 31.212-19.74 1.534.067 3.012.406 4.546.575 1.534.17 1.562-1.05.363-1.828-2.929-1.998-6.806-2.506-10.097-2.54 2.482-9.007 8.535-15.813 15.815-19.097 7.586-3.42 15.814-2.743 22.704 2.54.558.44 3.71 3.758 3.737 1.455.028-1.727-2.259-3.962-3.207-4.944 11.184-13.578 27.613-16.862 42.479-11.41 4.045 1.49 7.81 3.623 11.492 6.06a24.42 24.42 0 00-3.626 3.387c-.837.982-2.148 2.302-2.538 3.656-.391 1.287.334 1.558 1.199 1.016 1.227-.812 2.287-1.997 3.487-2.878 5.187-3.826 11.268-5.722 17.348-5.587 12.552.271 25.577 9.041 29.287 24.346.446 1.862.753 3.759.92 5.655.056.71-.055 4.3 1.2 3.284.92-.745.892-3.657.948-4.808a30.608 30.608 0 00-.474-6.603c7.029 1.964 13.305 5.655 17.349 13.206 4.044 7.585 4.1 16.185 2.259 24.65-.697-.643-2.705-2.877-3.709-2.336-1.033.576.641 2.235 1.004 2.71 2.203 2.674 4.128 5.62 5.662 8.938 3.43 7.517 4.574 16.22 3.793 24.719-1.646 17.438-12.021 32.201-26.553 34.876-3.682.678-7.336.508-11.018-.101-.39-.068-1.589-.44-1.813.271-.167.575.503 1.083.837 1.32 1.534 1.084 3.542 1.558 5.244 1.93-.697 1.084-1.144 2.506-1.702 3.691a35.586 35.586 0 01-2.538 4.538 34.192 34.192 0 01-6.248 7.178c-4.881 4.199-10.515 6.163-16.372 7.212.474-1.286 1.088-2.844 1.171-4.266.056-1.016-.418-1.795-1.171-1.016-.753.745-1.255 2.303-1.785 3.285a27.617 27.617 0 01-2.538 3.792c-3.682 4.707-8.535 7.856-13.723 9.278-10.934 3.013-22.453-1.659-28.785-13.104-.753-1.355-1.394-2.777-2.036-4.233-.446-1.016-1.45-1.93-1.618-.135-.111 1.422.502 3.284.893 4.605a27.264 27.264 0 002.175 5.18c-6.22 4.47-14.392 5.452-21.114 2.1-3.124-1.558-5.69-4.063-7.754-7.314-.307-.474-.697-1.49-1.227-1.625-.642-.17-.948.44-.976 1.117-.112 1.761.892 3.962 1.645 5.384-8.005 1.659-16.233 0-23.345-4.808-7.057-4.741-13.138-12.8-14.644-22.653a30.949 30.949 0 01-.279-6.637c.028-.677.363-1.964.056-2.607-.39-.813-.976-.305-1.339.271-.418.677-.641 1.591-.837 2.404a25.87 25.87 0 00-.306 1.422c-.112.576-.056 1.693-.307 2.201-.446.88-3.821 0-4.77-.203-7.754-1.626-14.531-7.856-18.046-16.389-4.351-10.328-2.65-21.739 2.287-31.152z" fill="#000"/></svg>