<svg width="198" height="174" fill="none" xmlns="http://www.w3.org/2000/svg"><path d="M187.608 70.443c3.698-7.81 4.037-17.55.156-25.707-4.219-8.854-12.268-13.44-20.368-12.585-3.048-10.688-11.826-19.352-23-21.344-6.329-1.139-12.398.031-17.503 2.909-5.861-6.893-14.977-11.32-25.214-11.32-12.606-.032-23.546 6.703-28.755 16.506-5.574-4.522-13.232-5.819-20.603-2.72-8.96 3.763-14.925 12.902-15.706 22.64-5.158.538-10.445 2.688-15.29 6.61C9.448 55.011 4.447 71.834 8.797 85.114c-4.272 5.028-6.929 12.143-6.929 20.048 0 15.494 10.237 28.047 22.843 28.047 1.355 0 2.71-.158 4.011-.442.209 10.782 7.346 21.818 18.311 26.877 7.424 3.415 15.055 3.384 21.072.538 3.256 4.079 8.127 6.672 13.57 6.672 5.392 0 10.185-2.53 13.44-6.546 4.507 6.609 11.618 10.909 19.666 10.909 8.569 0 16.123-4.869 20.551-12.3 1.406.284 2.865.443 4.35.443 12.528 0 22.843-10.751 24.223-24.57 13.284 1.265 26.281-8.948 30.918-25.612 3.959-14.198.755-29.186-7.215-38.736z" fill="#fff"/><path d="M4.447 89.226C.175 96.12-1.05 105.258.905 113.511c2.057 8.601 7.449 16 14.325 19.32 3.83 1.866 8.153 2.53 12.19 1.297.156 13.755 9.976 24.695 20.134 28.648 5.34 2.087 11.383 2.53 16.748.411.6-.221 1.199-.506 1.772-.822.65-.348.755-.633 1.302.063a16.01 16.01 0 003.073 3.067c2.319 1.771 4.975 2.846 7.684 3.321 5.783.98 12.529-.823 16.618-6.167 7.423 11.004 20.994 13.376 31.387 7.653 2.682-1.486 5.183-3.479 7.267-6.008a25.836 25.836 0 002.448-3.51c.234-.38.547-1.328.886-1.423.468-.127 1.745.506 2.266.569 5.574.854 11.46-1.328 15.992-5.186a26.618 26.618 0 006.538-8.348 26.075 26.075 0 001.875-4.869c.391-1.423 1.094-3.795.678-5.281 8.543 1.297 17.321-2.34 23.572-9.454 6.199-7.052 9.82-17.297 10.289-27.574.39-8.853-1.433-17.802-5.783-24.98-.469-.79-.99-1.55-1.537-2.277a20.89 20.89 0 00-1.224-1.517c-.521-.601-.625-.57-.182-1.297 1.068-1.739 1.823-3.826 2.344-5.881 1.224-4.933.99-10.34-.443-15.178-1.615-5.376-4.662-10.056-8.621-13.186-2.058-1.613-4.324-2.814-6.72-3.447-1.954-.506-5.027-1.201-6.903-.095-4.323-17.928-22.139-26.814-36.335-22.292-1.797.57-3.542 1.296-5.209 2.245-.938.537-.86.6-1.589-.253a28.667 28.667 0 00-2.058-2.087c-2.735-2.53-5.86-4.49-9.064-5.945-7.267-3.193-15.212-3.92-22.687-1.897-7.528 2.055-15.16 7.336-19.144 15.62-12.06-10.34-31.647-2.276-36.258 14.736a22.18 22.18 0 00-.599 2.91c-.104.695-.026 2.244-.39 2.56-.47.38-1.876.222-2.475.316a28.81 28.81 0 00-2.344.57c-3.594 1.075-7.033 2.972-10.132 5.407-5.99 4.743-10.992 11.731-13.518 19.89-1.459 4.68-2.058 9.77-1.433 14.734a28.53 28.53 0 001.537 6.42c.156.41.417.79.286 1.138-.104.284-.65.632-.833.854-.808.853-1.537 1.865-2.188 2.94zm3.959-2.181c.365.695 1.25 2.782 2.058 2.782 1.25 0 .208-2.308-.026-3.035-.938-3.005-1.59-6.103-1.72-9.297-.286-6.672 1.694-13.186 4.715-18.688 6.434-11.636 17.53-19.067 29.146-18.435 1.433.064 2.813.38 4.246.538 1.433.158 1.459-.98.339-1.708-2.735-1.865-6.356-2.34-9.43-2.371 2.319-8.411 7.971-14.767 14.77-17.834 7.084-3.194 14.768-2.561 21.201 2.371.521.411 3.465 3.51 3.49 1.36.027-1.613-2.11-3.7-2.995-4.617C84.645 5.431 99.987 2.364 113.87 7.455c3.777 1.392 7.294 3.384 10.732 5.66a22.805 22.805 0 00-3.386 3.162c-.782.917-2.006 2.15-2.371 3.415-.364 1.202.313 1.455 1.12.95 1.146-.76 2.136-1.867 3.256-2.689 4.845-3.573 10.523-5.344 16.201-5.217 11.721.253 23.885 8.443 27.35 22.735.416 1.74.703 3.51.859 5.28.052.665-.052 4.017 1.12 3.068.86-.696.834-3.415.886-4.49a28.62 28.62 0 00-.443-6.166c6.564 1.834 12.424 5.28 16.201 12.332 3.777 7.083 3.829 15.115 2.11 23.02-.651-.601-2.527-2.688-3.464-2.182-.964.538.599 2.087.937 2.53 2.058 2.498 3.855 5.249 5.288 8.347 3.203 7.02 4.271 15.147 3.542 23.084-1.537 16.284-11.226 30.071-24.796 32.569-3.439.632-6.851.474-10.289-.095-.365-.063-1.485-.411-1.693.253-.156.537.469 1.012.781 1.233 1.433 1.012 3.308 1.455 4.897 1.803-.651 1.011-1.068 2.339-1.589 3.446a33.214 33.214 0 01-2.37 4.237 31.885 31.885 0 01-5.834 6.704c-4.559 3.921-9.82 5.755-15.29 6.735.443-1.201 1.016-2.656 1.094-3.984.052-.949-.391-1.676-1.094-.949-.703.696-1.172 2.15-1.667 3.067a25.768 25.768 0 01-2.37 3.542c-3.438 4.395-7.97 7.336-12.815 8.664-10.21 2.814-20.968-1.549-26.88-12.237-.704-1.265-1.303-2.593-1.902-3.953-.417-.948-1.354-1.802-1.51-.126-.105 1.328.468 3.067.833 4.3a25.442 25.442 0 002.032 4.838c-5.809 4.174-13.44 5.091-19.718 1.961-2.917-1.455-5.313-3.795-7.24-6.83-.287-.443-.652-1.392-1.147-1.518-.599-.158-.885.411-.911 1.043-.105 1.645.833 3.7 1.536 5.028-7.475 1.549-15.159 0-21.8-4.49-6.59-4.427-12.269-11.953-13.675-21.154a28.905 28.905 0 01-.261-6.198c.026-.632.339-1.834.052-2.435-.364-.759-.912-.284-1.25.253-.39.633-.6 1.486-.782 2.245-.104.443-.208.886-.286 1.328-.104.538-.052 1.581-.287 2.056-.416.822-3.568 0-4.454-.19-7.24-1.518-13.57-7.336-16.852-15.305-4.063-9.644-2.474-20.3 2.136-29.09z" fill="#000"/></svg>