<svg width="178" height="156" fill="none" xmlns="http://www.w3.org/2000/svg"><path d="M168.425 63.24c3.32-7.012 3.624-15.755.14-23.079-3.788-7.948-11.014-12.065-18.286-11.298-2.736-9.595-10.616-17.373-20.648-19.161-5.682-1.022-11.13.028-15.713 2.611C108.657 6.125 100.472 2.15 91.283 2.15c-11.318-.028-21.139 6.02-25.816 14.82-5.004-4.06-11.878-5.224-18.496-2.442-8.044 3.379-13.399 11.582-14.1 20.326-4.63.482-9.377 2.413-13.726 5.933-10.663 8.6-15.153 23.702-11.248 35.625-3.835 4.513-6.22 10.9-6.22 17.997 0 13.91 9.19 25.18 20.508 25.18 1.216 0 2.431-.142 3.6-.397.188 9.68 6.595 19.587 16.44 24.129 6.663 3.066 13.515 3.037 18.916.482 2.923 3.662 7.296 5.99 12.183 5.99 4.84 0 9.143-2.271 12.066-5.876 4.045 5.933 10.429 9.794 17.654 9.794 7.694 0 14.475-4.372 18.45-11.043 1.263.255 2.572.397 3.905.397 11.247 0 20.507-9.651 21.747-22.057 11.925 1.136 23.594-8.033 27.756-22.993 3.554-12.746.678-26.202-6.477-34.775z" fill="#fff"/><path d="M3.992 80.103C.157 86.29-.942 94.495.812 101.904c1.847 7.722 6.688 14.364 12.86 17.345 3.438 1.675 7.32 2.271 10.944 1.164.14 12.348 8.956 22.17 18.076 25.719 4.793 1.873 10.218 2.271 15.035.369a11.797 11.797 0 001.59-.738c.585-.313.678-.568 1.17.056a14.384 14.384 0 002.759 2.754c2.081 1.59 4.466 2.555 6.898 2.981 5.191.88 11.247-.738 14.919-5.536 6.664 9.879 18.847 12.008 28.177 6.87a22.636 22.636 0 006.524-5.394 23.173 23.173 0 002.198-3.151c.21-.34.491-1.192.795-1.277.421-.114 1.566.454 2.034.511 5.004.766 10.289-1.192 14.357-4.656a23.905 23.905 0 005.87-7.494 23.481 23.481 0 001.683-4.372c.351-1.277.982-3.406.608-4.74 7.67 1.164 15.55-2.101 21.162-8.488 5.566-6.331 8.816-15.528 9.237-24.754.351-7.948-1.286-15.982-5.191-22.426a22.593 22.593 0 00-1.38-2.044 19.078 19.078 0 00-1.099-1.362c-.468-.54-.561-.511-.164-1.164.959-1.562 1.637-3.435 2.105-5.28 1.099-4.429.888-9.283-.398-13.626-1.449-4.826-4.185-9.027-7.74-11.838-1.847-1.448-3.881-2.526-6.033-3.094-1.753-.454-4.513-1.079-6.196-.085-3.882-16.096-19.876-24.073-32.62-20.013a24.143 24.143 0 00-4.677 2.015c-.842.483-.771.54-1.426-.227a25.943 25.943 0 00-1.847-1.873c-2.456-2.271-5.262-4.031-8.138-5.337C96.38-.148 89.248-.801 82.537 1.015 75.78 2.861 68.928 7.601 65.35 15.04 54.524 5.756 36.94 12.995 32.8 28.267c-.233.852-.42 1.732-.537 2.612-.094.624-.024 2.015-.351 2.3-.42.34-1.684.198-2.221.283a25.8 25.8 0 00-2.105.511c-3.227.965-6.313 2.669-9.096 4.854-5.378 4.259-9.868 10.532-12.136 17.856-1.31 4.201-1.847 8.772-1.286 13.229a25.61 25.61 0 001.38 5.762c.14.37.374.71.257 1.022-.094.256-.585.568-.749.767-.725.766-1.38 1.675-1.964 2.64zm3.554-1.959c.328.624 1.123 2.498 1.848 2.498 1.122 0 .187-2.072-.024-2.725-.841-2.697-1.426-5.479-1.543-8.346-.257-5.99 1.52-11.838 4.232-16.777 5.776-10.447 15.738-17.118 26.166-16.55 1.287.057 2.526.34 3.812.483 1.286.142 1.31-.88.304-1.533-2.455-1.675-5.706-2.1-8.465-2.13 2.081-7.55 7.156-13.256 13.259-16.01 6.36-2.867 13.258-2.3 19.034 2.13.467.368 3.11 3.15 3.133 1.22.023-1.448-1.894-3.321-2.689-4.145 9.377-11.383 23.15-14.136 35.613-9.566 3.391 1.249 6.547 3.037 9.634 5.081a20.428 20.428 0 00-3.04 2.839c-.701.823-1.8 1.93-2.128 3.066-.327 1.079.281 1.306 1.006.852 1.029-.682 1.917-1.675 2.923-2.413 4.349-3.208 9.447-4.798 14.544-4.684 10.523.227 21.443 7.58 24.553 20.41.374 1.562.631 3.151.771 4.74.047.597-.046 3.606 1.006 2.754.772-.624.748-3.065.795-4.03.07-1.874-.07-3.72-.398-5.536 5.893 1.646 11.154 4.74 14.545 11.07 3.391 6.36 3.437 13.57 1.894 20.667-.585-.54-2.268-2.413-3.11-1.959-.865.483.538 1.874.842 2.271 1.847 2.243 3.461 4.713 4.747 7.495 2.876 6.302 3.835 13.597 3.18 20.722-1.38 14.62-10.078 26.997-22.261 29.239-3.087.568-6.15.426-9.237-.085-.327-.057-1.333-.369-1.52.227-.14.483.421.909.702 1.107 1.286.909 2.97 1.306 4.396 1.618-.585.909-.959 2.101-1.426 3.095a30.039 30.039 0 01-2.128 3.804 28.695 28.695 0 01-5.238 6.018c-4.092 3.52-8.816 5.166-13.726 6.046.397-1.079.912-2.384.982-3.577.047-.851-.351-1.504-.982-.851-.632.624-1.053 1.93-1.497 2.753a23.086 23.086 0 01-2.128 3.18c-3.086 3.946-7.155 6.586-11.504 7.778-9.167 2.526-18.824-1.391-24.132-10.986-.631-1.136-1.17-2.328-1.707-3.549-.374-.851-1.216-1.618-1.356-.113-.094 1.192.42 2.754.748 3.861a22.843 22.843 0 001.824 4.343c-5.215 3.747-12.066 4.57-17.701 1.76-2.62-1.306-4.77-3.407-6.501-6.132-.257-.397-.585-1.249-1.029-1.362-.538-.142-.795.369-.818.936-.094 1.477.748 3.322 1.38 4.514-6.712 1.391-13.61 0-19.573-4.031-5.916-3.974-11.013-10.73-12.276-18.991a25.95 25.95 0 01-.234-5.564c.024-.568.304-1.647.047-2.186-.327-.681-.818-.255-1.122.227-.351.568-.538 1.334-.702 2.016-.093.397-.187.795-.257 1.192-.094.483-.047 1.419-.257 1.845-.375.738-3.204 0-3.999-.17-6.5-1.363-12.183-6.586-15.129-13.74-3.648-8.658-2.221-18.224 1.917-26.116z" fill="#000"/></svg>