<svg width="116" height="107" fill="none" xmlns="http://www.w3.org/2000/svg"><path d="M26.268 86.106c-2.062 10.374-3.914 15.384-7.145 18.902 2.505-1.592 7.662-5.646 13.846-14.768l1.698 1.496c5.68 13.951 45.052 11.632 51.44-9.477 0 0 .184-2.441.095-4.898 31.953-22.277 9.22-62.643-16.36-61.518-.698-1.518-1.673-3.21-2.988-4.729C47.447-9.332-9.873.671 4.894 47.156c-1.404 1.99-2.405 4.07-2.405 4.07-4.59 11.16 3.261 33.968 23.784 34.88h-.005z" fill="#fff"/><path d="M86.74 78.33c.86-.625 1.717-1.283 2.34-2.085.338-.127.647-.254.935-.392.28-.149.538-.313.777-.504a4.25 4.25 0 00.672-.664c.204-.265.389-.578.568-.939 1.324-1.4 2.768-2.674 4.043-4.166 1.274-1.475 2.4-3.146 2.992-5.1 1.15-1.788 1.931-3.772 2.519-5.794.587-2.032.991-4.102 1.414-6.246-.249-1.74-.189-3.412-.229-5.115-.035-1.698-.184-3.428-.837-5.015-.129-1.295-.378-2.621-.801-3.89-.194-.642-.453-1.257-.722-1.862-.134-.303-.294-.594-.448-.881a10.755 10.755 0 00-.493-.844 4.373 4.373 0 01-.458-.875c-.134-.308-.249-.621-.373-.934-.065-.154-.125-.308-.195-.462a5.688 5.688 0 00-.239-.424 2.48 2.48 0 00-.647-.7c-.881-1.545-1.503-2.903-2.828-4.13a6.527 6.527 0 00-1.06-1.639c-.458-.494-.981-.892-1.489-.992-.582-1.062-1.563-1.99-2.609-2.829-1.055-.828-2.15-1.597-3.037-2.414a8.4 8.4 0 00-.771-.223 3.433 3.433 0 01-.483-.154 1.783 1.783 0 01-.419-.265 8.105 8.105 0 01-.602-.526 5.204 5.204 0 01-.573-.196 7.079 7.079 0 01-.597-.244c-.2-.09-.403-.191-.602-.297-.204-.101-.409-.202-.613-.308a22.564 22.564 0 01-.602-.329l-.588-.313c-.383-.207-.742-.409-1.07-.563-.274.133-.692.064-1.115-.074a3.107 3.107 0 01-1.135-.663c-.389 0-.797-.016-1.195-.053a7.266 7.266 0 01-1.16-.138c-1.41.138-2.23-.266-3.66-.563-.602-.164-1.284-.01-1.932.128-.652.185-1.274.35-1.827.36-.552.26-.761.77-.717 1.253.05.488.324.822.956.801.16.016.329.005.513 0a7.305 7.305 0 001.15-.122c.194-.026.388-.053.573-.085.672-.064 1.334-.064 1.991-.064.652.032 1.305.064 1.947.176 1.284.201 2.554.557 3.784 1.194.453.08.896.222 1.349.34.448.132.896.296 1.344.45.438.18.886.356 1.325.557.433.213.876.404 1.299.648 1.713.912 3.326 2.027 4.81 3.178.801 1.014 1.767 1.9 2.743 2.813.97.907 1.996 1.793 2.862 2.749.244.223.409.483.553.742.145.266.264.531.388.791.24.536.538 1.014 1.16 1.406.035.35.15.643.294.913.145.276.329.52.523.764.2.24.388.488.563.748.169.266.328.536.398.855.14.398.333.78.523 1.157a9.8 9.8 0 00.617 1.056c.13 1.464-.065 1.157.762 2.377.09 1.47.418 2.85.766 4.256.339 1.4.683 2.828.807 4.25.085 1.704-.025 3.343-.254 4.951-.229 1.608-.558 3.19-.94 4.83a37.421 37.421 0 01-1.206 3.502c-.488 1.103-1.035 2.186-1.842 3.152-.134.201-.264.414-.398.626-.14.207-.279.419-.413.637l-.409.658-.438.647c-.15.212-.294.43-.443.642-.16.202-.314.403-.473.6-.16.196-.319.382-.483.567-.164.18-.338.34-.513.5-.04.572-.353 1.15-.801 1.623a7.16 7.16 0 01-.707.669c-.25.196-.508.36-.737.504-1.578 1.173-3.052 2.44-4.605 3.624-1.549 1.184-3.142 2.325-4.89 3.136-1.05.892-.482 1.359.444 1.486a4.81 4.81 0 001.483-.053c.463-.1.837-.281.956-.493.384-.276.817-.526 1.24-.812.428-.287.871-.579 1.314-.87l-.02-.011zM1.822 26.444c.035.807.085 1.162.09 1.512 0 .35-.1.68-.339 1.428.055.446.065.934.045 1.438-.025.504-.03 1.03-.074 1.555-.05.525-.075 1.04-.11 1.539-.035.493-.085.96-.09 1.374.215.239.33.717.354 1.226.015.515-.01 1.067-.154 1.47.249.844.557 1.772.672 2.605.612 1.475.537 2.51.702 4.15.01.175.04.35.074.525.045.175.1.345.165.52.13.345.284.69.448 1.03.309.68.677 1.31.796 1.931.369.558.887.696 1.325.552.443-.148.682-.525.503-1.252-.055-.371-.18-.796-.334-1.231a18.18 18.18 0 00-.478-1.284c-.12-.377-.259-.749-.363-1.125l-.314-1.12c-.22-.738-.363-1.491-.513-2.24-.035-.185-.075-.376-.104-.562l-.075-.568c-.045-.382-.09-.764-.125-1.146-.04-.382-.034-.775-.044-1.167 0-.393-.01-.786.015-1.184-.354-2.112-.414-4.356-.234-6.564a31.186 31.186 0 011.234-6.389c.16-.313.344-.615.493-.94.155-.318.299-.646.458-.965.155-.324.294-.658.438-.992.16-.33.31-.658.453-.998.613-1.326 1.23-2.69 1.982-3.879.164-.324.393-.562.617-.79.23-.218.453-.425.697-.616.478-.388.892-.823 1.185-1.576.657-.239 1.1-.717 1.524-1.247.209-.266.433-.52.667-.759.234-.239.488-.456.792-.594.373-.229.727-.515 1.085-.791a12.9 12.9 0 00.98-.865c.723-.207 1.011-.239 1.26-.366.254-.122.463-.33 1.026-.886 1.464-.366 2.823-.982 4.197-1.63 1.38-.63 2.763-1.3 4.177-1.761 1.713-.478 3.39-.775 5.069-1.003 1.682-.234 3.36-.409 5.113-.59.667-.026 1.32-.052 1.966-.079.642-.01 1.28-.042 1.917-.021.319.005.632.016.951.032.319.026.637.053.956.09.637.064 1.28.202 1.927.36 2.026.33 4.43.49 6.298 1.221 1.07-.482 2.693.218 3.699.828 1.892.96 3.784 1.815 5.606 2.829 1.812 1.013 3.57 2.191 4.969 3.751 1.185.828 1.429.112 1.175-.923a4.745 4.745 0 00-.269-.801c-.12-.26-.259-.52-.408-.754-.29-.472-.633-.79-.882-.844-.209-.159-.428-.318-.647-.482-.224-.16-.453-.33-.682-.494-.453-.35-.95-.658-1.434-.987a17.34 17.34 0 00-1.518-.849c-.523-.228-1.03-.451-1.554-.573-.298-.27-.577-.515-.856-.727a5.705 5.705 0 00-.861-.525 3.713 3.713 0 00-.951-.335 5.615 5.615 0 00-1.125-.122C53.432 2.2 51.525 1.461 49.548.93 47.578.4 45.546.07 43.49.315c-2.16-.361-4.311-.361-6.437-.25-2.131.117-4.247.345-6.438.489-1.628.71-3.29 1.06-4.963 1.475-1.668.414-3.356.891-4.84 1.878-1.27.377-2.554.881-3.769 1.56a16.037 16.037 0 00-3.375 2.452c-.244.26-.523.472-.817.669-.293.196-.587.398-.88.594-.593.387-1.121.86-1.425 1.512-.353.33-.682.642-1.015.94-.334.297-.633.62-.941.928a9.31 9.31 0 00-.862 1.024c-.134.186-.274.372-.403.573-.125.207-.244.42-.359.643-.229.201-.487.44-.711.721a9.139 9.139 0 00-.653.913 4.776 4.776 0 00-.458.992c-.104.335-.179.648-.16.945-.407.499-.816 1.077-1.114 1.74-.155.33-.314.664-.448 1.02-.13.355-.254.716-.374 1.076-.13.361-.219.733-.323 1.099-.1.366-.22.727-.304 1.088-.174.721-.398 1.406-.603 2.053l.005-.005zm32.228 66.32c.05.26.189.542.348.818.18.26.379.525.593.732.672.844 1.409 1.523 2.15 2.18.742.659 1.5 1.28 2.28 2.001a44.64 44.64 0 003.904 1.476c1.32.424 2.654.769 3.948.971.807.44 1.728.605 2.659.631.93.037 1.867-.079 2.738-.148.443-.085.822.09 1.205.201.383.101.777.154 1.23-.196.413.318.831.255 1.25.133.413-.117.826-.287 1.25-.176.557.054 1.154-.074 1.647-.276.956.324.757.446 1.653-.09.98.26 1.957.122 2.903-.154.946-.27 1.862-.689 2.768-.987 1.1-.302 2.166-.573 3.216-.907 1.046-.34 2.081-.743 3.087-1.316 1.608-.716 2.858-1.72 4.525-2.35 1.215-.67 2.32-1.885 3.446-2.628.02-.483.244-.902.562-1.23.31-.346.707-.616 1.046-.828 1.115-.897 1.966-2.102 2.649-3.38.692-1.285 1.22-2.638 1.802-3.97.09-1.05-.622-1.003-1.295-.69-.662.324-1.344.87-1.23 1.215a8.714 8.714 0 01-.368.876c-.154.292-.308.594-.473.886-.328.594-.652 1.194-.841 1.841a5.88 5.88 0 00-.578.345 2.356 2.356 0 00-.453.372c-.254.286-.438.631-.547 1.189-.752.981-1.763 1.682-2.754 2.356-1 .674-1.981 1.326-2.818 2.324-1.2.525-2.305 1.14-3.455 1.687-1.15.542-2.335 1.003-3.624 1.173-.837.722-1.838.966-2.838 1.13-1 .175-2.007.276-2.958.754-1.583-.064-3.19.048-4.724.515-.782.291-1.643-.35-2.365.222-1.096-.02-1.952-.318-3.062-.069-.662-.323-1.663-.53-2.27.011-.678-.403-1.48-.52-2.3-.631-.812-.122-1.644-.24-2.29-.632-.449.085-.658.143-.852.133-.19-.01-.364-.112-.707-.404a2.077 2.077 0 01-.777-.1 3.842 3.842 0 01-.782-.33 5.264 5.264 0 01-.717-.45 10.69 10.69 0 01-.597-.457c-.413.266-1.07-.19-1.22-.748-.468-.09-.976-.27-1.32-.562-.86-.245-1.104-.887-1.463-1.693a.896.896 0 00-.14-.244 1.399 1.399 0 00-.174-.218c-.134-.133-.293-.255-.443-.382-.313-.25-.607-.53-.687-.865-.288-.233-.776-.212-1.205-.037-.433.175-.682.478-.522.987l-.01-.01zM0 57.535c.22 2.313.358 4.765.906 6.951-.065.398-.025.785.04 1.178.065.388.17.775.329 1.146.149.372.318.733.497 1.088.19.345.379.685.563 1.014.21.323.194.684.234 1.03.04.344.134.679.578.89-.125.457.08.76.318 1.036.12.138.25.27.354.413.11.144.199.298.224.489a2.793 2.793 0 00.547.928c.08.085.17.165.254.234.07.897-.094.801.653 1.257.159.881.602 1.608 1.184 2.203.553.62 1.25 1.098 1.808 1.66 1.304 1.386 2.504 2.755 4.157 3.683.587.414 1.18.76 1.782 1.062a9.4 9.4 0 01.877.525c.293.18.582.377.866.62.239.144.498.277.767.388.274.101.557.191.836.281.279.096.558.186.822.298.268.09.527.196.766.329.334-.276.697-.308 1.046-.218.348.08.692.25.96.435a7.5 7.5 0 00.782.319c.264.09.533.132.807.185.269.048.543.085.816.117l.409.043c.134.01.274.01.408.015.209 0 .418.011.627.011-.04.149-.084.297-.124.446-.224.743-.463 1.464-.478 1.528-.045.122-.334 2.568-.727 2.743-.264.128-1.046 2.495-.856 3.062.03.128-.314 1.534-.792 2.866-.468 1.337-1.07 2.584-1.15 2.627-.07.026-.19.238-.339.546-.144.308-.348.679-.522 1.067-.2.371-.389.743-.543 1.013-.16.266-.264.446-.264.446l-.17.265-.183.255-.05.069-.349.281a5.9 5.9 0 01-.134.107c-.21.137-.413.297-.623.424a8.73 8.73 0 01-.612.371l.508 1.423a9.29 9.29 0 00.782-.324l.164-.085c.1-.058.244-.138.413-.233.344-.181.762-.43 1.175-.616.851-.387 2.315-1.534 3.042-2.144.383-.286.792-.658 1.205-1.013.204-.181.403-.356.592-.52.18-.176.349-.335.503-.478.025-.027.339-.101.772-.748.304-.451.906-1.061 1.479-1.597.288-.266.547-.531.751-.754.205-.223.349-.403.389-.515.094-.26.383-.605.727-.976.333-.382.707-.801.99-1.178.284-.382.503-.786.757-1.178.24-.404.508-.79.901-1.136.399-.35.742-.865 1.031-1.364.274-.509.493-.997.672-1.29.383-.641.841-1.384 1.14-1.93.294-.553.906-1.699 1.12-2.097.15-.276.354-.615.16-1.003-.11-.217-.598-.52-.742-.456-.2.09-.503.239-.667.462-.2.27-.891 1.241-1.265 1.862-.11.186-.294.265-.303.377-.025.191-.588.966-1.156 1.703a45.67 45.67 0 01-.791 1.009c-.23.265-.389.456-.418.483-.055.058-.453.721-.902 1.385-.438.668-.965 1.284-1.19 1.31-.159.01-.726.59-1.279 1.242-.568.637-1.1 1.358-1.155 1.714-.01.037-.08.154-.21.318-.129.165-.308.382-.522.642-.214.255-.463.547-.727.855-.264.313-.567.615-.861.928-.22.234-.438.462-.657.68.179-.398.363-.78.488-1.088.01-.032.248-.191.338-.844.07-.456.329-1.125.588-1.735.239-.61.463-1.162.438-1.359-.065-.461.403-1.454.572-2.218.085-.382.105-.77.155-1.151.044-.382.12-.77.333-1.152.428-.79.344-2 .438-2.557l.105-.706c.224.01.448.031.672.058.747-.255.538-.955.124-1.528a3.177 3.177 0 00-.532-.579c.044-.408.09-.811.11-1.013.03-.255.089-.579-.235-.823-.179-.138-.737-.233-.846-.148-.15.127-.364.329-.428.552-.055.185-.194.705-.314 1.204l-.518-.048a6.66 6.66 0 00-.796-.01 2.76 2.76 0 00-.777.106c-.319-.276-.587-.483-.876-.557-.289-.09-.598-.064-1.011.138a6.122 6.122 0 01-.702-.138c-.234-.053-.453-.16-.677-.25a19.467 19.467 0 01-.657-.297c-.22-.1-.438-.196-.648-.318a8.159 8.159 0 00-1.299-.579 4.239 4.239 0 00-1.419-.323 14.303 14.303 0 00-1.28-.887c-.218-.127-.428-.275-.637-.413l-.632-.42c-.831-.573-1.633-1.215-2.24-2.112-.439-.1-.777-.334-1.086-.61a5.083 5.083 0 01-.816-.934c-.24-.345-.483-.679-.742-1.003a3.6 3.6 0 00-.901-.86c-.135-.302-.25-.62-.399-.917-.139-.303-.308-.579-.468-.87-.313-.58-.726-1.088-1.16-1.577-.249-.228-.323-.583-.413-.912-.084-.335-.194-.642-.562-.796-.185-.42-.26-.834-.384-1.226a3.757 3.757 0 00-.229-.579 3.134 3.134 0 00-.338-.573c.034-.318 0-.69-.115-1.008-.104-.324-.309-.6-.652-.732.03-.17.04-.335.035-.5 0-.164-.01-.333-.035-.503a7.298 7.298 0 00-.234-1.003c-.154-.674-.369-1.353-.249-1.99-.448-.637-.588-.557-.339-1.295-.214-.377-.278-.87-.229-1.353.02-.244.055-.483.09-.706.04-.228.105-.435.144-.62-.388-.229-.313-.903.095-1.216-.13-.398-.249-.86-.17-1.236-.109-.377-.089-.68.026-.96.12-.282.313-.542.507-.866.185-.265.19-.605.165-.965-.035-.361-.02-.706.144-.945-.055-.34-.413-.674-.826-.886-.419-.212-.782-.24-.981.122-.13.159-.23.377-.309.615-.07.24-.1.5-.114.743-.349 1.682-.458 3.19-.986 4.872H0z" fill="#000"/><path d="M25.492 47.192h-3.42V43.16h11.484v4.032h-3.42V59h-4.644V47.192zm13.457-4.032h4.548L50.025 59h-4.956l-1.008-2.748h-5.652L37.389 59H32.42l6.528-15.84zm1.02 9.06H42.5l-1.248-3.492h-.036l-1.248 3.492zm10.982-9.06h6.636c1.032 0 1.964.192 2.796.576a4.561 4.561 0 011.98 1.68c.496.744.744 1.656.744 2.736 0 1.08-.248 2.012-.744 2.796a4.945 4.945 0 01-1.98 1.8c-.832.416-1.764.624-2.796.624h-1.992V59H50.95V43.16zm4.644 6.6h.696c.352 0 .664-.048.936-.144.28-.104.5-.264.66-.48.16-.224.24-.512.24-.864s-.08-.636-.24-.852a1.376 1.376 0 00-.66-.492 2.609 2.609 0 00-.936-.156h-.696v2.988zM65.93 53.3l-.936-10.812h5.028L69.098 53.3H65.93zm1.572 5.988c-.464 0-.892-.116-1.284-.348a2.794 2.794 0 01-.936-.924 2.498 2.498 0 01-.348-1.296c0-.712.252-1.32.756-1.824.504-.512 1.108-.768 1.812-.768.72 0 1.332.256 1.836.768.504.504.756 1.112.756 1.824 0 .704-.252 1.308-.756 1.812a2.5 2.5 0 01-1.836.756zm5.6-5.988l-.936-10.812h5.028L76.27 53.3h-3.168zm1.572 5.988c-.464 0-.892-.116-1.284-.348a2.794 2.794 0 01-.936-.924 2.498 2.498 0 01-.348-1.296c0-.712.252-1.32.756-1.824.504-.512 1.108-.768 1.812-.768.72 0 1.332.256 1.836.768.504.504.756 1.112.756 1.824 0 .704-.252 1.308-.756 1.812a2.5 2.5 0 01-1.836.756z" fill="#3068E3"/></svg>