<svg width="116" height="111" viewBox="0 0 116 111" fill="none" xmlns="http://www.w3.org/2000/svg">
<path d="M82.0088 77.2706C85.9024 85.4844 88.4966 89.2708 91.9274 91.5252C89.5064 90.7237 84.3574 88.4267 77.2907 82.1213L76.1897 83.7245C74.3812 96.5427 41.0819 102.868 31.331 86.6145C31.331 86.6145 30.6655 84.6188 30.2249 82.5524C-1.07767 70.6883 9.40199 32.2784 30.9572 27.8509C31.2198 26.4398 31.6781 24.8244 32.4552 23.2839C44.3411 2.17363 94.2103 -1.51179 91.6528 40.3266C93.2403 41.6906 94.5106 43.2143 94.5106 43.2143C100.677 51.5521 98.9167 72.2068 82.0046 77.2717L82.0088 77.2706Z" fill="white"/>
<path d="M29.9803 83.4741C29.1312 83.1329 28.2795 82.7641 27.5927 82.2268C27.2839 82.1917 26.9999 82.1503 26.7303 82.0958C26.4668 82.0305 26.2165 81.9477 25.9773 81.8386C25.738 81.7295 25.5068 81.5996 25.278 81.4268C25.0522 81.2484 24.833 81.0261 24.608 80.763C23.2104 79.8732 21.74 79.1146 20.3651 78.1392C18.9934 77.1771 17.7051 76.02 16.8018 74.5167C15.4682 73.2676 14.4005 71.7775 13.4869 70.2157C12.571 68.6451 11.8008 67.0049 10.9985 65.307C10.8409 63.8042 10.4406 62.4236 10.1165 60.9956C9.7894 59.5731 9.55106 58.1 9.76185 56.6409C9.59817 55.5347 9.52741 54.3768 9.61411 53.2311C9.64127 52.6552 9.72792 52.0879 9.82511 51.5274C9.8737 51.2471 9.94527 50.9704 10.0138 50.6993C10.0823 50.4281 10.155 50.1558 10.2476 49.8927C10.3485 49.6275 10.4065 49.3495 10.4457 49.0669C10.4932 48.7822 10.523 48.4973 10.561 48.2102C10.5827 48.0684 10.6002 47.9276 10.6261 47.7848C10.6571 47.6453 10.6946 47.5136 10.7362 47.3808C10.8246 47.1187 10.9477 46.8714 11.1287 46.6613C11.5393 45.1895 11.773 43.9268 12.6196 42.6275C12.6992 42.1372 12.8929 41.5571 13.1595 41.0385C13.4378 40.5311 13.79 40.0898 14.1921 39.8993C14.4549 38.8926 15.0776 37.913 15.7731 36.9949C16.4792 36.0836 17.2306 35.2126 17.7978 34.3457C18.0483 34.1839 18.2383 34.0797 18.3942 33.9981C18.5491 33.9121 18.6647 33.8454 18.7644 33.7686C18.8684 33.6907 18.9543 33.5938 19.0573 33.4597C19.1645 33.3246 19.2877 33.1478 19.4492 32.8956C19.5958 32.8117 19.7401 32.7189 19.8852 32.6118C20.0367 32.5126 20.1849 32.4001 20.3319 32.2831C20.479 32.1662 20.628 32.0393 20.7717 31.9091C20.9207 31.7823 21.0696 31.6554 21.2175 31.5242C21.3654 31.3929 21.508 31.2582 21.6506 31.1236C21.7943 30.9934 21.938 30.8632 22.0745 30.7395C22.3506 30.4866 22.6071 30.2433 22.8487 30.0462C23.1047 30.0993 23.4388 29.9541 23.7625 29.7504C24.0904 29.5456 24.3897 29.2445 24.5695 28.9595C24.8931 28.878 25.23 28.7791 25.5542 28.6646C25.8858 28.5624 26.2058 28.4489 26.492 28.3063C27.6952 28.1258 28.2953 27.6174 29.4238 27.0701C29.8914 26.8066 30.4921 26.7918 31.0605 26.7711C31.643 26.7891 32.1962 26.7956 32.659 26.6886C33.1741 26.7894 33.4552 27.1701 33.5191 27.5819C33.58 27.9992 33.4219 28.3353 32.8905 28.4502C32.7611 28.4969 32.6178 28.5235 32.4631 28.5578C32.3137 28.5954 32.1486 28.6228 31.9823 28.6458C31.816 28.6689 31.6486 28.6875 31.479 28.6973C31.3116 28.7159 31.1442 28.7345 30.984 28.7466C30.4105 28.8345 29.8587 28.9734 29.311 29.1112C28.7741 29.2745 28.2372 29.4378 27.7253 29.6654C26.6971 30.1029 25.7135 30.6655 24.8222 31.4541C24.4613 31.6154 24.1221 31.8278 23.769 32.0201C23.4234 32.2246 23.0844 32.4557 22.7432 32.6779C22.4159 32.9202 22.0792 33.1601 21.7564 33.4201C21.4399 33.6878 21.1107 33.9399 20.8092 34.2321C19.5732 35.352 18.4626 36.6191 17.4676 37.8899C17.0121 38.9027 16.393 39.8439 15.7712 40.8092C15.1524 41.7691 14.4835 42.7228 13.9618 43.7005C13.8052 43.9374 13.7228 44.1886 13.657 44.4356C13.5924 44.687 13.5484 44.9332 13.4992 45.176C13.4125 45.6728 13.2637 46.1334 12.8274 46.5912C12.8718 46.8904 12.8375 47.1577 12.774 47.4135C12.7115 47.6738 12.6092 47.9158 12.4986 48.16C12.3827 48.4008 12.2773 48.6483 12.1866 48.9016C12.1012 49.1582 12.0252 49.4172 12.0339 49.6971C12.0011 50.0581 11.9194 50.4172 11.8408 50.7709C11.7621 51.1246 11.6594 51.4702 11.5478 51.7804C11.747 53.0282 11.8443 52.731 11.4115 53.9215C11.6451 55.1653 11.6606 56.3841 11.6651 57.6292C11.6768 58.8677 11.6898 60.1294 11.8844 61.3408C12.1711 62.7781 12.6063 64.1217 13.1344 65.4137C13.6625 66.7057 14.268 67.9547 14.9314 69.2409C15.4872 70.1873 16.0565 71.0645 16.6701 71.907C17.3082 72.7246 17.9916 73.5119 18.8664 74.1476C19.0207 74.2875 19.1731 74.4373 19.3297 74.586C19.4893 74.7292 19.65 74.8769 19.8076 75.03C19.9653 75.1831 20.1282 75.3396 20.2859 75.4928L20.7868 75.9404C20.9558 76.086 21.1218 76.237 21.2908 76.3826C21.4658 76.5173 21.6367 76.6529 21.8107 76.7832C21.9847 76.9134 22.1564 77.0348 22.3323 77.1551C22.507 77.271 22.6857 77.3671 22.8643 77.4633C23.0177 77.9325 23.4004 78.3488 23.8729 78.6484C24.1055 78.8015 24.3567 78.9405 24.6023 79.0574C24.851 79.1688 25.1012 79.2516 25.3222 79.323C26.8835 79.9694 28.3777 80.7173 29.9204 81.3777C31.4591 82.0392 33.0261 82.6559 34.6528 82.966C35.7153 83.4887 35.3402 83.9969 34.5952 84.2972C34.2226 84.4474 33.7565 84.5412 33.3475 84.5642C32.9405 84.5773 32.5915 84.5052 32.4474 84.3534C32.07 84.2038 31.6567 84.0868 31.2439 83.9367C30.8269 83.7877 30.3964 83.6374 29.9659 83.4871L29.9803 83.4741Z" fill="black"/>
<path d="M89.8688 22.4211C90.0089 23.1006 90.042 23.4074 90.1113 23.7003C90.1847 23.9922 90.3367 24.2455 90.6928 24.8189C90.7407 25.2019 90.8348 25.6109 90.9571 26.0268C91.0836 26.4418 91.1979 26.8785 91.3454 27.307C91.4971 27.7344 91.6258 28.1581 91.7595 28.5665C91.892 28.9705 92.0315 29.3493 92.1224 29.6932C91.9941 29.9371 91.9988 30.3591 92.0849 30.7889C92.1804 31.221 92.3169 31.6758 92.5218 31.9816C92.4913 32.737 92.4288 33.5757 92.5081 34.294C92.3071 35.6519 92.5864 36.4986 92.7934 37.8997C92.8218 38.0477 92.8336 38.1999 92.8413 38.3531C92.8407 38.5085 92.8307 38.6615 92.8135 38.821C92.7779 39.1356 92.7216 39.4555 92.6559 39.773C92.5411 40.4038 92.3665 41.0073 92.3972 41.5498C92.207 42.0915 91.8044 42.315 91.4092 42.2875C91.0087 42.2566 90.7305 41.9927 90.7274 41.3493C90.6952 41.0282 90.7099 40.6483 90.7472 40.2533C90.7763 39.8604 90.8198 39.4544 90.8762 39.0828C90.8968 38.7437 90.9351 38.4049 90.9432 38.069C90.9513 37.7331 90.9605 37.4016 90.9698 37.0701C90.9976 36.4094 90.9599 35.7511 90.9275 35.0962C90.9176 34.9341 90.9107 34.7665 90.8967 34.6055L90.8398 34.1166C90.797 33.7888 90.7542 33.461 90.7032 33.1352C90.6562 32.8085 90.5697 32.4822 90.4956 32.1529C90.4133 31.8256 90.3392 31.4963 90.235 31.1698C90.0867 29.3355 89.6657 27.4522 89.0533 25.6501C88.4357 23.8445 87.6123 22.1331 86.6843 20.5843C86.4858 20.3568 86.2689 20.1434 86.0765 19.9049C85.8811 19.6719 85.6918 19.428 85.4922 19.1961C85.2957 18.9587 85.1094 18.7093 84.9189 18.461C84.7172 18.2202 84.5237 17.9773 84.3321 17.7245C83.5435 16.7473 82.743 15.7402 81.8671 14.9073C81.6623 14.6719 81.4214 14.521 81.1868 14.3778C80.9503 14.2445 80.7202 14.119 80.4768 14.011C79.9972 13.7884 79.5615 13.5124 79.1587 12.946C78.5609 12.8848 78.0914 12.5797 77.6274 12.2262C77.3975 12.049 77.1574 11.8837 76.9123 11.7337C76.6672 11.5838 76.4099 11.4557 76.1279 11.4044C75.7688 11.2926 75.4141 11.1279 75.0575 10.9731C74.705 10.8173 74.3677 10.6341 74.0587 10.458C73.4136 10.4369 73.1663 10.4709 72.9321 10.417C72.6949 10.3685 72.4772 10.2399 71.8915 9.89353C70.5948 9.89537 69.3329 9.66742 68.0519 9.41607C66.7701 9.17903 65.4764 8.91209 64.2011 8.82388C62.6736 8.78506 61.2129 8.88929 59.7667 9.05102C58.3153 9.20937 56.8802 9.41532 55.3818 9.63251C54.8203 9.75032 54.2711 9.865 53.7262 9.97863C53.1887 10.1045 52.6509 10.2116 52.1242 10.363C51.8598 10.4342 51.6006 10.5088 51.3384 10.5889C51.0784 10.6779 50.8184 10.7668 50.5606 10.8646C50.0429 11.0513 49.5365 11.301 49.0305 11.5694C47.4107 12.2686 45.44 12.9057 44.0376 13.9075C43.0442 13.7296 41.8384 14.6538 41.1282 15.3733C39.7529 16.5706 38.3554 17.6794 37.0493 18.9063C35.7515 20.1311 34.5339 21.4815 33.6951 23.0751C32.8812 24.0135 32.5276 23.4677 32.5222 22.552C32.5227 22.3262 32.5332 22.0696 32.5782 21.8278C32.6233 21.5861 32.6849 21.3401 32.7604 21.1142C32.902 20.66 33.1216 20.3226 33.3179 20.2262C33.4588 20.0497 33.608 19.871 33.756 19.688C33.9094 19.5083 34.0646 19.3188 34.221 19.1336C34.5251 18.7467 34.8755 18.3858 35.209 18.0103C35.5594 17.6494 35.9214 17.2997 36.2965 16.9842C36.6843 16.6844 37.0608 16.3922 37.4709 16.1808C37.6631 15.8926 37.8442 15.6307 38.0321 15.3953C38.2252 15.1633 38.425 14.9579 38.6397 14.7769C38.8534 14.5914 39.0903 14.4283 39.3621 14.2988C39.6328 14.1648 39.931 14.0522 40.2743 13.9611C41.7717 13.0388 43.2062 12.0241 44.7422 11.1673C46.274 10.3115 47.898 9.61131 49.6628 9.38349C51.388 8.62958 53.1805 8.17848 54.9756 7.82548C56.776 7.47586 58.5873 7.22224 60.4431 6.88221C61.9491 7.13337 63.4084 7.07649 64.8894 7.0706C66.3662 7.06575 67.873 7.10979 69.3165 7.62121C70.4536 7.66894 71.6299 7.81967 72.7848 8.13097C73.9394 8.42353 75.0696 8.88213 76.1122 9.46621C76.3701 9.63174 76.6469 9.75017 76.9329 9.8522C77.2189 9.95422 77.506 10.0607 77.792 10.1627C78.367 10.3613 78.9059 10.6442 79.2959 11.1245C79.6595 11.3245 79.999 11.5165 80.3394 11.6942C80.6797 11.8719 80.9966 12.0791 81.3184 12.2708C81.6402 12.4626 81.946 12.696 82.251 12.9437C82.402 13.0703 82.5571 13.1959 82.7073 13.3368C82.8544 13.4832 82.9985 13.635 83.1407 13.7967C83.3739 13.9167 83.6397 14.0615 83.8854 14.2489C84.1353 14.4352 84.3877 14.6492 84.6204 14.8728C84.8573 15.0953 85.047 15.3579 85.2103 15.6037C85.3675 15.8604 85.4954 16.1057 85.5412 16.3575C85.986 16.6876 86.4476 17.084 86.8357 17.5742C87.0333 17.816 87.2362 18.0612 87.4228 18.3293C87.6052 18.5985 87.7847 18.8731 87.9599 19.1488C88.1435 19.4224 88.2961 19.7131 88.46 19.9964C88.6198 20.2806 88.7951 20.5563 88.9413 20.8393C89.2379 21.4042 89.5681 21.9277 89.874 22.4245L89.8688 22.4211Z" fill="black"/>
<path d="M76.92 84.453C76.933 84.6801 76.8758 84.9437 76.8009 85.2071C76.7061 85.4614 76.5958 85.7243 76.4607 85.9417C76.0775 86.7859 75.6059 87.5065 75.1257 88.2105C74.6454 88.9144 74.1449 89.5906 73.6448 90.356C72.6972 91.0788 71.7117 91.7736 70.7012 92.4041C69.6906 93.0346 68.651 93.6019 67.6144 94.0415C67.0346 94.5777 66.3015 94.908 65.5311 95.1253C64.763 95.3516 63.9584 95.4506 63.2178 95.5758C62.8307 95.598 62.5521 95.8233 62.256 95.9966C61.9576 96.161 61.6409 96.2877 61.1899 96.0909C60.9123 96.4429 60.5504 96.4775 60.1762 96.4635C59.8074 96.4529 59.4274 96.398 59.098 96.5797C58.6444 96.7409 58.1198 96.76 57.6667 96.6953C56.9379 97.1656 57.1295 97.2255 56.2702 96.9668C55.5073 97.3892 54.6651 97.4789 53.8189 97.4473C52.9738 97.4202 52.1224 97.2629 51.3049 97.2053C50.3244 97.184 49.3797 97.1819 48.4341 97.1236C47.4915 97.0599 46.5438 96.941 45.5855 96.6743C44.095 96.4145 42.8432 95.8407 41.3207 95.6642C40.168 95.3618 38.992 94.5809 37.8984 94.1977C37.7806 93.7994 37.5059 93.497 37.1714 93.2897C36.8418 93.0669 36.453 92.9249 36.1264 92.819C35.0088 92.3055 34.0467 91.4802 33.21 90.5574C32.3639 89.6323 31.6403 88.6152 30.8754 87.6274C30.5804 86.7705 31.1838 86.661 31.8096 86.7809C32.4293 86.9118 33.1124 87.2243 33.0893 87.5358C33.2366 87.7527 33.3985 87.9753 33.58 88.1882C33.7699 88.3991 33.9619 88.6188 34.1601 88.8276C34.5586 89.254 34.954 89.6859 35.2475 90.1857C35.4546 90.2371 35.6356 90.2903 35.8012 90.3521C35.9667 90.4139 36.1229 90.4733 36.2567 90.5666C36.5284 90.7522 36.7543 91.001 36.9624 91.4424C37.7948 92.1029 38.7841 92.4747 39.7511 92.8286C40.7265 93.1803 41.6808 93.5186 42.5871 94.1746C43.6973 94.3608 44.7475 94.642 45.8207 94.8563C46.8927 95.0662 47.9771 95.2024 49.0873 95.0735C49.9358 95.4995 50.821 95.4931 51.6895 95.4203C52.5603 95.3563 53.4196 95.2294 54.3123 95.428C55.6184 95.0429 56.982 94.7985 58.3579 94.8661C59.0706 94.9454 59.6538 94.2296 60.3756 94.5558C61.284 94.3084 61.9354 93.8811 62.913 93.8562C63.397 93.4475 64.1876 93.0651 64.8073 93.3888C65.2871 92.9107 65.9306 92.6453 66.5919 92.3801C67.2426 92.1082 67.9111 91.8365 68.3681 91.3735C68.7594 91.3503 68.9459 91.3551 69.1055 91.3055C69.2609 91.257 69.385 91.1364 69.6101 90.8211C69.8251 90.7812 70.0383 90.6993 70.2363 90.5742C70.4395 90.4525 70.6371 90.3087 70.8187 90.1361C71.0025 89.9723 71.1735 89.7929 71.3216 89.6098C71.4749 89.4301 71.6086 89.2601 71.7238 89.1042C72.1239 89.2386 72.5758 88.7205 72.5835 88.2248C72.9546 88.0514 73.34 87.7945 73.5651 87.4793C74.2317 87.0952 74.3004 86.5089 74.4299 85.7615C74.4401 85.679 74.4607 85.6033 74.4949 85.5288C74.5197 85.452 74.5551 85.382 74.5945 85.3109C74.6787 85.1722 74.7859 85.0371 74.8837 84.8996C75.0928 84.6259 75.2786 84.3299 75.2749 84.0346C75.4666 83.7795 75.8777 83.6948 76.2712 83.751C76.669 83.8061 76.9399 84.0059 76.9139 84.4639L76.92 84.453Z" fill="black"/>
<path d="M97.9085 47.9501C98.2112 49.9243 98.6092 51.9967 98.6113 53.9337C98.7487 54.2518 98.7967 54.583 98.8252 54.9238C98.8525 55.2602 98.8466 55.605 98.7917 55.948C98.7451 56.2889 98.6797 56.6251 98.6049 56.959C98.5196 57.2862 98.4331 57.6089 98.3486 57.9217C98.2422 58.2354 98.3304 58.533 98.3695 58.8288C98.4087 59.1246 98.3999 59.4231 98.0752 59.6929C98.2746 60.0471 98.1679 60.342 98.0266 60.6221C97.956 60.7622 97.8759 60.8999 97.8188 61.0412C97.7576 61.1836 97.7152 61.3306 97.7345 61.4951C97.716 61.7019 97.6673 61.9117 97.5964 62.1035C97.5595 62.2022 97.5214 62.2964 97.4729 62.3839C97.4243 62.4713 97.3663 62.5565 97.3102 62.6317C97.4402 63.3937 97.5571 63.2797 97.0304 63.8166C97.0824 64.5842 96.8656 65.283 96.5047 65.9005C96.1744 66.5338 95.6936 67.0781 95.3469 67.6638C94.5502 69.0917 93.8374 70.4843 92.6546 71.6049C92.2518 72.0731 91.8303 72.4848 91.3917 72.8633C91.1761 73.0586 90.9711 73.2607 90.7716 73.4849C90.5646 73.6968 90.3652 73.921 90.1798 74.184C90.0107 74.3535 89.8228 74.5184 89.6221 74.6676C89.415 74.8091 89.1974 74.9438 88.984 75.0775C88.7716 75.2155 88.5582 75.3492 88.3617 75.4974C88.1565 75.629 87.963 75.7717 87.7917 75.9324C87.4558 75.7724 87.1462 75.8221 86.8747 75.9704C86.6009 76.1098 86.3502 76.3234 86.1651 76.5346C85.9791 76.6895 85.7814 76.8333 85.5804 76.9638C85.3795 77.0944 85.1643 77.1861 84.9472 77.2878C84.7332 77.384 84.5127 77.4724 84.2912 77.5563L83.9599 77.6773C83.8501 77.7144 83.7339 77.7436 83.623 77.7762C83.4487 77.8201 83.2766 77.8728 83.1024 77.9167C83.1667 78.0321 83.2352 78.1466 83.2996 78.262C83.6421 78.8342 83.9927 79.3855 84.0185 79.4355C84.0814 79.5278 84.8351 81.506 85.1997 81.5695C85.4463 81.6203 86.5941 83.4288 86.5555 83.9417C86.5573 84.0541 87.1386 85.154 87.8162 86.1638C88.4867 87.1801 89.2504 88.0931 89.3256 88.1117C89.3893 88.1192 89.5334 88.2711 89.7224 88.4963C89.9073 88.7225 90.1553 88.9892 90.3818 89.2755C90.6257 89.5433 90.8613 89.8132 91.0467 90.0064C91.2351 90.1941 91.3601 90.3226 91.3601 90.3226L91.5568 90.5082L91.7637 90.6818L91.8197 90.7289C91.9645 90.7959 92.0841 90.8504 92.1691 90.8902C92.2541 90.9299 92.3034 90.9504 92.3034 90.9504C92.5066 91.0216 92.7102 91.1114 92.9111 91.1737C93.1091 91.2415 93.33 91.3129 93.4994 91.3549L93.3744 92.6466C93.098 92.6174 92.8871 92.5859 92.6551 92.5408C92.6551 92.5408 92.5986 92.5268 92.5004 92.5045C92.4052 92.4767 92.2681 92.4406 92.107 92.3965C91.7829 92.3182 91.382 92.1981 90.9987 92.13C90.2079 91.9857 88.7476 91.3374 88.0138 90.9813C87.6342 90.8229 87.216 90.5989 86.7971 90.3893C86.5891 90.2817 86.3864 90.1775 86.1942 90.0801C86.0081 89.9718 85.8337 89.8746 85.675 89.7876C85.6487 89.7707 85.3717 89.7745 84.8749 89.3258C84.5272 89.0136 83.8972 88.6314 83.3076 88.3048C83.0113 88.1442 82.7398 87.9774 82.523 87.8345C82.3061 87.6915 82.1479 87.5714 82.0914 87.4869C81.958 87.2901 81.645 87.0632 81.2808 86.8256C80.9227 86.5772 80.5235 86.3061 80.208 86.0516C79.8914 85.7927 79.6242 85.5026 79.3302 85.2285C79.0465 84.9426 78.7412 84.6761 78.341 84.4711C77.9356 84.2628 77.5414 83.9058 77.1961 83.5507C76.861 83.1836 76.5761 82.8226 76.3655 82.617C75.9113 82.1623 75.3738 81.6392 75.0102 81.2463C74.6496 80.848 73.8988 80.0211 73.637 79.7344C73.4546 79.5357 73.2132 79.2955 73.2938 78.9319C73.3395 78.7276 73.6827 78.3732 73.8164 78.396C74.0013 78.4294 74.2855 78.4895 74.4692 78.6408C74.6919 78.8246 75.4724 79.4888 75.9138 79.9279C76.044 80.0597 76.2142 80.0874 76.2459 80.1782C76.3067 80.3322 76.9381 80.8599 77.5658 81.3556C77.8802 81.6056 78.1924 81.8469 78.437 82.0298C78.6835 82.2029 78.8564 82.3287 78.8868 82.3446C78.9447 82.3817 79.4158 82.851 79.9283 83.3098C80.4337 83.7752 81.0026 84.1775 81.1949 84.1526C81.3299 84.1281 81.9243 84.4911 82.5217 84.9192C83.1283 85.3308 83.7237 85.8206 83.8439 86.1054C83.86 86.1342 83.9425 86.2169 84.0849 86.3269C84.2273 86.4368 84.4223 86.5806 84.6553 86.7524C84.8871 86.9197 85.1558 87.1108 85.4403 87.3119C85.7258 87.5175 86.0424 87.7059 86.3529 87.9052C86.5844 88.0539 86.8148 88.1981 87.043 88.3335C86.8102 88.0394 86.5765 87.7596 86.4082 87.5292C86.3933 87.5047 86.1607 87.4222 85.9491 86.897C85.7953 86.5313 85.4393 86.0284 85.0956 85.5741C84.7684 85.1156 84.4659 84.7026 84.4455 84.5338C84.4026 84.1355 83.8045 83.4066 83.5031 82.8053C83.3525 82.5046 83.2546 82.1859 83.133 81.8779C83.0155 81.5689 82.872 81.2617 82.6135 80.9882C82.0908 80.4191 81.9076 79.393 81.7119 78.9485C81.635 78.7656 81.5559 78.5739 81.4767 78.3822C81.2922 78.438 81.11 78.5027 80.9288 78.5718C80.253 78.5161 80.2804 77.8885 80.5046 77.3242C80.5906 77.1051 80.706 76.8973 80.8272 76.7304C80.7042 76.3993 80.5823 76.0726 80.5234 75.9087C80.445 75.7027 80.3274 75.4454 80.5459 75.1741C80.6663 75.0216 81.111 74.825 81.2201 74.8728C81.3713 74.9476 81.592 75.0708 81.6927 75.2429C81.7773 75.3862 82.0025 75.7904 82.2067 76.1811C82.3445 76.1323 82.4864 76.0825 82.6282 76.0327C82.8437 75.9596 83.0678 75.9032 83.2899 75.8567C83.5098 75.8014 83.7323 75.7736 83.9595 75.7823C84.1672 75.4855 84.3478 75.2566 84.5729 75.1342C84.7946 74.9984 85.0575 74.9558 85.4441 75.0372C85.6366 74.9605 85.8216 74.8716 86.0003 74.775C86.1842 74.6816 86.3445 74.5473 86.5123 74.4251C86.679 74.2985 86.8404 74.1685 86.9977 74.0396C87.1591 73.9096 87.3216 73.7841 87.4703 73.6385C87.7751 73.3596 88.0897 73.1017 88.432 72.8839C88.7593 72.6416 89.1207 72.4472 89.5466 72.3165C89.8325 71.9624 90.1165 71.6182 90.4271 71.3096C90.583 71.1575 90.7261 70.9898 90.8714 70.831L91.3105 70.349C91.8832 69.697 92.4166 68.9937 92.7347 68.1189C93.0787 67.943 93.3119 67.6774 93.5113 67.3827C93.7065 67.0891 93.8744 66.7741 93.9959 66.4331C94.1227 66.0955 94.2559 65.7657 94.4038 65.4417C94.5464 65.1142 94.7206 64.807 94.9746 64.5362C95.0231 64.2559 95.0518 63.9666 95.114 63.6876C95.1667 63.4063 95.2499 63.1408 95.3215 62.8641C95.4616 62.3163 95.6991 61.8051 95.9577 61.3074C96.1173 61.065 96.105 60.753 96.1107 60.46C96.1111 60.1636 96.1378 59.8842 96.4126 59.6786C96.4782 59.2906 96.4537 58.93 96.475 58.5766C96.4836 58.4005 96.5058 58.2256 96.5446 58.0465C96.5792 57.8685 96.6263 57.6874 96.7065 57.4979C96.6107 57.2399 96.5619 56.923 96.5905 56.6336C96.6098 56.3419 96.722 56.0691 96.9805 55.8865C96.92 55.7513 96.8772 55.6163 96.8468 55.4781C96.8123 55.341 96.785 55.1974 96.7702 55.0507C96.7374 54.7626 96.7461 54.4642 96.7548 54.1657C96.7421 53.5717 96.7781 52.9607 96.5449 52.4551C96.7848 51.8304 96.9177 51.8675 96.5555 51.305C96.6549 50.9461 96.6054 50.5212 96.4626 50.1292C96.3948 49.9299 96.3157 49.7382 96.2399 49.5598C96.1588 49.378 96.0615 49.2191 95.9893 49.0726C96.2651 48.801 96.0615 48.255 95.6556 48.0797C95.68 47.7209 95.6828 47.3111 95.5374 47.0138C95.5497 46.6768 95.4696 46.4289 95.3152 46.2185C95.1566 46.0092 94.9403 45.8332 94.7106 45.6042C94.5014 45.4217 94.426 45.1397 94.3711 44.8337C94.3244 44.5257 94.2397 44.2413 94.0526 44.0768C94.0271 43.7823 94.2557 43.4285 94.5556 43.1649C94.8596 42.9003 95.1569 42.8019 95.3986 43.0609C95.5399 43.1664 95.6685 43.3269 95.7849 43.5092C95.8931 43.6936 95.9726 43.904 96.0362 44.1043C96.6795 45.4332 97.0868 46.6662 97.8795 47.9574L97.9085 47.9501Z" fill="black"/>
<path d="M26.9134 51.384L27.2614 51.444V63H22.6174V47.16H28.8934L34.0654 58.68L33.7174 58.752V47.16H38.3614V63H32.0494L26.9134 51.384ZM40.8071 47.16H45.4511V63H40.8071V47.16ZM56.6807 58.68C57.2407 58.68 57.7807 58.592 58.3007 58.416C58.8287 58.24 59.2367 58.064 59.5247 57.888L61.5047 61.824C61.1207 62.144 60.4687 62.468 59.5487 62.796C58.6287 63.124 57.5447 63.288 56.2967 63.288C55.1287 63.288 54.0247 63.088 52.9847 62.688C51.9447 62.28 51.0207 61.708 50.2127 60.972C49.4127 60.236 48.7847 59.372 48.3287 58.38C47.8727 57.38 47.6447 56.288 47.6447 55.104C47.6447 53.92 47.8727 52.828 48.3287 51.828C48.7847 50.82 49.4127 49.948 50.2127 49.212C51.0127 48.468 51.9327 47.892 52.9727 47.484C54.0207 47.076 55.1287 46.872 56.2967 46.872C57.5447 46.872 58.6287 47.036 59.5487 47.364C60.4687 47.692 61.1207 48.016 61.5047 48.336L59.5247 52.272C59.2367 52.096 58.8287 51.92 58.3007 51.744C57.7807 51.568 57.2407 51.48 56.6807 51.48C55.9207 51.48 55.2847 51.588 54.7727 51.804C54.2607 52.02 53.8487 52.308 53.5367 52.668C53.2327 53.02 53.0127 53.408 52.8767 53.832C52.7487 54.248 52.6847 54.66 52.6847 55.068C52.6847 55.484 52.7487 55.904 52.8767 56.328C53.0127 56.752 53.2327 57.144 53.5367 57.504C53.8487 57.856 54.2607 58.14 54.7727 58.356C55.2847 58.572 55.9207 58.68 56.6807 58.68ZM63.4924 47.16H74.1244V51.192H68.1364V53.112H74.1244V57.012H68.1364V58.968H74.1244V63H63.4924V47.16ZM77.5687 57.3L76.6327 46.488H81.6607L80.7367 57.3H77.5687ZM79.1407 63.288C78.6767 63.288 78.2487 63.172 77.8567 62.94C77.4727 62.708 77.1607 62.4 76.9207 62.016C76.6887 61.624 76.5727 61.192 76.5727 60.72C76.5727 60.008 76.8247 59.4 77.3287 58.896C77.8327 58.384 78.4367 58.128 79.1407 58.128C79.8607 58.128 80.4727 58.384 80.9767 58.896C81.4807 59.4 81.7327 60.008 81.7327 60.72C81.7327 61.424 81.4807 62.028 80.9767 62.532C80.4727 63.036 79.8607 63.288 79.1407 63.288ZM84.7406 57.3L83.8046 46.488H88.8326L87.9086 57.3H84.7406ZM86.3126 63.288C85.8486 63.288 85.4206 63.172 85.0286 62.94C84.6446 62.708 84.3326 62.4 84.0926 62.016C83.8606 61.624 83.7446 61.192 83.7446 60.72C83.7446 60.008 83.9966 59.4 84.5006 58.896C85.0046 58.384 85.6086 58.128 86.3126 58.128C87.0326 58.128 87.6446 58.384 88.1486 58.896C88.6526 59.4 88.9046 60.008 88.9046 60.72C88.9046 61.424 88.6526 62.028 88.1486 62.532C87.6446 63.036 87.0326 63.288 86.3126 63.288Z" fill="#3068E3"/>
</svg>
