<svg width="99" height="75" viewBox="0 0 99 75" fill="none" xmlns="http://www.w3.org/2000/svg">
<path d="M25.2479 60.1902C23.2667 67.4421 21.4865 70.9438 18.3808 73.4031C20.7879 72.2903 25.7455 69.4563 31.689 63.0798L33.3208 64.1259C38.7809 73.8779 76.6238 72.2569 82.7635 57.5009C82.7635 57.5009 82.9406 55.7945 82.8544 54.0771C113.567 38.505 91.717 10.2874 67.1296 11.0738C66.4597 10.0129 65.5217 8.82964 64.2584 7.76875C45.6049 -6.52363 -9.48929 0.46862 4.70418 32.9631C3.3547 34.3541 2.39285 35.8082 2.39285 35.8082C-2.01929 43.6091 5.52727 59.5522 25.2527 60.1902H25.2479Z" fill="white"/>
<path d="M83.3708 54.7559C84.1987 54.3182 85.0218 53.8583 85.62 53.2981C85.9454 53.2091 86.2421 53.1201 86.5196 53.0236C86.7876 52.9198 87.0365 52.8048 87.2662 52.6712C87.4959 52.5377 87.7112 52.3893 87.9122 52.2076C88.1084 52.0221 88.2854 51.8032 88.4577 51.551C89.7306 50.5717 91.1184 49.6815 92.3434 48.6391C93.5685 47.6079 94.65 46.4394 95.2195 45.0744C96.3249 43.8243 97.0762 42.437 97.6409 41.0237C98.2056 39.603 98.5932 38.1563 98.9999 36.6577C98.7607 35.441 98.8181 34.2725 98.7798 33.0818C98.7463 31.8948 98.6027 30.6855 97.9759 29.5764C97.8514 28.6713 97.6122 27.744 97.2054 26.8574C97.0188 26.4086 96.7699 25.9783 96.5115 25.5554C96.3823 25.344 96.2292 25.14 96.0809 24.9397C95.9325 24.7394 95.7794 24.539 95.6071 24.3499C95.4252 24.1607 95.2865 23.953 95.1668 23.7378C95.0376 23.5227 94.9276 23.3038 94.8079 23.085C94.7457 22.9774 94.6883 22.8698 94.6213 22.7622C94.5495 22.6584 94.473 22.5619 94.3916 22.4655C94.2241 22.2763 94.0231 22.1057 93.7695 21.9758C92.9225 20.8964 92.3243 19.9468 91.0514 19.0899C90.8313 18.719 90.4628 18.2998 90.0321 17.9437C89.5919 17.5987 89.0894 17.3205 88.6013 17.25C88.0414 16.5082 87.0987 15.859 86.0937 15.2729C85.0792 14.6943 84.0264 14.1564 83.1747 13.5851C82.8588 13.5072 82.6243 13.4627 82.4329 13.4293C82.2415 13.3922 82.0979 13.3626 81.9687 13.3218C81.8347 13.281 81.7151 13.2216 81.5667 13.1363C81.4136 13.051 81.2318 12.936 80.9877 12.7691C80.8059 12.732 80.624 12.6875 80.4374 12.6318C80.246 12.5836 80.0546 12.5242 79.8632 12.4612C79.6717 12.3981 79.4755 12.3276 79.2841 12.2535C79.0879 12.183 78.8917 12.1125 78.6955 12.0383C78.4993 11.9641 78.3079 11.8862 78.1165 11.8083C77.9251 11.7341 77.7337 11.6599 77.5518 11.5895C77.1833 11.4448 76.8388 11.3038 76.5229 11.1963C76.2597 11.289 75.8578 11.2408 75.451 11.1443C75.0395 11.0479 74.6327 10.8698 74.36 10.6807C73.9867 10.6807 73.5943 10.6695 73.2115 10.6436C72.8238 10.6287 72.4458 10.6028 72.0965 10.5471C70.7422 10.6436 69.9526 10.3617 68.5792 10.1539C68.0002 10.0389 67.3446 10.1465 66.7225 10.243C66.0956 10.3728 65.4974 10.4878 64.9662 10.4952C64.435 10.677 64.2341 11.0331 64.2771 11.3706C64.325 11.7119 64.5882 11.9456 65.1959 11.9307C65.3491 11.9419 65.5118 11.9344 65.6888 11.9307C65.8611 11.9307 66.0477 11.9196 66.2344 11.9048C66.421 11.8899 66.6076 11.8714 66.7942 11.8454C66.9809 11.8269 67.1675 11.8083 67.3446 11.7861C67.9906 11.7416 68.627 11.7416 69.2587 11.7416C69.8856 11.7638 70.5125 11.7861 71.1298 11.864C72.3644 12.0049 73.5847 12.2535 74.7667 12.6986C75.2022 12.7542 75.6281 12.8544 76.0635 12.936C76.4942 13.0287 76.9249 13.1437 77.3556 13.2513C77.7767 13.3774 78.2074 13.4998 78.6285 13.6408C79.0449 13.7892 79.4707 13.9227 79.8775 14.0933C81.5237 14.7313 83.0742 15.5103 84.5002 16.3153C85.2706 17.0238 86.199 17.6432 87.137 18.2813C88.0701 18.9156 89.0559 19.535 89.8886 20.2027C90.123 20.3585 90.2809 20.5403 90.4197 20.7221C90.5585 20.9075 90.6734 21.093 90.793 21.2748C91.0227 21.6494 91.3098 21.9833 91.908 22.2577C91.9415 22.5026 92.0515 22.7066 92.1903 22.8958C92.3291 23.0887 92.5062 23.2593 92.6928 23.4299C92.8842 23.5969 93.066 23.7712 93.2335 23.953C93.3962 24.1384 93.5494 24.3276 93.6164 24.5502C93.7504 24.8284 93.937 25.0955 94.1188 25.3588C94.3007 25.6222 94.5065 25.8744 94.7122 26.097C94.8366 27.1208 94.65 26.9056 95.4444 27.7588C95.5305 28.7863 95.8464 29.7508 96.1813 30.7338C96.5067 31.713 96.8369 32.7109 96.9566 33.705C97.0379 34.8957 96.9326 36.0419 96.7125 37.1659C96.4924 38.2898 96.1766 39.3953 95.8081 40.5415C95.4635 41.3983 95.0855 42.2033 94.65 42.9897C94.181 43.7612 93.6547 44.518 92.8794 45.1931C92.7502 45.334 92.6258 45.4824 92.4966 45.6308C92.3626 45.7754 92.2286 45.9238 92.0994 46.0759C91.9702 46.228 91.8362 46.3838 91.707 46.5359L91.2859 46.9884C91.1423 47.1368 91.0035 47.2889 90.86 47.4373C90.7069 47.5782 90.5585 47.7192 90.4054 47.8564C90.2522 47.9937 90.0991 48.1235 89.9412 48.2533C89.7833 48.3795 89.6158 48.4907 89.4483 48.602C89.41 49.0026 89.1085 49.407 88.6779 49.7371C88.4673 49.904 88.2328 50.0635 87.9983 50.2045C87.759 50.3417 87.5102 50.4567 87.2901 50.5569C85.7731 51.3767 84.3566 52.2632 82.8636 53.0904C81.3753 53.9176 79.844 54.7151 78.1643 55.2827C77.1546 55.9059 77.7002 56.2323 78.5902 56.3213C79.0353 56.3658 79.5665 56.3473 80.0163 56.2842C80.4613 56.2137 80.8202 56.0876 80.9351 55.9392C81.3036 55.7464 81.7199 55.572 82.1266 55.3717C82.5382 55.1714 82.9641 54.9674 83.39 54.7634L83.3708 54.7559Z" fill="black"/>
<path d="M1.75139 18.4852C1.78488 19.049 1.83275 19.2976 1.83753 19.5424C1.83753 19.7872 1.74181 20.0172 1.51212 20.5402C1.56476 20.8518 1.57434 21.1931 1.5552 21.5455C1.53127 21.8979 1.52647 22.2651 1.4834 22.6323C1.43555 22.9996 1.41162 23.3594 1.37813 23.7081C1.34463 24.053 1.29678 24.3795 1.29199 24.6688C1.49776 24.8357 1.60782 25.1696 1.63175 25.5257C1.64611 25.8855 1.62218 26.2713 1.4834 26.5532C1.72267 27.143 2.01937 27.7921 2.12944 28.3745C2.71804 29.4057 2.64626 30.1291 2.80418 31.2753C2.81375 31.3977 2.84246 31.5201 2.87596 31.6425C2.91902 31.7649 2.97167 31.8836 3.03388 32.006C3.1583 32.2471 3.30665 32.4883 3.46456 32.7257C3.76126 33.2005 4.11538 33.6419 4.23023 34.0759C4.58435 34.4654 5.08203 34.5618 5.50315 34.4617C5.92905 34.3578 6.15873 34.0944 5.98646 33.5862C5.93382 33.3266 5.81419 33.0298 5.66585 32.7257C5.52707 32.4215 5.36914 32.1099 5.20644 31.828C5.09159 31.5646 4.95761 31.305 4.85711 31.0416C4.75662 30.7782 4.65613 30.5186 4.55563 30.2589C4.34508 29.7433 4.2063 29.2166 4.06274 28.6935C4.02924 28.5637 3.99096 28.4302 3.96225 28.3003L3.89046 27.9034C3.84739 27.6363 3.80432 27.3693 3.77082 27.1022C3.73254 26.8351 3.73733 26.5606 3.72775 26.2861C3.72775 26.0116 3.71818 25.7371 3.74211 25.4589C3.40235 23.9826 3.34492 22.4135 3.5172 20.8704C3.69426 19.3235 4.12016 17.8101 4.70398 16.4042C4.85711 16.1854 5.03417 15.9739 5.17773 15.7477C5.32608 15.5251 5.46486 15.2951 5.61799 15.0726C5.76634 14.8463 5.90033 14.6126 6.03911 14.3789C6.19224 14.1489 6.3358 13.9189 6.47458 13.6815C7.06318 12.7542 7.65656 11.8008 8.37916 10.9699C8.53707 10.7437 8.75721 10.5767 8.97255 10.4172C9.19268 10.2652 9.40802 10.1205 9.64251 9.98694C10.1019 9.71616 10.4991 9.41199 10.7814 8.88525C11.4131 8.71833 11.839 8.38448 12.2458 8.01354C12.4467 7.82806 12.6621 7.65001 12.887 7.48309C13.1119 7.31617 13.356 7.16408 13.6479 7.06764C14.0068 6.90813 14.3465 6.70782 14.6911 6.51493C15.0309 6.32204 15.3467 6.11061 15.6338 5.9103C16.3277 5.76563 16.6052 5.74337 16.8445 5.65435C17.0886 5.56903 17.2896 5.42436 17.8303 5.03487C19.2372 4.77893 20.5436 4.34863 21.8644 3.89608C23.1899 3.45466 24.5203 2.98728 25.8793 2.66456C27.5255 2.33071 29.1382 2.12298 30.7509 1.96348C32.3683 1.80027 33.981 1.67785 35.6655 1.55173C36.3067 1.53319 36.9336 1.51464 37.5557 1.49609C38.173 1.48867 38.7855 1.46642 39.3981 1.48126C39.7043 1.48497 40.0058 1.49238 40.3121 1.50351C40.6183 1.52206 40.9246 1.54061 41.2309 1.56657C41.8434 1.61109 42.4607 1.70753 43.0828 1.81881C45.0305 2.0488 47.3418 2.16008 49.1363 2.67198C50.1652 2.33442 51.7252 2.82406 52.6919 3.25065C54.5103 3.92205 56.3288 4.51927 58.0802 5.22776C59.8221 5.93626 61.5114 6.75976 62.8561 7.85032C63.995 8.42899 64.2295 7.92822 63.9854 7.20488C63.9232 7.02683 63.8418 6.82652 63.727 6.64476C63.6121 6.463 63.4782 6.28124 63.3346 6.11803C63.057 5.78789 62.7269 5.56532 62.4876 5.52823C62.2866 5.41695 62.076 5.30566 61.8655 5.19067C61.6501 5.07939 61.43 4.96069 61.2099 4.8457C60.7744 4.60087 60.2959 4.38573 59.8317 4.15574C59.3532 3.9406 58.865 3.73658 58.3721 3.56224C57.8697 3.40273 57.3816 3.24694 56.8791 3.16162C56.592 2.97244 56.324 2.80181 56.056 2.65343C55.7832 2.50876 55.5105 2.38635 55.2281 2.2862C54.9458 2.18233 54.6443 2.10073 54.3141 2.05251C53.9839 2.00057 53.6298 1.9709 53.2326 1.96719C51.3568 1.5369 49.524 1.02129 47.6242 0.650346C45.7291 0.279405 43.7767 0.0494208 41.8003 0.220054C39.7235 -0.0321864 37.6562 -0.0321854 35.6128 0.0457123C33.5647 0.127319 31.5309 0.286824 29.4253 0.386978C27.8605 0.88404 26.2622 1.12886 24.6543 1.4182C23.0512 1.70753 21.4289 2.04138 20.0029 2.73133C18.7826 2.9947 17.548 3.34709 16.3803 3.8219C15.2079 4.28186 14.1073 4.86795 13.1358 5.53565C12.9014 5.71741 12.6334 5.86578 12.351 6.00303C12.0687 6.14028 11.7864 6.28124 11.504 6.41849C10.9346 6.68928 10.4273 7.01941 10.1354 7.47567C9.79564 7.70566 9.4798 7.92451 9.15918 8.13224C8.83856 8.33996 8.55144 8.56624 8.25475 8.78138C7.95805 8.99653 7.69006 9.24135 7.42687 9.4973C7.29766 9.62713 7.16367 9.75696 7.03925 9.89792C6.91962 10.0426 6.80477 10.191 6.6947 10.3468C6.47458 10.4877 6.22574 10.6546 6.0104 10.8512C5.79027 11.0478 5.57493 11.2667 5.38351 11.4893C5.18731 11.7118 5.05331 11.9566 4.94325 12.1829C4.84276 12.4166 4.77097 12.6355 4.79011 12.8432C4.39771 13.1919 4.00531 13.5962 3.71819 14.0599C3.56984 14.2899 3.41671 14.5236 3.28751 14.7721C3.16309 15.0206 3.04345 15.2729 2.9286 15.5251C2.80418 15.7773 2.71803 16.037 2.61754 16.293C2.52183 16.5489 2.40699 16.8011 2.32564 17.0534C2.15815 17.5579 1.94281 18.0364 1.74661 18.4889L1.75139 18.4852Z" fill="black"/>
<path d="M32.7272 64.8455C32.775 65.0273 32.909 65.2239 33.0622 65.4168C33.2344 65.5985 33.4259 65.784 33.6316 65.9287C34.2777 66.5185 34.9859 66.9933 35.6989 67.4533C36.4119 67.9132 37.1393 68.3472 37.8906 68.8517C39.1157 69.2338 40.3742 69.5862 41.6424 69.8829C42.9105 70.1797 44.193 70.4208 45.4372 70.5617C46.2124 70.8696 47.0977 70.9846 47.9926 71.0032C48.8874 71.0291 49.7871 70.9475 50.6245 70.8993C51.0504 70.8399 51.4141 70.9624 51.7826 71.0403C52.1511 71.1107 52.5291 71.1478 52.9646 70.903C53.3618 71.1256 53.7638 71.0811 54.1657 70.9957C54.5629 70.9141 54.9601 70.7954 55.3669 70.8733C55.9028 70.9104 56.4771 70.8214 56.9508 70.6804C57.8696 70.9067 57.6782 70.992 58.5396 70.6174C59.4823 70.7991 60.4202 70.7027 61.3295 70.5098C62.2387 70.3206 63.1192 70.0276 63.9901 69.8199C65.0477 69.6084 66.0718 69.4192 67.0815 69.1856C68.0864 68.9481 69.0818 68.6662 70.0484 68.2656C71.5941 67.7648 72.7953 67.0638 74.3984 66.6223C75.566 66.155 76.6284 65.3055 77.7099 64.7862C77.729 64.4486 77.9443 64.1556 78.2506 63.9256C78.5473 63.6845 78.9301 63.4953 79.2556 63.3469C80.3275 62.72 81.1458 61.878 81.8014 60.984C82.4665 60.0864 82.9738 59.1405 83.5337 58.2094C83.6198 57.4749 82.9355 57.5083 82.2895 57.7272C81.653 57.9534 80.9974 58.3355 81.1075 58.5766C81.007 58.7769 80.8922 58.9847 80.7534 59.1887C80.605 59.3927 80.4567 59.6041 80.2988 59.8082C79.9829 60.2236 79.6719 60.6428 79.49 61.0953C79.2795 61.1769 79.0976 61.2548 78.9349 61.3364C78.7722 61.418 78.6191 61.4959 78.4995 61.5961C78.2554 61.7964 78.0783 62.0375 77.9731 62.427C77.2505 63.1132 76.279 63.6029 75.3267 64.074C74.3649 64.5451 73.4222 65.0013 72.6182 65.6987C71.4649 66.0659 70.4026 66.4962 69.2971 66.8783C68.1917 67.2567 67.0528 67.5794 65.8134 67.6981C65.0094 68.2026 64.0476 68.3732 63.0857 68.4882C62.1238 68.6106 61.1572 68.6811 60.2432 69.0149C58.7214 68.9704 57.1758 69.0483 55.7019 69.3747C54.9505 69.5787 54.1227 69.1299 53.4288 69.5305C52.376 69.5157 51.5529 69.308 50.4858 69.4823C49.8493 69.256 48.8874 69.1114 48.3036 69.4897C47.6528 69.2078 46.8824 69.1262 46.0928 69.0483C45.3128 68.963 44.5136 68.8814 43.8915 68.6069C43.4608 68.6662 43.2598 68.707 43.0732 68.6996C42.8914 68.6922 42.7239 68.6217 42.3937 68.4177C42.1496 68.4288 41.896 68.4066 41.6472 68.3472C41.3935 68.2916 41.1399 68.2174 40.8959 68.1172C40.6518 68.0245 40.4173 67.9169 40.2068 67.8019C39.9914 67.6907 39.8 67.5831 39.6325 67.4829C39.2353 67.6684 38.6036 67.3494 38.4601 66.9599C38.0103 66.8968 37.5221 66.7707 37.1919 66.5667C36.3641 66.3961 36.1296 65.9472 35.7851 65.3834C35.7516 65.3203 35.7085 65.2647 35.6511 65.2128C35.6032 65.1571 35.5458 65.1089 35.4836 65.0607C35.3544 64.9679 35.2012 64.8826 35.0577 64.7936C34.7562 64.6193 34.4738 64.4227 34.3973 64.189C34.1197 64.0258 33.6508 64.0406 33.2392 64.163C32.8229 64.2854 32.5836 64.4968 32.7367 64.853L32.7272 64.8455Z" fill="black"/>
<path d="M0 40.2187C0.210557 41.836 0.344537 43.5497 0.87093 45.078C0.80872 45.3562 0.847011 45.627 0.909221 45.9015C0.971432 46.1723 1.07193 46.4431 1.22506 46.7027C1.36862 46.9624 1.53132 47.2146 1.7036 47.4631C1.88544 47.7043 2.06728 47.9417 2.24434 48.1716C2.44532 48.3979 2.43097 48.6502 2.46925 48.8913C2.50753 49.1324 2.59846 49.3661 3.02436 49.5145C2.90472 49.8335 3.10093 50.0449 3.33063 50.2378C3.44548 50.3342 3.56989 50.427 3.67039 50.5271C3.77567 50.6273 3.86181 50.7348 3.88574 50.8684C3.9623 51.0279 4.07237 51.1837 4.20157 51.3209C4.26857 51.3914 4.33555 51.4582 4.41212 51.5175C4.48868 51.5769 4.57482 51.6325 4.65618 51.6807C4.72317 52.3076 4.56525 52.2409 5.28306 52.5599C5.43619 53.1756 5.8621 53.6838 6.42199 54.0993C6.95317 54.5333 7.62312 54.8671 8.15909 55.2603C9.41286 56.2285 10.5661 57.1855 12.1549 57.8347C12.7196 58.124 13.289 58.3651 13.8681 58.5765C14.1552 58.6878 14.4327 58.8065 14.7103 58.9438C14.9926 59.0699 15.2702 59.2072 15.5429 59.3778C15.7726 59.4779 16.0215 59.5707 16.2799 59.6486C16.5431 59.719 16.8159 59.7821 17.0838 59.8452C17.3518 59.9119 17.6198 59.975 17.8734 60.0529C18.1318 60.116 18.3807 60.1901 18.6104 60.2829C18.931 60.09 19.2803 60.0677 19.6153 60.1308C19.9503 60.1864 20.2805 60.3051 20.5389 60.435C20.7829 60.5203 21.0366 60.5945 21.2902 60.6575C21.5438 60.7206 21.8022 60.7503 22.0654 60.7874C22.3238 60.8207 22.587 60.8467 22.8502 60.869L23.2426 60.8986C23.3718 60.9061 23.5058 60.9061 23.635 60.9098C23.836 60.9098 24.037 60.9172 24.238 60.9172C24.1997 61.0211 24.1567 61.1249 24.1184 61.2288C23.903 61.7481 23.6733 62.2526 23.659 62.2971C23.6159 62.3824 23.3383 64.0925 22.9603 64.2149C22.7067 64.3039 21.9554 65.9583 22.1372 66.3552C22.1659 66.4442 21.8357 67.4272 21.3763 68.3583C20.9265 69.2931 20.3475 70.1648 20.2709 70.1944C20.2039 70.213 20.0891 70.3614 19.9455 70.5765C19.8067 70.7917 19.6105 71.0513 19.443 71.3221C19.2516 71.5818 19.0698 71.8414 18.9214 72.0306C18.7683 72.2161 18.6678 72.3422 18.6678 72.3422L18.5051 72.5277L18.328 72.7057L18.2802 72.7539C18.1414 72.8355 18.0266 72.9023 17.9452 72.9505C17.8639 72.9988 17.816 73.0247 17.816 73.0247C17.615 73.1212 17.4188 73.2324 17.2178 73.3215C17.0216 73.4142 16.8015 73.5144 16.6292 73.5811L17.1173 74.5753C17.4092 74.4974 17.6294 74.4306 17.8687 74.349C17.8687 74.349 17.9261 74.3267 18.0266 74.2896C18.1223 74.2488 18.2611 74.1932 18.4238 74.1264C18.7539 74.0003 19.1559 73.826 19.5531 73.6961C20.3714 73.4253 21.7783 72.6241 22.477 72.1975C22.8454 71.9972 23.2379 71.7376 23.635 71.489C23.8312 71.3629 24.0227 71.2405 24.2045 71.1255C24.3768 71.0031 24.5395 70.8918 24.6878 70.7917C24.7118 70.7731 25.0132 70.7212 25.4296 70.2686C25.7215 69.9533 26.3005 69.5267 26.8508 69.1521C27.1284 68.9666 27.3772 68.7812 27.5734 68.6254C27.7696 68.4696 27.9084 68.3434 27.9467 68.2655C28.0376 68.0838 28.3152 67.8427 28.6453 67.583C28.966 67.3159 29.3249 67.0229 29.5976 66.7595C29.8704 66.4924 30.081 66.2105 30.325 65.936C30.5547 65.6541 30.8131 65.3833 31.1912 65.1422C31.574 64.8974 31.9042 64.5376 32.1818 64.1889C32.445 63.8328 32.6555 63.4915 32.8278 63.2875C33.1962 62.8387 33.6365 62.3194 33.9236 61.9373C34.206 61.5515 34.7946 60.7503 35.0003 60.4721C35.1439 60.2792 35.3401 60.0418 35.1535 59.771C35.0482 59.6189 34.5792 59.4075 34.4404 59.452C34.249 59.515 33.9571 59.6189 33.7992 59.7747C33.6078 59.9639 32.9426 60.6427 32.5837 61.0767C32.4785 61.2065 32.3014 61.2622 32.2918 61.3401C32.2679 61.4736 31.7271 62.0152 31.1816 62.5308C30.9088 62.7904 30.6361 63.0427 30.4207 63.2356C30.2006 63.421 30.0475 63.5546 30.0188 63.5731C29.9661 63.6139 29.5833 64.0776 29.1526 64.5413C28.7315 65.0087 28.2242 65.439 28.0089 65.4575C27.8558 65.4649 27.3102 65.8693 26.779 66.3255C26.2335 66.7706 25.7215 67.2751 25.6688 67.5237C25.6593 67.5496 25.5923 67.6312 25.4678 67.7462C25.3434 67.8612 25.1712 68.0133 24.9654 68.1951C24.7596 68.3731 24.5203 68.5771 24.2667 68.7923C24.0131 69.0111 23.7212 69.2226 23.4388 69.4414C23.2283 69.6046 23.0177 69.7641 22.8072 69.9162C22.9794 69.638 23.1565 69.3709 23.2761 69.1558C23.2857 69.1335 23.5154 69.0223 23.6015 68.566C23.6685 68.247 23.9174 67.7796 24.1662 67.353C24.3959 66.9264 24.6113 66.5407 24.5873 66.4034C24.5251 66.0807 24.975 65.387 25.1377 64.8529C25.219 64.5858 25.2382 64.315 25.286 64.0479C25.3291 63.7809 25.4008 63.5101 25.6066 63.243C26.0182 62.6903 25.9368 61.8445 26.0277 61.4551C26.0612 61.2956 26.0947 61.1286 26.1282 60.9617C26.3436 60.9691 26.5589 60.984 26.7743 61.0025C27.4921 60.8245 27.2911 60.3348 26.8939 59.9342C26.7408 59.7784 26.5589 59.6374 26.3819 59.5299C26.4249 59.2442 26.468 58.9623 26.4871 58.8214C26.5158 58.6433 26.5733 58.417 26.2622 58.2464C26.0899 58.15 25.554 58.0832 25.4487 58.1425C25.3051 58.2316 25.0994 58.3725 25.0372 58.5283C24.9845 58.6582 24.8505 59.0217 24.7357 59.3704C24.573 59.3592 24.4055 59.3481 24.238 59.337C23.9844 59.3221 23.726 59.3221 23.4723 59.3296C23.2187 59.3296 22.9699 59.3518 22.7258 59.4038C22.4196 59.2109 22.1611 59.0662 21.8836 59.0143C21.606 58.9512 21.3093 58.9697 20.9122 59.1107C20.6825 59.0884 20.4575 59.0551 20.2374 59.0143C20.0125 58.9772 19.8019 58.903 19.5866 58.8399C19.3713 58.7732 19.1607 58.7027 18.9549 58.6322C18.7444 58.5617 18.5338 58.4949 18.3328 58.4096C17.9261 58.2501 17.5145 58.1092 17.0838 58.0053C16.6627 57.8792 16.2177 57.7976 15.72 57.779C15.3132 57.5565 14.9113 57.3413 14.4902 57.1596C14.2796 57.0705 14.0786 56.9667 13.8776 56.8702L13.2699 56.5772C12.4707 56.1766 11.7003 55.7277 11.1165 55.1008C10.6953 55.0303 10.3699 54.8671 10.0732 54.6742C9.78133 54.4814 9.51334 54.2662 9.28843 54.0214C9.05873 53.7803 8.82425 53.5466 8.57541 53.3203C8.33136 53.0903 8.05859 52.8826 7.70926 52.7194C7.58005 52.5079 7.47 52.2854 7.32643 52.0777C7.19244 51.8662 7.02974 51.6733 6.87661 51.4693C6.57513 51.065 6.17793 50.7089 5.7616 50.3676C5.52233 50.2081 5.45056 49.9596 5.36442 49.7296C5.28307 49.4959 5.17779 49.2808 4.82367 49.1732C4.64661 48.8801 4.57483 48.5908 4.4552 48.3163C4.39777 48.1791 4.32598 48.0455 4.23506 47.912C4.14892 47.7784 4.04843 47.6449 3.90966 47.5114C3.94315 47.2888 3.90965 47.0291 3.79959 46.8066C3.69909 46.5803 3.50289 46.3874 3.1727 46.2947C3.20141 46.176 3.21099 46.061 3.2062 45.946C3.2062 45.831 3.19663 45.7123 3.1727 45.5936C3.12963 45.3599 3.03871 45.1262 2.94779 44.8925C2.79944 44.4214 2.59367 43.9466 2.70852 43.5015C2.27783 43.0564 2.14385 43.112 2.38312 42.5964C2.17734 42.333 2.11514 41.988 2.16299 41.6505C2.18213 41.4799 2.21563 41.3129 2.24913 41.1571C2.28741 40.9976 2.34962 40.853 2.38791 40.7231C2.01465 40.5636 2.08643 40.0925 2.47883 39.8737C2.35441 39.5955 2.23956 39.2728 2.31613 39.0094C2.21085 38.746 2.22998 38.5346 2.34005 38.338C2.4549 38.1414 2.64152 37.9596 2.82815 37.7334C3.00521 37.5479 3.01001 37.3105 2.98608 37.0582C2.95258 36.806 2.96694 36.5649 3.12486 36.398C3.07222 36.1606 2.72767 35.9269 2.33048 35.7785C1.92851 35.6301 1.57918 35.6116 1.38776 35.8638C1.26334 35.9751 1.16763 36.1272 1.09107 36.2941C1.02407 36.461 0.995356 36.6428 0.980999 36.8134C0.646022 37.9893 0.540738 39.0428 0.0334866 40.2187H0Z" fill="black"/>
<path d="M23.03 37.4C23.4967 37.4 23.9467 37.3267 24.38 37.18C24.82 37.0333 25.16 36.8867 25.4 36.74L27.05 40.02C26.73 40.2867 26.1867 40.5567 25.42 40.83C24.6533 41.1033 23.75 41.24 22.71 41.24C21.7367 41.24 20.8167 41.0733 19.95 40.74C19.0833 40.4 18.3133 39.9233 17.64 39.31C16.9733 38.6967 16.45 37.9767 16.07 37.15C15.69 36.3167 15.5 35.4067 15.5 34.42C15.5 33.4333 15.69 32.5233 16.07 31.69C16.45 30.85 16.9733 30.1233 17.64 29.51C18.3067 28.89 19.0733 28.41 19.94 28.07C20.8133 27.73 21.7367 27.56 22.71 27.56C23.75 27.56 24.6533 27.6967 25.42 27.97C26.1867 28.2433 26.73 28.5133 27.05 28.78L25.4 32.06C25.16 31.9133 24.82 31.7667 24.38 31.62C23.9467 31.4733 23.4967 31.4 23.03 31.4C22.3967 31.4 21.8667 31.49 21.44 31.67C21.0133 31.85 20.67 32.09 20.41 32.39C20.1567 32.6833 19.9733 33.0067 19.86 33.36C19.7533 33.7067 19.7 34.05 19.7 34.39C19.7 34.7367 19.7533 35.0867 19.86 35.44C19.9733 35.7933 20.1567 36.12 20.41 36.42C20.67 36.7133 21.0133 36.95 21.44 37.13C21.8667 37.31 22.3967 37.4 23.03 37.4ZM32.4864 34.39C32.4864 34.9833 32.6064 35.5267 32.8464 36.02C33.0864 36.5067 33.4231 36.8967 33.8564 37.19C34.2897 37.4767 34.7964 37.62 35.3764 37.62C35.9631 37.62 36.4731 37.4767 36.9064 37.19C37.3397 36.8967 37.6764 36.5067 37.9164 36.02C38.1564 35.5267 38.2764 34.9833 38.2764 34.39C38.2764 33.7967 38.1564 33.2567 37.9164 32.77C37.6764 32.2833 37.3397 31.8933 36.9064 31.6C36.4731 31.3067 35.9631 31.16 35.3764 31.16C34.7964 31.16 34.2897 31.3067 33.8564 31.6C33.4231 31.8933 33.0864 32.2833 32.8464 32.77C32.6064 33.2567 32.4864 33.7967 32.4864 34.39ZM28.4464 34.39C28.4464 33.43 28.6197 32.5367 28.9664 31.71C29.3197 30.8767 29.8097 30.15 30.4364 29.53C31.0631 28.91 31.7964 28.4267 32.6364 28.08C33.4831 27.7333 34.3964 27.56 35.3764 27.56C36.3764 27.56 37.2964 27.7333 38.1364 28.08C38.9831 28.4267 39.7164 28.91 40.3364 29.53C40.9631 30.15 41.4464 30.8767 41.7864 31.71C42.1331 32.5367 42.3064 33.43 42.3064 34.39C42.3064 35.3567 42.1397 36.2567 41.8064 37.09C41.4731 37.9167 40.9964 38.6433 40.3764 39.27C39.7631 39.89 39.0331 40.3733 38.1864 40.72C37.3397 41.0667 36.4031 41.24 35.3764 41.24C34.3231 41.24 33.3697 41.0667 32.5164 40.72C31.6697 40.3733 30.9431 39.89 30.3364 39.27C29.7297 38.6433 29.2631 37.9167 28.9364 37.09C28.6097 36.2567 28.4464 35.3567 28.4464 34.39ZM47.6036 34.39C47.6036 34.9833 47.7236 35.5267 47.9636 36.02C48.2036 36.5067 48.5403 36.8967 48.9736 37.19C49.4069 37.4767 49.9136 37.62 50.4936 37.62C51.0803 37.62 51.5903 37.4767 52.0236 37.19C52.4569 36.8967 52.7936 36.5067 53.0336 36.02C53.2736 35.5267 53.3936 34.9833 53.3936 34.39C53.3936 33.7967 53.2736 33.2567 53.0336 32.77C52.7936 32.2833 52.4569 31.8933 52.0236 31.6C51.5903 31.3067 51.0803 31.16 50.4936 31.16C49.9136 31.16 49.4069 31.3067 48.9736 31.6C48.5403 31.8933 48.2036 32.2833 47.9636 32.77C47.7236 33.2567 47.6036 33.7967 47.6036 34.39ZM43.5636 34.39C43.5636 33.43 43.7369 32.5367 44.0836 31.71C44.4369 30.8767 44.9269 30.15 45.5536 29.53C46.1803 28.91 46.9136 28.4267 47.7536 28.08C48.6003 27.7333 49.5136 27.56 50.4936 27.56C51.4936 27.56 52.4136 27.7333 53.2536 28.08C54.1003 28.4267 54.8336 28.91 55.4536 29.53C56.0803 30.15 56.5636 30.8767 56.9036 31.71C57.2503 32.5367 57.4236 33.43 57.4236 34.39C57.4236 35.3567 57.2569 36.2567 56.9236 37.09C56.5903 37.9167 56.1136 38.6433 55.4936 39.27C54.8803 39.89 54.1503 40.3733 53.3036 40.72C52.4569 41.0667 51.5203 41.24 50.4936 41.24C49.4403 41.24 48.4869 41.0667 47.6336 40.72C46.7869 40.3733 46.0603 39.89 45.4536 39.27C44.8469 38.6433 44.3803 37.9167 44.0536 37.09C43.7269 36.2567 43.5636 35.3567 43.5636 34.39ZM59.0808 27.8H62.9608V37.64H67.4708V41H59.0808V27.8ZM70.0852 36.25L69.3052 27.24H73.4952L72.7252 36.25H70.0852ZM71.3952 41.24C71.0085 41.24 70.6518 41.1433 70.3252 40.95C70.0052 40.7567 69.7452 40.5 69.5452 40.18C69.3518 39.8533 69.2552 39.4933 69.2552 39.1C69.2552 38.5067 69.4652 38 69.8852 37.58C70.3052 37.1533 70.8085 36.94 71.3952 36.94C71.9952 36.94 72.5052 37.1533 72.9252 37.58C73.3452 38 73.5552 38.5067 73.5552 39.1C73.5552 39.6867 73.3452 40.19 72.9252 40.61C72.5052 41.03 71.9952 41.24 71.3952 41.24ZM76.0617 36.25L75.2817 27.24H79.4717L78.7017 36.25H76.0617ZM77.3717 41.24C76.9851 41.24 76.6284 41.1433 76.3017 40.95C75.9817 40.7567 75.7217 40.5 75.5217 40.18C75.3284 39.8533 75.2317 39.4933 75.2317 39.1C75.2317 38.5067 75.4417 38 75.8617 37.58C76.2817 37.1533 76.7851 36.94 77.3717 36.94C77.9717 36.94 78.4817 37.1533 78.9017 37.58C79.3217 38 79.5317 38.5067 79.5317 39.1C79.5317 39.6867 79.3217 40.19 78.9017 40.61C78.4817 41.03 77.9717 41.24 77.3717 41.24Z" fill="#3068E3"/>
</svg>
