<svg width="177" height="96" viewBox="0 0 177 96" fill="none" xmlns="http://www.w3.org/2000/svg">
<path d="M159.877 21.4511L150.166 34.929L170.801 36.5363L156.896 48.2197L165.14 51.5448L157.15 55.009L174.429 66.2077L152.916 65.4544L158.756 73.8463L144.88 72.8051L148.254 87.8327L127.763 78.6827V84.4116L118.052 79.9782L115.955 92.2421L98.0925 80.5204L95.5275 88.0246L84.9095 81.5856L74.0084 93.8495L65.6723 79.3976L56.9895 87.3865L52.4719 78.0638L36.0481 91.2393L33.3964 77.0994L20.1903 81.9742L22.2874 71.6056L3.18876 69.8638L16.2331 59.6727L7.96629 56.5348L18.0702 50.4844L2.02759 34.5643L25.8055 37.2704L21.3342 26.0141L40.9411 30.5003L41.7095 22.7274L58.5724 30.5003L63.529 19.7862L78.9015 28.0437L87.0065 22.4348L93.598 28.821L117.983 2.95931L110.854 28.1637L122.916 20.4435L126.735 28.7011L143.644 19.7862L142.176 29.2816L159.877 21.4511Z" fill="white"/>
<path d="M172.638 35.9749L158.294 48.0277L166.983 51.5303L158.693 55.1289L177 67.0042L174.418 66.9082L154.389 66.2125L160.282 74.6667L145.914 73.5824L149.386 89.133L128.612 79.8487V85.592L118.716 81.0866L116.596 93.5424L98.5721 81.7055L96.0129 89.1713L85.0887 82.5548L73.8237 95.1833L65.4413 80.6355L56.7066 88.6627L52.1659 79.2825L35.4936 92.6883L32.7438 78.1213L19.1217 83.1689L21.3112 72.2389L1.30559 70.4012L14.7659 59.8982L6.31421 56.6883L16.8629 50.3644L0 33.6335L24.5694 36.4404L20.0518 25.0065L40.1729 29.6079L40.9644 21.5999L58.1277 29.5119L63.1132 18.7402L78.8323 27.1944L87.0991 21.4703L93.5519 27.7366L119.635 0.0564575L112.206 26.422L123.292 19.3256L127.156 27.6599L144.718 18.3948L143.205 28.0485L162.136 19.671L151.564 34.3532L172.638 35.9797V35.9749ZM155.429 48.4116L168.935 37.0785L148.722 35.5095L157.595 23.2264L142.529 29.9006L141.108 30.5387L142.575 21.1776L126.319 29.747L122.523 21.5663L109.508 29.9006L110.045 28.0053L116.284 5.85735L93.627 29.9198L86.92 23.3992L78.9536 28.9122L63.9566 20.8274L59.0173 31.4839L42.4375 23.8454L41.6923 31.388L22.6168 27.0169L26.9957 38.1005L4.07853 35.4711L19.3066 50.5755L9.61862 56.3764L17.7237 59.452L5.10105 69.3169L23.2638 70.9818L21.2823 80.8083L34.0436 76.087L36.6259 89.8191L52.7898 76.8595L57.2611 86.1054L65.8803 78.1741L74.1472 92.506L84.719 80.6116L95.0366 86.8779L97.6189 79.3353L115.319 90.961L117.37 78.889L126.92 83.2409V77.536L147.087 86.5516L143.852 72.023L157.22 73.0306L151.42 64.7155L171.864 65.4304L155.608 54.889L163.268 51.5639L155.417 48.4116H155.429Z" fill="#020202"/>
<path d="M29.64 47.0002H38.5V50.3602H33.51V51.9602H38.5V55.2102H33.51V56.8402H38.5V60.2002H29.64V47.0002ZM49.5203 53.1002L54.5703 60.2002H49.5003L46.9603 56.3402L44.5703 60.2002H39.9003L44.5703 53.1002L40.3203 47.0002H45.2603L47.1203 50.1202L48.9703 47.0002H53.6803L49.5203 53.1002ZM63.1628 56.6002C63.6295 56.6002 64.0795 56.5269 64.5128 56.3802C64.9528 56.2335 65.2928 56.0869 65.5328 55.9402L67.1828 59.2202C66.8628 59.4869 66.3195 59.7569 65.5528 60.0302C64.7861 60.3035 63.8828 60.4402 62.8428 60.4402C61.8695 60.4402 60.9495 60.2735 60.0828 59.9402C59.2161 59.6002 58.4461 59.1235 57.7728 58.5102C57.1061 57.8969 56.5828 57.1769 56.2028 56.3502C55.8228 55.5169 55.6328 54.6069 55.6328 53.6202C55.6328 52.6335 55.8228 51.7235 56.2028 50.8902C56.5828 50.0502 57.1061 49.3235 57.7728 48.7102C58.4395 48.0902 59.2061 47.6102 60.0728 47.2702C60.9461 46.9302 61.8695 46.7602 62.8428 46.7602C63.8828 46.7602 64.7861 46.8969 65.5528 47.1702C66.3195 47.4435 66.8628 47.7135 67.1828 47.9802L65.5328 51.2602C65.2928 51.1135 64.9528 50.9669 64.5128 50.8202C64.0795 50.6735 63.6295 50.6002 63.1628 50.6002C62.5295 50.6002 61.9995 50.6902 61.5728 50.8702C61.1461 51.0502 60.8028 51.2902 60.5428 51.5902C60.2895 51.8835 60.1061 52.2069 59.9928 52.5602C59.8861 52.9069 59.8328 53.2502 59.8328 53.5902C59.8328 53.9369 59.8861 54.2869 59.9928 54.6402C60.1061 54.9935 60.2895 55.3202 60.5428 55.6202C60.8028 55.9135 61.1461 56.1502 61.5728 56.3302C61.9995 56.5102 62.5295 56.6002 63.1628 56.6002ZM68.8392 47.0002H77.6992V50.3602H72.7092V51.9602H77.6992V55.2102H72.7092V56.8402H77.6992V60.2002H68.8392V47.0002ZM79.7995 47.0002H83.6795V56.8402H88.1895V60.2002H79.7995V47.0002ZM90.0339 47.0002H93.9139V56.8402H98.4239V60.2002H90.0339V47.0002ZM100.128 47.0002H108.988V50.3602H103.998V51.9602H108.988V55.2102H103.998V56.8402H108.988V60.2002H100.128V47.0002ZM114.529 50.5202L114.819 50.5702V60.2002H110.949V47.0002H116.179L120.489 56.6002L120.199 56.6602V47.0002H124.069V60.2002H118.809L114.529 50.5202ZM128.297 50.3602H125.447V47.0002H135.017V50.3602H132.167V60.2002H128.297V50.3602ZM137.347 55.4502L136.567 46.4402H140.757L139.987 55.4502H137.347ZM138.657 60.4402C138.27 60.4402 137.914 60.3435 137.587 60.1502C137.267 59.9569 137.007 59.7002 136.807 59.3802C136.614 59.0535 136.517 58.6935 136.517 58.3002C136.517 57.7069 136.727 57.2002 137.147 56.7802C137.567 56.3535 138.07 56.1402 138.657 56.1402C139.257 56.1402 139.767 56.3535 140.187 56.7802C140.607 57.2002 140.817 57.7069 140.817 58.3002C140.817 58.8869 140.607 59.3902 140.187 59.8102C139.767 60.2302 139.257 60.4402 138.657 60.4402ZM143.323 55.4502L142.543 46.4402H146.733L145.963 55.4502H143.323ZM144.633 60.4402C144.247 60.4402 143.89 60.3435 143.563 60.1502C143.243 59.9569 142.983 59.7002 142.783 59.3802C142.59 59.0535 142.493 58.6935 142.493 58.3002C142.493 57.7069 142.703 57.2002 143.123 56.7802C143.543 56.3535 144.047 56.1402 144.633 56.1402C145.233 56.1402 145.743 56.3535 146.163 56.7802C146.583 57.2002 146.793 57.7069 146.793 58.3002C146.793 58.8869 146.583 59.3902 146.163 59.8102C145.743 60.2302 145.233 60.4402 144.633 60.4402Z" fill="#3068E3"/>
</svg>
