<svg width="330" height="237" viewBox="0 0 330 237" fill="none" xmlns="http://www.w3.org/2000/svg">
<path d="M41.5594 74.49C31.5713 83.6632 12.3332 81.837 0 83.4933C23.7979 109.739 33.5255 118.997 3.12673 145.922C44.2084 146.984 44.3822 162.782 34.5243 196.8C63.9242 181.044 85.377 179.133 85.1599 218.883C111.737 187.414 127.892 203.637 136.23 236.211C151.863 205.845 171.796 196.63 188.82 231.497C198.373 191.364 220.478 200.027 242.452 225.339C243.364 191.703 254.524 175.013 288.397 195.611C275.369 155.648 295.823 154.543 330 152.717C306.202 126.472 296.475 117.213 326.873 90.2883C285.792 89.2266 285.618 73.4283 295.476 39.4109C266.076 55.1668 244.623 57.0778 244.84 17.3272C218.263 48.7965 202.108 32.5734 193.77 0C178.093 30.3651 158.204 39.5808 141.18 4.71402C131.627 44.8469 109.522 36.1833 87.5484 10.872C86.6364 44.5071 75.4757 61.1973 41.6028 40.6C44.0782 49.9856 48.7683 65.5291 41.5594 74.49Z" fill="black"/>
<path d="M137.112 226.948C130.915 207.531 122.011 197.716 110.708 197.716C103.507 197.716 95.9563 201.753 87.7514 209.953C86.9222 199.501 84.2163 192.108 79.5029 187.519C75.7932 183.908 70.9488 182.081 65.0133 182.081C58.074 182.081 49.6509 184.503 38.9146 189.686C43.3663 172.904 44.3264 161.305 38.26 153.232C33.372 146.774 24.5124 143.247 9.93554 142.1C34.4194 118.265 25.6471 106.623 5.78943 84.8272C7.09873 84.7423 8.49531 84.6573 9.89189 84.5723C21.6319 83.935 34.8995 83.1702 43.2353 75.565L43.4099 75.395L43.5408 75.2251C50.0437 67.195 48.3416 55.2985 45.9848 45.7388C53.6661 49.6476 60.2125 51.5596 65.9734 51.5596C85.0019 51.5596 89.0607 30.6982 90.0645 17.3572C101.019 28.5739 110.882 34.2672 119.436 34.2672C129.518 34.2672 137.156 26.7044 142.087 11.8338C149.027 23.2629 156.795 28.9987 165.262 28.9987C174.776 28.9987 184.334 21.3935 193.106 6.94775C199.304 26.3645 208.207 36.1791 219.51 36.1791C226.711 36.1791 234.262 32.1428 242.467 23.9427C243.296 34.3946 246.002 41.7875 250.715 46.3761C254.425 49.9875 259.269 51.8145 265.205 51.8145C272.144 51.8145 280.567 49.3927 291.303 44.2092C286.852 60.9918 285.892 72.5909 291.958 80.6635C296.846 87.1216 305.706 90.648 320.283 91.7952C295.886 115.546 304.527 127.145 324.21 148.856C306.273 149.876 292.264 151.575 285.717 160.795C281.396 166.871 280.785 175.665 283.928 188.072C276.377 184.248 269.875 182.378 264.201 182.378C245.173 182.378 241.114 203.24 240.066 216.581C229.112 205.364 219.248 199.671 210.694 199.671C200.613 199.671 192.975 207.234 188.044 222.104C181.104 210.675 173.336 204.939 164.869 204.939C155.442 204.897 145.884 212.502 137.112 226.948Z" fill="black"/>
<path d="M137.129 225.79C131.614 207.306 122.152 196.881 110.537 196.881C103.317 196.881 95.6488 200.867 87.6666 208.751C86.9939 198.108 84.3929 190.618 79.7292 186.019C76.1865 182.471 71.433 180.675 65.693 180.675C58.787 180.675 50.3115 183.215 39.2799 188.603C43.7643 173.404 45.0199 161.446 38.9211 153.212C34.1228 146.686 25.2437 143.094 11.3421 142.087C21.4768 132.801 25.9164 125.793 26.3648 118.785C26.9926 108.754 19.2795 100.52 7.5752 88.0364C7.39583 87.8174 7.17161 87.5984 6.94739 87.3794C18.6965 87.1603 36.8135 86.4157 43.6746 78.0498C49.9976 70.1218 48.3832 58.5584 46.0962 49.1413C53.899 53.3023 60.5808 55.361 66.3208 55.361C83.7651 55.361 88.4738 37.4903 89.7742 20.846C99.8193 31.621 109.909 37.4903 118.699 37.4903C126.098 37.4903 135.739 33.4168 141.928 15.2395C148.834 26.9343 156.592 32.8912 165.022 32.8912C174.485 32.8912 184.081 25.1384 193.005 10.4214C198.521 28.9053 207.983 39.3299 219.598 39.3299C226.817 39.3299 234.486 35.344 242.468 27.4599C243.141 38.1035 245.742 45.5934 250.405 50.1925C253.948 53.7404 258.702 55.5362 264.442 55.5362C271.348 55.5362 279.823 52.9957 290.855 47.6082C286.37 62.8071 285.115 74.7647 291.213 82.9993C296.012 89.5256 304.891 93.1173 318.792 94.1247C308.658 103.41 304.218 110.419 303.77 117.427C303.142 127.457 310.855 135.692 322.559 148.175C322.694 148.35 322.873 148.525 323.053 148.7C305.922 149.051 292.514 150.803 285.922 159.738C281.348 165.914 280.63 174.674 283.724 186.939C276.056 182.909 269.509 180.894 263.814 180.894C246.369 180.894 241.661 198.765 240.36 215.409C230.315 204.634 220.225 198.765 211.436 198.765C204.037 198.765 194.395 202.838 188.207 221.016C181.301 209.321 173.543 203.364 165.112 203.364C155.605 203.32 146.009 211.029 137.129 225.79Z" fill="#F6E900"/>
<path d="M80.5318 99.8121L81.1128 99.9059L81.3184 119.165L73.5788 119.247L73.297 92.8489L83.7564 92.7373L92.5809 111.844L92.0022 111.97L91.796 92.6514L99.5355 92.5688L99.8174 118.967L89.298 119.08L80.5318 99.8121ZM103.612 92.5253L111.351 92.4427L111.633 118.841L103.893 118.924L103.612 92.5253ZM130.271 111.442C131.204 111.432 132.103 111.276 132.966 110.973C133.843 110.67 134.52 110.37 134.997 110.071L138.366 116.596C137.732 117.136 136.651 117.687 135.124 118.25C133.596 118.813 131.793 119.106 129.713 119.128C127.766 119.149 125.923 118.835 124.183 118.187C122.442 117.526 120.892 116.589 119.532 115.377C118.186 114.164 117.124 112.736 116.346 111.09C115.569 109.432 115.169 107.616 115.148 105.643C115.127 103.67 115.488 101.846 116.23 100.171C116.972 98.483 118.003 97.0186 119.323 95.7777C120.643 94.5236 122.166 93.5473 123.892 92.8488C125.631 92.1502 127.474 91.7905 129.421 91.7697C131.501 91.7475 133.31 92.0015 134.849 92.5318C136.388 93.0621 137.481 93.5904 138.126 94.1169L134.897 100.712C134.414 100.424 133.73 100.138 132.847 99.8536C131.978 99.5695 131.076 99.4325 130.143 99.4424C128.876 99.456 127.818 99.6473 126.969 100.016C126.119 100.385 125.438 100.873 124.924 101.478C124.424 102.07 124.064 102.721 123.845 103.43C123.639 104.125 123.54 104.813 123.547 105.493C123.554 106.186 123.669 106.885 123.889 107.59C124.124 108.294 124.497 108.943 125.01 109.538C125.537 110.119 126.228 110.585 127.085 110.936C127.942 111.287 129.004 111.455 130.271 111.442ZM141.418 92.1217L159.137 91.9325L159.209 98.6521L149.229 98.7586L149.264 101.958L159.243 101.852L159.312 108.352L149.333 108.458L149.368 111.718L159.347 111.611L159.419 118.331L141.7 118.52L141.418 92.1217Z" fill="#3068E3"/>
<path d="M163.579 105.186C164.007 105.235 164.46 105.27 164.941 105.291C165.434 105.299 165.868 105.301 166.241 105.297C167.067 105.289 167.9 105.233 168.739 105.131C169.591 105.028 170.41 104.9 171.195 104.744C171.98 104.576 172.691 104.388 173.329 104.182L173.434 106.501C172.862 106.653 172.177 106.814 171.379 106.983C170.594 107.138 169.762 107.273 168.883 107.389C168.004 107.492 167.138 107.548 166.285 107.557C165.885 107.561 165.478 107.559 165.065 107.55C164.651 107.541 164.224 107.526 163.784 107.504L163.579 105.186ZM171.327 102.103C171.251 102.437 171.149 102.872 171.021 103.406C170.893 103.941 170.746 104.503 170.579 105.091C170.425 105.679 170.258 106.261 170.077 106.837C169.794 107.8 169.419 108.824 168.95 109.909C168.482 110.994 167.973 112.053 167.424 113.085C166.875 114.118 166.318 115.037 165.753 115.843L163.32 114.629C163.768 114.064 164.208 113.44 164.64 112.755C165.073 112.07 165.479 111.366 165.858 110.642C166.237 109.918 166.576 109.221 166.876 108.551C167.188 107.867 167.435 107.251 167.616 106.703C167.862 105.993 168.073 105.205 168.251 104.336C168.441 103.454 168.546 102.626 168.564 101.852L171.327 102.103ZM176.073 108.273C176.051 108.7 176.042 109.126 176.047 109.553C176.065 109.966 176.082 110.393 176.1 110.832C176.117 111.139 176.135 111.532 176.153 112.012C176.185 112.478 176.217 112.978 176.249 113.511C176.281 114.031 176.307 114.53 176.325 115.01C176.357 115.477 176.374 115.85 176.377 116.13C176.384 116.743 176.263 117.304 176.015 117.814C175.767 118.31 175.365 118.707 174.808 119.007C174.264 119.306 173.512 119.461 172.552 119.471C171.726 119.48 170.978 119.361 170.309 119.115C169.639 118.882 169.102 118.528 168.697 118.052C168.292 117.563 168.085 116.952 168.078 116.218C168.071 115.565 168.238 114.977 168.579 114.453C168.92 113.916 169.415 113.497 170.065 113.197C170.729 112.883 171.527 112.721 172.46 112.711C173.634 112.699 174.715 112.854 175.705 113.177C176.696 113.486 177.587 113.89 178.379 114.388C179.171 114.887 179.849 115.386 180.415 115.887L179.098 118.041C178.734 117.725 178.317 117.369 177.846 116.974C177.389 116.579 176.871 116.211 176.294 115.871C175.731 115.53 175.114 115.25 174.445 115.03C173.789 114.811 173.082 114.705 172.322 114.713C171.748 114.719 171.29 114.837 170.945 115.068C170.601 115.298 170.431 115.593 170.435 115.953C170.439 116.327 170.589 116.625 170.884 116.848C171.193 117.072 171.621 117.181 172.168 117.175C172.621 117.17 172.98 117.093 173.246 116.943C173.51 116.78 173.695 116.558 173.798 116.277C173.902 115.983 173.952 115.656 173.948 115.296C173.945 114.989 173.927 114.556 173.894 113.996C173.861 113.437 173.822 112.817 173.774 112.137C173.74 111.458 173.706 110.778 173.672 110.098C173.639 109.419 173.606 108.819 173.573 108.299L176.073 108.273ZM179.524 109.296C179.134 108.98 178.651 108.645 178.073 108.291C177.496 107.937 176.899 107.604 176.283 107.29C175.679 106.963 175.15 106.702 174.694 106.507L175.953 104.514C176.315 104.67 176.723 104.865 177.179 105.101C177.648 105.322 178.118 105.557 178.587 105.806C179.07 106.054 179.512 106.302 179.915 106.551C180.331 106.787 180.666 106.997 180.922 107.181L179.524 109.296ZM191.792 108.085L194.272 108.058C194.352 109.298 194.538 110.476 194.83 111.593C195.121 112.696 195.479 113.686 195.901 114.561C196.324 115.423 196.771 116.105 197.243 116.607C197.715 117.095 198.171 117.337 198.611 117.333C198.864 117.33 199.042 117.101 199.144 116.647C199.259 116.192 199.338 115.458 199.38 114.444C199.663 114.681 199.999 114.911 200.388 115.133C200.79 115.342 201.152 115.492 201.473 115.582C201.378 116.703 201.207 117.558 200.96 118.147C200.726 118.75 200.411 119.16 200.013 119.378C199.616 119.609 199.117 119.727 198.517 119.734C197.623 119.743 196.793 119.432 196.027 118.8C195.26 118.182 194.578 117.336 193.979 116.262C193.394 115.175 192.915 113.933 192.54 112.537C192.165 111.128 191.915 109.644 191.792 108.085ZM186.238 110.564L200.977 110.407L201.001 112.627L186.262 112.784L186.238 110.564ZM182.947 117.02C183.786 116.931 184.745 116.821 185.824 116.689C186.916 116.557 188.061 116.412 189.259 116.252C190.471 116.093 191.656 115.933 192.814 115.774L192.94 118.153C191.835 118.325 190.716 118.49 189.585 118.649C188.466 118.821 187.388 118.979 186.35 119.124C185.311 119.268 184.352 119.405 183.474 119.534L182.947 117.02ZM184.886 101.978L187.386 101.951L187.556 117.891L185.057 117.917L184.886 101.978ZM186.106 101.965L199.466 101.823L199.536 108.422L186.177 108.565L186.153 106.345L197.073 106.228L197.049 104.068L186.13 104.185L186.106 101.965ZM203.777 102.857L205.118 101.102C205.533 101.258 205.969 101.453 206.425 101.688C206.894 101.91 207.336 102.152 207.752 102.414C208.168 102.663 208.504 102.906 208.76 103.143L207.361 105.058C207.105 104.821 206.775 104.571 206.373 104.309C205.983 104.033 205.56 103.771 205.104 103.522C204.648 103.261 204.206 103.039 203.777 102.857ZM202.656 108.409L203.937 106.615C204.352 106.771 204.787 106.959 205.243 107.181C205.712 107.403 206.155 107.638 206.571 107.887C207 108.122 207.342 108.352 207.598 108.576L206.259 110.55C206.017 110.313 205.687 110.063 205.271 109.801C204.868 109.539 204.439 109.283 203.983 109.035C203.527 108.786 203.085 108.578 202.656 108.409ZM203.496 117.8C203.798 117.277 204.131 116.674 204.497 115.99C204.876 115.292 205.255 114.555 205.634 113.777C206.012 113 206.37 112.223 206.709 111.446L208.564 112.886C208.265 113.583 207.953 114.299 207.627 115.036C207.302 115.773 206.963 116.497 206.61 117.207C206.271 117.904 205.932 118.581 205.592 119.238L203.496 117.8ZM209.233 104.338L220.332 104.22L220.494 119.319L218.034 119.345L217.897 106.546L211.597 106.613L211.736 119.553L209.396 119.578L209.233 104.338ZM213.156 100.816L215.978 101.046C215.761 101.915 215.53 102.764 215.285 103.594C215.041 104.41 214.808 105.106 214.588 105.681L212.344 105.365C212.46 104.937 212.568 104.456 212.669 103.922C212.783 103.387 212.884 102.853 212.972 102.318C213.059 101.771 213.12 101.27 213.156 100.816ZM210.496 110.245L218.836 110.156L218.859 112.376L210.52 112.465L210.496 110.245ZM210.561 116.305L218.9 116.216L218.925 118.556L210.586 118.645L210.561 116.305ZM229.744 105.299C230.318 105.347 230.892 105.387 231.466 105.421C232.053 105.441 232.646 105.448 233.246 105.442C234.473 105.429 235.692 105.363 236.904 105.243C238.116 105.123 239.235 104.945 240.259 104.707L240.285 107.207C239.247 107.365 238.122 107.497 236.909 107.603C235.697 107.696 234.484 107.749 233.271 107.762C232.684 107.768 232.098 107.768 231.511 107.761C230.937 107.74 230.357 107.713 229.77 107.679L229.744 105.299ZM237.308 101.839C237.283 102.025 237.259 102.232 237.235 102.459C237.224 102.686 237.213 102.913 237.202 103.14C237.191 103.353 237.181 103.64 237.171 104C237.162 104.36 237.159 104.767 237.164 105.22C237.169 105.66 237.174 106.127 237.179 106.62C237.189 107.527 237.211 108.38 237.246 109.18C237.281 109.966 237.323 110.699 237.37 111.378C237.417 112.045 237.457 112.658 237.489 113.217C237.535 113.777 237.561 114.297 237.566 114.776C237.572 115.296 237.503 115.777 237.361 116.219C237.233 116.66 237.017 117.049 236.714 117.386C236.411 117.722 236.007 117.98 235.502 118.159C235.011 118.351 234.405 118.45 233.685 118.458C232.299 118.473 231.202 118.205 230.396 117.653C229.59 117.102 229.182 116.299 229.171 115.246C229.163 114.566 229.337 113.971 229.692 113.46C230.046 112.937 230.555 112.531 231.219 112.244C231.882 111.944 232.667 111.789 233.574 111.779C234.52 111.769 235.381 111.86 236.157 112.051C236.932 112.243 237.642 112.502 238.285 112.829C238.929 113.155 239.499 113.516 239.997 113.91C240.508 114.292 240.965 114.66 241.369 115.016L240.011 117.131C239.244 116.419 238.497 115.807 237.772 115.294C237.046 114.782 236.322 114.39 235.599 114.117C234.889 113.845 234.155 113.713 233.395 113.721C232.835 113.727 232.376 113.839 232.018 114.056C231.674 114.273 231.504 114.575 231.508 114.961C231.512 115.361 231.695 115.653 232.057 115.835C232.419 116.018 232.86 116.107 233.38 116.101C233.793 116.097 234.119 116.027 234.358 115.891C234.596 115.742 234.761 115.533 234.851 115.266C234.955 114.984 235.005 114.65 235 114.264C234.997 113.917 234.979 113.464 234.946 112.904C234.913 112.345 234.873 111.718 234.826 111.026C234.792 110.333 234.757 109.613 234.723 108.867C234.688 108.107 234.667 107.367 234.659 106.647C234.651 105.887 234.637 105.201 234.617 104.587C234.61 103.961 234.605 103.494 234.602 103.187C234.601 103.041 234.585 102.834 234.556 102.568C234.526 102.302 234.49 102.069 234.448 101.869L237.308 101.839ZM227.551 102.163C227.512 102.296 227.454 102.484 227.377 102.725C227.313 102.965 227.255 103.199 227.204 103.426C227.167 103.654 227.135 103.827 227.11 103.948C227.046 104.228 226.977 104.609 226.902 105.09C226.827 105.557 226.746 106.092 226.659 106.692C226.585 107.28 226.512 107.887 226.439 108.515C226.365 109.129 226.311 109.716 226.277 110.277C226.243 110.824 226.228 111.297 226.233 111.697C226.235 111.897 226.237 112.117 226.24 112.357C226.255 112.584 226.284 112.797 226.326 112.996C226.417 112.755 226.508 112.521 226.599 112.293C226.703 112.066 226.807 111.838 226.912 111.61C227.016 111.382 227.113 111.155 227.204 110.927L228.435 111.914C228.254 112.462 228.067 113.038 227.873 113.64C227.693 114.242 227.526 114.81 227.372 115.345C227.231 115.88 227.122 116.328 227.046 116.689C227.021 116.823 226.996 116.983 226.971 117.17C226.96 117.357 226.955 117.51 226.956 117.63C226.957 117.737 226.958 117.863 226.96 118.01C226.975 118.17 226.99 118.316 227.005 118.449L224.747 118.654C224.526 117.949 224.33 117.051 224.158 115.96C223.986 114.855 223.893 113.622 223.878 112.262C223.87 111.516 223.895 110.736 223.953 109.922C224.011 109.094 224.076 108.3 224.148 107.539C224.233 106.778 224.319 106.084 224.406 105.456C224.492 104.815 224.56 104.301 224.609 103.914C224.646 103.634 224.683 103.32 224.719 102.973C224.755 102.613 224.779 102.272 224.788 101.952L227.551 102.163ZM81.212 135.427L83.6319 135.401L83.6594 137.981L81.2396 138.007L81.212 135.427ZM80.9929 137.389L82.8612 138.149C82.3863 138.635 81.8312 139.094 81.1958 139.527C80.5602 139.947 79.8709 140.328 79.1279 140.669C78.3847 140.997 77.6078 141.292 76.7972 141.554C75.9998 141.803 75.182 142.012 74.3437 142.181C74.2077 141.929 74.0112 141.637 73.7544 141.307C73.5108 140.976 73.2746 140.705 73.0456 140.494C73.831 140.366 74.6093 140.204 75.3806 140.009C76.1651 139.801 76.9093 139.566 77.6132 139.306C78.317 139.031 78.9539 138.738 79.5239 138.425C80.1071 138.099 80.5968 137.754 80.9929 137.389ZM84.053 137.377C84.4638 138.386 85.0266 139.273 85.7415 140.039C86.4696 140.791 87.3563 141.415 88.4016 141.91C89.4468 142.393 90.6573 142.74 92.033 142.952C91.8089 143.194 91.5655 143.503 91.3028 143.88C91.0403 144.269 90.844 144.618 90.714 144.926C89.2038 144.609 87.8921 144.143 86.7788 143.528C85.6789 142.913 84.7438 142.13 83.9736 141.178C83.2034 140.226 82.558 139.106 82.0376 137.818L84.053 137.377ZM89.1234 138.323L90.8369 139.584C90.4265 139.855 89.9894 140.133 89.5258 140.418C89.0621 140.703 88.5983 140.968 88.1342 141.213C87.6833 141.445 87.2588 141.649 86.8607 141.827L85.4084 140.682C85.8063 140.491 86.2306 140.267 86.6812 140.009C87.145 139.737 87.5887 139.452 88.0122 139.154C88.4357 138.857 88.8061 138.579 89.1234 138.323ZM75.4911 142.868C76.2102 142.781 77.0291 142.672 77.9478 142.542C78.8798 142.412 79.8584 142.275 80.8836 142.131C81.9086 141.973 82.9337 141.822 83.9589 141.678L84.0798 143.637C83.1348 143.793 82.1697 143.944 81.1845 144.088C80.1994 144.245 79.2542 144.388 78.3489 144.518C77.4437 144.661 76.6184 144.79 75.8729 144.904L75.4911 142.868ZM73.3872 136.89L91.6062 136.696L91.6256 138.516L73.4066 138.71L73.3872 136.89ZM80.3382 128.516L91.4775 128.397L91.4995 130.457L80.3602 130.576L80.3382 128.516ZM80.8853 132.93L91.0048 132.822L91.0268 134.882L80.9073 134.99L80.8853 132.93ZM77.3134 126.208L79.5332 126.184L79.6366 135.864L77.4167 135.887L77.3134 126.208ZM84.573 126.13L86.9928 126.105L87.0801 134.284L84.6603 134.31L84.573 126.13ZM73.3379 128.531L74.7033 127.156C75.1463 127.431 75.6165 127.759 76.1139 128.141C76.6246 128.509 77.0148 128.845 77.2848 129.148L75.8409 130.664C75.6786 130.452 75.4561 130.221 75.1734 129.971C74.8907 129.721 74.588 129.471 74.2654 129.221C73.9559 128.957 73.6467 128.727 73.3379 128.531ZM73.0271 133.134C73.5319 132.955 74.1294 132.722 74.8197 132.435C75.51 132.148 76.2268 131.84 76.97 131.512L77.4702 133.407C76.8599 133.693 76.2364 133.987 75.5995 134.287C74.9759 134.573 74.3787 134.84 73.8079 135.086L73.0271 133.134ZM77.7271 140.604L79.0129 139.271L80.0161 139.56L80.059 143.58L77.7591 143.604L77.7271 140.604ZM103.439 128.449L111.558 128.362L111.581 130.522L103.462 130.609L103.439 128.449ZM103.252 125.931L105.597 126.366C105.291 127.743 104.859 129.061 104.299 130.32C103.752 131.566 103.123 132.613 102.412 133.46C102.277 133.329 102.089 133.177 101.847 133.006C101.605 132.822 101.357 132.645 101.102 132.474C100.86 132.29 100.651 132.146 100.477 132.041C101.15 131.34 101.72 130.448 102.188 129.363C102.67 128.264 103.025 127.12 103.252 125.931ZM105.452 129.708L107.652 129.684L107.812 144.683L105.612 144.707L105.452 129.708ZM109.124 132.669L111.364 132.645L111.438 139.564C111.443 140.018 111.4 140.392 111.31 140.686C111.233 140.98 111.056 141.215 110.777 141.392C110.499 141.568 110.187 141.678 109.841 141.722C109.495 141.765 109.095 141.79 108.642 141.794C108.598 141.488 108.508 141.149 108.371 140.777C108.247 140.392 108.116 140.06 107.98 139.781C108.193 139.792 108.394 139.797 108.58 139.795C108.767 139.793 108.9 139.792 108.98 139.791C109.127 139.789 109.199 139.708 109.198 139.548L109.124 132.669ZM102.085 132.744L110.024 132.659L110.047 134.779L104.227 134.841L104.301 141.721L102.181 141.743L102.085 132.744ZM96.873 129.819L98.8329 129.798L98.8596 132.298L96.8997 132.319L96.873 129.819ZM94.2509 131.507L96.3708 131.485L96.4893 142.584L94.3694 142.607L94.2509 131.507ZM95.6794 134.172L99.9992 134.126L100.015 135.646L95.6957 135.692L95.6794 134.172ZM93.1431 142.02C93.7154 141.92 94.3673 141.787 95.0989 141.619C95.8305 141.451 96.6086 141.269 97.4332 141.074C98.2578 140.879 99.0825 140.683 99.9071 140.488L100.147 142.385C99.0575 142.717 97.9542 143.035 96.8374 143.341C95.7341 143.659 94.7304 143.95 93.8265 144.213L93.1431 142.02ZM97.7957 139.43L99.6668 138.59C99.9919 139.067 100.311 139.583 100.623 140.14C100.936 140.697 101.215 141.247 101.461 141.791C101.72 142.322 101.905 142.8 102.016 143.225L99.9866 144.187C99.8886 143.748 99.7233 143.256 99.4908 142.712C99.2583 142.168 98.9924 141.611 98.6929 141.041C98.4067 140.457 98.1076 139.92 97.7957 139.43ZM95.4308 131.495L100.931 131.436L101.005 138.376L95.5049 138.434L95.4868 136.735L98.8866 136.698L98.8488 133.158L95.449 133.195L95.4308 131.495ZM96.2523 126.006L97.5322 125.992L97.5371 126.452L98.2371 126.445L98.2439 127.085C97.9827 127.594 97.662 128.158 97.2819 128.775C96.9017 129.379 96.455 130.004 95.9418 130.649C95.4286 131.282 94.8217 131.895 94.1214 132.489C94.013 132.33 93.8711 132.152 93.6956 131.953C93.52 131.742 93.3379 131.544 93.1493 131.359C92.9606 131.175 92.7857 131.03 92.6246 130.925C93.2329 130.452 93.7675 129.939 94.2283 129.388C94.6889 128.823 95.0895 128.252 95.4301 127.675C95.7706 127.098 96.0447 126.541 96.2523 126.006ZM96.8123 126L98.4122 125.983C98.8289 126.298 99.246 126.654 99.6636 127.049C100.081 127.432 100.472 127.821 100.836 128.217C101.214 128.613 101.518 128.983 101.748 129.327L100.247 131.103C100.057 130.772 99.7927 130.395 99.4548 129.972C99.1301 129.535 98.7723 129.112 98.3812 128.703C97.99 128.281 97.6062 127.925 97.2297 127.635L96.8298 127.64L96.8123 126ZM118.884 128.864L118.913 131.544L125.952 131.469L125.924 128.789L118.884 128.864ZM116.54 126.589L128.339 126.463L128.417 133.723L116.617 133.849L116.54 126.589ZM113.875 135.558L121.535 135.476L121.63 144.416L119.23 144.442L119.16 137.802L116.18 137.834L116.252 144.593L113.972 144.618L113.875 135.558ZM123.215 135.458L131.134 135.374L131.23 144.333L128.83 144.359L128.759 137.699L125.539 137.734L125.611 144.493L123.311 144.518L123.215 135.458ZM114.936 141.287L120.196 141.231L120.221 143.531L114.961 143.587L114.936 141.287ZM124.376 141.186L129.976 141.127L130 143.426L124.401 143.486L124.376 141.186ZM133.785 128.885C134.185 128.868 134.565 128.85 134.925 128.833C135.284 128.803 135.557 128.78 135.744 128.764C136.157 128.733 136.663 128.688 137.263 128.628C137.875 128.555 138.554 128.481 139.3 128.406C140.06 128.332 140.866 128.256 141.718 128.181C142.571 128.105 143.457 128.022 144.376 127.932C145.068 127.858 145.754 127.797 146.434 127.75C147.126 127.689 147.779 127.642 148.392 127.609C149.019 127.563 149.565 127.53 150.031 127.512L150.079 130.071C149.719 130.075 149.306 130.086 148.839 130.105C148.373 130.123 147.906 130.155 147.44 130.2C146.987 130.231 146.581 130.295 146.222 130.393C145.624 130.559 145.067 130.838 144.551 131.23C144.035 131.609 143.586 132.061 143.205 132.585C142.837 133.096 142.55 133.652 142.343 134.254C142.136 134.843 142.036 135.438 142.042 136.037C142.049 136.691 142.168 137.27 142.401 137.774C142.646 138.265 142.97 138.688 143.374 139.043C143.791 139.386 144.274 139.674 144.823 139.908C145.373 140.129 145.961 140.296 146.589 140.409C147.23 140.522 147.891 140.595 148.571 140.628L147.661 143.378C146.82 143.334 145.999 143.209 145.197 143.004C144.408 142.799 143.665 142.514 142.967 142.148C142.27 141.782 141.659 141.335 141.133 140.807C140.62 140.266 140.207 139.651 139.893 138.961C139.592 138.257 139.437 137.472 139.428 136.605C139.418 135.645 139.562 134.764 139.86 133.961C140.158 133.144 140.53 132.433 140.977 131.829C141.437 131.21 141.892 130.732 142.342 130.394C141.969 130.451 141.516 130.509 140.984 130.568C140.464 130.627 139.898 130.7 139.286 130.787C138.687 130.86 138.074 130.94 137.448 131.026C136.822 131.113 136.217 131.213 135.631 131.326C135.059 131.425 134.54 131.524 134.074 131.622L133.785 128.885ZM147.24 132.062C147.416 132.3 147.599 132.585 147.789 132.916C147.992 133.234 148.189 133.558 148.379 133.89C148.569 134.208 148.733 134.499 148.869 134.765L147.356 135.461C147.097 134.903 146.845 134.413 146.6 133.989C146.369 133.564 146.091 133.134 145.767 132.698L147.24 132.062ZM149.47 131.118C149.646 131.356 149.835 131.634 150.039 131.952C150.255 132.256 150.465 132.574 150.669 132.905C150.872 133.223 151.042 133.508 151.178 133.76L149.686 134.496C149.414 133.965 149.149 133.495 148.891 133.084C148.646 132.673 148.355 132.25 148.017 131.813L149.47 131.118ZM159.702 128.409L170.281 128.296L170.354 135.155L167.994 135.18L167.945 130.581L159.726 130.668L159.702 128.409ZM158.785 134.319L171.844 134.179L171.868 136.419L158.809 136.559L158.785 134.319ZM163.009 125.313L165.409 125.287L165.483 132.287C165.495 133.367 165.446 134.454 165.338 135.549C165.23 136.643 164.988 137.713 164.612 138.757C164.25 139.787 163.687 140.767 162.924 141.695C162.16 142.61 161.129 143.441 159.83 144.188C159.682 144.016 159.486 143.825 159.244 143.614C159.015 143.403 158.773 143.193 158.517 142.982C158.262 142.785 158.027 142.627 157.812 142.51C159.032 141.843 159.997 141.119 160.709 140.338C161.421 139.544 161.945 138.712 162.282 137.842C162.633 136.958 162.857 136.049 162.953 135.114C163.05 134.18 163.093 133.239 163.083 132.293L163.009 125.313ZM166.618 135.495C167.06 136.944 167.74 138.237 168.659 139.374C169.591 140.51 170.754 141.365 172.147 141.936C171.962 142.085 171.764 142.281 171.553 142.523C171.342 142.778 171.138 143.041 170.941 143.309C170.757 143.578 170.607 143.826 170.489 144.054C168.935 143.311 167.67 142.258 166.695 140.895C165.721 139.518 164.957 137.906 164.403 136.059L166.618 135.495ZM154.109 127.248L155.39 125.474C155.805 125.63 156.24 125.819 156.696 126.04C157.165 126.262 157.608 126.491 158.023 126.726C158.453 126.962 158.795 127.198 159.051 127.435L157.692 129.41C157.45 129.173 157.127 128.923 156.724 128.66C156.321 128.398 155.885 128.143 155.416 127.894C154.96 127.646 154.524 127.43 154.109 127.248ZM153.007 132.72L154.268 130.887C154.696 131.029 155.144 131.204 155.613 131.412C156.082 131.621 156.531 131.843 156.961 132.078C157.39 132.313 157.739 132.543 158.008 132.767L156.649 134.781C156.407 134.557 156.078 134.321 155.662 134.072C155.246 133.81 154.803 133.561 154.334 133.326C153.878 133.091 153.436 132.889 153.007 132.72ZM153.671 142.414C153.998 141.89 154.365 141.28 154.771 140.582C155.177 139.871 155.582 139.12 155.987 138.329C156.405 137.538 156.79 136.747 157.142 135.956L158.998 137.437C158.672 138.147 158.327 138.877 157.961 139.628C157.609 140.378 157.25 141.109 156.885 141.819C156.519 142.53 156.153 143.221 155.787 143.891L153.671 142.414ZM184.316 125.886C184.291 126.086 184.267 126.313 184.243 126.566C184.233 126.807 184.222 127.053 184.211 127.307C184.201 127.574 184.191 127.934 184.183 128.387C184.174 128.827 184.173 129.314 184.178 129.847C184.184 130.381 184.19 130.907 184.195 131.427C184.201 131.947 184.206 132.42 184.21 132.847C184.216 133.407 184.236 134.034 184.27 134.727C184.304 135.406 184.345 136.099 184.393 136.805C184.453 137.498 184.5 138.151 184.534 138.764C184.58 139.364 184.605 139.863 184.61 140.263C184.616 140.823 184.474 141.338 184.186 141.808C183.898 142.264 183.461 142.629 182.878 142.902C182.307 143.175 181.582 143.316 180.702 143.325C179.102 143.342 177.886 143.062 177.053 142.484C176.22 141.906 175.798 141.091 175.787 140.037C175.779 139.358 175.966 138.762 176.348 138.251C176.742 137.727 177.304 137.314 178.034 137.013C178.778 136.712 179.663 136.556 180.69 136.545C181.783 136.533 182.804 136.642 183.753 136.872C184.716 137.089 185.592 137.379 186.383 137.744C187.173 138.109 187.878 138.495 188.495 138.902C189.113 139.308 189.637 139.676 190.067 140.005L188.651 142.26C188.166 141.812 187.622 141.371 187.017 140.938C186.426 140.504 185.775 140.111 185.064 139.758C184.367 139.406 183.624 139.127 182.835 138.922C182.059 138.704 181.238 138.599 180.372 138.608C179.678 138.616 179.14 138.742 178.756 138.986C178.385 139.23 178.201 139.525 178.205 139.872C178.208 140.125 178.29 140.344 178.452 140.529C178.614 140.714 178.849 140.851 179.156 140.942C179.464 141.032 179.851 141.074 180.318 141.069C180.678 141.065 180.984 141.022 181.237 140.939C181.502 140.856 181.707 140.708 181.852 140.493C181.996 140.278 182.066 139.977 182.062 139.59C182.059 139.297 182.041 138.877 182.009 138.331C181.99 137.784 181.963 137.185 181.93 136.532C181.896 135.865 181.862 135.212 181.829 134.573C181.795 133.933 181.776 133.366 181.77 132.873C181.765 132.393 181.76 131.893 181.754 131.373C181.762 130.84 181.763 130.313 181.758 129.793C181.752 129.273 181.747 128.8 181.742 128.373C181.751 127.933 181.754 127.573 181.751 127.293C181.749 127.106 181.733 126.88 181.704 126.614C181.687 126.334 181.658 126.101 181.616 125.914L184.316 125.886ZM176.037 127.854C176.397 127.904 176.798 127.953 177.238 128.001C177.679 128.05 178.126 128.098 178.58 128.147C179.047 128.182 179.487 128.211 179.901 128.233C180.314 128.242 180.674 128.245 180.981 128.241C182.341 128.227 183.694 128.172 185.039 128.078C186.398 127.97 187.803 127.788 189.254 127.533L189.258 129.833C188.579 129.934 187.794 130.029 186.901 130.118C186.009 130.208 185.056 130.285 184.044 130.349C183.044 130.399 182.038 130.43 181.024 130.441C180.611 130.445 180.098 130.438 179.484 130.417C178.884 130.384 178.283 130.344 177.683 130.297C177.082 130.236 176.561 130.182 176.121 130.133L176.037 127.854ZM175.983 132.175C176.303 132.225 176.684 132.274 177.124 132.323C177.565 132.371 178.012 132.407 178.466 132.428C178.932 132.45 179.373 132.472 179.786 132.494C180.2 132.503 180.54 132.506 180.806 132.503C182.046 132.49 183.166 132.452 184.165 132.388C185.178 132.323 186.124 132.247 187.003 132.157C187.882 132.068 188.728 131.966 189.54 131.85L189.545 134.21C188.853 134.298 188.18 134.372 187.527 134.432C186.888 134.492 186.229 134.546 185.549 134.593C184.883 134.64 184.163 134.674 183.39 134.696C182.617 134.718 181.75 134.734 180.79 134.744C180.404 134.748 179.924 134.746 179.35 134.739C178.777 134.719 178.19 134.692 177.589 134.658C177.002 134.624 176.482 134.583 176.028 134.535L175.983 132.175ZM199.596 125.842C199.532 126.083 199.462 126.384 199.386 126.745C199.31 127.106 199.234 127.486 199.158 127.887C199.082 128.275 199.013 128.656 198.95 129.03C198.901 129.403 198.865 129.731 198.841 130.011C199.077 129.608 199.359 129.219 199.688 128.842C200.018 128.451 200.387 128.101 200.797 127.79C201.221 127.465 201.678 127.207 202.169 127.015C202.674 126.823 203.206 126.724 203.766 126.718C204.699 126.708 205.542 126.986 206.295 127.551C207.048 128.116 207.643 128.93 208.081 129.992C208.533 131.054 208.766 132.318 208.782 133.785C208.797 135.198 208.603 136.44 208.201 137.511C207.799 138.569 207.216 139.475 206.45 140.23C205.685 140.985 204.765 141.602 203.69 142.08C202.629 142.571 201.439 142.944 200.122 143.198L198.577 140.894C199.682 140.709 200.693 140.465 201.609 140.162C202.539 139.845 203.335 139.423 203.996 138.896C204.67 138.369 205.183 137.697 205.535 136.88C205.899 136.049 206.075 135.034 206.062 133.834C206.051 132.807 205.935 131.942 205.714 131.237C205.493 130.52 205.174 129.976 204.757 129.608C204.353 129.239 203.871 129.057 203.311 129.063C202.724 129.069 202.166 129.269 201.637 129.661C201.108 130.053 200.634 130.565 200.214 131.196C199.807 131.814 199.481 132.484 199.235 133.207C199.003 133.929 198.877 134.624 198.857 135.291C198.847 135.571 198.844 135.878 198.847 136.211C198.864 136.544 198.908 136.944 198.98 137.41L196.522 137.596C196.464 137.21 196.399 136.731 196.326 136.158C196.267 135.572 196.233 134.939 196.226 134.259C196.221 133.792 196.229 133.292 196.25 132.759C196.284 132.225 196.319 131.684 196.353 131.137C196.4 130.577 196.454 130.016 196.515 129.456C196.589 128.895 196.656 128.361 196.718 127.853C196.767 127.466 196.803 127.086 196.826 126.712C196.848 126.339 196.858 126.018 196.855 125.752L199.596 125.842ZM224.314 125.459C224.289 125.659 224.265 125.886 224.241 126.139C224.23 126.38 224.22 126.626 224.209 126.88C224.198 127.147 224.189 127.507 224.18 127.96C224.172 128.4 224.17 128.887 224.176 129.42C224.182 129.954 224.187 130.48 224.193 131C224.198 131.52 224.203 131.993 224.208 132.42C224.214 132.98 224.234 133.607 224.268 134.3C224.302 134.979 224.343 135.672 224.39 136.378C224.451 137.071 224.498 137.724 224.531 138.337C224.578 138.937 224.603 139.436 224.607 139.836C224.613 140.396 224.472 140.911 224.184 141.381C223.895 141.837 223.459 142.202 222.875 142.475C222.305 142.748 221.58 142.889 220.7 142.898C219.1 142.915 217.883 142.635 217.051 142.057C216.218 141.479 215.796 140.664 215.784 139.61C215.777 138.93 215.964 138.335 216.345 137.824C216.74 137.3 217.302 136.887 218.032 136.586C218.776 136.285 219.661 136.129 220.687 136.118C221.781 136.106 222.802 136.215 223.751 136.445C224.713 136.662 225.59 136.952 226.38 137.317C227.171 137.682 227.875 138.068 228.493 138.475C229.111 138.881 229.635 139.249 230.065 139.578L228.649 141.833C228.164 141.385 227.619 140.944 227.015 140.511C226.423 140.077 225.772 139.684 225.062 139.331C224.365 138.979 223.622 138.7 222.833 138.495C222.057 138.277 221.236 138.172 220.369 138.181C219.676 138.189 219.137 138.315 218.753 138.559C218.383 138.803 218.199 139.098 218.203 139.445C218.205 139.698 218.288 139.917 218.45 140.102C218.612 140.287 218.847 140.424 219.154 140.515C219.462 140.605 219.849 140.647 220.316 140.642C220.676 140.638 220.982 140.595 221.234 140.512C221.5 140.429 221.705 140.281 221.85 140.066C221.994 139.851 222.064 139.55 222.06 139.163C222.057 138.87 222.039 138.45 222.006 137.904C221.987 137.357 221.961 136.758 221.927 136.105C221.893 135.438 221.86 134.785 221.826 134.146C221.793 133.506 221.773 132.939 221.768 132.446C221.763 131.966 221.758 131.466 221.752 130.946C221.76 130.413 221.761 129.886 221.755 129.366C221.75 128.846 221.745 128.373 221.74 127.946C221.749 127.506 221.752 127.146 221.749 126.866C221.747 126.679 221.731 126.453 221.701 126.187C221.685 125.907 221.656 125.674 221.614 125.487L224.314 125.459ZM216.034 127.427C216.395 127.477 216.795 127.526 217.236 127.574C217.676 127.623 218.124 127.671 218.578 127.72C219.045 127.755 219.485 127.784 219.899 127.806C220.312 127.815 220.672 127.818 220.979 127.814C222.339 127.8 223.691 127.745 225.037 127.651C226.396 127.543 227.801 127.361 229.252 127.106L229.256 129.406C228.577 129.507 227.792 129.602 226.899 129.691C226.007 129.781 225.054 129.858 224.041 129.922C223.042 129.972 222.035 130.003 221.022 130.014C220.609 130.018 220.095 130.011 219.482 129.99C218.881 129.957 218.281 129.917 217.68 129.87C217.08 129.809 216.559 129.755 216.119 129.706L216.034 127.427ZM215.98 131.748C216.301 131.798 216.682 131.847 217.122 131.896C217.563 131.944 218.01 131.98 218.463 132.001C218.93 132.023 219.37 132.045 219.784 132.067C220.197 132.076 220.538 132.079 220.804 132.076C222.044 132.063 223.164 132.025 224.163 131.961C225.176 131.896 226.122 131.82 227.001 131.73C227.88 131.641 228.726 131.538 229.538 131.423L229.543 133.783C228.85 133.871 228.178 133.944 227.525 134.005C226.886 134.065 226.226 134.119 225.547 134.166C224.881 134.213 224.161 134.247 223.388 134.269C222.615 134.291 221.748 134.306 220.788 134.317C220.401 134.321 219.921 134.319 219.348 134.312C218.774 134.292 218.187 134.264 217.587 134.231C217 134.197 216.479 134.156 216.026 134.108L215.98 131.748ZM245.433 125.293C245.421 125.4 245.403 125.573 245.379 125.814C245.368 126.041 245.357 126.274 245.346 126.514C245.335 126.741 245.324 126.908 245.312 127.015C245.301 127.281 245.298 127.641 245.303 128.095C245.308 128.535 245.313 129.028 245.319 129.575C245.325 130.121 245.331 130.675 245.337 131.234C245.356 131.781 245.368 132.301 245.373 132.794C245.392 133.274 245.403 133.674 245.406 133.994L242.897 133.181C242.895 132.927 242.891 132.594 242.887 132.181C242.882 131.754 242.877 131.294 242.872 130.801C242.866 130.294 242.854 129.794 242.836 129.301C242.831 128.808 242.819 128.361 242.802 127.961C242.784 127.562 242.767 127.262 242.752 127.062C242.721 126.649 242.684 126.289 242.64 125.983C242.597 125.663 242.561 125.444 242.533 125.324L245.433 125.293ZM234.16 127.894C234.747 127.887 235.413 127.874 236.16 127.852C236.906 127.831 237.686 127.809 238.499 127.787C239.313 127.765 240.112 127.743 240.899 127.722C241.685 127.7 242.425 127.685 243.119 127.678C243.812 127.657 244.412 127.644 244.918 127.639C245.425 127.633 245.978 127.627 246.578 127.621C247.178 127.601 247.771 127.588 248.358 127.582C248.944 127.576 249.478 127.57 249.958 127.565C250.451 127.56 250.831 127.556 251.098 127.553L251.103 129.913C250.476 129.893 249.649 129.882 248.622 129.879C247.595 129.864 246.342 129.864 244.862 129.879C243.955 129.889 243.036 129.912 242.103 129.949C241.17 129.972 240.243 130.002 239.323 130.039C238.404 130.075 237.518 130.118 236.665 130.167C235.812 130.203 235.006 130.251 234.246 130.313L234.16 127.894ZM245.043 133.698C245.055 134.791 244.931 135.699 244.672 136.422C244.426 137.145 244.045 137.695 243.53 138.074C243.013 138.44 242.369 138.627 241.595 138.635C241.222 138.639 240.828 138.563 240.413 138.407C240.011 138.252 239.635 138.022 239.285 137.719C238.936 137.416 238.652 137.04 238.433 136.588C238.229 136.137 238.123 135.605 238.116 134.992C238.108 134.232 238.281 133.577 238.635 133.026C238.989 132.462 239.465 132.024 240.061 131.711C240.671 131.384 241.343 131.217 242.076 131.209C242.956 131.2 243.692 131.392 244.282 131.786C244.887 132.166 245.339 132.688 245.639 133.351C245.953 134.015 246.114 134.766 246.123 135.606C246.13 136.26 246.031 136.941 245.825 137.65C245.619 138.359 245.273 139.056 244.787 139.741C244.315 140.413 243.668 141.026 242.847 141.582C242.039 142.137 241.024 142.594 239.801 142.954L237.639 140.857C238.49 140.675 239.281 140.44 240.011 140.152C240.742 139.864 241.378 139.504 241.92 139.071C242.475 138.639 242.903 138.108 243.203 137.478C243.516 136.848 243.668 136.093 243.659 135.213C243.652 134.573 243.487 134.094 243.164 133.778C242.854 133.461 242.479 133.305 242.039 133.31C241.785 133.313 241.539 133.375 241.301 133.498C241.062 133.62 240.87 133.802 240.726 134.044C240.582 134.285 240.512 134.58 240.516 134.926C240.521 135.379 240.678 135.744 240.987 136.021C241.31 136.284 241.672 136.414 242.072 136.41C242.392 136.406 242.671 136.303 242.908 136.101C243.16 135.898 243.323 135.563 243.398 135.095C243.473 134.628 243.399 134.002 243.178 133.218L245.043 133.698ZM261.469 136.103L260.856 129.269L260.725 126.29L264.044 126.254L263.976 129.235L263.509 136.081L261.469 136.103ZM262.546 141.411C262.04 141.417 261.618 141.255 261.281 140.925C260.944 140.595 260.773 140.177 260.768 139.67C260.762 139.15 260.924 138.722 261.254 138.385C261.584 138.048 262.002 137.877 262.508 137.872C263.015 137.866 263.437 138.028 263.774 138.358C264.111 138.688 264.282 139.113 264.287 139.633C264.293 140.139 264.131 140.561 263.801 140.898C263.471 141.235 263.053 141.406 262.546 141.411Z" fill="black"/>
</svg>
