<svg width="69" height="65" viewBox="0 0 69 65" fill="none" xmlns="http://www.w3.org/2000/svg">
<path d="M28.798 57.1265C25.0006 57.2668 20.4821 56.5523 16.6296 55.3305C14.0339 54.5092 10.5523 52.613 8.67073 50.5698C3.87753 45.3552 2.04403 41.9299 1.37792 33.1231C0.801089 25.5181 3.15649 17.3991 10.93 11.2964C15.8262 7.45049 18.1816 5.67444 24.9319 3.61128C32.3895 1.33446 38.0617 0.526556 46.0275 2.00215C50.1958 2.77667 56.4791 6.32877 58.7178 8.23168C66.3814 14.7483 67.0338 19.6091 67.3222 27.9953C67.4183 30.9064 66.5668 36.9356 64.5273 40.8616C60.5856 48.4199 52.7915 52.4661 44.4274 55.2704C42.5115 55.898 40.6094 56.4989 38.7209 57.0731C37.9724 57.3001 37.3613 57.8743 37.0797 58.6288C36.5372 60.0644 36.5029 61.9005 36.2419 62.6149C36.1458 62.8753 35.7887 62.9221 35.6239 62.6951C35.0333 61.8805 33.1174 60.5451 30.5903 58.1615C30.0616 57.6607 29.5054 57.2067 28.8118 57.1265H28.798Z" fill="white"/>
<path d="M67.8085 20.2475C67.7257 19.8872 67.6291 19.5335 67.5326 19.1799C67.4291 18.8262 67.298 18.4792 67.1807 18.1322C67.0634 17.7852 66.8703 17.4582 66.7323 17.1246C66.5943 16.7842 66.5322 16.4106 66.3736 16.0769C66.2149 15.7433 65.9941 15.443 65.8217 15.116C65.6492 14.789 65.4353 14.4887 65.2422 14.1684C65.049 13.8548 64.8765 13.5278 64.6696 13.2209C64.4626 12.9206 64.3108 12.5669 64.0832 12.2733C63.8624 11.9863 63.5657 11.7461 63.3312 11.4659C63.0966 11.1856 62.869 10.8986 62.6206 10.6251C62.3722 10.3515 62.1377 10.0712 61.8824 9.81095C61.6272 9.5507 61.2891 9.36385 61.027 9.11028C60.7648 8.85671 60.4613 8.64317 60.1853 8.40294C59.9094 8.16271 59.6265 7.92916 59.3437 7.6956C59.0608 7.46205 58.8814 7.10838 58.5848 6.8815C58.295 6.65461 57.9087 6.54784 57.6121 6.33431C57.3154 6.12077 57.0395 5.87387 56.729 5.67368C56.4255 5.46682 56.1978 5.14651 55.8805 4.953C55.57 4.75948 55.1423 4.73946 54.818 4.55261C54.5007 4.36577 54.2868 4.00543 53.9557 3.82526C53.6314 3.65176 53.2175 3.62507 52.8864 3.45824C52.5552 3.29142 52.2241 3.13794 51.886 2.97778C51.548 2.82431 51.2031 2.68417 50.865 2.53737C50.5201 2.39056 50.2441 2.10362 49.8992 1.97016C49.5542 1.8367 49.1955 1.72993 48.8437 1.60314C48.4918 1.47636 48.0848 1.52307 47.7329 1.40963C47.3742 1.29619 47.0086 1.18274 46.6429 1.08265C46.2773 0.982554 45.9531 0.702288 45.5805 0.622212C45.208 0.542136 44.8216 0.508771 44.4422 0.442041C44.0697 0.37531 43.6971 0.24185 43.3177 0.188466C42.9383 0.135082 42.5381 0.228504 42.1587 0.188466C41.7793 0.148428 41.386 0.24185 41.0066 0.215158C40.6272 0.188466 40.2546 0.0149679 39.8683 0.00162191C39.482 -0.0117241 39.1025 0.061679 38.7162 0.061679C38.3299 0.061679 37.9504 0.034987 37.571 0.04166C37.1846 0.04166 36.8052 0.161774 36.4258 0.17512C36.0601 0.188466 35.6876 0.088371 35.322 0.115063C34.9563 0.141755 34.5976 0.268542 34.232 0.30858C33.8663 0.348618 33.4869 0.261869 33.1212 0.30858C32.7556 0.355291 32.3969 0.448714 32.0381 0.502098C31.6794 0.562155 31.3207 0.655577 30.9619 0.722307C30.6032 0.789037 30.2099 0.72898 29.8512 0.809056C29.4925 0.882459 29.1268 0.92917 28.7681 1.01592C28.4093 1.096 28.0989 1.34957 27.7402 1.43632C27.3883 1.52307 26.9951 1.48303 26.6364 1.58313C26.2845 1.67655 25.9741 1.93012 25.6222 2.03022C25.2704 2.13031 24.8703 2.09027 24.5253 2.19704C24.1804 2.30381 23.8837 2.5774 23.5388 2.68417C23.1938 2.79094 22.7799 2.71086 22.435 2.82431C22.09 2.93775 21.7658 3.11124 21.4208 3.23136C21.0828 3.35815 20.8068 3.64509 20.4688 3.77855C20.1308 3.91201 19.7582 3.95872 19.4271 4.09885C19.0959 4.23898 18.7648 4.39246 18.4405 4.54594C18.1094 4.69942 17.7369 4.75948 17.4126 4.9263C17.0884 5.09313 16.8745 5.44012 16.5572 5.6203C16.2398 5.79379 15.8949 5.91391 15.5844 6.10743C15.274 6.30094 14.9359 6.4611 14.6324 6.66796C14.3289 6.87482 14.0943 7.17511 13.7976 7.38864C13.501 7.60218 13.1561 7.75566 12.8594 7.97587C12.5628 8.19608 12.2937 8.44298 12.0039 8.66319C11.7004 8.89674 11.3072 9.0302 11.0036 9.26376C10.7001 9.49731 10.5 9.86433 10.1965 10.1046C9.89291 10.3448 9.63075 10.6251 9.33411 10.872C9.03746 11.1189 8.65112 11.2657 8.36827 11.5259C8.08542 11.7862 7.75428 11.9997 7.48522 12.2733C7.22997 12.5202 6.95401 12.7537 6.71945 13.014C6.47799 13.2742 6.27103 13.5679 6.04337 13.8348C5.81571 14.1017 5.59494 14.382 5.37418 14.6622C5.15342 14.9425 5.07753 15.3162 4.87057 15.6031C4.6636 15.8901 4.43594 16.157 4.24278 16.4506C4.04961 16.7442 3.69777 16.9511 3.5184 17.2514C3.33903 17.5516 3.33903 17.952 3.17346 18.259C3.00789 18.5659 2.73883 18.8262 2.58706 19.1465C2.43528 19.4601 2.38699 19.8205 2.24902 20.1474C2.11104 20.4744 2.02825 20.8081 1.90407 21.135C1.7799 21.462 1.57293 21.7556 1.46255 22.0893C1.35217 22.4229 1.30388 22.7699 1.20729 23.1036C1.11071 23.4372 1.00033 23.7709 0.917543 24.1112C0.834757 24.4515 0.620894 24.7652 0.551906 25.1055C0.482918 25.4458 0.627793 25.8262 0.572602 26.1665C0.517412 26.5068 0.462221 26.8471 0.420828 27.1941C0.379435 27.5411 0.213863 27.8748 0.186268 28.2218C0.158673 28.5688 0.186268 28.9224 0.186268 29.2694C0.165572 29.6098 0 29.9568 0 30.3038C0 30.6641 0.0689882 31.0244 0.075887 31.3781C0.0827859 31.7385 0.0344941 32.0988 0.0551906 32.4591C0.075887 32.8195 0.275953 33.1665 0.303548 33.5202C0.331143 33.8805 0.324245 34.2408 0.358739 34.5945C0.400132 34.9482 0.441525 35.3085 0.489816 35.6622C0.538108 36.0159 0.565703 36.3762 0.620894 36.7299C0.682983 37.0835 0.676085 37.4506 0.751972 37.8042C0.827859 38.1579 0.958936 38.4982 1.04172 38.8452C1.12451 39.1922 1.37976 39.4992 1.47635 39.8462C1.57293 40.1932 1.51084 40.5869 1.62122 40.9272C1.7316 41.2675 1.98686 41.5611 2.11794 41.9015C2.24212 42.2351 2.40769 42.5554 2.54567 42.8891C2.68364 43.2227 2.82162 43.5497 2.97339 43.8767C3.13206 44.2036 3.11827 44.604 3.29074 44.9243C3.46321 45.2446 3.67707 45.5382 3.86334 45.8519C4.04961 46.1588 4.25657 46.4591 4.46354 46.7594C4.6636 47.0597 4.89126 47.3466 5.10513 47.6402C5.33279 47.9405 5.69153 48.1474 5.91919 48.441C6.15375 48.7346 6.38831 49.0215 6.63667 49.3085C6.88502 49.5954 7.07129 49.9224 7.32655 50.196C7.5818 50.4763 7.72668 50.85 7.99573 51.1169C8.26479 51.3838 8.58213 51.604 8.86499 51.8576C9.14784 52.1112 9.54797 52.2246 9.84462 52.4648C10.1344 52.7051 10.2654 53.1388 10.5759 53.3657C10.8794 53.5859 11.2658 53.7127 11.59 53.9195C11.9074 54.1264 12.2109 54.36 12.5421 54.5535C12.8456 54.727 13.1905 54.8271 13.501 54.9872C13.8114 55.1474 14.1012 55.3476 14.4185 55.4877C14.7359 55.6345 15.1015 55.6679 15.4258 55.8013C15.75 55.9348 16.0605 56.0883 16.3916 56.2084C16.7227 56.3285 17.0194 56.5287 17.3505 56.6355C17.6817 56.7422 18.0335 56.7956 18.3716 56.889C18.7096 56.9825 19.0132 57.2027 19.3512 57.2827C19.6892 57.3695 20.0342 57.4496 20.3791 57.523C20.7241 57.5964 21.0897 57.563 21.4346 57.6231C21.7796 57.6898 22.1521 57.6164 22.4971 57.6698C22.842 57.7232 23.18 57.8433 23.525 57.89C23.9044 57.9434 24.2701 58.0902 24.6564 58.1369C25.0358 58.1769 25.4153 58.2904 25.8016 58.3171C26.181 58.3437 26.5743 58.3237 26.9606 58.3437C27.3469 58.3638 27.7333 58.1502 28.1196 58.1502C28.5059 58.1502 28.8854 58.2503 29.2717 58.2436C29.5752 58.3104 29.8581 58.4705 30.1203 58.6641C30.3617 58.8442 30.6791 58.991 30.8998 59.2112C31.1275 59.4448 31.3275 59.685 31.5414 59.8785C31.7829 60.0921 31.9484 60.379 32.1899 60.5926C32.4314 60.7994 32.7073 60.9729 32.9557 61.1798C33.204 61.3866 33.4731 61.5668 33.7145 61.7737C34.1216 62.114 34.5493 62.441 34.9218 62.8147C34.9701 62.8614 34.9011 63.0149 34.9494 63.0682C34.9563 63.0816 34.9701 63.0816 34.9839 63.1016C35.1702 63.3218 35.4599 63.482 35.7152 63.6621C35.9705 63.8423 36.2395 64.1226 36.5569 64.0959C36.9294 64.0692 37.1433 63.7422 37.2743 63.4686C37.3985 63.195 37.5089 62.8747 37.5572 62.5945C37.6331 62.1607 37.4951 61.7003 37.5641 61.2665C37.6331 60.8328 37.9297 60.4457 38.047 60.0187C38.1643 59.6183 38.2195 59.2379 38.454 58.9376C38.6886 58.6374 38.9714 58.3638 39.3854 58.1969C39.751 58.0501 40.1856 58.0902 40.572 57.9701C40.9514 57.8499 41.2619 57.5029 41.6482 57.3962C42.0345 57.2894 42.4485 57.2761 42.8279 57.156C43.1728 57.0492 43.4971 56.8757 43.842 56.7622C44.187 56.6488 44.5664 56.6421 44.9113 56.5287C45.2563 56.4152 45.5598 56.1817 45.8979 56.0616C46.2428 55.9415 46.5739 55.7947 46.912 55.6745C47.25 55.5544 47.6502 55.5678 47.9882 55.441C48.3262 55.3142 48.6022 55.0206 48.9333 54.8871C49.2714 54.7537 49.6991 54.8271 50.0303 54.6936C50.3683 54.5535 50.6305 54.2665 50.9616 54.1197C51.2927 53.9729 51.7136 54.013 52.0447 53.8595C52.3759 53.706 52.707 53.5592 53.0312 53.399C53.3555 53.2389 53.5694 52.8719 53.8867 52.7051C54.204 52.5382 54.5283 52.3714 54.8387 52.1979C55.1561 52.0244 55.4458 51.8109 55.7563 51.6307C56.0667 51.4439 56.3703 51.257 56.6738 51.0635C56.9774 50.87 57.3637 50.7966 57.6604 50.5897C57.957 50.3828 58.2606 50.1893 58.5503 49.9758C58.8401 49.7623 59.0746 49.482 59.3575 49.2618C59.6403 49.0349 59.8542 48.748 60.1232 48.5077C60.3923 48.2742 60.7993 48.1741 61.0546 47.9272C61.3167 47.6803 61.5099 47.3666 61.7582 47.1131C61.9997 46.8662 62.2688 46.6393 62.4964 46.3857C62.7241 46.1255 62.8 45.7518 63.0207 45.4849C63.2415 45.2179 63.4761 44.971 63.683 44.6974C63.89 44.4238 64.2556 44.2503 64.4488 43.9701C64.642 43.6831 64.7454 43.3428 64.9248 43.0492C65.1042 42.7556 65.1801 42.4086 65.3456 42.1083C65.5112 41.808 65.7182 41.5344 65.87 41.2208C66.0148 40.9138 66.2287 40.6336 66.3598 40.3133C66.4908 39.9996 66.7254 39.7194 66.8427 39.3924C66.96 39.0721 66.9807 38.7184 67.0772 38.3914C67.1807 38.0578 67.3808 37.7508 67.4705 37.4105C67.5671 37.0769 67.3946 36.6765 67.4774 36.3362C67.5602 35.9958 67.6912 35.6755 67.7602 35.3352C67.8361 34.9949 67.8775 34.6479 67.9396 34.3076C68.0017 33.9672 68.0569 33.6269 68.1121 33.2799C68.1673 32.9329 68.4156 32.6193 68.457 32.2723C68.4984 31.9253 68.4294 31.5716 68.457 31.2246C68.4846 30.8776 68.6088 30.5373 68.6226 30.1903C68.6364 29.8433 68.5467 29.4897 68.5467 29.1427C68.5467 28.7756 68.5812 28.402 68.5743 28.0283C68.5743 27.6546 68.5881 27.2876 68.5743 26.9139C68.5605 26.5402 68.5467 26.1732 68.526 25.7995C68.5053 25.4258 68.4708 25.0588 68.4363 24.6851C68.4018 24.3114 68.2293 23.9577 68.188 23.5907C68.1466 23.2237 68.3259 22.8233 68.2707 22.4563C68.2155 22.0893 68.1535 21.7156 68.0914 21.3486C68.0224 20.9816 67.8775 20.6279 67.8016 20.2676L67.8085 20.2475ZM35.2599 61.5334C35.2461 61.6068 35.3496 61.5068 35.391 61.4934C35.3565 61.4667 35.2599 61.5334 35.2599 61.5334ZM65.3801 35.115C65.2973 35.4487 65.2077 35.7756 65.1111 36.1026C65.0145 36.4296 64.9317 36.7632 64.8213 37.0835C64.7109 37.4038 64.6489 37.7508 64.5247 38.0645C64.4005 38.3848 64.1797 38.6584 64.0349 38.972C63.89 39.2856 63.8003 39.6126 63.6416 39.9196C63.483 40.2265 63.345 40.5402 63.1725 40.8338C63 41.1274 62.7931 41.4077 62.5999 41.6946C62.4136 41.9815 62.1515 42.2151 61.9445 42.4953C61.7445 42.7756 61.5996 43.0892 61.3857 43.3562C61.1719 43.6231 60.9442 43.87 60.7165 44.1236C60.4889 44.3771 60.2405 44.6107 60.006 44.8576C59.7645 45.1045 59.5989 45.4115 59.3506 45.645C59.1022 45.8786 58.8814 46.1455 58.6193 46.3724C58.364 46.5993 58.1019 46.8261 57.8328 47.0463C57.5638 47.2599 57.1912 47.3466 56.9153 47.5535C56.6393 47.7604 56.4462 48.074 56.1633 48.2675C55.8805 48.461 55.57 48.6212 55.2803 48.808C54.9905 48.9949 54.618 49.0549 54.3213 49.2351C54.0178 49.4219 53.8177 49.7756 53.5073 49.9491C53.1968 50.1293 52.776 50.1159 52.4586 50.2827C52.1413 50.4496 51.9067 50.7632 51.5894 50.9234C51.272 51.0835 50.9478 51.2437 50.6236 51.3971C50.2993 51.5506 49.982 51.7108 49.6508 51.8576C49.3266 52.0044 48.9264 51.9977 48.5953 52.1378C48.2642 52.278 47.9468 52.4381 47.6088 52.5716C47.2776 52.7051 47.0086 52.992 46.6705 53.1188C46.3325 53.2456 45.9944 53.3657 45.6564 53.4858C45.3046 53.6126 44.8768 53.5525 44.5181 53.6726C44.1594 53.7928 43.8213 53.9529 43.4626 54.073C43.1038 54.1931 42.7244 54.2332 42.3588 54.3466C42 54.4601 41.6827 54.707 41.3239 54.8204C40.9652 54.9338 40.641 55.1607 40.2822 55.2742C39.958 55.3743 39.5785 55.3209 39.2474 55.4143C38.9163 55.5077 38.6127 55.6879 38.2954 55.808C37.9711 55.9281 37.6538 56.0482 37.364 56.2217C37.0743 56.3952 36.8949 56.6688 36.6741 56.9291C36.4672 57.1693 36.205 57.3828 36.0739 57.7165C35.936 58.0835 35.9291 58.4772 35.8463 58.8509C35.7635 59.2313 35.5565 59.5849 35.5013 59.9653C35.4461 60.3056 35.4392 60.6526 35.3841 60.9863C35.3703 61.053 35.3634 61.1531 35.3427 61.2265C35.253 61.1464 35.2461 60.9662 35.1564 60.8862C34.8528 60.6192 34.5631 60.3323 34.2595 60.0721C33.9491 59.8118 33.5283 59.6783 33.2178 59.4181C32.9626 59.1979 32.8039 58.8709 32.5486 58.6507C32.2934 58.4238 31.9346 58.3171 31.6794 58.0902C31.431 57.8633 31.2862 57.523 31.0378 57.2961C30.7894 57.0692 30.4169 56.9825 30.1547 56.7823C29.8857 56.5754 29.7132 56.2151 29.4097 56.0683C29.113 55.9214 28.7474 55.848 28.4024 55.788C28.3197 55.7746 28.2438 55.9481 28.1817 55.9548L28.1472 55.8614C27.7747 55.8747 27.4021 55.8881 27.0365 55.8814C26.6639 55.8814 26.2983 55.7613 25.9258 55.7413C25.5532 55.7279 25.1738 55.9081 24.8013 55.8814C24.4287 55.8547 24.07 55.7413 23.6975 55.7012C23.3318 55.6612 22.9662 55.5678 22.6005 55.5144C22.2349 55.461 21.8486 55.5144 21.4829 55.4543C21.1173 55.3943 20.7655 55.2475 20.3998 55.1741C20.0342 55.1007 19.6685 55.054 19.3029 54.9739C18.9442 54.8938 18.613 54.6803 18.2543 54.5868C17.8955 54.4934 17.4885 54.5535 17.1367 54.4534C16.7986 54.36 16.4399 54.2999 16.1018 54.1865C15.7707 54.073 15.481 53.8261 15.1498 53.6993C14.8187 53.5725 14.522 53.379 14.1978 53.2389C13.8735 53.0988 13.5769 52.9186 13.2595 52.7584C12.9422 52.5983 12.6179 52.4648 12.3144 52.2913C12.0108 52.1178 11.7073 51.9377 11.4175 51.7441C11.1209 51.5506 10.7415 51.4705 10.4586 51.257C10.1758 51.0435 9.9343 50.7832 9.67215 50.5497C9.40999 50.3161 9.29961 49.9424 9.05815 49.6889C8.82359 49.4419 8.44416 49.3152 8.2165 49.0616C7.98884 48.808 7.85776 48.4744 7.637 48.2141C7.41623 47.9539 7.11269 47.7537 6.89882 47.4868C6.68496 47.2198 6.4297 46.9796 6.22964 46.6993C6.02957 46.4258 5.90539 46.0921 5.71912 45.8118C5.53285 45.5249 5.29829 45.2646 5.12582 44.9777C4.95335 44.6841 4.80158 44.3771 4.64981 44.0769C4.48423 43.7632 4.47044 43.3895 4.32556 43.0626C4.18758 42.7422 3.85644 42.482 3.73916 42.155C3.62188 41.8214 3.5184 41.4811 3.41492 41.1474C3.31143 40.8138 3.34593 40.4401 3.26314 40.0931C3.18036 39.7527 3.04928 39.4191 2.98029 39.0788C2.9113 38.7318 3.00099 38.3648 2.9458 38.0178C2.88371 37.6708 2.77333 37.3371 2.72503 36.9901C2.67674 36.6431 2.69744 36.2961 2.65605 35.9491C2.61465 35.6021 2.40079 35.2752 2.3663 34.9282C2.3318 34.5812 2.3525 34.2275 2.3318 33.8805C2.31111 33.5335 2.29041 33.1865 2.28351 32.8395C2.26971 32.4925 2.29731 32.1455 2.29731 31.7918C2.29731 31.4448 2.37319 31.0978 2.38699 30.7509C2.40079 30.4039 2.3594 30.0569 2.38699 29.7099C2.41459 29.3629 2.27661 29.0025 2.318 28.6555C2.3525 28.3085 2.57326 27.9816 2.62845 27.6412C2.67674 27.2942 2.59396 26.9272 2.66295 26.5869C2.73193 26.2466 2.77333 25.8929 2.84921 25.5526C2.932 25.2123 3.02858 24.8719 3.12517 24.5383C3.22175 24.2046 3.5115 23.9244 3.62188 23.5907C3.73226 23.2571 3.80815 22.9234 3.93923 22.5964C4.06341 22.2695 4.18069 21.9425 4.32556 21.6222C4.47044 21.3019 4.60151 20.9816 4.76019 20.6679C4.91886 20.3543 4.93956 19.9739 5.11203 19.667C5.29829 19.3467 5.49146 19.0197 5.68463 18.7061C5.88469 18.3924 6.15375 18.1188 6.36761 17.8119C6.58148 17.5049 6.93332 17.2981 7.16098 17.0045C7.38864 16.7108 7.57491 16.3905 7.81636 16.1036C8.05782 15.8233 8.1751 15.4229 8.43036 15.156C8.68562 14.8824 9.14094 14.7957 9.40999 14.5354C9.67905 14.2752 9.85842 13.9349 10.1413 13.6813C10.4172 13.4277 10.7277 13.2142 11.0174 12.974C11.3072 12.7337 11.5486 12.4401 11.8453 12.2132C12.1143 11.9997 12.4248 11.8329 12.6938 11.6193C12.9629 11.4058 13.1699 11.1122 13.4389 10.8986C13.7149 10.6918 14.0115 10.5116 14.2875 10.3047C14.5634 10.0979 14.9015 9.9711 15.1843 9.77091C15.4672 9.57072 15.7155 9.33049 15.9984 9.13697C16.2812 8.94346 16.6469 8.86338 16.9366 8.67653C17.2264 8.48969 17.5161 8.30952 17.8128 8.13602C18.1094 7.96252 18.3509 7.70228 18.6544 7.53545C18.9649 7.36862 19.2132 7.08836 19.5306 6.93488C19.8479 6.7814 20.1997 6.68798 20.524 6.54784C20.8482 6.40771 21.2139 6.361 21.5381 6.22754C21.8624 6.09408 22.2211 6.0407 22.5522 5.91391C22.8834 5.79379 23.1938 5.62697 23.5319 5.51353C23.863 5.40009 24.1252 5.07311 24.4632 4.96634C24.8013 4.85957 25.1669 4.84623 25.5118 4.74613C25.8499 4.64604 26.1948 4.55261 26.5329 4.45252C26.8709 4.35242 27.1814 4.15223 27.5194 4.05214C27.8574 3.95872 28.2024 3.88531 28.5473 3.79856C28.8854 3.71182 29.2579 3.72516 29.5959 3.64509C29.934 3.56501 30.2651 3.43822 30.6101 3.36482C30.955 3.29142 31.2931 3.17797 31.638 3.11124C31.9829 3.04451 32.3279 2.95777 32.6728 2.89771C33.0178 2.83765 33.3903 2.93107 33.7421 2.87769C34.0871 2.82431 34.432 2.77092 34.7839 2.72421C35.1357 2.68417 35.4737 2.53737 35.8187 2.504C36.1705 2.47064 36.5362 2.61744 36.8811 2.59742C37.2329 2.5774 37.5779 2.45729 37.9297 2.45062C38.2816 2.43727 38.6334 2.49065 38.9852 2.49065C39.3371 2.49065 39.6889 2.30381 40.0408 2.31048C40.3926 2.31048 40.7375 2.54404 41.0894 2.55738C41.4412 2.57073 41.7931 2.49733 42.1449 2.51735C42.4967 2.54404 42.8486 2.53069 43.2004 2.56406C43.5523 2.59742 43.8765 2.81763 44.2214 2.86434C44.5733 2.91105 44.9596 2.71754 45.3046 2.77759C45.6495 2.83765 45.9806 3.00448 46.3187 3.07788C46.6636 3.15128 47.0224 3.1713 47.3604 3.25805C47.6985 3.3448 48.0089 3.55166 48.34 3.65843C48.6919 3.77187 49.092 3.77187 49.4439 3.90533C49.7957 4.03212 50.1544 4.13889 50.4994 4.27902C50.8443 4.41915 51.1272 4.70609 51.4652 4.8529C51.8033 5.00638 52.2241 5.00638 52.5552 5.1732C52.8864 5.33336 53.114 5.70705 53.4383 5.88054C53.7694 6.05404 54.1764 6.08741 54.5007 6.26758C54.8249 6.44775 55.0319 6.81476 55.3492 7.00161C55.6666 7.19513 55.977 7.38864 56.2875 7.58883C56.5979 7.78902 57.0464 7.80237 57.3499 8.00923C57.6535 8.22277 57.957 8.44298 58.2468 8.66986C58.5434 8.89007 58.8607 9.09693 59.1436 9.33049C59.4265 9.56405 59.7162 9.81095 59.9853 10.0578C60.2612 10.3047 60.4199 10.6718 60.682 10.932C60.9442 11.1923 61.1788 11.4725 61.4271 11.7461C61.6755 12.0197 61.9721 12.2533 62.2067 12.5335C62.4412 12.8205 62.7379 13.0607 62.9517 13.361C63.1656 13.6613 63.207 14.0683 63.4002 14.3753C63.6002 14.6822 63.8624 14.9558 64.0349 15.2695C64.2142 15.5898 64.3384 15.9301 64.4971 16.2637C64.6558 16.5907 64.9731 16.8576 65.1111 17.198C65.2422 17.5383 65.3387 17.8986 65.4422 18.2456C65.5526 18.5926 65.4422 18.993 65.5319 19.3467C65.6147 19.707 65.7872 20.0473 65.8492 20.4077C65.9182 20.768 66.0769 21.1217 66.1321 21.4887C66.1804 21.8557 66.1666 22.2294 66.2011 22.5964C66.2356 22.9634 66.2011 23.3371 66.2218 23.7042C66.2494 24.0712 66.1597 24.4449 66.1804 24.8119C66.2011 25.1789 66.3184 25.5459 66.3322 25.9129C66.346 26.2799 66.2632 26.6536 66.2701 27.0206C66.2839 27.361 66.5529 27.6946 66.5529 28.0349C66.5529 28.3753 66.4908 28.7156 66.4701 29.0559C66.4494 29.3962 66.4563 29.7432 66.4219 30.0769C66.3874 30.4172 66.3529 30.7575 66.3115 31.0978C66.2701 31.4382 66.0148 31.7451 65.9596 32.0788C65.9044 32.4124 65.9458 32.7661 65.8837 33.0998C65.8148 33.4334 65.6423 33.747 65.5664 34.0807C65.4905 34.4143 65.4284 34.748 65.3456 35.075L65.3801 35.115Z" fill="black"/>
<path d="M40.5 39.5377C41.2467 39.5377 41.9333 39.4443 42.56 39.2577C43.2 39.0843 43.72 38.8977 44.12 38.6977C44.5333 38.4843 44.7667 38.3377 44.82 38.2577L47.26 43.2177C46.8067 44.0577 46 44.8243 44.84 45.5177C43.68 46.2243 42.2667 46.5777 40.6 46.5777C39.5733 46.5777 38.7067 46.4577 38 46.2177C37.3067 45.9777 36.6533 45.6977 36.04 45.3777C35.44 45.0577 34.7733 44.7777 34.04 44.5377C33.32 44.2977 32.4133 44.1777 31.32 44.1777C30.4933 44.1777 29.7733 44.2843 29.16 44.4977C28.56 44.7243 28.0933 44.951 27.76 45.1777C27.4267 45.4043 27.2467 45.5443 27.22 45.5977L24.24 42.0377C25.04 40.9977 26.2133 40.131 27.76 39.4377C29.32 38.7577 31.0733 38.4177 33.02 38.4177C34.18 38.4177 35.1667 38.511 35.98 38.6977C36.7933 38.8843 37.5467 39.071 38.24 39.2577C38.9467 39.4443 39.7 39.5377 40.5 39.5377ZM27.84 25.8777C27.84 27.0643 28.08 28.151 28.56 29.1377C29.04 30.111 29.7133 30.891 30.58 31.4777C31.4467 32.051 32.46 32.3377 33.62 32.3377C34.7933 32.3377 35.8133 32.051 36.68 31.4777C37.5467 30.891 38.22 30.111 38.7 29.1377C39.18 28.151 39.42 27.0643 39.42 25.8777C39.42 24.691 39.18 23.611 38.7 22.6377C38.22 21.6643 37.5467 20.8843 36.68 20.2977C35.8133 19.711 34.7933 19.4177 33.62 19.4177C32.46 19.4177 31.4467 19.711 30.58 20.2977C29.7133 20.8843 29.04 21.6643 28.56 22.6377C28.08 23.611 27.84 24.691 27.84 25.8777ZM19.76 25.8777C19.76 23.9577 20.1067 22.171 20.8 20.5177C21.5067 18.851 22.4867 17.3977 23.74 16.1577C24.9933 14.9177 26.46 13.951 28.14 13.2577C29.8333 12.5643 31.66 12.2177 33.62 12.2177C35.62 12.2177 37.46 12.5643 39.14 13.2577C40.8333 13.951 42.3 14.9177 43.54 16.1577C44.7933 17.3977 45.76 18.851 46.44 20.5177C47.1333 22.171 47.48 23.9577 47.48 25.8777C47.48 27.811 47.1467 29.611 46.48 31.2777C45.8133 32.931 44.86 34.3843 43.62 35.6377C42.3933 36.8777 40.9333 37.8443 39.24 38.5377C37.5467 39.231 35.6733 39.5777 33.62 39.5777C31.5133 39.5777 29.6067 39.231 27.9 38.5377C26.2067 37.8443 24.7533 36.8777 23.54 35.6377C22.3267 34.3843 21.3933 32.931 20.74 31.2777C20.0867 29.611 19.76 27.811 19.76 25.8777Z" fill="black"/>
</svg>
