<svg width="107" height="98" viewBox="0 0 107 98" fill="none" xmlns="http://www.w3.org/2000/svg">
<path d="M56.5334 78.1314C95.7657 89.2632 117.301 50.2476 98.1194 43.5939C103.443 39.2336 109.641 11.9253 81.0165 3.88502C52.409 -4.14221 24.3843 8.24527 23.8071 24.7837C-5.98281 26.3883 -7.76483 69.7598 32.0615 74.5822C32.0615 74.5822 46.5138 81.2359 56.5334 78.1358V78.1314Z" fill="white"/>
<path d="M55.9389 74.3511C60.3884 79.0819 53.5853 83.7605 44.1429 82.8405C34.7005 81.9161 27.04 76.8277 32.6439 70.671" fill="white"/>
<path d="M55.939 74.312C56.0735 74.2336 56.3537 74.1856 56.6451 74.1856C56.9253 74.1987 57.2559 74.2641 57.368 74.4429C57.5809 74.7001 58.0573 75.2757 58.3263 75.6855C58.4439 75.8381 58.4607 75.9951 58.472 76.1216C58.4832 76.248 58.472 76.3788 58.5056 76.5053C58.5392 76.6709 58.6233 76.7494 58.6513 76.902C58.6849 77.0067 58.7858 77.3119 58.8138 77.6346C58.8306 77.7261 58.8306 77.8003 58.8474 77.8787V78.0967C58.8474 78.2363 58.8474 78.3409 58.8306 78.4063C58.8138 78.511 58.7802 78.6113 58.7297 78.7159C58.6289 78.947 58.5336 79.1781 58.4495 79.4092C58.3487 79.6272 58.2366 79.8452 58.0685 80.024C57.9676 80.1155 57.8555 80.2158 57.7547 80.3205C57.721 80.3597 57.6874 80.399 57.6538 80.4338C57.3736 80.7652 57.0262 81.0748 56.6675 81.3713C56.505 81.5108 56.3201 81.6547 56.124 81.7812C55.9278 81.9076 55.7261 82.0384 55.53 82.1518C55.3338 82.2651 55.1489 82.409 54.9696 82.5355C54.7734 82.675 54.5717 82.8058 54.3588 82.893C54.1458 82.9977 53.916 83.0456 53.6639 83.098C53.4173 83.1503 53.1876 83.2026 52.9578 83.2636C52.7449 83.3421 52.4983 83.3901 52.2629 83.4163C52.0164 83.4555 51.7866 83.4947 51.5568 83.5427C51.1141 83.6561 50.7499 84.0441 50.2736 84.1183C49.7804 84.1837 49.2537 84.0659 48.7886 84.1052C48.542 84.1313 48.3122 84.1052 48.0657 84.0921C47.8359 84.079 47.5893 84.0659 47.3596 84.0659C46.8833 84.0921 46.4181 84.2316 45.9418 84.2185C45.4655 84.1924 45.0004 84.079 44.5409 84.0267C44.0477 83.9875 43.5994 83.9133 43.1567 83.8479C42.6972 83.7694 42.2153 83.8348 41.7726 83.7433C41.4924 83.691 41.6381 83.7564 41.3747 83.6779C41.1786 83.6386 40.96 83.5863 40.7471 83.5514C40.3212 83.486 39.8729 83.3727 39.4302 83.2811C39.0043 83.1764 38.5728 83.0762 38.1301 82.9497C37.7042 82.8363 37.2055 82.8102 36.7796 82.6532C36.3537 82.4962 36.0231 82.2172 35.6084 82.0384C35.4122 81.9469 35.2273 81.8335 35.048 81.7158C34.8687 81.6024 34.6837 81.4847 34.4876 81.3844C34.1065 81.1925 33.5013 81.2056 33.1035 80.9745C32.9073 80.8481 32.756 80.6911 32.6103 80.5254C32.4646 80.3597 32.3301 80.181 32.1508 80.0501C31.7866 79.7667 31.5736 79.3961 31.2766 79.0865C30.9628 78.7639 30.5201 78.5241 30.2735 78.1622C30.0102 77.7915 29.9261 77.3817 29.7636 76.9936C29.5843 76.5968 29.4834 76.187 29.4161 75.7902C29.3657 75.5329 29.3153 75.2887 29.2536 75.0446C29.2032 74.892 29.1864 74.7481 29.1864 74.687C29.1696 74.5824 29.1696 74.4821 29.1864 74.3905C29.2368 74.1594 29.22 73.9283 29.2368 73.7103C29.2536 73.4923 29.2705 73.2743 29.3713 73.0825C29.6179 72.5941 29.9485 72.097 30.2623 71.7482C30.6434 71.3122 30.89 71.068 31.1197 70.7497C31.5176 70.2875 32.3862 70.4663 32.6664 70.6364C32.9634 70.802 33.5237 71.3907 33.2436 71.7133C33.1427 71.8398 33.0979 72.0098 33.0642 72.1886C33.0306 72.3674 33.0306 72.5592 32.9802 72.7511C32.9129 73.0607 32.784 73.2787 32.7504 73.6231C32.7336 73.7016 32.7168 73.8411 32.7 73.9545C32.6832 74.0199 32.6664 74.0679 32.6664 74.1071C32.6495 74.1464 32.6495 74.1725 32.6495 74.1725C32.6159 74.3251 32.5487 74.4821 32.5655 74.6347C32.5655 74.8789 32.5487 75.1361 32.6159 75.389C32.6832 75.6201 32.5991 75.9035 32.7336 76.1564C32.8513 76.4006 32.9297 76.6579 33.1147 76.902C33.294 77.1331 33.4621 77.3773 33.6919 77.6084C33.9216 77.8264 34.185 78.0313 34.4484 78.2363C34.5829 78.3409 34.7622 78.402 34.9415 78.4674C35.1208 78.5197 35.3058 78.5807 35.4515 78.6723C35.7485 78.8511 35.9278 79.1345 36.2416 79.2871C36.3873 79.3787 36.5722 79.4397 36.7347 79.5051C36.8972 79.5836 37.0654 79.6446 37.2279 79.71C37.5585 79.8627 37.8219 80.0937 38.1693 80.2246C38.5336 80.351 39.0099 80.2507 39.3573 80.351C39.7048 80.4644 39.9681 80.8001 40.3268 80.9004C40.7078 80.992 41.1674 80.8611 41.5316 80.9396C41.7277 80.9789 41.9295 81.0312 42.1256 81.0661V81.0792C42.2433 81.1053 42.3554 81.1446 42.473 81.1576C42.8541 81.21 43.2464 81.2841 43.6611 81.3364C44.0421 81.3757 44.4176 81.5413 44.8323 81.5675C45.2133 81.6068 45.6056 81.6591 46.0203 81.6722C46.4013 81.6722 46.8104 81.6983 47.2083 81.6852C47.4044 81.6852 47.6061 81.6591 47.8023 81.646C47.9984 81.6329 48.2002 81.6198 48.3963 81.5937C48.7773 81.5544 49.1192 81.2972 49.5002 81.2492C49.8645 81.1838 50.2736 81.2623 50.621 81.1707C50.8003 81.1315 50.9684 81.0661 51.131 81.0181C51.2935 80.9658 51.4616 80.9048 51.6241 80.8524C51.7866 80.8001 51.9715 80.7739 52.1508 80.7391C52.3302 80.7129 52.5151 80.6737 52.6608 80.6126C52.9914 80.4862 53.1203 80.1243 53.3837 79.9847C53.5182 79.9063 53.6975 79.8801 53.8768 79.8452C54.0561 79.8103 54.2411 79.7667 54.3531 79.6795C54.37 79.6534 54.4036 79.6272 54.4204 79.601C54.4372 79.5749 54.4708 79.5487 54.4876 79.5095L54.5213 79.4571C54.5717 79.3656 54.6053 79.2784 54.6389 79.1868C54.6726 79.1083 54.7062 79.0342 54.7734 78.9688C54.8911 78.8772 54.9528 78.7769 55.0536 78.6723C55.0536 78.6723 55.0873 78.6592 55.1377 78.62C55.1881 78.5938 55.2554 78.5415 55.3338 78.4935C55.4683 78.3802 55.614 78.2232 55.6308 78.0967C55.6308 78.0313 55.6308 77.9834 55.614 77.918C55.6476 77.8133 55.7149 77.7261 55.7485 77.6215C55.8326 77.3773 55.911 77.1462 55.9278 76.902C55.9446 76.8236 55.9446 76.7625 55.9278 76.6971C55.911 76.6317 55.8942 76.5707 55.8774 76.5053C55.8438 76.3919 55.7765 76.2742 55.7765 76.1477C55.7597 75.8381 55.7597 75.5068 55.5972 75.3018C55.3506 74.9792 55.6476 74.5213 55.9446 74.3033L55.939 74.312Z" fill="black"/>
<path d="M36.3763 85.0034C32.4705 83.582 29.4388 84.0049 27.9258 85.095C25.8187 86.5949 26.5921 89.3898 31.9325 90.3011C38.6403 91.4566 42.591 87.2751 36.3819 85.0078L36.3763 85.0034Z" fill="white"/>
<path d="M31.7813 90.3011C31.8317 90.1223 32.2408 89.7255 32.5378 89.7604C32.6555 89.7735 32.8516 89.7735 33.0477 89.7735C33.2607 89.7604 33.4624 89.7473 33.6249 89.7212C33.8715 89.6688 34.0396 89.7735 34.2189 89.7604C34.3366 89.7473 34.3982 89.7081 34.4991 89.695C34.6616 89.6819 35.2893 89.4639 35.4237 89.4378C35.491 89.4378 35.5414 89.4247 35.6031 89.4116C35.9169 89.3854 36.1466 89.2328 36.3932 89.1936C36.4773 89.1805 36.5557 89.1674 36.623 89.1543L36.707 89.1282C36.8247 89.0758 36.92 89.0366 37.0208 88.9886C37.1385 88.9494 37.217 88.884 37.3178 88.836C37.4972 88.7227 37.6485 88.6049 37.7773 88.4785C37.9118 88.3651 37.895 88.182 37.9399 88.0817C37.9847 87.9814 38.1696 87.8899 38.1528 87.759C38.1528 87.6457 38.2369 87.5018 38.1528 87.3623C38.0856 87.2097 37.7269 87.1966 37.626 87.0789C37.542 87.0134 37.5252 86.9262 37.4803 86.8347C37.4355 86.7431 37.3795 86.6559 37.2842 86.5905C37.1889 86.5251 37.1049 86.4379 37.0208 86.3594C36.92 86.2809 36.8415 86.2068 36.7238 86.1414C36.4773 86.028 36.1803 86.0019 35.9337 85.9103C35.7039 85.8057 35.4574 85.653 35.194 85.5528C34.9138 85.4612 34.6504 85.3609 34.387 85.2824C34.1068 85.2039 33.793 85.217 33.5297 85.1691C33.3503 85.1298 33.4456 85.1691 33.2831 85.1167C33.1654 85.0906 33.0365 85.0644 32.902 85.0513C32.7675 85.0252 32.6386 85.0252 32.5042 85.0121C32.3697 84.999 32.224 84.9859 32.0895 84.9859H31.6916C31.5571 84.9859 31.4282 84.999 31.2937 84.999C31.0303 85.0252 30.8006 85.1385 30.554 85.1778C30.3243 85.217 30.0441 85.1647 29.8143 85.2301C29.5846 85.2955 29.338 85.3086 29.1194 85.3958C29.0186 85.4481 28.9737 85.5484 28.9233 85.64C28.8729 85.7446 28.8393 85.8318 28.7776 85.8841C28.7104 85.9495 28.5983 85.9757 28.4974 86.0106C28.4134 86.0629 28.3181 86.1022 28.2509 86.1632C28.2172 86.2417 28.15 86.2896 28.0715 86.3551C28.0043 86.4205 27.9539 86.4815 27.9258 86.56C27.8978 86.6385 27.9258 86.7126 27.9426 86.7911C27.9763 86.8696 28.0099 86.9437 28.0099 87.0091C28.0267 87.0876 28.0267 87.1617 28.0099 87.2402C28.0099 87.3318 28.0267 87.4059 28.0603 87.4844C28.1444 87.637 28.2228 87.807 28.3741 87.9465C28.4246 87.9989 28.475 88.0381 28.5198 88.073L28.6992 88.1776C28.7832 88.2169 28.8449 88.243 28.8785 88.2692C28.9289 88.3084 28.9793 88.3215 29.0242 88.3608C29.125 88.4393 29.2371 88.4872 29.3716 88.5395C29.5061 88.5788 29.635 88.6311 29.7359 88.6921C29.8535 88.7837 30.0161 88.8578 30.1618 88.9494C30.3075 89.0279 30.4588 89.1151 30.5876 89.1805C30.9351 89.3462 31.1312 89.4377 31.4282 89.4901C31.8541 89.5816 31.9045 90.0918 31.8541 90.2967C31.8037 90.5017 31.4282 90.9508 30.9799 90.8592C30.6493 90.7938 30.2234 90.833 29.7303 90.7676C29.5509 90.7545 29.3828 90.6891 29.2035 90.6412C29.041 90.5758 28.8561 90.5365 28.6263 90.4624C28.5254 90.4363 28.3461 90.3578 28.2004 90.2967C28.1164 90.2575 28.0547 90.2313 28.0043 90.2052C27.9539 90.179 27.9202 90.1659 27.9202 90.1659C27.7409 90.0525 27.556 89.9348 27.3598 89.8215C27.1973 89.7299 27.0628 89.6165 26.9171 89.4988C26.8499 89.4334 26.7714 89.3854 26.7042 89.32L26.5081 89.1282C26.2447 88.884 26.1102 88.5395 25.9309 88.23C25.8636 88.0773 25.7852 87.9073 25.7347 87.7416C25.7011 87.5628 25.6675 87.3971 25.6339 87.214C25.6339 87.0352 25.6171 86.8696 25.6339 86.6864C25.6675 86.5077 25.7011 86.3289 25.7516 86.1588C25.8188 85.9931 25.886 85.8275 25.9477 85.6574C26.0486 85.5048 26.1438 85.3478 26.2447 85.1952C26.3624 85.0557 26.4408 84.8987 26.5417 84.733C26.6426 84.5804 26.7714 84.4365 26.9227 84.3101C27.0684 84.2054 27.2534 84.1182 27.4327 84.0398C27.612 83.9743 27.7969 83.9002 27.9595 83.8217C28.3069 83.6691 28.6375 83.4991 28.9962 83.3988C29.3772 83.2854 29.7695 83.2942 30.1169 83.2462C30.4812 83.1939 30.823 82.9758 31.1873 82.9628C31.3834 82.9628 31.5683 83.0151 31.7476 83.0543C31.927 83.1067 32.1119 83.159 32.2744 83.1677C32.4537 83.1808 32.6386 83.1546 32.818 83.1285C32.9973 83.1023 33.1822 83.0761 33.3447 83.1023C33.5409 83.1285 33.7258 83.1677 33.9051 83.1939V83.2069C34.006 83.2331 34.1012 83.2593 34.2021 83.2723C34.5495 83.3247 34.8802 83.425 35.222 83.5034C35.5694 83.5819 35.8496 83.7738 36.1803 83.861C36.4941 83.9656 36.7911 84.0921 37.1217 84.2185C37.4355 84.3319 37.7493 84.4889 38.0631 84.6415C38.2088 84.72 38.377 84.8072 38.5227 84.8856C38.6852 84.9772 38.8365 85.0775 38.9822 85.1691C39.1279 85.2737 39.296 85.3609 39.4753 85.4394C39.6378 85.531 39.8227 85.6313 39.9516 85.7621C40.1982 86.0324 40.3159 86.3638 40.4616 86.6864C40.6409 87.0091 40.7754 87.3797 40.7754 87.7373C40.7754 88.1079 40.5624 88.4567 40.4111 88.775C40.3103 88.9407 40.2767 89.1195 40.215 89.2895C40.1646 89.4683 40.0693 89.634 39.9348 89.7648C39.8003 89.9043 39.5874 89.9959 39.4081 90.0744C39.2119 90.1398 39.027 90.2139 38.8645 90.2924C38.8309 90.3185 38.7972 90.3447 38.7636 90.3708C38.7132 90.397 38.6796 90.4363 38.6459 90.4624L38.5787 90.5017C38.3826 90.6543 38.1976 90.833 37.9679 90.9115C37.7717 90.99 37.57 91.038 37.3907 91.0903C37.3907 91.0903 37.1946 91.1165 36.948 91.1295C36.7182 91.1557 36.4212 91.1688 36.2419 91.2211C36.1578 91.2342 36.0794 91.2734 35.9953 91.2996C35.8328 91.3127 35.6815 91.3257 35.519 91.3257C35.3397 91.3257 35.1548 91.3127 34.9754 91.3127C34.7961 91.2996 34.628 91.2865 34.4655 91.2734C34.0844 91.2342 33.7426 91.2865 33.4456 91.208C33.0477 91.1295 32.7507 90.9769 32.4761 90.9508C32.0334 90.8854 31.8821 90.5147 31.7813 90.2967V90.3011Z" fill="black"/>
<path d="M26.9845 92.3506C23.9528 91.2474 21.6104 91.5701 20.4448 92.416C18.8141 93.5845 19.4249 95.7385 23.5437 96.4405C28.716 97.3387 31.7813 94.1078 26.9901 92.3506H26.9845Z" fill="white"/>
<path d="M23.5436 96.4534C23.6108 96.2746 23.9415 95.8516 24.1712 95.8909H24.5523C24.698 95.8909 24.8661 95.8647 24.9782 95.8386C25.1743 95.7862 25.292 95.8909 25.4209 95.8778C25.5049 95.8778 25.5385 95.8386 25.617 95.8255C25.7347 95.8124 26.1942 95.6206 26.2951 95.5944C26.3455 95.5813 26.3791 95.5682 26.4296 95.5682C26.6425 95.5551 26.8106 95.4156 26.9899 95.4025C27.0404 95.4025 27.1076 95.4025 27.1524 95.3895L27.2029 95.3764C27.2701 95.3371 27.3486 95.311 27.4158 95.2717C27.4831 95.2325 27.5503 95.1932 27.612 95.1584C27.7296 95.0799 27.8249 94.9927 27.909 94.9142C27.993 94.8226 27.9258 94.6962 27.9594 94.6439C27.9762 94.5785 28.1219 94.5523 28.1219 94.4782C28.1051 94.4128 28.206 94.3256 28.1555 94.234C28.1219 94.1293 27.7913 94.1686 27.7296 94.0945C27.696 94.0421 27.6792 93.9811 27.6624 93.9157C27.6288 93.8503 27.612 93.7762 27.5447 93.7369C27.4607 93.6977 27.427 93.6323 27.3654 93.5712C27.315 93.5058 27.2477 93.4448 27.1693 93.4055C26.9899 93.3271 26.7434 93.3271 26.5584 93.266C26.3959 93.1875 26.211 93.048 26.0149 92.9695C25.8019 92.9041 25.6002 92.8169 25.4041 92.7646C25.2079 92.7123 24.9614 92.7384 24.7596 92.6992C24.6251 92.6599 24.6924 92.7123 24.5803 92.6599C24.4962 92.6338 24.401 92.6207 24.3001 92.6076C24.104 92.5945 23.9022 92.5684 23.7061 92.5684H23.4091C23.3082 92.5684 23.213 92.5815 23.1121 92.5815C22.9328 92.5945 22.7478 92.7079 22.5853 92.7341C22.4228 92.7602 22.2211 92.6948 22.0586 92.7471C21.9129 92.7864 21.7111 92.7733 21.5654 92.8387C21.4814 92.8649 21.4646 92.9521 21.4478 93.0306C21.431 93.1221 21.4309 93.1832 21.3805 93.2224C21.3469 93.2617 21.2628 93.2747 21.1844 93.2878C21.1171 93.3009 21.0387 93.3271 21.0051 93.3663C20.9882 93.4186 20.9378 93.4448 20.8706 93.4797C20.8201 93.5189 20.7865 93.5582 20.7529 93.6061C20.7361 93.6584 20.7697 93.7108 20.7865 93.7587C20.8201 93.798 20.8537 93.8503 20.8537 93.8852C20.8706 93.9244 20.8538 93.9767 20.8369 94.0247C20.8369 94.077 20.8369 94.1293 20.8537 94.1773C20.921 94.282 20.9714 94.3953 21.0667 94.5C21.1003 94.5392 21.1171 94.5654 21.1676 94.5915L21.3021 94.6569C21.3693 94.6831 21.4197 94.7093 21.4366 94.7223C21.4702 94.7485 21.5038 94.7616 21.5374 94.7877C21.6047 94.8532 21.6831 94.8924 21.784 94.9142C21.8849 94.936 21.9801 94.9665 22.0474 95.0188C22.1314 95.0973 22.2435 95.1584 22.3444 95.2238C22.4452 95.2892 22.5405 95.3633 22.6414 95.4156C22.8879 95.5552 23.0561 95.6336 23.269 95.6729C23.5996 95.7383 23.5996 96.2353 23.5492 96.4403C23.4819 96.6452 23.1513 97.1074 22.8095 97.0289C22.5461 96.9766 22.1819 97.042 21.7896 97.0028C21.4758 96.9635 21.246 96.8632 20.8818 96.7717C20.7977 96.7455 20.652 96.6801 20.5175 96.6321C20.383 96.5798 20.2878 96.5275 20.2878 96.5275C20.1421 96.4228 20.0076 96.3226 19.8451 96.231C19.7106 96.1525 19.5985 96.0522 19.4808 95.9607L19.3015 95.8211L19.139 95.6554C18.9092 95.4505 18.8252 95.154 18.6795 94.9011C18.6122 94.7616 18.545 94.6308 18.517 94.4912C18.4833 94.3517 18.4497 94.1947 18.4329 94.0552C18.4161 93.9157 18.4161 93.7587 18.4329 93.6192C18.4665 93.4797 18.5001 93.3227 18.5338 93.1832C18.5842 93.0567 18.6346 92.9128 18.6963 92.7733L18.9429 92.3896C19.0437 92.2762 19.1054 92.1454 19.1726 92.0059C19.2398 91.8795 19.3351 91.7487 19.4696 91.6484C19.5873 91.5568 19.7498 91.4958 19.8955 91.4304C20.0412 91.378 20.2093 91.3257 20.3382 91.2647C20.6184 91.1382 20.8818 90.9943 21.1788 90.9202C21.4758 90.8286 21.8064 90.8548 22.0866 90.8156C22.3836 90.7763 22.647 90.5714 22.944 90.5583C23.2578 90.5452 23.5548 90.724 23.8182 90.7501C24.0984 90.7632 24.3954 90.6237 24.6756 90.6586C24.8213 90.6847 24.9726 90.7109 25.1183 90.7371V90.7501C25.2023 90.7632 25.2808 90.7894 25.3648 90.8025C25.645 90.8417 25.9084 90.9289 26.1886 90.9943C26.452 91.0597 26.6649 91.2254 26.9283 91.3039C27.1749 91.3955 27.4046 91.4958 27.668 91.6004C27.9146 91.692 28.1611 91.8315 28.4077 91.9449C28.5422 92.0103 28.6543 92.0713 28.7888 92.1367C28.9233 92.2021 29.0521 92.2762 29.1698 92.3547C29.2875 92.4332 29.4332 92.4943 29.5845 92.5597C29.7358 92.6251 29.8815 92.7123 29.9992 92.8169C30.2121 93.0349 30.2794 93.3314 30.4139 93.5974C30.5484 93.8677 30.6772 94.173 30.6772 94.4825C30.6772 94.8052 30.4811 95.0973 30.3466 95.3677C30.2626 95.4941 30.2458 95.6642 30.2009 95.8037C30.1505 95.9432 30.0832 96.0871 29.9712 96.2005C29.8367 96.3138 29.6742 96.3792 29.5117 96.4446C29.3323 96.497 29.181 96.5493 29.0521 96.6103C29.0185 96.6365 29.0017 96.6496 28.9681 96.6757C28.9345 96.7019 28.9176 96.7281 28.884 96.7542L28.8336 96.7935C28.6879 96.9199 28.5534 97.0769 28.3573 97.1379C28.2116 97.1902 28.0435 97.2426 27.8978 97.2774C27.8978 97.2774 27.7352 97.2774 27.5335 97.2905C27.3318 97.3036 27.1076 97.3167 26.9563 97.3559C26.8891 97.3821 26.8218 97.4083 26.7602 97.4344C26.6257 97.4475 26.4968 97.4475 26.3623 97.4475C26.0485 97.4475 25.7683 97.4213 25.5049 97.3821C25.2079 97.3429 24.9445 97.3821 24.698 97.3167C24.401 97.2382 24.1544 97.0987 23.9415 97.0725C23.594 97.0202 23.4988 96.6627 23.5604 96.4577L23.5436 96.4534Z" fill="black"/>
<path d="M23.2298 24.2692C23.5436 24.3957 23.723 24.5657 23.7398 24.6922C23.7566 24.8186 23.5773 25.0497 23.2971 25.2547C23.0169 25.4596 22.6358 25.6253 22.2267 25.6907C21.5823 25.7561 20.215 26.0221 19.4248 26.3186C19.0942 26.4232 18.8308 26.4712 18.5843 26.5235C18.3377 26.5758 18.1079 26.602 17.8782 26.6761C17.598 26.7808 17.4523 26.868 17.2001 26.9726C17.0208 27.038 16.522 27.2822 16.0457 27.522C15.5694 27.7793 15.1043 28.0365 14.925 28.1237C14.7793 28.2022 14.628 28.2894 14.4654 28.3548C13.6921 28.6862 13.1149 29.1876 12.4705 29.5364C12.2744 29.628 12.1062 29.7545 11.9101 29.8591C11.8429 29.8983 11.7756 29.9507 11.714 29.9855C11.1704 30.3823 10.6436 30.8184 10.1337 31.2805C9.65737 31.7296 9.17544 32.2049 8.73274 32.702C8.29004 33.1773 8.02666 33.7528 7.62879 34.2804C7.24773 34.7818 6.72097 35.2527 6.39034 35.8065C6.05972 36.3559 5.63383 36.8704 5.35364 37.4459C5.09026 38.0084 5.20793 38.6886 4.98939 39.2685C4.75963 39.8702 4.32813 40.4371 4.16562 41.0388C4.06475 41.3484 3.96949 41.6405 3.85181 41.9501C3.73413 42.2466 3.63886 42.5518 3.58843 42.8614C3.52118 43.171 3.52119 43.4893 3.52119 43.8119V44.2872C3.52119 44.4398 3.52119 44.5968 3.50438 44.7494C3.47075 45.072 3.4035 45.3903 3.35867 45.6999C3.30824 46.0226 3.25781 46.3278 3.25781 46.6374C3.241 47.2783 3.241 47.9193 3.27462 48.5341C3.30824 49.175 3.55481 49.7898 3.62205 50.4046C3.6893 50.7883 3.6893 50.5834 3.72293 50.954C3.75655 51.2505 3.80698 51.5296 3.88543 51.8261C4.03113 52.4147 4.19925 53.0164 4.39538 53.6225C4.49625 53.9059 4.59151 54.198 4.70919 54.4945C4.82687 54.791 4.93896 55.0832 5.05664 55.3797C5.19113 55.6762 5.35364 55.9421 5.51615 56.2256C5.67866 56.509 5.8804 56.775 6.00928 57.0715C6.28948 57.6208 6.42396 58.24 6.76579 58.8025C6.84985 58.942 6.92831 59.0859 6.99555 59.2254C7.07961 59.3649 7.14126 59.5088 7.22531 59.6484C7.37101 59.9449 7.52232 60.2239 7.71845 60.4943C8.09951 61.0349 8.85602 61.3925 9.2651 61.9026C9.49486 62.173 9.66297 62.452 9.8423 62.7354C10.0216 63.0188 10.2234 63.2979 10.4531 63.5421C10.9462 64.0435 11.3273 64.606 11.8541 65.0682C12.1174 65.3123 12.4313 65.5042 12.7451 65.7091C13.0589 65.9141 13.3559 66.119 13.6529 66.3239C14.2301 66.773 14.7568 67.2745 15.3509 67.6712C15.6647 67.8762 15.9785 68.068 16.2923 68.273C16.6229 68.4648 16.9367 68.6567 17.2505 68.8354C17.6484 69.0796 18.0911 69.2453 18.5002 69.4371C18.7804 69.5636 19.0101 69.6421 19.1278 69.6944C19.3071 69.7729 19.4753 69.847 19.621 69.9255C20.002 70.1304 20.3943 70.2569 20.7922 70.4008C20.9883 70.4662 21.19 70.5272 21.3694 70.6057C21.5487 70.6711 21.7336 70.7452 21.9129 70.8237C22.3388 71.0286 22.8207 71.2466 23.2803 71.4254C23.7398 71.6173 24.1881 71.8091 24.5803 71.953C25.5666 72.3498 26.1942 72.5155 26.9676 72.7073C28.1388 72.9515 28.4526 73.7058 28.3685 73.9762C28.2845 74.2465 27.4607 74.7828 26.3568 74.5517C25.9421 74.4471 25.4826 74.3991 24.9726 74.3337C24.4627 74.2814 23.9191 74.1942 23.3419 74.0765C22.8824 73.9849 22.4845 73.8584 22.0754 73.7451C21.8625 73.6797 21.6495 73.6186 21.4142 73.5532C21.2012 73.4747 20.9547 73.4006 20.6913 73.3221C20.4615 73.2436 20.0132 73.1041 19.6546 72.9646C19.2903 72.812 18.9765 72.6943 18.9765 72.6943C18.7468 72.5896 18.517 72.4893 18.2816 72.3847C18.0519 72.28 17.8221 72.1667 17.5868 72.062C17.2057 71.8963 16.8303 71.7176 16.466 71.5213C16.1018 71.3295 15.7095 71.1376 15.3452 70.9327C14.9978 70.7278 14.6504 70.5098 14.3254 70.2787C13.9947 70.0476 13.6809 69.8034 13.3223 69.5854C12.661 69.1494 12.0222 68.661 11.3777 68.177C11.0471 67.9459 10.7501 67.7018 10.4531 67.4445C10.1561 67.2003 9.85911 66.9431 9.56211 66.6771C8.9681 66.1757 8.39091 65.6524 7.84734 65.0987C7.58396 64.8284 7.27015 64.5842 6.95633 64.3313C6.65933 64.074 6.34551 63.8168 6.09894 63.5246C5.63943 62.9622 5.32561 62.3212 4.92774 61.7413C4.7148 61.4579 4.51306 61.1657 4.30012 60.8692C4.08717 60.5727 3.87423 60.2806 3.70611 59.9841C3.32505 59.3824 3.14573 58.7153 2.83192 58.1136C2.68622 57.7909 2.45085 57.5118 2.23791 57.2153C2.02496 56.9188 1.82323 56.6267 1.69434 56.3171C1.44778 55.6631 1.51502 54.9567 1.33009 54.3289C1.21241 54.0062 1.06672 53.6879 0.904203 53.3783C0.820147 53.2126 0.741692 53.0557 0.674444 52.903C0.607199 52.7504 0.556768 52.5804 0.528749 52.4278C0.461502 52.0702 0.383045 51.7083 0.332611 51.3639H0.349422C0.3158 51.1589 0.298992 50.9671 0.248558 50.7622C0.130878 50.095 0.0860443 49.4148 0.0187988 48.7128C-0.0484467 48.0326 0.0860424 47.3394 0.0860424 46.6504C0.069231 46.3191 0.102852 45.9833 0.136475 45.6389C0.153286 45.2944 0.203724 44.9456 0.237349 44.6011C0.25416 44.4354 0.270969 44.2697 0.287781 44.0997C0.321404 43.9209 0.338219 43.7552 0.371843 43.5852C0.422277 43.2407 0.489519 42.905 0.551161 42.5605C0.618406 42.2291 0.668844 41.8803 0.747297 41.5489C0.82575 41.2176 0.892998 40.8687 0.993866 40.5374C1.17319 39.8702 1.13956 39.1508 1.39173 38.475C1.62149 37.8209 2.06979 37.2323 2.36119 36.6175C2.65819 35.9896 2.93839 35.3487 3.30264 34.7469C3.49877 34.4374 3.71732 34.1452 3.94707 33.8618C4.19364 33.5784 4.4234 33.2993 4.64195 33.0159C4.87171 32.7194 5.02301 32.4011 5.18552 32.0785C5.34803 31.7689 5.53296 31.4506 5.77953 31.1803C6.04291 30.9099 6.37353 30.6657 6.70415 30.4347C7.05159 30.2166 7.38222 29.9855 7.66241 29.7414C7.74647 29.676 7.79691 29.6149 7.85855 29.5495C7.92579 29.4841 7.99303 29.41 8.05468 29.3315C8.0883 29.2923 8.13874 29.253 8.17236 29.2181C8.33487 29.0132 8.5198 28.8344 8.69912 28.6426C8.87844 28.4638 9.06337 28.272 9.29312 28.1281C9.65737 27.8839 9.99921 27.6266 10.3803 27.4086C10.3803 27.4086 10.7781 27.2299 11.2713 26.9988C11.7812 26.7938 12.3752 26.5104 12.7731 26.3055C12.9524 26.2008 13.1205 26.1006 13.283 25.9828C13.6473 25.8433 14.0059 25.7125 14.3534 25.586C14.7793 25.4334 15.2108 25.3157 15.6198 25.1893C16.0345 25.0759 16.4436 24.9843 16.8415 24.8797C17.301 24.775 17.7325 24.6748 18.1416 24.557C18.5562 24.4524 18.9485 24.3783 19.3464 24.3259C20.3495 24.2126 21.2237 24.2344 21.9353 24.1602C22.4957 24.0818 22.9552 24.1864 23.2354 24.2649L23.2298 24.2692Z" fill="black"/>
<path d="M61.8344 79.3526C61.9016 79.1084 62.7422 78.607 63.4483 78.7247C63.9919 78.8032 65.2135 78.8904 65.9868 78.8642C66.5808 78.8642 66.9451 79.0038 67.3878 79.0169C67.6512 79.0169 67.8137 78.9907 68.0658 78.9907C68.2452 78.9907 68.7439 78.9515 69.2539 78.9122C69.747 78.873 70.2569 78.8076 70.4419 78.8076H70.935C71.3161 78.8076 71.6915 78.7814 72.0558 78.7422C72.4368 78.7029 72.7787 78.6506 73.1261 78.6637C73.3222 78.6637 73.5408 78.6768 73.7369 78.6637C73.821 78.6637 73.8826 78.6506 73.9667 78.6506C74.2805 78.6113 74.6111 78.5721 74.9361 78.5372C75.2499 78.4849 75.5974 78.4457 75.9224 78.3977C76.253 78.3585 76.5668 78.2843 76.8919 78.232C77.0544 78.2058 77.2225 78.1666 77.385 78.1404C77.5475 78.1012 77.7156 78.075 77.8781 78.0358C78.5058 77.9224 79.0998 77.639 79.7386 77.4864C80.3494 77.3338 81.0387 77.2946 81.6663 77.1027C81.9633 77.0111 82.2939 76.937 82.6078 76.8585C82.9384 76.78 83.269 76.7059 83.566 76.5882C83.863 76.4748 84.1264 76.2917 84.373 76.1129C84.6195 75.9211 84.8661 75.7292 85.1631 75.6115C85.7739 75.3542 86.48 75.254 87.0572 74.9705C87.3542 74.831 87.6512 74.7133 87.965 74.5868C88.2788 74.4604 88.5758 74.3427 88.856 74.1901C89.153 74.0244 89.3996 73.8456 89.6462 73.6494C89.8927 73.4532 90.1393 73.2788 90.4027 73.1087C90.9462 72.7642 91.5571 72.507 92.067 72.1451C92.3304 71.9794 92.577 71.7876 92.8403 71.6044C93.0869 71.4256 93.3503 71.2469 93.58 71.055C94.09 70.6713 94.4374 70.1961 94.8969 69.8124C95.1771 69.5682 94.9978 69.6728 95.2948 69.4548C95.5078 69.2891 95.7207 69.0973 95.9224 68.8923C96.1186 68.7005 96.3203 68.4956 96.5164 68.2775C96.7126 68.0726 96.9143 67.8546 97.1104 67.6366C97.4915 67.2136 97.8502 66.7776 98.2144 66.3285C98.3769 66.1105 98.5282 65.8794 98.6571 65.6352C98.7916 65.3911 98.9205 65.1469 99.083 64.9158C99.4136 64.4798 99.8899 64.083 100.187 63.6077C100.333 63.3766 100.501 63.1586 100.68 62.9275C100.859 62.7095 101.028 62.4784 101.156 62.2342C101.285 61.9901 101.319 61.7197 101.353 61.4537C101.369 61.1834 101.403 60.9131 101.515 60.6733C101.745 60.1718 102.193 59.7227 102.389 59.2257C102.585 58.7111 102.916 58.2272 103.067 57.7126C103.151 57.4554 103.168 57.1851 103.185 56.9191C103.202 56.6531 103.219 56.3915 103.269 56.1386C103.303 55.9991 103.336 55.8683 103.37 55.7418C103.404 55.6154 103.437 55.4846 103.471 55.3581C103.555 55.1009 103.616 54.8436 103.633 54.5907C103.684 54.0631 103.717 53.5399 103.717 53.0254C103.717 52.7027 103.65 52.3975 103.583 52.0879C103.532 51.883 103.482 51.7173 103.465 51.6388C103.448 51.5124 103.415 51.3946 103.398 51.2813C103.331 50.7057 103 50.2043 102.888 49.7159C102.742 49.0881 102.473 48.4209 102.227 47.9195C101.93 47.2785 101.633 46.9341 101.24 46.546C101.078 46.4065 100.977 46.2626 100.927 46.11C100.859 45.9705 100.843 45.8266 100.843 45.6871C100.843 45.4167 100.977 45.1725 101.089 45.0723C101.224 44.9589 101.515 44.8542 101.896 44.8542C102.075 44.8542 102.294 44.8804 102.49 44.9458C102.686 45.0243 102.888 45.1246 103.05 45.2772C103.544 45.7525 104.317 46.2146 104.928 46.9297C105.404 47.4922 105.667 47.9936 106.065 48.7392C106.166 48.9049 106.295 49.2276 106.396 49.4936C106.497 49.777 106.558 50.0081 106.558 50.0081C106.592 50.1868 106.643 50.3787 106.676 50.5575C106.71 50.7362 106.743 50.915 106.794 51.1069C106.861 51.4034 106.895 51.6955 106.928 52.0051C106.945 52.3146 106.979 52.6199 106.996 52.9294C107.029 53.5312 106.861 54.1329 106.816 54.7389C106.799 55.0354 106.766 55.3276 106.699 55.6241C106.665 55.7767 106.648 55.9206 106.615 56.0732C106.598 56.2258 106.564 56.3697 106.53 56.5223C106.48 56.8188 106.413 57.0978 106.334 57.3943C106.256 57.6908 106.172 57.9699 106.088 58.2664C105.925 58.8419 105.757 59.4219 105.544 59.9843C105.331 60.5468 105.348 61.166 105.085 61.7284C104.95 61.9988 104.788 62.243 104.608 62.4958C104.446 62.7531 104.261 62.9973 104.115 63.2502C103.835 63.7778 103.572 64.3141 103.258 64.8155C102.927 65.33 102.451 65.766 102.103 66.25C101.924 66.4942 101.806 66.7776 101.689 67.0436C101.554 67.327 101.442 67.593 101.246 67.8241C100.831 68.3124 100.176 68.6438 99.7442 69.0798C99.5145 69.3109 99.3632 69.5813 99.2007 69.8342C99.055 70.1045 98.8869 70.3617 98.6571 70.5667C98.3937 70.7978 98.164 71.0419 97.9006 71.26L97.8838 71.2469C97.7381 71.3733 97.5868 71.4911 97.4411 71.6306C96.9647 72.0666 96.438 72.4765 95.8944 72.9125C95.6479 73.1305 95.3508 73.3093 95.0538 73.488C94.7568 73.6668 94.4598 73.8587 94.1796 74.0505C93.6529 74.4473 93.0421 74.783 92.4481 75.1667C92.1511 75.3455 91.8541 75.5112 91.5571 75.6943C91.2432 75.86 90.9462 76.0388 90.6324 76.2088C90.3354 76.3745 90.0384 76.5402 89.7246 76.7103C89.4276 76.876 89.1138 77.0417 88.7832 77.1986C88.1555 77.5082 87.6288 77.966 86.9563 78.2625C86.6257 78.389 86.2783 78.4936 85.9364 78.5939C85.589 78.6986 85.2416 78.7858 84.9165 78.9035C84.5859 79.0299 84.2553 79.1477 83.9303 79.2741C83.6052 79.4006 83.269 79.5183 82.9272 79.6186C82.2323 79.8366 81.4926 79.902 80.8201 80.0808C80.1141 80.2464 79.5032 80.6432 78.7916 80.774C78.0687 80.9266 77.2729 80.7871 76.5837 80.8874C76.4996 80.9005 76.4211 80.9266 76.3371 80.9397C76.2362 80.9659 76.1578 80.9921 76.0569 81.0182C76.0065 81.0313 75.956 81.0313 75.9112 81.0444C75.4349 81.1708 74.9529 81.3278 74.4766 81.367C74.2805 81.3932 74.0787 81.4063 73.8826 81.4194C73.6865 81.4324 73.4847 81.4324 73.2886 81.4455C73.2886 81.4455 72.9075 81.4063 72.4312 81.3801C71.9549 81.3409 71.3777 81.3147 70.9798 81.3409C70.8173 81.354 70.6324 81.367 70.4531 81.3932C70.1224 81.367 69.7918 81.3539 69.4836 81.3278C69.0857 81.2885 68.7271 81.2493 68.3628 81.2144C67.9986 81.1752 67.6568 81.1229 67.3261 81.0749C66.9451 81.0226 66.5696 80.9964 66.2054 80.9702C65.8411 80.931 65.4993 80.8918 65.1855 80.8307C64.7708 80.7522 64.4122 80.6389 64.0647 80.5473C63.7173 80.4427 63.4035 80.3816 63.1065 80.3293C62.165 80.1767 61.7559 79.636 61.84 79.3439L61.8344 79.3526Z" fill="black"/>
<path d="M99.0436 43.4894C98.5841 43.6943 98.2535 43.7205 98.1358 43.6289C98.0182 43.5374 98.0013 43.2191 98.0686 42.8615C98.0854 42.6697 98.119 42.4647 98.2031 42.2598C98.2871 42.0549 98.3488 41.8238 98.5001 41.6189C98.6178 41.4793 98.7298 41.2482 98.8643 41.0041C98.9316 40.8776 98.9988 40.7468 99.0605 40.6073C99.1109 40.4677 99.1781 40.3239 99.2398 40.1712C99.307 40.0186 99.3575 39.8748 99.4191 39.7221C99.4695 39.5695 99.52 39.4256 99.5648 39.273C99.6657 38.9765 99.7609 38.6975 99.8114 38.4402C100.008 37.6597 100.305 37.1845 100.456 36.6089C100.54 36.2514 100.523 36.0334 100.59 35.6976C100.641 35.4665 100.708 34.7863 100.753 34.1061C100.786 33.4259 100.803 32.7327 100.837 32.4885C100.854 32.2705 100.87 32.0525 100.904 31.8344C100.938 31.5641 100.971 31.3068 100.971 31.054C100.955 30.7967 100.955 30.5394 100.955 30.2996C100.955 29.7982 100.904 29.3273 100.938 28.852C100.955 28.5817 100.971 28.3114 100.971 28.0323C100.971 27.9277 100.955 27.8274 100.955 27.7227C100.887 26.8376 100.775 25.9394 100.607 25.0194C100.506 24.5833 100.428 24.1473 100.327 23.6982C100.209 23.2622 100.08 22.8131 99.9627 22.364C99.8282 21.9279 99.6321 21.505 99.4527 21.0821C99.3687 20.8771 99.2734 20.6591 99.1557 20.4542C99.038 20.2362 98.9428 20.0312 98.8587 19.8132C98.6962 19.3903 98.5281 18.9673 98.3656 18.5444C98.2647 18.3394 98.1863 18.1214 98.1022 17.9034C98.0182 17.6854 97.8893 17.4805 97.7716 17.2755C97.3289 16.4689 96.8806 15.6492 96.3034 14.8512C95.9896 14.4806 95.6141 14.1449 95.2162 13.8135C94.8184 13.4821 94.3757 13.1856 94.045 12.8281C93.6976 12.4575 93.367 12.0956 93.0251 11.7249C92.8626 11.5462 92.6945 11.3543 92.5152 11.1755C92.3359 10.9968 92.1173 10.8311 91.9212 10.6741C91.7251 10.5084 91.5065 10.3427 91.3104 10.1727C91.1142 10.0026 90.9125 9.82823 90.6996 9.67126C90.2737 9.3486 89.8422 9.04338 89.3995 8.74689C88.9232 8.46347 88.3964 8.24546 87.8977 8.00128C87.6343 7.88792 87.4045 7.75711 87.1411 7.65682C86.8946 7.54346 86.6312 7.43881 86.3846 7.32544C86.1212 7.21208 85.8747 7.08127 85.6281 6.95482L85.2639 6.76297C85.1462 6.69757 85.0173 6.6496 84.8828 6.5842C84.3729 6.35311 83.8629 6.12201 83.3361 5.91708C83.0728 5.80371 82.7926 5.71215 82.5124 5.62058C82.2322 5.52902 81.9688 5.44181 81.6886 5.35025C81.1282 5.17148 80.6015 4.97963 80.0411 4.83574C79.4471 4.67005 78.8531 4.55232 78.2759 4.42587C77.6819 4.32123 77.1047 4.22094 76.5443 4.09449C75.8382 3.9288 76.1969 4.04217 75.5244 3.87648C74.9808 3.77184 74.4541 3.65847 73.8937 3.5669C73.3333 3.46226 72.7561 3.40121 72.1789 3.30965C71.6017 3.23116 71.0077 3.14396 70.4137 3.09163C69.8365 3.02623 69.2593 2.96519 68.6822 2.91286C68.105 2.87362 67.511 2.83438 66.9169 2.7995C66.3398 2.74717 65.7457 2.78642 65.1686 2.78642C64.8884 2.78642 64.5914 2.7995 64.2944 2.7995C63.9974 2.7995 63.7004 2.81258 63.4034 2.81258C62.843 2.81258 62.249 2.76026 61.6718 2.74717C61.0946 2.73409 60.5006 2.72101 59.9066 2.73409C58.7522 2.81258 57.5642 2.76026 56.3986 2.89978C56.1016 2.93903 55.8214 2.97827 55.5412 3.03931C55.261 3.10036 54.9808 3.17884 54.7006 3.25732C54.1402 3.42301 53.5799 3.55382 53.0195 3.66719C52.4255 3.77184 51.8315 3.80672 51.2375 3.8852C50.6435 3.96369 50.0663 4.03781 49.4891 4.15554C48.9119 4.29507 48.3179 4.41279 47.7407 4.52616C47.1635 4.63953 46.6031 4.79649 46.0427 4.9491L45.6168 5.07555L45.2021 5.22816C44.922 5.33281 44.6586 5.44617 44.3952 5.55082C43.8684 5.76883 43.3585 6.01301 42.8317 6.20486C42.5515 6.3095 42.2882 6.39671 42.008 6.50136C41.7446 6.606 41.4644 6.70629 41.201 6.81093C40.9376 6.9025 40.6574 7.00278 40.3941 7.10743C40.1475 7.2208 39.8841 7.33852 39.6376 7.45189C39.3742 7.56526 39.1276 7.69606 38.8642 7.80943C38.6008 7.93588 38.3543 8.06669 38.1077 8.19313C37.6146 8.45039 37.1214 8.69456 36.6563 8.97362C36.3593 9.13931 36.0791 9.31808 35.7989 9.50121C35.5187 9.67998 35.2722 9.87183 35.0088 10.0637C34.6782 10.3209 34.398 10.5259 34.2691 10.6262C34.073 10.7788 33.8544 10.9357 33.6583 11.0753C33.1651 11.4066 32.7505 11.7947 32.3414 12.1653C31.9155 12.5359 31.5681 12.9197 31.1534 13.2554C31.0357 13.36 30.9068 13.4603 30.7723 13.578C30.6546 13.6914 30.5257 13.8091 30.4081 13.9225C30.1615 14.1536 29.8981 14.3847 29.6684 14.6158C29.4386 14.86 29.2257 15.0911 29.0071 15.3091C28.9062 15.4137 28.7942 15.5271 28.6933 15.6317C28.6092 15.7451 28.514 15.8497 28.4299 15.9544C28.217 16.2247 28.0152 16.4558 27.8359 16.6738C27.6734 16.9049 27.5389 17.1099 27.3932 17.3148C27.2587 17.5197 27.1298 17.7116 26.9953 17.9034C26.8777 18.1084 26.7824 18.3133 26.6647 18.5182C26.3173 19.1461 25.9586 19.569 25.5776 19.8263C25.1965 20.0836 24.8379 20.1708 24.6698 20.1359C24.4904 20.0966 24.2551 19.8525 24.143 19.4688C24.0309 19.0851 23.9973 18.5182 24.3223 17.9165C24.44 17.6723 24.5521 17.4282 24.6529 17.1709C24.7706 16.9136 24.8827 16.6564 25.0172 16.3773C25.2469 15.8149 25.5776 15.2349 25.9586 14.6071C26.2724 14.1187 26.6199 13.7089 26.9617 13.2598C27.326 12.8237 27.7182 12.3877 28.2002 11.8514C28.4299 11.6072 28.8614 11.1843 29.2369 10.8267C29.4162 10.648 29.6179 10.4953 29.7468 10.3776C29.8757 10.2599 29.9598 10.1858 29.9598 10.1858C30.2231 9.98084 30.5033 9.74975 30.7835 9.54481C31.0637 9.33988 31.3607 9.12187 31.6409 8.90386C32.0836 8.54632 32.5992 8.23674 33.0923 7.90536C33.5854 7.5609 34.1122 7.2644 34.6389 6.94174C35.1321 6.61908 35.6757 6.36619 36.236 6.10893C36.5162 5.98248 36.7964 5.8386 37.0766 5.71215C37.3568 5.59878 37.637 5.46797 37.9172 5.32845C38.1974 5.202 38.4607 5.07119 38.7409 4.94474C39.0211 4.83138 39.3181 4.71365 39.5983 4.60028C39.8785 4.48692 40.1755 4.36919 40.4557 4.25582C40.7359 4.14246 41.0329 4.03781 41.3299 3.92444C41.9071 3.70643 42.4843 3.47534 43.0783 3.29657C43.3753 3.19192 43.6723 3.10472 43.9693 3.00007L44.412 2.86054L44.8715 2.73409C45.4655 2.5684 46.0595 2.37655 46.6703 2.2065C47.2812 2.05389 47.9088 1.88384 48.514 1.73124C49.1248 1.60479 49.7188 1.42166 50.324 1.24289C50.9349 1.0772 51.5457 0.920228 52.1845 0.806861C52.7953 0.693494 53.4342 0.654252 54.045 0.601929C54.3588 0.575768 54.6558 0.549606 54.9696 0.523445C55.2834 0.497283 55.5972 0.471121 55.8942 0.44496C57.1327 0.305432 58.3655 0.174624 59.5872 0.1005C60.8368 0.0612574 62.0752 0.126661 63.2969 0.152823C63.6107 0.152823 63.9245 0.139742 64.2383 0.11358C64.5521 0.1005 64.866 0.0743382 65.1798 0.0612574C65.7906 0.0220151 66.4182 -0.030308 67.0234 0.0220151C67.6511 0.0743382 68.2619 0.174624 68.8671 0.292351C69.4779 0.405718 70.0719 0.549606 70.6659 0.61501C70.9797 0.654252 71.2935 0.680414 71.6073 0.693494C71.9212 0.706575 72.235 0.732737 72.5488 0.745818C73.1764 0.78506 73.7872 0.798141 74.3756 0.911507C75.0369 1.03795 75.6757 1.15568 76.3202 1.28213V1.29521C76.6844 1.36061 77.0262 1.4609 77.3905 1.53938C78.0013 1.66583 78.6121 1.79664 79.2173 1.94925C79.8282 2.11494 80.439 2.28063 81.061 2.4376C81.655 2.57712 82.2322 2.8213 82.8262 3.02623C83.1232 3.13088 83.4202 3.24424 83.7172 3.34889C84.0142 3.45354 84.3112 3.55382 84.6082 3.67155C85.1854 3.88956 85.7626 4.12066 86.3398 4.35175C86.4855 4.41715 86.62 4.46512 86.7657 4.53052L87.1804 4.73545C87.4606 4.8619 87.7407 5.00579 88.0209 5.13223C88.2843 5.25868 88.5645 5.38949 88.8447 5.51594C89.1081 5.64238 89.3715 5.81243 89.6348 5.95196C90.1616 6.24846 90.7052 6.52752 91.2319 6.85018C91.7251 7.17283 92.2182 7.49113 92.7337 7.81379C92.9803 7.9664 93.2269 8.14517 93.4566 8.3283C93.6864 8.50707 93.933 8.68584 94.1627 8.86897C94.3925 9.0521 94.6559 9.20035 94.8856 9.38348C95.1154 9.56225 95.3451 9.72794 95.5917 9.91107C96.068 10.2686 96.578 10.6174 96.959 11.0404C97.3401 11.4502 97.7155 11.847 98.0294 12.2831C98.3432 12.7191 98.657 13.142 98.9876 13.5519C99.6321 14.4109 100.305 15.2567 100.798 16.1419C100.932 16.3599 101.061 16.591 101.179 16.8221C101.28 17.0663 101.375 17.2973 101.476 17.5284C101.672 17.9906 101.89 18.4528 102.053 18.915C102.232 19.3903 102.529 19.8263 102.759 20.2885C102.989 20.7376 103.218 21.1998 103.37 21.662C103.504 22.1503 103.532 22.6474 103.583 23.1357C103.633 23.6241 103.616 24.1081 103.717 24.5703C103.734 24.6836 103.768 24.7883 103.801 24.9016C103.835 25.015 103.869 25.1458 103.902 25.2723C103.919 25.3377 103.919 25.4118 103.936 25.4772C104.037 25.7998 104.132 26.1312 104.216 26.4495C104.3 26.7809 104.35 27.1036 104.362 27.4219C104.378 27.6791 104.395 27.9495 104.412 28.2023V28.9698C104.412 28.9698 104.412 29.0831 104.378 29.2924C104.362 29.4973 104.328 29.7808 104.278 30.086C104.194 30.7008 104.098 31.4595 104.065 31.9827C104.065 32.2269 104.065 32.458 104.081 32.7021C104.014 33.1382 103.919 33.5742 103.835 33.984C103.734 34.4986 103.588 34.9825 103.471 35.4578C103.336 35.9331 103.174 36.3953 103.045 36.8313C102.865 37.3458 102.714 37.8298 102.568 38.3051C102.406 38.7803 102.271 39.2294 102.042 39.6393C101.515 40.6901 100.837 41.5491 100.377 42.2947C99.9963 42.8833 99.4864 43.2801 99.0268 43.5112L99.0436 43.4894Z" fill="black"/>
<path d="M25.27 44.48H32.04V45.39C32.04 46.3567 31.8833 47.2567 31.57 48.09C31.2567 48.9167 30.8033 49.6433 30.21 50.27C29.6233 50.89 28.9167 51.3733 28.09 51.72C27.2633 52.0667 26.3367 52.24 25.31 52.24C24.25 52.24 23.2933 52.0667 22.44 51.72C21.5933 51.3733 20.8667 50.89 20.26 50.27C19.6533 49.6433 19.1867 48.9167 18.86 48.09C18.54 47.2567 18.38 46.3567 18.38 45.39C18.38 44.43 18.54 43.5367 18.86 42.71C19.1867 41.8767 19.6533 41.15 20.26 40.53C20.8667 39.91 21.5933 39.4267 22.44 39.08C23.2933 38.7333 24.25 38.56 25.31 38.56C26.27 38.56 27.1 38.6633 27.8 38.87C28.5 39.0767 29.09 39.3467 29.57 39.68C30.05 40.0067 30.4433 40.36 30.75 40.74C31.0567 41.1133 31.3 41.4667 31.48 41.8L27.76 43.48C27.5733 43.16 27.2967 42.86 26.93 42.58C26.57 42.3 26.03 42.16 25.31 42.16C24.8767 42.16 24.48 42.2467 24.12 42.42C23.7667 42.5867 23.4633 42.82 23.21 43.12C22.9567 43.4133 22.76 43.7567 22.62 44.15C22.4867 44.5367 22.42 44.95 22.42 45.39C22.42 45.8367 22.4867 46.2567 22.62 46.65C22.76 47.0367 22.9567 47.38 23.21 47.68C23.4633 47.9733 23.7667 48.2033 24.12 48.37C24.48 48.5367 24.8767 48.62 25.31 48.62C25.6567 48.62 25.9667 48.5967 26.24 48.55C26.52 48.4967 26.7567 48.42 26.95 48.32C27.15 48.2133 27.3067 48.0833 27.42 47.93C27.54 47.77 27.6167 47.5867 27.65 47.38H25.27V44.48ZM37.3419 45.39C37.3419 45.9833 37.4619 46.5267 37.7019 47.02C37.9419 47.5067 38.2785 47.8967 38.7119 48.19C39.1452 48.4767 39.6519 48.62 40.2319 48.62C40.8185 48.62 41.3285 48.4767 41.7619 48.19C42.1952 47.8967 42.5319 47.5067 42.7719 47.02C43.0119 46.5267 43.1319 45.9833 43.1319 45.39C43.1319 44.7967 43.0119 44.2567 42.7719 43.77C42.5319 43.2833 42.1952 42.8933 41.7619 42.6C41.3285 42.3067 40.8185 42.16 40.2319 42.16C39.6519 42.16 39.1452 42.3067 38.7119 42.6C38.2785 42.8933 37.9419 43.2833 37.7019 43.77C37.4619 44.2567 37.3419 44.7967 37.3419 45.39ZM33.3019 45.39C33.3019 44.43 33.4752 43.5367 33.8219 42.71C34.1752 41.8767 34.6652 41.15 35.2919 40.53C35.9185 39.91 36.6519 39.4267 37.4919 39.08C38.3385 38.7333 39.2519 38.56 40.2319 38.56C41.2319 38.56 42.1519 38.7333 42.9919 39.08C43.8385 39.4267 44.5719 39.91 45.1919 40.53C45.8185 41.15 46.3019 41.8767 46.6419 42.71C46.9885 43.5367 47.1619 44.43 47.1619 45.39C47.1619 46.3567 46.9952 47.2567 46.6619 48.09C46.3285 48.9167 45.8519 49.6433 45.2319 50.27C44.6185 50.89 43.8885 51.3733 43.0419 51.72C42.1952 52.0667 41.2585 52.24 40.2319 52.24C39.1785 52.24 38.2252 52.0667 37.3719 51.72C36.5252 51.3733 35.7985 50.89 35.1919 50.27C34.5852 49.6433 34.1185 48.9167 33.7919 48.09C33.4652 47.2567 33.3019 46.3567 33.3019 45.39ZM52.4591 45.39C52.4591 45.9833 52.5791 46.5267 52.8191 47.02C53.0591 47.5067 53.3957 47.8967 53.8291 48.19C54.2624 48.4767 54.7691 48.62 55.3491 48.62C55.9357 48.62 56.4457 48.4767 56.8791 48.19C57.3124 47.8967 57.6491 47.5067 57.8891 47.02C58.1291 46.5267 58.2491 45.9833 58.2491 45.39C58.2491 44.7967 58.1291 44.2567 57.8891 43.77C57.6491 43.2833 57.3124 42.8933 56.8791 42.6C56.4457 42.3067 55.9357 42.16 55.3491 42.16C54.7691 42.16 54.2624 42.3067 53.8291 42.6C53.3957 42.8933 53.0591 43.2833 52.8191 43.77C52.5791 44.2567 52.4591 44.7967 52.4591 45.39ZM48.4191 45.39C48.4191 44.43 48.5924 43.5367 48.9391 42.71C49.2924 41.8767 49.7824 41.15 50.4091 40.53C51.0357 39.91 51.7691 39.4267 52.6091 39.08C53.4557 38.7333 54.3691 38.56 55.3491 38.56C56.3491 38.56 57.2691 38.7333 58.1091 39.08C58.9557 39.4267 59.6891 39.91 60.3091 40.53C60.9357 41.15 61.4191 41.8767 61.7591 42.71C62.1057 43.5367 62.2791 44.43 62.2791 45.39C62.2791 46.3567 62.1124 47.2567 61.7791 48.09C61.4457 48.9167 60.9691 49.6433 60.3491 50.27C59.7357 50.89 59.0057 51.3733 58.1591 51.72C57.3124 52.0667 56.3757 52.24 55.3491 52.24C54.2957 52.24 53.3424 52.0667 52.4891 51.72C51.6424 51.3733 50.9157 50.89 50.3091 50.27C49.7024 49.6433 49.2357 48.9167 48.9091 48.09C48.5824 47.2567 48.4191 46.3567 48.4191 45.39ZM63.8763 38.8H68.4362C69.8429 38.8 71.0129 39.0833 71.9463 39.65C72.8863 40.21 73.5929 40.9867 74.0663 41.98C74.5396 42.9733 74.7763 44.11 74.7763 45.39C74.7763 46.6767 74.5396 47.8167 74.0663 48.81C73.5929 49.8033 72.8863 50.5833 71.9463 51.15C71.0129 51.7167 69.8429 52 68.4362 52H63.8763V38.8ZM67.7463 42.21V48.59H68.0863C68.6396 48.59 69.1063 48.45 69.4863 48.17C69.8663 47.89 70.1563 47.51 70.3563 47.03C70.5563 46.5433 70.6563 46.0033 70.6563 45.41C70.6563 44.81 70.5563 44.27 70.3563 43.79C70.1629 43.3033 69.8729 42.92 69.4863 42.64C69.1063 42.3533 68.6396 42.21 68.0863 42.21H67.7463ZM78.4381 52.24C77.8515 52.24 77.3481 52.03 76.9281 51.61C76.5081 51.19 76.2981 50.6867 76.2981 50.1C76.2981 49.5067 76.5081 49 76.9281 48.58C77.3481 48.16 77.8515 47.95 78.4381 47.95C79.0315 47.95 79.5381 48.16 79.9581 48.58C80.3781 49 80.5881 49.5067 80.5881 50.1C80.5881 50.6867 80.3781 51.19 79.9581 51.61C79.5381 52.03 79.0315 52.24 78.4381 52.24ZM84.4147 52.24C83.828 52.24 83.3247 52.03 82.9047 51.61C82.4847 51.19 82.2747 50.6867 82.2747 50.1C82.2747 49.5067 82.4847 49 82.9047 48.58C83.3247 48.16 83.828 47.95 84.4147 47.95C85.008 47.95 85.5147 48.16 85.9347 48.58C86.3547 49 86.5647 49.5067 86.5647 50.1C86.5647 50.6867 86.3547 51.19 85.9347 51.61C85.5147 52.03 85.008 52.24 84.4147 52.24ZM90.3913 52.24C89.8046 52.24 89.3013 52.03 88.8813 51.61C88.4613 51.19 88.2513 50.6867 88.2513 50.1C88.2513 49.5067 88.4613 49 88.8813 48.58C89.3013 48.16 89.8046 47.95 90.3913 47.95C90.9846 47.95 91.4913 48.16 91.9113 48.58C92.3313 49 92.5413 49.5067 92.5413 50.1C92.5413 50.6867 92.3313 51.19 91.9113 51.61C91.4913 52.03 90.9846 52.24 90.3913 52.24Z" fill="#3068E3"/>
</svg>
