<svg width="160" height="159" viewBox="0 0 160 159" fill="none" xmlns="http://www.w3.org/2000/svg">
<path d="M40.804 128.331C37.6021 143.793 34.7251 151.259 29.7058 156.503C33.5959 154.13 41.6083 148.088 51.2139 134.492L53.8511 136.723C62.6756 157.515 123.836 154.059 133.758 122.598C133.758 122.598 134.044 118.96 133.905 115.298C183.542 82.0965 148.229 21.9342 108.492 23.6109C107.409 21.3489 105.893 18.826 103.851 16.5641C73.7042 -13.9085 -15.3367 0.999583 7.60215 70.2808C5.42118 73.2466 3.86667 76.3468 3.86667 76.3468C-3.26403 92.9791 8.93239 126.971 40.8117 128.331H40.804Z" fill="white"/>
<path d="M134.741 116.744C136.079 115.811 137.409 114.83 138.376 113.636C138.902 113.446 139.381 113.256 139.83 113.051C140.263 112.829 140.665 112.584 141.036 112.299C141.408 112.015 141.756 111.698 142.08 111.311C142.398 110.915 142.684 110.449 142.962 109.911C145.019 107.823 147.262 105.925 149.242 103.702C151.222 101.504 152.97 99.0125 153.89 96.1021C155.677 93.4368 156.891 90.4789 157.804 87.4657C158.716 84.4366 159.343 81.3522 160 78.157C159.613 75.5629 159.706 73.0716 159.644 70.5329C159.59 68.0021 159.358 65.4238 158.345 63.0591C158.144 61.1293 157.757 59.1521 157.1 57.2619C156.798 56.3049 156.396 55.3875 155.978 54.4859C155.77 54.0351 155.522 53.6001 155.282 53.1731C155.043 52.746 154.795 52.3189 154.517 51.9156C154.223 51.5122 153.998 51.0693 153.805 50.6106C153.596 50.1519 153.418 49.6853 153.225 49.2187C153.125 48.9893 153.032 48.7599 152.923 48.5306C152.807 48.3091 152.684 48.1035 152.552 47.8979C152.282 47.4945 151.957 47.1307 151.547 46.8539C150.178 44.5525 149.211 42.5278 147.154 40.7009C146.798 39.91 146.203 39.0163 145.507 38.257C144.795 37.5215 143.983 36.9284 143.194 36.7781C142.289 35.1963 140.766 33.8123 139.142 32.5627C137.502 31.3289 135.8 30.1821 134.424 28.9642C133.913 28.7981 133.534 28.7032 133.225 28.632C132.916 28.5529 132.684 28.4897 132.475 28.4027C132.258 28.3157 132.065 28.1891 131.825 28.0072C131.578 27.8253 131.284 27.5801 130.889 27.2242C130.596 27.1452 130.302 27.0503 130 26.9316C129.691 26.8288 129.381 26.7023 129.072 26.5678C128.763 26.4334 128.445 26.2831 128.136 26.1249C127.819 25.9746 127.502 25.8244 127.185 25.6662C126.868 25.508 126.558 25.3419 126.249 25.1759C125.94 25.0177 125.63 24.8595 125.336 24.7092C124.741 24.4008 124.184 24.1003 123.674 23.8709C123.248 24.0686 122.599 23.9658 121.941 23.7602C121.276 23.5546 120.619 23.1749 120.178 22.7716C119.575 22.7716 118.94 22.7479 118.322 22.6925C117.695 22.6609 117.084 22.6055 116.52 22.4869C114.331 22.6925 113.055 22.0914 110.835 21.6485C109.899 21.4034 108.84 21.6327 107.835 21.8383C106.821 22.1152 105.855 22.3603 104.996 22.3761C104.138 22.7637 103.813 23.5229 103.882 24.2426C103.96 24.9702 104.385 25.4685 105.367 25.4369C105.615 25.4606 105.878 25.4448 106.164 25.4369C106.442 25.4369 106.744 25.4131 107.046 25.3815C107.347 25.3499 107.649 25.3103 107.951 25.2549C108.252 25.2154 108.554 25.1759 108.84 25.1284C109.884 25.0335 110.913 25.0335 111.934 25.0335C112.947 25.081 113.96 25.1284 114.957 25.2945C116.953 25.595 118.925 26.1249 120.835 27.074C121.539 27.1926 122.227 27.4061 122.931 27.5801C123.627 27.7779 124.323 28.023 125.019 28.2524C125.7 28.5213 126.396 28.7823 127.077 29.0828C127.749 29.3992 128.438 29.6839 129.095 30.0477C131.756 31.408 134.261 33.0689 136.566 34.7851C137.811 36.2957 139.312 37.6164 140.828 38.9767C142.336 40.3291 143.929 41.6499 145.275 43.0735C145.654 43.4057 145.909 43.7932 146.133 44.1807C146.357 44.5762 146.543 44.9716 146.736 45.3591C147.108 46.1579 147.572 46.8697 148.538 47.455C148.592 47.977 148.77 48.412 148.995 48.8153C149.219 49.2266 149.505 49.5904 149.807 49.9542C150.116 50.3101 150.41 50.6818 150.681 51.0693C150.944 51.4648 151.191 51.8681 151.299 52.3426C151.516 52.9358 151.817 53.5052 152.111 54.0668C152.405 54.6283 152.738 55.1661 153.07 55.6406C153.271 57.8234 152.97 57.3647 154.254 59.1838C154.393 61.3745 154.903 63.4308 155.445 65.5266C155.971 67.6145 156.504 69.742 156.698 71.8616C156.829 74.4003 156.659 76.8441 156.303 79.2405C155.947 81.6369 155.437 83.9937 154.841 86.4375C154.285 88.2645 153.674 89.9807 152.97 91.6573C152.212 93.3024 151.361 94.9158 150.108 96.3552C149.899 96.6557 149.698 96.9721 149.49 97.2884C149.273 97.5969 149.056 97.9132 148.848 98.2375C148.639 98.5617 148.422 98.8939 148.213 99.2182L147.533 100.183C147.301 100.499 147.077 100.824 146.845 101.14C146.597 101.441 146.357 101.741 146.11 102.034C145.862 102.326 145.615 102.603 145.36 102.88C145.104 103.149 144.834 103.386 144.563 103.623C144.501 104.478 144.014 105.34 143.318 106.043C142.978 106.399 142.599 106.739 142.22 107.04C141.833 107.333 141.431 107.578 141.075 107.791C138.623 109.539 136.334 111.429 133.921 113.193C131.516 114.957 129.041 116.657 126.326 117.867C124.695 119.196 125.576 119.892 127.015 120.082C127.734 120.177 128.592 120.137 129.319 120.003C130.039 119.852 130.619 119.583 130.804 119.267C131.4 118.856 132.073 118.484 132.73 118.057C133.395 117.63 134.084 117.195 134.772 116.76L134.741 116.744Z" fill="black"/>
<path d="M2.83108 39.4122C2.88521 40.6143 2.96257 41.1442 2.9703 41.6662C2.9703 42.1882 2.81561 42.6785 2.44438 43.7937C2.52945 44.458 2.54494 45.1856 2.514 45.9369C2.47533 46.6883 2.46758 47.4713 2.39798 48.2542C2.32064 49.0372 2.28197 49.8044 2.22783 50.5478C2.17369 51.2833 2.09636 51.9793 2.08862 52.5962C2.42118 52.9521 2.59906 53.6639 2.63773 54.4231C2.66093 55.1903 2.62226 56.0128 2.39798 56.6138C2.78467 57.8713 3.26418 59.2554 3.44206 60.4971C4.39334 62.6957 4.27733 64.2379 4.53255 66.6818C4.54802 66.9427 4.59442 67.2037 4.64856 67.4647C4.71816 67.7257 4.80325 67.9788 4.90379 68.2398C5.10487 68.7539 5.34462 69.2679 5.59984 69.7741C6.07935 70.7864 6.65166 71.7276 6.83728 72.6529C7.40959 73.4833 8.21392 73.689 8.89451 73.4754C9.58283 73.254 9.95405 72.6925 9.67562 71.6089C9.59055 71.0553 9.39722 70.4226 9.15746 69.7741C8.93318 69.1256 8.67794 68.4612 8.41499 67.8602C8.22937 67.2986 8.01284 66.745 7.85042 66.1835C7.68801 65.622 7.52559 65.0684 7.36318 64.5147C7.02289 63.4154 6.7986 62.2924 6.56659 61.1772C6.51245 60.9004 6.45058 60.6157 6.40418 60.3389L6.28815 59.4926C6.21855 58.9232 6.14894 58.3538 6.0948 57.7843C6.03293 57.2149 6.04067 56.6297 6.0252 56.0444C6.0252 55.4591 6.00973 54.8739 6.0484 54.2807C5.49929 51.133 5.40648 47.7876 5.6849 44.4975C5.97106 41.1996 6.65939 37.9728 7.60293 34.9753C7.85042 34.5087 8.13657 34.0579 8.36859 33.5755C8.60834 33.1009 8.83263 32.6106 9.08012 32.1361C9.31987 31.6536 9.53643 31.1554 9.76071 30.6571C10.0082 30.1668 10.2402 29.6764 10.4645 29.1703C11.4158 27.1931 12.3748 25.1605 13.5426 23.3889C13.7978 22.9065 14.1536 22.5506 14.5016 22.2105C14.8574 21.8862 15.2054 21.5778 15.5844 21.2931C16.3268 20.7157 16.9688 20.0672 17.4251 18.9442C18.4459 18.5883 19.1343 17.8765 19.7916 17.0856C20.1165 16.6901 20.4645 16.3105 20.828 15.9546C21.1915 15.5987 21.5859 15.2745 22.0577 15.0688C22.6377 14.7288 23.1868 14.3017 23.7437 13.8904C24.2928 13.4792 24.8032 13.0284 25.2673 12.6013C26.3887 12.2928 26.8373 12.2454 27.224 12.0556C27.6184 11.8737 27.9432 11.5652 28.8171 10.7348C31.0909 10.1891 33.2023 9.27168 35.3369 8.30681C37.4792 7.36566 39.6292 6.36915 41.8257 5.68108C44.4861 4.96929 47.0925 4.5264 49.6988 4.18632C52.3129 3.83833 54.9192 3.57734 57.6416 3.30844C58.6779 3.26889 59.6911 3.22935 60.6965 3.18981C61.6942 3.17399 62.6841 3.12654 63.6741 3.15817C64.169 3.16608 64.6563 3.1819 65.1512 3.20563C65.6462 3.24517 66.1412 3.28471 66.6361 3.34007C67.6261 3.43498 68.6238 3.64061 69.6292 3.87787C72.7769 4.36822 76.5124 4.60548 79.4126 5.6969C81.0754 4.9772 83.5967 6.02116 85.159 6.93068C88.0979 8.36217 91.0368 9.63549 93.8674 11.1461C96.6826 12.6567 99.4126 14.4124 101.586 16.7376C103.427 17.9714 103.806 16.9037 103.411 15.3615C103.311 14.9818 103.179 14.5548 102.993 14.1672C102.808 13.7797 102.591 13.3922 102.359 13.0442C101.911 12.3403 101.377 11.8658 100.99 11.7867C100.666 11.5494 100.325 11.3122 99.985 11.067C99.6369 10.8297 99.2811 10.5766 98.9254 10.3315C98.2216 9.80948 97.4482 9.35077 96.698 8.86043C95.9246 8.40171 95.1358 7.96673 94.3392 7.59502C93.5271 7.25494 92.7382 6.92277 91.9262 6.74086C91.4621 6.33751 91.029 5.97371 90.5959 5.65736C90.1551 5.34891 89.7142 5.08792 89.2579 4.87438C88.8016 4.65294 88.3144 4.47895 87.7808 4.37613C87.2471 4.26541 86.6748 4.20214 86.0329 4.19423C83.0012 3.27681 80.0391 2.17748 76.9687 1.3866C73.9061 0.595716 70.7506 0.10537 67.5565 0.469175C64.2 -0.0686242 60.8589 -0.0686222 57.5565 0.0974629C54.2464 0.271457 50.9594 0.611534 47.5565 0.825072C45.0275 1.88485 42.4444 2.40683 39.8458 3.02372C37.2549 3.64061 34.6331 4.3524 32.3284 5.82344C30.3562 6.38497 28.3608 7.13631 26.4738 8.14863C24.5789 9.12933 22.8001 10.3789 21.2301 11.8025C20.8512 12.19 20.4181 12.5064 19.9618 12.799C19.5055 13.0916 19.0492 13.3922 18.5929 13.6848C17.6725 14.2621 16.8527 14.966 16.381 15.9388C15.8319 16.4292 15.3214 16.8958 14.8032 17.3387C14.2851 17.7816 13.821 18.264 13.3415 18.7227C12.862 19.1814 12.4289 19.7034 12.0036 20.2491C11.7947 20.5259 11.5782 20.8027 11.3771 21.1033C11.1838 21.4117 10.9981 21.7281 10.8203 22.0602C10.4645 22.3608 10.0623 22.7167 9.71431 23.1358C9.35855 23.555 9.01052 24.0216 8.70116 24.4961C8.38407 24.9707 8.16751 25.4927 7.98963 25.9751C7.82722 26.4734 7.7112 26.94 7.74214 27.3829C7.10795 28.1263 6.47378 28.9884 6.00974 29.977C5.76999 30.4673 5.52251 30.9656 5.31369 31.4954C5.11261 32.0253 4.91926 32.5631 4.73364 33.1009C4.53256 33.6387 4.39333 34.1924 4.23092 34.7381C4.07624 35.2838 3.89064 35.8216 3.75916 36.3594C3.48847 37.435 3.14045 38.4552 2.82336 39.4201L2.83108 39.4122Z" fill="black"/>
<path d="M52.8929 138.256C52.9702 138.644 53.1868 139.063 53.4342 139.474C53.7127 139.862 54.022 140.257 54.3546 140.566C55.3987 141.823 56.5433 142.835 57.6956 143.816C58.848 144.797 60.0236 145.722 61.2378 146.798C63.2177 147.612 65.2517 148.364 67.3012 148.996C69.3507 149.629 71.4234 150.143 73.4342 150.444C74.6871 151.1 76.1179 151.345 77.5642 151.385C79.0104 151.44 80.4644 151.266 81.8178 151.163C82.5061 151.037 83.0939 151.298 83.6894 151.464C84.285 151.614 84.8959 151.693 85.5997 151.171C86.2417 151.646 86.8913 151.551 87.5409 151.369C88.1829 151.195 88.8248 150.942 89.4822 151.108C90.3484 151.187 91.2764 150.997 92.0421 150.697C93.527 151.179 93.2177 151.361 94.6098 150.562C96.1334 150.95 97.6492 150.744 99.1187 150.333C100.588 149.93 102.011 149.305 103.419 148.862C105.128 148.411 106.783 148.008 108.415 147.51C110.039 147.003 111.648 146.402 113.21 145.548C115.708 144.481 117.649 142.986 120.24 142.045C122.127 141.048 123.844 139.237 125.592 138.13C125.623 137.41 125.971 136.785 126.466 136.295C126.945 135.781 127.564 135.377 128.09 135.061C129.822 133.725 131.145 131.929 132.204 130.023C133.28 128.109 134.099 126.093 135.004 124.107C135.143 122.541 134.037 122.613 132.993 123.079C131.965 123.562 130.905 124.376 131.083 124.89C130.921 125.317 130.735 125.76 130.511 126.195C130.271 126.63 130.031 127.081 129.776 127.516C129.266 128.402 128.763 129.296 128.469 130.26C128.129 130.434 127.835 130.601 127.572 130.775C127.309 130.949 127.061 131.115 126.868 131.328C126.474 131.755 126.187 132.269 126.017 133.1C124.849 134.563 123.28 135.607 121.74 136.611C120.186 137.616 118.662 138.588 117.363 140.075C115.499 140.858 113.782 141.776 111.996 142.59C110.209 143.397 108.368 144.085 106.365 144.338C105.066 145.414 103.512 145.778 101.957 146.023C100.403 146.284 98.8402 146.434 97.3631 147.146C94.9037 147.051 92.4056 147.217 90.0236 147.913C88.8093 148.348 87.4713 147.391 86.3499 148.245C84.6485 148.213 83.3182 147.771 81.5936 148.142C80.5649 147.66 79.0104 147.351 78.0669 148.158C77.015 147.557 75.7699 147.383 74.4938 147.217C73.2331 147.035 71.9416 146.861 70.9362 146.276C70.2401 146.402 69.9153 146.489 69.6137 146.474C69.3198 146.458 69.0491 146.307 68.5154 145.872C68.121 145.896 67.7111 145.849 67.309 145.722C66.8991 145.604 66.4891 145.445 66.0947 145.232C65.7003 145.034 65.3213 144.805 64.981 144.56C64.633 144.322 64.3236 144.093 64.0529 143.879C63.411 144.275 62.3902 143.595 62.1581 142.764C61.4311 142.63 60.6423 142.361 60.1086 141.926C58.7707 141.562 58.3917 140.605 57.8349 139.403C57.7807 139.269 57.7111 139.15 57.6183 139.039C57.541 138.921 57.4482 138.818 57.3476 138.715C57.1388 138.517 56.8913 138.335 56.6593 138.146C56.1721 137.774 55.7157 137.355 55.592 136.856C55.1434 136.508 54.3855 136.54 53.7204 136.801C53.0475 137.062 52.6608 137.513 52.9083 138.272L52.8929 138.256Z" fill="black"/>
<path d="M0 85.7487C0.340294 89.197 0.556826 92.8509 1.40756 96.1093C1.30702 96.7024 1.3689 97.2798 1.46945 97.865C1.56999 98.4424 1.7324 99.0197 1.97989 99.5733C2.21191 100.127 2.47486 100.665 2.75328 101.195C3.04717 101.709 3.34104 102.215 3.6272 102.705C3.95203 103.188 3.92882 103.725 3.9907 104.24C4.05257 104.754 4.19952 105.252 4.88784 105.568C4.69449 106.248 5.01159 106.699 5.38282 107.11C5.56844 107.316 5.76951 107.514 5.93192 107.727C6.10207 107.941 6.24129 108.17 6.27996 108.455C6.4037 108.795 6.58159 109.127 6.7904 109.42C6.89868 109.57 7.00693 109.712 7.13068 109.839C7.25442 109.966 7.39364 110.084 7.52512 110.187C7.63339 111.524 7.37817 111.381 8.53826 112.061C8.78575 113.374 9.47407 114.458 10.3789 115.344C11.2374 116.269 12.3202 116.981 13.1864 117.819C15.2127 119.883 17.0766 121.924 19.6442 123.308C20.5568 123.925 21.4772 124.439 22.413 124.889C22.877 125.127 23.3256 125.38 23.7741 125.672C24.2304 125.941 24.679 126.234 25.1198 126.598C25.4911 126.811 25.8932 127.009 26.3109 127.175C26.7362 127.325 27.1771 127.46 27.6102 127.594C28.0433 127.737 28.4764 127.871 28.8863 128.037C29.3039 128.172 29.7061 128.33 30.0773 128.528C30.5955 128.116 31.1601 128.069 31.7014 128.203C32.2428 128.322 32.7765 128.575 33.1941 128.852C33.5885 129.034 33.9984 129.192 34.4083 129.326C34.8182 129.461 35.2359 129.524 35.6612 129.603C36.0789 129.674 36.5042 129.73 36.9296 129.777L37.5638 129.84C37.7726 129.856 37.9891 129.856 38.198 129.864C38.5228 129.864 38.8476 129.88 39.1724 129.88C39.1106 130.101 39.041 130.323 38.9791 130.544C38.6311 131.651 38.2598 132.727 38.2366 132.822C38.167 133.004 37.7184 136.65 37.1075 136.911C36.6976 137.101 35.4833 140.628 35.7772 141.474C35.8236 141.664 35.29 143.76 34.5475 145.745C33.8205 147.738 32.8847 149.597 32.761 149.66C32.6527 149.699 32.4671 150.016 32.2351 150.474C32.0108 150.933 31.6937 151.487 31.423 152.064C31.1136 152.618 30.8198 153.171 30.58 153.575C30.3325 153.97 30.1701 154.239 30.1701 154.239L29.9072 154.634L29.621 155.014L29.5437 155.117C29.3194 155.291 29.1338 155.433 29.0023 155.536C28.8708 155.639 28.7935 155.694 28.7935 155.694C28.4686 155.9 28.1516 156.137 27.8267 156.327C27.5096 156.525 27.1539 156.738 26.8755 156.881L27.6643 159C28.1361 158.834 28.4919 158.692 28.8786 158.518C28.8786 158.518 28.9714 158.47 29.1338 158.391C29.2884 158.304 29.5127 158.186 29.7757 158.043C30.3093 157.774 30.959 157.403 31.6009 157.126C32.9234 156.548 35.1972 154.84 36.3263 153.931C36.9218 153.504 37.556 152.95 38.198 152.42C38.515 152.151 38.8244 151.89 39.1183 151.645C39.3967 151.384 39.6597 151.147 39.8994 150.933C39.9381 150.894 40.4253 150.783 41.0982 149.818C41.57 149.146 42.5058 148.236 43.3952 147.437C43.8437 147.042 44.2459 146.647 44.563 146.314C44.8801 145.982 45.1044 145.713 45.1662 145.547C45.3132 145.16 45.7618 144.646 46.2954 144.092C46.8136 143.523 47.3936 142.898 47.8344 142.336C48.2753 141.767 48.6156 141.166 49.01 140.581C49.3812 139.979 49.7989 139.402 50.4099 138.888C51.0286 138.366 51.5622 137.599 52.0108 136.855C52.4362 136.096 52.7764 135.369 53.0549 134.934C53.6504 133.977 54.3619 132.869 54.8259 132.055C55.2822 131.232 56.2335 129.524 56.5661 128.931C56.7981 128.52 57.1152 128.013 56.8136 127.436C56.6434 127.112 55.8855 126.661 55.6612 126.756C55.3518 126.89 54.8801 127.112 54.6248 127.444C54.3155 127.847 53.2405 129.295 52.6604 130.22C52.4903 130.497 52.2041 130.615 52.1887 130.782C52.15 131.066 51.276 132.221 50.3944 133.32C49.9535 133.874 49.5127 134.412 49.1647 134.823C48.8089 135.218 48.5614 135.503 48.515 135.543C48.43 135.63 47.8112 136.618 47.1152 137.607C46.4346 138.603 45.6148 139.521 45.2668 139.56C45.0193 139.576 44.1376 140.438 43.2792 141.411C42.3975 142.36 41.57 143.436 41.4849 143.966C41.4694 144.021 41.3611 144.195 41.16 144.44C40.959 144.685 40.6805 145.009 40.348 145.397C40.0154 145.777 39.6287 146.212 39.2188 146.67C38.8089 147.137 38.3372 147.588 37.8809 148.054C37.5406 148.402 37.2003 148.742 36.86 149.067C37.1384 148.474 37.4246 147.904 37.6179 147.445C37.6334 147.398 38.0046 147.161 38.1438 146.188C38.2521 145.508 38.6543 144.511 39.0564 143.602C39.4277 142.692 39.7757 141.87 39.737 141.577C39.6365 140.889 40.3635 139.41 40.6264 138.271C40.7579 137.702 40.7888 137.124 40.8662 136.555C40.9358 135.986 41.0518 135.408 41.3843 134.839C42.0495 133.66 41.918 131.857 42.0649 131.027C42.1191 130.687 42.1732 130.331 42.2273 129.975C42.5754 129.991 42.9234 130.022 43.2714 130.062C44.4315 129.682 44.1067 128.638 43.4648 127.784C43.2173 127.452 42.9234 127.151 42.6372 126.922C42.7068 126.313 42.7764 125.712 42.8074 125.411C42.8538 125.032 42.9466 124.549 42.4439 124.186C42.1655 123.98 41.2993 123.838 41.1291 123.964C40.8971 124.154 40.5645 124.454 40.464 124.787C40.3789 125.063 40.1624 125.839 39.9768 126.582C39.7138 126.558 39.4431 126.534 39.1724 126.511C38.7625 126.479 38.3449 126.479 37.935 126.495C37.5251 126.495 37.1229 126.542 36.7285 126.653C36.2335 126.242 35.8159 125.933 35.3673 125.823C34.9188 125.688 34.4393 125.728 33.7973 126.028C33.4261 125.981 33.0626 125.91 32.7068 125.823C32.3433 125.744 32.0031 125.585 31.655 125.451C31.307 125.309 30.9667 125.158 30.6342 125.008C30.2939 124.858 29.9536 124.715 29.6287 124.534C28.9714 124.193 28.3062 123.893 27.6102 123.671C26.9296 123.403 26.2103 123.229 25.406 123.189C24.7486 122.715 24.099 122.256 23.4184 121.868C23.0781 121.678 22.7533 121.457 22.4284 121.251L21.4462 120.627C20.1547 119.772 18.9095 118.815 17.9659 117.479C17.2854 117.329 16.7595 116.981 16.2799 116.569C15.8082 116.158 15.3751 115.699 15.0116 115.177C14.6403 114.663 14.2614 114.165 13.8592 113.683C13.4648 113.192 13.024 112.749 12.4594 112.401C12.2506 111.951 12.0727 111.476 11.8407 111.033C11.6241 110.582 11.3612 110.171 11.1137 109.736C10.6264 108.874 9.98451 108.115 9.31166 107.387C8.92496 107.047 8.80896 106.517 8.66975 106.027C8.53827 105.529 8.36812 105.07 7.79581 104.841C7.50965 104.216 7.39365 103.599 7.2003 103.014C7.1075 102.721 6.99147 102.436 6.84452 102.152C6.70531 101.867 6.54291 101.582 6.31862 101.297C6.37276 100.823 6.31861 100.269 6.14073 99.7948C5.97832 99.3124 5.66123 98.9011 5.12759 98.7034C5.17399 98.4503 5.18946 98.2051 5.18173 97.96C5.18173 97.7148 5.16626 97.4617 5.12759 97.2086C5.05798 96.7104 4.91104 96.2121 4.76409 95.7138C4.52434 94.7094 4.19178 93.6971 4.37739 92.748C3.68134 91.799 3.46479 91.9176 3.85149 90.8183C3.51893 90.2568 3.4184 89.5212 3.49574 88.8015C3.52667 88.4377 3.5808 88.0818 3.63494 87.7497C3.69681 87.4096 3.79736 87.1012 3.85923 86.8243C3.25598 86.4843 3.372 85.4798 4.00618 85.0132C3.8051 84.4201 3.61948 83.732 3.74323 83.1705C3.57308 82.6089 3.60401 82.1581 3.78189 81.739C3.9675 81.3198 4.26912 80.9323 4.57074 80.4498C4.8569 80.0544 4.86465 79.5482 4.82598 79.0104C4.77184 78.4726 4.79505 77.9586 5.05027 77.6027C4.96519 77.0965 4.40835 76.5982 3.76643 76.2819C3.11678 75.9655 2.5522 75.926 2.24284 76.4638C2.04176 76.7011 1.88708 77.0253 1.76334 77.3812C1.65506 77.7371 1.60865 78.1246 1.58545 78.4884C1.04407 80.9955 0.873918 83.2417 0.0541197 85.7487H0Z" fill="black"/>
<path d="M31.44 70.64L32.02 70.74V90H24.28V63.6H34.74L43.36 82.8L42.78 82.92V63.6H50.52V90H40L31.44 70.64ZM54.5963 63.6H62.3363V90H54.5963V63.6ZM81.0522 82.8C81.9855 82.8 82.8855 82.6533 83.7522 82.36C84.6322 82.0667 85.3122 81.7733 85.7922 81.48L89.0922 88.04C88.4522 88.5733 87.3655 89.1133 85.8322 89.66C84.2989 90.2067 82.4922 90.48 80.4122 90.48C78.4655 90.48 76.6255 90.1467 74.8922 89.48C73.1589 88.8 71.6189 87.8467 70.2722 86.62C68.9389 85.3933 67.8922 83.9533 67.1322 82.3C66.3722 80.6333 65.9922 78.8133 65.9922 76.84C65.9922 74.8667 66.3722 73.0467 67.1322 71.38C67.8922 69.7 68.9389 68.2467 70.2722 67.02C71.6055 65.78 73.1389 64.82 74.8722 64.14C76.6189 63.46 78.4655 63.12 80.4122 63.12C82.4922 63.12 84.2989 63.3933 85.8322 63.94C87.3655 64.4867 88.4522 65.0267 89.0922 65.56L85.7922 72.12C85.3122 71.8267 84.6322 71.5333 83.7522 71.24C82.8855 70.9467 81.9855 70.8 81.0522 70.8C79.7855 70.8 78.7255 70.98 77.8722 71.34C77.0189 71.7 76.3322 72.18 75.8122 72.78C75.3055 73.3667 74.9389 74.0133 74.7122 74.72C74.4989 75.4133 74.3922 76.1 74.3922 76.78C74.3922 77.4733 74.4989 78.1733 74.7122 78.88C74.9389 79.5867 75.3055 80.24 75.8122 80.84C76.3322 81.4267 77.0189 81.9 77.8722 82.26C78.7255 82.62 79.7855 82.8 81.0522 82.8ZM92.405 63.6H110.125V70.32H100.145V73.52H110.125V80.02H100.145V83.28H110.125V90H92.405V63.6ZM115.866 80.5L114.306 62.48H122.686L121.146 80.5H115.866ZM118.486 90.48C117.712 90.48 116.999 90.2867 116.346 89.9C115.706 89.5133 115.186 89 114.786 88.36C114.399 87.7067 114.206 86.9867 114.206 86.2C114.206 85.0133 114.626 84 115.466 83.16C116.306 82.3067 117.312 81.88 118.486 81.88C119.686 81.88 120.706 82.3067 121.546 83.16C122.386 84 122.806 85.0133 122.806 86.2C122.806 87.3733 122.386 88.38 121.546 89.22C120.706 90.06 119.686 90.48 118.486 90.48ZM127.819 80.5L126.259 62.48H134.639L133.099 80.5H127.819ZM130.439 90.48C129.665 90.48 128.952 90.2867 128.299 89.9C127.659 89.5133 127.139 89 126.739 88.36C126.352 87.7067 126.159 86.9867 126.159 86.2C126.159 85.0133 126.579 84 127.419 83.16C128.259 82.3067 129.265 81.88 130.439 81.88C131.639 81.88 132.659 82.3067 133.499 83.16C134.339 84 134.759 85.0133 134.759 86.2C134.759 87.3733 134.339 88.38 133.499 89.22C132.659 90.06 131.639 90.48 130.439 90.48Z" fill="#3068E3"/>
</svg>
