<svg width="160" height="159" viewBox="0 0 160 159" fill="none" xmlns="http://www.w3.org/2000/svg">
<path d="M119.196 128.331C122.398 143.793 125.275 151.259 130.294 156.503C126.404 154.13 118.392 148.088 108.786 134.492L106.149 136.723C97.3244 157.515 36.1643 154.059 26.2417 122.598C26.2417 122.598 25.9555 118.96 26.0947 115.298C-23.5417 82.0965 11.7715 21.9342 51.5085 23.6109C52.5912 21.3489 54.1071 18.826 56.1489 16.5641C86.2958 -13.9085 175.337 0.999583 152.398 70.2808C154.579 73.2466 156.133 76.3468 156.133 76.3468C163.264 92.9791 151.068 126.971 119.188 128.331H119.196Z" fill="white"/>
<path d="M25.2591 116.744C23.9211 115.811 22.5909 114.83 21.6241 113.636C21.0982 113.446 20.6187 113.256 20.1701 113.051C19.737 112.829 19.3349 112.584 18.9636 112.299C18.5924 112.015 18.2444 111.698 17.9196 111.311C17.6025 110.915 17.3163 110.449 17.0379 109.911C14.9807 107.823 12.7378 105.925 10.7579 103.702C8.77805 101.504 7.03017 99.0125 6.10983 96.1021C4.32329 93.4368 3.10906 90.4789 2.19646 87.4657C1.28385 84.4366 0.65738 81.3522 -5.47556e-06 78.157C0.386692 75.5629 0.293901 73.0716 0.355773 70.5329C0.409911 68.0021 0.641923 65.4238 1.65507 63.0591C1.85615 61.1293 2.24286 59.1521 2.90025 57.2619C3.20187 56.3049 3.60402 55.3875 4.02166 54.4859C4.23047 54.0351 4.47795 53.6001 4.71771 53.1731C4.95746 52.746 5.20496 52.3189 5.48338 51.9156C5.77727 51.5122 6.00154 51.0693 6.19489 50.6106C6.40371 50.1519 6.58159 49.6853 6.77494 49.2187C6.87548 48.9893 6.9683 48.7599 7.07657 48.5306C7.19258 48.3091 7.31631 48.1035 7.44779 47.8979C7.71847 47.4945 8.04331 47.1307 8.45321 46.8539C9.82212 44.5525 10.7889 42.5278 12.8461 40.7009C13.2019 39.91 13.7974 39.0163 14.4934 38.257C15.2049 37.5215 16.017 36.9284 16.8059 36.7781C17.7107 35.1963 19.2343 33.8123 20.8585 32.5627C22.4981 31.3289 24.1995 30.1821 25.5762 28.9642C26.0866 28.7981 26.4656 28.7032 26.7749 28.632C27.0843 28.5529 27.3163 28.4897 27.5251 28.4027C27.7417 28.3157 27.935 28.1891 28.1748 28.0072C28.4223 27.8253 28.7161 27.5801 29.1106 27.2242C29.4045 27.1452 29.6984 27.0503 30 26.9316C30.3093 26.8288 30.6187 26.7023 30.9281 26.5678C31.2374 26.4334 31.5545 26.2831 31.8639 26.1249C32.181 25.9746 32.4981 25.8244 32.8151 25.6662C33.1322 25.508 33.4416 25.3419 33.7509 25.1759C34.0603 25.0177 34.3697 24.8595 34.6635 24.7092C35.2591 24.4008 35.8159 24.1003 36.3264 23.8709C36.7517 24.0686 37.4014 23.9658 38.0588 23.7602C38.7239 23.5546 39.3813 23.1749 39.8221 22.7716C40.4253 22.7716 41.0595 22.7479 41.6782 22.6925C42.3047 22.6609 42.9157 22.6055 43.4803 22.4869C45.669 22.6925 46.9451 22.0914 49.1647 21.6485C50.1005 21.4034 51.1601 21.6327 52.1655 21.8383C53.1786 22.1152 54.1454 22.3603 55.0038 22.3761C55.8623 22.7637 56.1871 23.5229 56.1175 24.2426C56.0402 24.9702 55.6148 25.4685 54.6326 25.4369C54.3851 25.4606 54.1222 25.4448 53.836 25.4369C53.5576 25.4369 53.256 25.4131 52.9543 25.3815C52.6527 25.3499 52.3511 25.3103 52.0495 25.2549C51.7478 25.2154 51.4462 25.1759 51.1601 25.1284C50.116 25.0335 49.0874 25.0335 48.0665 25.0335C47.0533 25.081 46.0402 25.1284 45.0425 25.2945C43.0472 25.595 41.075 26.1249 39.1647 27.074C38.4609 27.1926 37.7726 27.4061 37.0688 27.5801C36.3728 27.7779 35.6767 28.023 34.9806 28.2524C34.3001 28.5213 33.604 28.7823 32.9234 29.0828C32.2506 29.3992 31.5622 29.6839 30.9049 30.0477C28.2444 31.408 25.7386 33.0689 23.4339 34.7851C22.1887 36.2957 20.6883 37.6164 19.1725 38.9767C17.6643 40.3291 16.0711 41.6499 14.7254 43.0735C14.3465 43.4057 14.0913 43.7932 13.867 44.1807C13.6427 44.5762 13.4571 44.9716 13.2637 45.3591C12.8925 46.1579 12.4284 46.8697 11.4617 47.455C11.4076 47.977 11.2297 48.412 11.0054 48.8153C10.7811 49.2266 10.495 49.5904 10.1934 49.9542C9.88399 50.3101 9.5901 50.6818 9.31941 51.0693C9.05646 51.4648 8.80898 51.8681 8.7007 52.3426C8.48415 52.9358 8.18252 53.5052 7.88863 54.0668C7.59474 54.6283 7.26218 55.1661 6.92962 55.6406C6.72854 57.8234 7.03017 57.3647 5.74633 59.1838C5.60712 61.3745 5.09668 63.4308 4.5553 65.5266C4.02939 67.6145 3.49575 69.742 3.3024 71.8616C3.17093 74.4003 3.34108 76.8441 3.69684 79.2405C4.05261 81.6369 4.56303 83.9937 5.15855 86.4375C5.71539 88.2645 6.32638 89.9807 7.03017 91.6573C7.7881 93.3024 8.63882 94.9158 9.89172 96.3552C10.1005 96.6557 10.3016 96.9721 10.5104 97.2884C10.727 97.5969 10.9435 97.9132 11.1524 98.2375C11.3612 98.5617 11.5777 98.8939 11.7865 99.2182L12.4671 100.183C12.6992 100.499 12.9234 100.824 13.1554 101.14C13.4029 101.441 13.6427 101.741 13.8902 102.034C14.1377 102.326 14.3851 102.603 14.6404 102.88C14.8956 103.149 15.1663 103.386 15.437 103.623C15.4988 104.478 15.9861 105.34 16.6821 106.043C17.0224 106.399 17.4014 106.739 17.7804 107.04C18.167 107.333 18.5692 107.578 18.925 107.791C21.3766 109.539 23.6659 111.429 26.0789 113.193C28.4841 114.957 30.959 116.657 33.6736 117.867C35.3055 119.196 34.4238 119.892 32.9853 120.082C32.266 120.177 31.4076 120.137 30.6806 120.003C29.9613 119.852 29.3813 119.583 29.1957 119.267C28.6001 118.856 27.9273 118.484 27.2699 118.057C26.6048 117.63 25.9165 117.195 25.2281 116.76L25.2591 116.744Z" fill="black"/>
<path d="M157.169 39.4122C157.115 40.6143 157.037 41.1442 157.03 41.6662C157.03 42.1882 157.184 42.6785 157.556 43.7937C157.471 44.458 157.455 45.1856 157.486 45.9369C157.525 46.6883 157.532 47.4713 157.602 48.2542C157.679 49.0372 157.718 49.8044 157.772 50.5478C157.826 51.2833 157.904 51.9793 157.911 52.5962C157.579 52.9521 157.401 53.6639 157.362 54.4231C157.339 55.1903 157.378 56.0128 157.602 56.6138C157.215 57.8713 156.736 59.2554 156.558 60.4971C155.607 62.6957 155.723 64.2379 155.467 66.6818C155.452 66.9427 155.406 67.2037 155.351 67.4647C155.282 67.7257 155.197 67.9788 155.096 68.2398C154.895 68.7539 154.655 69.2679 154.4 69.7741C153.921 70.7864 153.348 71.7276 153.163 72.6529C152.59 73.4833 151.786 73.689 151.105 73.4754C150.417 73.254 150.046 72.6925 150.324 71.6089C150.409 71.0553 150.603 70.4226 150.843 69.7741C151.067 69.1256 151.322 68.4612 151.585 67.8602C151.771 67.2986 151.987 66.745 152.15 66.1835C152.312 65.622 152.474 65.0684 152.637 64.5147C152.977 63.4154 153.201 62.2924 153.433 61.1772C153.488 60.9004 153.549 60.6157 153.596 60.3389L153.712 59.4926C153.781 58.9232 153.851 58.3538 153.905 57.7843C153.967 57.2149 153.959 56.6297 153.975 56.0444C153.975 55.4591 153.99 54.8739 153.952 54.2807C154.501 51.133 154.594 47.7876 154.315 44.4975C154.029 41.1996 153.341 37.9728 152.397 34.9753C152.15 34.5087 151.863 34.0579 151.631 33.5755C151.392 33.1009 151.167 32.6106 150.92 32.1361C150.68 31.6536 150.464 31.1554 150.239 30.6571C149.992 30.1668 149.76 29.6764 149.535 29.1703C148.584 27.1931 147.625 25.1605 146.457 23.3889C146.202 22.9065 145.846 22.5506 145.498 22.2105C145.143 21.8862 144.795 21.5778 144.416 21.2931C143.673 20.7157 143.031 20.0672 142.575 18.9442C141.554 18.5883 140.866 17.8765 140.208 17.0856C139.884 16.6901 139.536 16.3105 139.172 15.9546C138.809 15.5987 138.414 15.2745 137.942 15.0688C137.362 14.7288 136.813 14.3017 136.256 13.8904C135.707 13.4792 135.197 13.0284 134.733 12.6013C133.611 12.2928 133.163 12.2454 132.776 12.0556C132.382 11.8737 132.057 11.5652 131.183 10.7348C128.909 10.1891 126.798 9.27168 124.663 8.30681C122.521 7.36566 120.371 6.36915 118.174 5.68108C115.514 4.96929 112.908 4.5264 110.301 4.18632C107.687 3.83833 105.081 3.57734 102.358 3.30844C101.322 3.26889 100.309 3.22935 99.3035 3.18981C98.3058 3.17399 97.3159 3.12654 96.3259 3.15817C95.831 3.16608 95.3437 3.1819 94.8488 3.20563C94.3538 3.24517 93.8588 3.28471 93.3639 3.34007C92.3739 3.43498 91.3762 3.64061 90.3708 3.87787C87.2231 4.36822 83.4876 4.60548 80.5874 5.6969C78.9246 4.9772 76.4033 6.02116 74.841 6.93068C71.9021 8.36217 68.9632 9.63549 66.1326 11.1461C63.3174 12.6567 60.5874 14.4124 58.4141 16.7376C56.5735 17.9714 56.1945 16.9037 56.5889 15.3615C56.6895 14.9818 56.8209 14.5548 57.0066 14.1672C57.1922 13.7797 57.4087 13.3922 57.6407 13.0442C58.0893 12.3403 58.6229 11.8658 59.0096 11.7867C59.3345 11.5494 59.6748 11.3122 60.015 11.067C60.3631 10.8297 60.7189 10.5766 61.0746 10.3315C61.7784 9.80948 62.5518 9.35077 63.302 8.86043C64.0754 8.40171 64.8642 7.96673 65.6608 7.59502C66.4729 7.25494 67.2618 6.92277 68.0738 6.74086C68.5379 6.33751 68.971 5.97371 69.4041 5.65736C69.8449 5.34891 70.2858 5.08792 70.7421 4.87438C71.1984 4.65294 71.6856 4.47895 72.2192 4.37613C72.7529 4.26541 73.3252 4.20214 73.9671 4.19423C76.9988 3.27681 79.9609 2.17748 83.0313 1.3866C86.0939 0.595716 89.2494 0.10537 92.4435 0.469175C95.8 -0.0686242 99.1411 -0.0686222 102.443 0.0974629C105.754 0.271457 109.041 0.611534 112.443 0.825072C114.972 1.88485 117.556 2.40683 120.154 3.02372C122.745 3.64061 125.367 4.3524 127.672 5.82344C129.644 6.38497 131.639 7.13631 133.526 8.14863C135.421 9.12933 137.2 10.3789 138.77 11.8025C139.149 12.19 139.582 12.5064 140.038 12.799C140.495 13.0916 140.951 13.3922 141.407 13.6848C142.327 14.2621 143.147 14.966 143.619 15.9388C144.168 16.4292 144.679 16.8958 145.197 17.3387C145.715 17.7816 146.179 18.264 146.658 18.7227C147.138 19.1814 147.571 19.7034 147.996 20.2491C148.205 20.5259 148.422 20.8027 148.623 21.1033C148.816 21.4117 149.002 21.7281 149.18 22.0602C149.536 22.3608 149.938 22.7167 150.286 23.1358C150.641 23.555 150.989 24.0216 151.299 24.4961C151.616 24.9707 151.832 25.4927 152.01 25.9751C152.173 26.4734 152.289 26.94 152.258 27.3829C152.892 28.1263 153.526 28.9884 153.99 29.977C154.23 30.4673 154.477 30.9656 154.686 31.4954C154.887 32.0253 155.081 32.5631 155.266 33.1009C155.467 33.6387 155.607 34.1924 155.769 34.7381C155.924 35.2838 156.109 35.8216 156.241 36.3594C156.512 37.435 156.86 38.4552 157.177 39.4201L157.169 39.4122Z" fill="black"/>
<path d="M107.107 138.256C107.03 138.644 106.813 139.063 106.566 139.474C106.287 139.862 105.978 140.257 105.645 140.566C104.601 141.823 103.457 142.835 102.304 143.816C101.152 144.797 99.9764 145.722 98.7622 146.798C96.7823 147.612 94.7483 148.364 92.6988 148.996C90.6493 149.629 88.5766 150.143 86.5658 150.444C85.3129 151.1 83.8821 151.345 82.4358 151.385C80.9896 151.44 79.5356 151.266 78.1822 151.163C77.4939 151.037 76.9061 151.298 76.3106 151.464C75.715 151.614 75.1041 151.693 74.4003 151.171C73.7583 151.646 73.1087 151.551 72.4591 151.369C71.8171 151.195 71.1752 150.942 70.5178 151.108C69.6516 151.187 68.7236 150.997 67.9579 150.697C66.473 151.179 66.7823 151.361 65.3902 150.562C63.8666 150.95 62.3508 150.744 60.8813 150.333C59.4119 149.93 57.9889 149.305 56.5813 148.862C54.8721 148.411 53.217 148.008 51.5851 147.51C49.961 147.003 48.3523 146.402 46.7901 145.548C44.292 144.481 42.3508 142.986 39.7599 142.045C37.8729 141.048 36.1559 139.237 34.408 138.13C34.3771 137.41 34.0291 136.785 33.5341 136.295C33.0546 135.781 32.4359 135.377 31.91 135.061C30.1776 133.725 28.8551 131.929 27.7955 130.023C26.7205 128.109 25.9007 126.093 24.9958 124.107C24.8566 122.541 25.9626 122.613 27.0066 123.079C28.0353 123.562 29.0948 124.376 28.9169 124.89C29.0793 125.317 29.2649 125.76 29.4892 126.195C29.729 126.63 29.9687 127.081 30.224 127.516C30.7344 128.402 31.2371 129.296 31.531 130.26C31.8713 130.434 32.1652 130.601 32.4281 130.775C32.6911 130.949 32.9386 131.115 33.1319 131.328C33.5264 131.755 33.8125 132.269 33.9827 133.1C35.1505 134.563 36.7205 135.607 38.2595 136.611C39.8141 137.616 41.3376 138.588 42.6369 140.075C44.5008 140.858 46.2178 141.776 48.0043 142.59C49.7908 143.397 51.6315 144.085 53.6346 144.338C54.9339 145.414 56.4884 145.778 58.043 146.023C59.5975 146.284 61.1598 146.434 62.6369 147.146C65.0963 147.051 67.5944 147.217 69.9764 147.913C71.1907 148.348 72.5287 147.391 73.6501 148.245C75.3515 148.213 76.6818 147.771 78.4064 148.142C79.4351 147.66 80.9896 147.351 81.9331 148.158C82.985 147.557 84.2301 147.383 85.5062 147.217C86.7669 147.035 88.0584 146.861 89.0638 146.276C89.7599 146.402 90.0847 146.489 90.3863 146.474C90.6802 146.458 90.9509 146.307 91.4846 145.872C91.879 145.896 92.2889 145.849 92.691 145.722C93.1009 145.604 93.5109 145.445 93.9053 145.232C94.2997 145.034 94.6787 144.805 95.019 144.56C95.367 144.322 95.6764 144.093 95.9471 143.879C96.589 144.275 97.6098 143.595 97.8419 142.764C98.5689 142.63 99.3577 142.361 99.8914 141.926C101.229 141.562 101.608 140.605 102.165 139.403C102.219 139.269 102.289 139.15 102.382 139.039C102.459 138.921 102.552 138.818 102.652 138.715C102.861 138.517 103.109 138.335 103.341 138.146C103.828 137.774 104.284 137.355 104.408 136.856C104.857 136.508 105.614 136.54 106.28 136.801C106.952 137.062 107.339 137.513 107.092 138.272L107.107 138.256Z" fill="black"/>
<path d="M160 85.7487C159.66 89.197 159.443 92.8509 158.592 96.1093C158.693 96.7024 158.631 97.2798 158.531 97.865C158.43 98.4424 158.268 99.0197 158.02 99.5733C157.788 100.127 157.525 100.665 157.247 101.195C156.953 101.709 156.659 102.215 156.373 102.705C156.048 103.188 156.071 103.725 156.009 104.24C155.947 104.754 155.8 105.252 155.112 105.568C155.306 106.248 154.988 106.699 154.617 107.11C154.432 107.316 154.23 107.514 154.068 107.727C153.898 107.941 153.759 108.17 153.72 108.455C153.596 108.795 153.418 109.127 153.21 109.42C153.101 109.57 152.993 109.712 152.869 109.839C152.746 109.966 152.606 110.084 152.475 110.187C152.367 111.524 152.622 111.381 151.462 112.061C151.214 113.374 150.526 114.458 149.621 115.344C148.763 116.269 147.68 116.981 146.814 117.819C144.787 119.883 142.923 121.924 140.356 123.308C139.443 123.925 138.523 124.439 137.587 124.889C137.123 125.127 136.674 125.38 136.226 125.672C135.77 125.941 135.321 126.234 134.88 126.598C134.509 126.811 134.107 127.009 133.689 127.175C133.264 127.325 132.823 127.46 132.39 127.594C131.957 127.737 131.524 127.871 131.114 128.037C130.696 128.172 130.294 128.33 129.923 128.528C129.405 128.116 128.84 128.069 128.299 128.203C127.757 128.322 127.224 128.575 126.806 128.852C126.411 129.034 126.002 129.192 125.592 129.326C125.182 129.461 124.764 129.524 124.339 129.603C123.921 129.674 123.496 129.73 123.07 129.777L122.436 129.84C122.227 129.856 122.011 129.856 121.802 129.864C121.477 129.864 121.152 129.88 120.828 129.88C120.889 130.101 120.959 130.323 121.021 130.544C121.369 131.651 121.74 132.727 121.763 132.822C121.833 133.004 122.282 136.65 122.893 136.911C123.302 137.101 124.517 140.628 124.223 141.474C124.176 141.664 124.71 143.76 125.452 145.745C126.179 147.738 127.115 149.597 127.239 149.66C127.347 149.699 127.533 150.016 127.765 150.474C127.989 150.933 128.306 151.487 128.577 152.064C128.886 152.618 129.18 153.171 129.42 153.575C129.667 153.97 129.83 154.239 129.83 154.239L130.093 154.634L130.379 155.014L130.456 155.117C130.681 155.291 130.866 155.433 130.998 155.536C131.129 155.639 131.207 155.694 131.207 155.694C131.531 155.9 131.848 156.137 132.173 156.327C132.49 156.525 132.846 156.738 133.125 156.881L132.336 159C131.864 158.834 131.508 158.692 131.121 158.518C131.121 158.518 131.029 158.47 130.866 158.391C130.712 158.304 130.487 158.186 130.224 158.043C129.691 157.774 129.041 157.403 128.399 157.126C127.077 156.548 124.803 154.84 123.674 153.931C123.078 153.504 122.444 152.95 121.802 152.42C121.485 152.151 121.176 151.89 120.882 151.645C120.603 151.384 120.34 151.147 120.101 150.933C120.062 150.894 119.575 150.783 118.902 149.818C118.43 149.146 117.494 148.236 116.605 147.437C116.156 147.042 115.754 146.647 115.437 146.314C115.12 145.982 114.896 145.713 114.834 145.547C114.687 145.16 114.238 144.646 113.705 144.092C113.186 143.523 112.606 142.898 112.166 142.336C111.725 141.767 111.384 141.166 110.99 140.581C110.619 139.979 110.201 139.402 109.59 138.888C108.971 138.366 108.438 137.599 107.989 136.855C107.564 136.096 107.224 135.369 106.945 134.934C106.35 133.977 105.638 132.869 105.174 132.055C104.718 131.232 103.766 129.524 103.434 128.931C103.202 128.52 102.885 128.013 103.186 127.436C103.357 127.112 104.115 126.661 104.339 126.756C104.648 126.89 105.12 127.112 105.375 127.444C105.685 127.847 106.76 129.295 107.34 130.22C107.51 130.497 107.796 130.615 107.811 130.782C107.85 131.066 108.724 132.221 109.606 133.32C110.046 133.874 110.487 134.412 110.835 134.823C111.191 135.218 111.439 135.503 111.485 135.543C111.57 135.63 112.189 136.618 112.885 137.607C113.565 138.603 114.385 139.521 114.733 139.56C114.981 139.576 115.862 140.438 116.721 141.411C117.603 142.36 118.43 143.436 118.515 143.966C118.531 144.021 118.639 144.195 118.84 144.44C119.041 144.685 119.319 145.009 119.652 145.397C119.985 145.777 120.371 146.212 120.781 146.67C121.191 147.137 121.663 147.588 122.119 148.054C122.459 148.402 122.8 148.742 123.14 149.067C122.862 148.474 122.575 147.904 122.382 147.445C122.367 147.398 121.995 147.161 121.856 146.188C121.748 145.508 121.346 144.511 120.944 143.602C120.572 142.692 120.224 141.87 120.263 141.577C120.364 140.889 119.637 139.41 119.374 138.271C119.242 137.702 119.211 137.124 119.134 136.555C119.064 135.986 118.948 135.408 118.616 134.839C117.951 133.66 118.082 131.857 117.935 131.027C117.881 130.687 117.827 130.331 117.773 129.975C117.425 129.991 117.077 130.022 116.729 130.062C115.568 129.682 115.893 128.638 116.535 127.784C116.783 127.452 117.077 127.151 117.363 126.922C117.293 126.313 117.224 125.712 117.193 125.411C117.146 125.032 117.053 124.549 117.556 124.186C117.835 123.98 118.701 123.838 118.871 123.964C119.103 124.154 119.435 124.454 119.536 124.787C119.621 125.063 119.838 125.839 120.023 126.582C120.286 126.558 120.557 126.534 120.828 126.511C121.237 126.479 121.655 126.479 122.065 126.495C122.475 126.495 122.877 126.542 123.271 126.653C123.766 126.242 124.184 125.933 124.633 125.823C125.081 125.688 125.561 125.728 126.203 126.028C126.574 125.981 126.937 125.91 127.293 125.823C127.657 125.744 127.997 125.585 128.345 125.451C128.693 125.309 129.033 125.158 129.366 125.008C129.706 124.858 130.046 124.715 130.371 124.534C131.029 124.193 131.694 123.893 132.39 123.671C133.07 123.403 133.79 123.229 134.594 123.189C135.251 122.715 135.901 122.256 136.582 121.868C136.922 121.678 137.247 121.457 137.572 121.251L138.554 120.627C139.845 119.772 141.091 118.815 142.034 117.479C142.715 117.329 143.241 116.981 143.72 116.569C144.192 116.158 144.625 115.699 144.988 115.177C145.36 114.663 145.739 114.165 146.141 113.683C146.535 113.192 146.976 112.749 147.541 112.401C147.749 111.951 147.927 111.476 148.159 111.033C148.376 110.582 148.639 110.171 148.886 109.736C149.374 108.874 150.015 108.115 150.688 107.387C151.075 107.047 151.191 106.517 151.33 106.027C151.462 105.529 151.632 105.07 152.204 104.841C152.49 104.216 152.606 103.599 152.8 103.014C152.893 102.721 153.009 102.436 153.155 102.152C153.295 101.867 153.457 101.582 153.681 101.297C153.627 100.823 153.681 100.269 153.859 99.7948C154.022 99.3124 154.339 98.9011 154.872 98.7034C154.826 98.4503 154.811 98.2051 154.818 97.96C154.818 97.7148 154.834 97.4617 154.872 97.2086C154.942 96.7104 155.089 96.2121 155.236 95.7138C155.476 94.7094 155.808 93.6971 155.623 92.748C156.319 91.799 156.535 91.9176 156.149 90.8183C156.481 90.2568 156.582 89.5212 156.504 88.8015C156.473 88.4377 156.419 88.0818 156.365 87.7497C156.303 87.4096 156.203 87.1012 156.141 86.8243C156.744 86.4843 156.628 85.4798 155.994 85.0132C156.195 84.4201 156.381 83.732 156.257 83.1705C156.427 82.6089 156.396 82.1581 156.218 81.739C156.032 81.3198 155.731 80.9323 155.429 80.4498C155.143 80.0544 155.135 79.5482 155.174 79.0104C155.228 78.4726 155.205 77.9586 154.95 77.6027C155.035 77.0965 155.592 76.5982 156.234 76.2819C156.883 75.9655 157.448 75.926 157.757 76.4638C157.958 76.7011 158.113 77.0253 158.237 77.3812C158.345 77.7371 158.391 78.1246 158.415 78.4884C158.956 80.9955 159.126 83.2417 159.946 85.7487H160Z" fill="black"/>
<path d="M31.44 70.64L32.02 70.74V90H24.28V63.6H34.74L43.36 82.8L42.78 82.92V63.6H50.52V90H40L31.44 70.64ZM54.5963 63.6H62.3363V90H54.5963V63.6ZM81.0522 82.8C81.9855 82.8 82.8855 82.6533 83.7522 82.36C84.6322 82.0667 85.3122 81.7733 85.7922 81.48L89.0922 88.04C88.4522 88.5733 87.3655 89.1133 85.8322 89.66C84.2989 90.2067 82.4922 90.48 80.4122 90.48C78.4655 90.48 76.6255 90.1467 74.8922 89.48C73.1589 88.8 71.6189 87.8467 70.2722 86.62C68.9389 85.3933 67.8922 83.9533 67.1322 82.3C66.3722 80.6333 65.9922 78.8133 65.9922 76.84C65.9922 74.8667 66.3722 73.0467 67.1322 71.38C67.8922 69.7 68.9389 68.2467 70.2722 67.02C71.6055 65.78 73.1389 64.82 74.8722 64.14C76.6189 63.46 78.4655 63.12 80.4122 63.12C82.4922 63.12 84.2989 63.3933 85.8322 63.94C87.3655 64.4867 88.4522 65.0267 89.0922 65.56L85.7922 72.12C85.3122 71.8267 84.6322 71.5333 83.7522 71.24C82.8855 70.9467 81.9855 70.8 81.0522 70.8C79.7855 70.8 78.7255 70.98 77.8722 71.34C77.0189 71.7 76.3322 72.18 75.8122 72.78C75.3055 73.3667 74.9389 74.0133 74.7122 74.72C74.4989 75.4133 74.3922 76.1 74.3922 76.78C74.3922 77.4733 74.4989 78.1733 74.7122 78.88C74.9389 79.5867 75.3055 80.24 75.8122 80.84C76.3322 81.4267 77.0189 81.9 77.8722 82.26C78.7255 82.62 79.7855 82.8 81.0522 82.8ZM92.405 63.6H110.125V70.32H100.145V73.52H110.125V80.02H100.145V83.28H110.125V90H92.405V63.6ZM115.866 80.5L114.306 62.48H122.686L121.146 80.5H115.866ZM118.486 90.48C117.712 90.48 116.999 90.2867 116.346 89.9C115.706 89.5133 115.186 89 114.786 88.36C114.399 87.7067 114.206 86.9867 114.206 86.2C114.206 85.0133 114.626 84 115.466 83.16C116.306 82.3067 117.312 81.88 118.486 81.88C119.686 81.88 120.706 82.3067 121.546 83.16C122.386 84 122.806 85.0133 122.806 86.2C122.806 87.3733 122.386 88.38 121.546 89.22C120.706 90.06 119.686 90.48 118.486 90.48ZM127.819 80.5L126.259 62.48H134.639L133.099 80.5H127.819ZM130.439 90.48C129.665 90.48 128.952 90.2867 128.299 89.9C127.659 89.5133 127.139 89 126.739 88.36C126.352 87.7067 126.159 86.9867 126.159 86.2C126.159 85.0133 126.579 84 127.419 83.16C128.259 82.3067 129.265 81.88 130.439 81.88C131.639 81.88 132.659 82.3067 133.499 83.16C134.339 84 134.759 85.0133 134.759 86.2C134.759 87.3733 134.339 88.38 133.499 89.22C132.659 90.06 131.639 90.48 130.439 90.48Z" fill="#3068E3"/>
</svg>
