<svg width="5" height="9" viewBox="0 0 5 9" fill="none" xmlns="http://www.w3.org/2000/svg">
<path d="M3.85158 4.84522L4.19011 4.49659L3.85126 4.14826L0.542262 0.746695L0.542264 0.746693L0.541084 0.745489C0.528961 0.73311 0.518599 0.717611 0.511277 0.699522C0.503947 0.681412 0.5 0.661507 0.5 0.641076C0.5 0.620645 0.503947 0.60074 0.511277 0.582629C0.5185 0.564784 0.528683 0.549459 0.540596 0.537164C0.565944 0.51169 0.597001 0.5 0.626366 0.5C0.655648 0.5 0.686612 0.511624 0.711921 0.53695L4.45867 4.38995C4.45874 4.39002 4.45882 4.3901 4.45889 4.39018C4.48288 4.41507 4.49896 4.45127 4.49978 4.49202C4.50056 4.53033 4.4877 4.56547 4.46683 4.59138L0.711942 8.46301L0.711918 8.46304C0.699639 8.4757 0.68583 8.48496 0.671664 8.49102C0.657532 8.49706 0.642905 8.49998 0.62849 8.5C0.614073 8.50002 0.599445 8.49713 0.585311 8.49113C0.571145 8.48511 0.557325 8.47588 0.545025 8.46325C0.532697 8.4506 0.522182 8.4348 0.514753 8.4164C0.507315 8.39799 0.503305 8.37777 0.503282 8.35703C0.503259 8.33628 0.507225 8.31605 0.514625 8.29761C0.522001 8.27923 0.532459 8.26342 0.544737 8.25074C0.544763 8.25071 0.544788 8.25069 0.544813 8.25066L3.85158 4.84522Z" fill="#001E63" stroke="black"/>
</svg>
