<svg width="103" height="121" viewBox="0 0 103 121" fill="none" xmlns="http://www.w3.org/2000/svg">
<path d="M48.5801 96.2271C10.8144 109.937 -9.91597 61.8853 8.54882 53.6905C3.42421 48.3204 -2.54192 14.6874 25.0123 4.7849C52.5504 -5.10147 79.5274 10.155 80.083 30.5238C108.759 32.5 110.475 85.9165 72.1372 91.8558C72.1372 91.8558 58.2252 100.051 48.5801 96.2325V96.2271Z" fill="white"/>
<path d="M49.1522 91.5714C44.8691 97.398 51.4178 103.16 60.5073 102.027C69.5967 100.889 76.9708 94.6217 71.5765 87.0391" fill="white"/>
<path d="M49.1519 91.5229C49.0225 91.4262 48.7528 91.3672 48.4723 91.3672C48.2026 91.3833 47.8843 91.4638 47.7764 91.684C47.5714 92.0008 47.1129 92.7097 46.854 93.2145C46.7407 93.4024 46.7245 93.5958 46.7137 93.7515C46.7029 93.9072 46.7137 94.0683 46.6813 94.2241C46.649 94.4281 46.5681 94.5248 46.5411 94.7128C46.5087 94.8416 46.4116 95.2175 46.3847 95.6149C46.3685 95.7277 46.3685 95.819 46.3523 95.9157V96.1842C46.3523 96.356 46.3523 96.4849 46.3685 96.5654C46.3847 96.6943 46.417 96.8178 46.4656 96.9467C46.5627 97.2313 46.6544 97.5159 46.7353 97.8006C46.8324 98.0691 46.9403 98.3376 47.1021 98.5577C47.1992 98.6705 47.3071 98.794 47.4042 98.9229C47.4366 98.9712 47.4689 99.0196 47.5013 99.0625C47.771 99.4707 48.1055 99.8519 48.4507 100.217C48.6071 100.389 48.7851 100.566 48.9739 100.722C49.1627 100.878 49.3569 101.039 49.5457 101.178C49.7345 101.318 49.9126 101.495 50.0852 101.651C50.274 101.823 50.4682 101.984 50.6732 102.091C50.8781 102.22 51.0993 102.279 51.3421 102.344C51.5794 102.408 51.8006 102.473 52.0217 102.548C52.2267 102.644 52.4641 102.703 52.6906 102.736C52.928 102.784 53.1491 102.832 53.3703 102.891C53.7965 103.031 54.1471 103.509 54.6056 103.6C55.0803 103.681 55.5874 103.536 56.0351 103.584C56.2725 103.616 56.4936 103.584 56.731 103.568C56.9522 103.552 57.1895 103.536 57.4107 103.536C57.8692 103.568 58.3169 103.74 58.7754 103.724C59.234 103.692 59.6817 103.552 60.124 103.488C60.5987 103.439 61.0303 103.348 61.4564 103.267C61.8988 103.171 62.3627 103.251 62.7888 103.138C63.0585 103.074 62.9183 103.155 63.1718 103.058C63.3606 103.01 63.571 102.945 63.776 102.902C64.1859 102.822 64.6175 102.682 65.0436 102.569C65.4536 102.44 65.869 102.317 66.2951 102.161C66.7051 102.021 67.1852 101.989 67.5952 101.796C68.0051 101.603 68.3234 101.259 68.7226 101.039C68.9114 100.926 69.0894 100.786 69.262 100.641C69.4346 100.502 69.6126 100.357 69.8015 100.233C70.1683 99.9969 70.7509 100.013 71.1339 99.7284C71.3227 99.5727 71.4683 99.3794 71.6085 99.1753C71.7488 98.9712 71.8783 98.7511 72.0509 98.59C72.4015 98.2409 72.6065 97.7844 72.8924 97.4032C73.1945 97.0058 73.6206 96.7104 73.858 96.2647C74.1115 95.8083 74.1924 95.3035 74.3489 94.8255C74.5215 94.3368 74.6186 93.8321 74.6833 93.3434C74.7319 93.0265 74.7804 92.7258 74.8398 92.4251C74.8883 92.2371 74.9045 92.0599 74.9045 91.9847C74.9207 91.8559 74.9207 91.7323 74.9045 91.6196C74.8559 91.335 74.8721 91.0503 74.8559 90.7818C74.8398 90.5133 74.8236 90.2448 74.7265 90.0085C74.4891 89.4071 74.1709 88.7949 73.8688 88.3653C73.502 87.8283 73.2646 87.5275 73.0434 87.1355C72.6604 86.5663 71.8243 86.7865 71.5546 86.9959C71.2687 87.2 70.7293 87.9249 70.999 88.3223C71.0961 88.4781 71.1392 88.6875 71.1716 88.9077C71.204 89.1278 71.204 89.3641 71.2525 89.6004C71.3173 89.9817 71.4413 90.2502 71.4737 90.6744C71.4899 90.7711 71.5061 90.9429 71.5222 91.0826C71.5384 91.1631 71.5546 91.2222 71.5546 91.2705C71.5708 91.3188 71.5708 91.3511 71.5708 91.3511C71.6032 91.539 71.6679 91.7323 71.6517 91.9203C71.6517 92.221 71.6679 92.5379 71.6032 92.8493C71.5384 93.1339 71.6193 93.483 71.4899 93.7945C71.3766 94.0952 71.3011 94.412 71.1231 94.7128C70.9504 94.9974 70.7886 95.2981 70.5674 95.5827C70.3463 95.8512 70.0927 96.1036 69.8392 96.356C69.7097 96.4849 69.5371 96.5601 69.3645 96.6406C69.1919 96.7051 69.0139 96.7802 68.8736 96.893C68.5877 97.1132 68.4151 97.4622 68.113 97.6502C67.9728 97.763 67.7948 97.8382 67.6383 97.9187C67.4819 98.0154 67.3201 98.0905 67.1636 98.1711C66.8454 98.3591 66.5918 98.6437 66.2574 98.8048C65.9067 98.9605 65.4482 98.837 65.1138 98.9605C64.7793 99.1001 64.5258 99.5136 64.1806 99.6371C63.8137 99.7499 63.3714 99.5888 63.0208 99.6855C62.832 99.7338 62.6378 99.7982 62.449 99.8412V99.8573C62.3357 99.8895 62.2278 99.9379 62.1145 99.954C61.7477 100.018 61.3701 100.11 60.9709 100.174C60.6041 100.222 60.2427 100.427 59.8435 100.459C59.4767 100.507 59.0991 100.572 58.6999 100.588C58.3331 100.588 57.9393 100.62 57.5563 100.604C57.3675 100.604 57.1733 100.572 56.9845 100.555C56.7957 100.539 56.6015 100.523 56.4127 100.491C56.0459 100.443 55.7169 100.126 55.35 100.067C54.9994 99.9862 54.6056 100.083 54.2712 99.9701C54.0986 99.9218 53.9367 99.8412 53.7803 99.7821C53.6239 99.7177 53.462 99.6425 53.3056 99.5781C53.1492 99.5136 52.9711 99.4814 52.7985 99.4384C52.6259 99.4062 52.4479 99.3579 52.3076 99.2827C51.9894 99.127 51.8653 98.6813 51.6118 98.5094C51.4823 98.4128 51.3097 98.3805 51.1371 98.3376C50.9644 98.2946 50.7864 98.2409 50.6785 98.1335C50.6624 98.1013 50.63 98.0691 50.6138 98.0368C50.5976 98.0046 50.5653 97.9724 50.5491 97.9241L50.5167 97.8596C50.4682 97.7469 50.4358 97.6395 50.4034 97.5267C50.3711 97.43 50.3387 97.3387 50.274 97.2582C50.1607 97.1454 50.1014 97.0219 50.0043 96.893C50.0043 96.893 49.9719 96.8769 49.9233 96.8286C49.8748 96.7964 49.8101 96.7319 49.7345 96.6728C49.6051 96.5332 49.4648 96.3399 49.4486 96.1842C49.4486 96.1036 49.4486 96.0445 49.4648 95.964C49.4325 95.8351 49.3677 95.7277 49.3354 95.5988C49.2544 95.2981 49.1789 95.0135 49.1627 94.7128C49.1466 94.6161 49.1466 94.5409 49.1627 94.4604C49.1789 94.3798 49.1951 94.3046 49.2113 94.2241C49.2437 94.0844 49.3084 93.9395 49.3084 93.7837C49.3246 93.4024 49.3246 92.9943 49.481 92.7419C49.7184 92.3445 49.4325 91.7807 49.1466 91.5122L49.1519 91.5229Z" fill="black"/>
<path d="M67.9838 104.69C71.7436 102.94 74.662 103.46 76.1184 104.803C78.1467 106.65 77.4023 110.093 72.2615 111.215C65.8045 112.638 62.0015 107.488 67.9784 104.696L67.9838 104.69Z" fill="white"/>
<path d="M72.4069 111.215C72.3584 110.995 71.9646 110.506 71.6787 110.549C71.5654 110.565 71.3766 110.565 71.1878 110.565C70.9828 110.549 70.7886 110.533 70.6322 110.501C70.3948 110.436 70.233 110.565 70.0604 110.549C69.9471 110.533 69.8878 110.485 69.7907 110.469C69.6342 110.453 69.0301 110.184 68.9006 110.152C68.8359 110.152 68.7873 110.136 68.728 110.12C68.4259 110.087 68.2047 109.899 67.9674 109.851C67.8865 109.835 67.811 109.819 67.7462 109.803L67.6653 109.771C67.552 109.706 67.4603 109.658 67.3632 109.599C67.2499 109.55 67.1744 109.47 67.0773 109.411C66.9047 109.271 66.7591 109.126 66.635 108.97C66.5055 108.831 66.5217 108.605 66.4786 108.482C66.4354 108.358 66.2574 108.245 66.2736 108.084C66.2736 107.945 66.1927 107.768 66.2736 107.596C66.3383 107.408 66.6835 107.392 66.7806 107.247C66.8615 107.166 66.8777 107.059 66.9209 106.946C66.964 106.833 67.018 106.726 67.1097 106.645C67.2014 106.565 67.2823 106.457 67.3632 106.361C67.4603 106.264 67.5358 106.173 67.6491 106.092C67.8865 105.952 68.1724 105.92 68.4097 105.807C68.6309 105.679 68.8682 105.491 69.1218 105.367C69.3915 105.254 69.645 105.131 69.8986 105.034C70.1683 104.937 70.4704 104.954 70.7239 104.895C70.8965 104.846 70.8048 104.895 70.9612 104.83C71.0745 104.798 71.1986 104.766 71.3281 104.75C71.4575 104.717 71.5816 104.717 71.7111 104.701C71.8405 104.685 71.9808 104.669 72.1102 104.669H72.4932C72.6227 104.669 72.7468 104.685 72.8762 104.685C73.1298 104.717 73.3509 104.857 73.5883 104.905C73.8094 104.954 74.0792 104.889 74.3003 104.97C74.5215 105.05 74.7589 105.066 74.9692 105.174C75.0663 105.238 75.1095 105.362 75.158 105.474C75.2066 105.603 75.2389 105.711 75.2983 105.775C75.363 105.856 75.4709 105.888 75.568 105.931C75.6489 105.995 75.7406 106.044 75.8053 106.119C75.8377 106.216 75.9024 106.275 75.978 106.355C76.0427 106.436 76.0912 106.511 76.1182 106.608C76.1452 106.704 76.1182 106.796 76.102 106.892C76.0697 106.989 76.0373 107.08 76.0373 107.161C76.0211 107.257 76.0211 107.349 76.0373 107.445C76.0373 107.558 76.0211 107.649 75.9888 107.746C75.9078 107.934 75.8323 108.143 75.6867 108.315C75.6381 108.38 75.5896 108.428 75.5464 108.471L75.3738 108.6C75.2929 108.648 75.2336 108.68 75.2012 108.713C75.1526 108.761 75.1041 108.777 75.0609 108.825C74.9638 108.922 74.8559 108.981 74.7265 109.046C74.597 109.094 74.473 109.158 74.3759 109.234C74.2626 109.346 74.1061 109.438 73.9659 109.55C73.8256 109.647 73.68 109.754 73.5559 109.835C73.2215 110.039 73.0327 110.152 72.7468 110.216C72.3368 110.329 72.2882 110.957 72.3368 111.21C72.3853 111.462 72.7468 112.015 73.1783 111.903C73.4966 111.822 73.9065 111.87 74.3812 111.79C74.5539 111.774 74.7157 111.693 74.8883 111.634C75.0447 111.553 75.2228 111.505 75.4439 111.414C75.541 111.382 75.7136 111.285 75.8539 111.21C75.9348 111.161 75.9942 111.129 76.0427 111.097C76.0912 111.065 76.1236 111.049 76.1236 111.049C76.2962 110.909 76.4743 110.764 76.6631 110.624C76.8195 110.512 76.9489 110.372 77.0892 110.227C77.1539 110.146 77.2295 110.087 77.2942 110.007L77.483 109.771C77.7365 109.47 77.866 109.046 78.0386 108.664C78.1033 108.476 78.1789 108.267 78.2274 108.063C78.2598 107.843 78.2921 107.639 78.3245 107.413C78.3245 107.193 78.3407 106.989 78.3245 106.763C78.2921 106.543 78.2598 106.323 78.2112 106.114C78.1465 105.909 78.0818 105.705 78.0224 105.496C77.9253 105.308 77.8336 105.115 77.7365 104.927C77.6232 104.755 77.5477 104.562 77.4506 104.358C77.3535 104.17 77.2295 103.992 77.0838 103.837C76.9436 103.708 76.7655 103.6 76.5929 103.504C76.4203 103.423 76.2423 103.332 76.0859 103.235C75.7514 103.047 75.4331 102.838 75.0879 102.714C74.7211 102.575 74.3435 102.585 74.009 102.526C73.6584 102.462 73.3294 102.193 72.9787 102.177C72.7899 102.177 72.6119 102.242 72.4393 102.29C72.2667 102.354 72.0887 102.419 71.9322 102.43C71.7596 102.446 71.5816 102.414 71.409 102.381C71.2364 102.349 71.0583 102.317 70.9019 102.349C70.7131 102.381 70.5351 102.43 70.3625 102.462V102.478C70.2654 102.51 70.1737 102.542 70.0766 102.559C69.7421 102.623 69.4239 102.746 69.0948 102.843C68.7604 102.94 68.4906 103.176 68.1724 103.283C67.8703 103.412 67.5844 103.568 67.2661 103.724C66.964 103.863 66.662 104.057 66.3599 104.245C66.2196 104.341 66.0578 104.449 65.9175 104.545C65.7611 104.658 65.6155 104.782 65.4752 104.895C65.335 105.023 65.1731 105.131 65.0005 105.227C64.8441 105.34 64.6661 105.464 64.542 105.625C64.3046 105.958 64.1914 106.366 64.0511 106.763C63.8785 107.161 63.749 107.617 63.749 108.058C63.749 108.514 63.954 108.944 64.0997 109.336C64.1967 109.54 64.2291 109.76 64.2885 109.969C64.337 110.189 64.4287 110.394 64.5582 110.555C64.6876 110.726 64.8926 110.839 65.0652 110.936C65.254 111.016 65.4321 111.108 65.5885 111.204C65.6209 111.237 65.6532 111.269 65.6856 111.301C65.7341 111.333 65.7665 111.382 65.7989 111.414L65.8636 111.462C66.0524 111.65 66.2304 111.87 66.4516 111.967C66.6404 112.064 66.8346 112.123 67.0072 112.187C67.0072 112.187 67.196 112.219 67.4333 112.235C67.6545 112.268 67.9404 112.284 68.113 112.348C68.1939 112.364 68.2695 112.413 68.3504 112.445C68.5068 112.461 68.6525 112.477 68.8089 112.477C68.9815 112.477 69.1595 112.461 69.3322 112.461C69.5048 112.445 69.6666 112.429 69.823 112.413C70.1899 112.364 70.5189 112.429 70.8048 112.332C71.1878 112.235 71.4737 112.048 71.738 112.015C72.1642 111.935 72.3098 111.478 72.4069 111.21V111.215Z" fill="black"/>
<path d="M77.0244 113.739C79.9427 112.381 82.1975 112.778 83.3196 113.82C84.8893 115.259 84.3013 117.912 80.3365 118.776C75.3575 119.883 72.4068 115.903 77.019 113.739H77.0244Z" fill="white"/>
<path d="M80.3367 118.792C80.272 118.572 79.9537 118.051 79.7325 118.1H79.3657C79.2255 118.1 79.0636 118.068 78.9558 118.035C78.767 117.971 78.6537 118.1 78.5296 118.084C78.4487 118.084 78.4163 118.035 78.3408 118.019C78.2275 118.003 77.7852 117.767 77.6881 117.735C77.6395 117.718 77.6072 117.702 77.5586 117.702C77.3536 117.686 77.1918 117.514 77.0192 117.498C76.9706 117.498 76.9059 117.498 76.8628 117.482L76.8142 117.466C76.7495 117.418 76.674 117.386 76.6092 117.337C76.5445 117.289 76.4798 117.241 76.4204 117.198C76.3071 117.101 76.2154 116.993 76.1345 116.897C76.0536 116.784 76.1183 116.628 76.086 116.564C76.0698 116.483 75.9295 116.451 75.9295 116.36C75.9457 116.279 75.8486 116.172 75.8972 116.059C75.9295 115.93 76.2478 115.979 76.3071 115.887C76.3395 115.823 76.3557 115.748 76.3719 115.667C76.4042 115.587 76.4204 115.495 76.4852 115.447C76.5661 115.399 76.5984 115.318 76.6578 115.243C76.7063 115.162 76.7711 115.087 76.8466 115.039C77.0192 114.942 77.2565 114.942 77.4346 114.867C77.591 114.77 77.769 114.598 77.9578 114.502C78.1628 114.421 78.357 114.314 78.5458 114.249C78.7346 114.185 78.9719 114.217 79.1661 114.169C79.2956 114.12 79.2309 114.185 79.3388 114.12C79.4197 114.088 79.5114 114.072 79.6085 114.056C79.7973 114.04 79.9915 114.008 80.1803 114.008H80.4662C80.5633 114.008 80.655 114.024 80.7521 114.024C80.9247 114.04 81.1027 114.18 81.2591 114.212C81.4156 114.244 81.6098 114.163 81.7662 114.228C81.9065 114.276 82.1007 114.26 82.2409 114.341C82.3218 114.373 82.338 114.48 82.3542 114.577C82.3704 114.69 82.3704 114.765 82.4189 114.813C82.4513 114.862 82.5322 114.878 82.6077 114.894C82.6724 114.91 82.748 114.942 82.7803 114.99C82.7965 115.055 82.8451 115.087 82.9098 115.13C82.9584 115.178 82.9907 115.227 83.0231 115.286C83.0393 115.35 83.0069 115.415 82.9907 115.474C82.9584 115.522 82.926 115.587 82.926 115.629C82.9098 115.678 82.926 115.742 82.9422 115.801C82.9422 115.866 82.9422 115.93 82.926 115.989C82.8613 116.118 82.8127 116.258 82.721 116.387C82.6886 116.435 82.6724 116.467 82.6239 116.499L82.4944 116.58C82.4297 116.612 82.3812 116.644 82.365 116.661C82.3326 116.693 82.3002 116.709 82.2679 116.741C82.2031 116.822 82.1276 116.87 82.0305 116.897C81.9334 116.924 81.8417 116.961 81.777 117.026C81.6961 117.122 81.5882 117.198 81.4911 117.278C81.394 117.359 81.3023 117.45 81.2052 117.514C80.9678 117.686 80.806 117.783 80.601 117.831C80.2828 117.912 80.2828 118.524 80.3313 118.776C80.396 119.029 80.7143 119.598 81.0434 119.501C81.2969 119.437 81.6475 119.517 82.0251 119.469C82.3272 119.421 82.5484 119.297 82.899 119.184C82.9799 119.152 83.1202 119.072 83.2496 119.013C83.3791 118.948 83.4708 118.884 83.4708 118.884C83.6111 118.755 83.7405 118.631 83.897 118.519C84.0264 118.422 84.1343 118.298 84.2476 118.186L84.4202 118.014L84.5767 117.81C84.7978 117.557 84.8787 117.192 85.019 116.881C85.0837 116.709 85.1485 116.548 85.1754 116.376C85.2078 116.204 85.2402 116.011 85.2563 115.839C85.2725 115.667 85.2725 115.474 85.2563 115.302C85.224 115.13 85.1916 114.937 85.1592 114.765C85.1107 114.609 85.0621 114.432 85.0028 114.26L84.7654 113.788C84.6684 113.648 84.609 113.487 84.5443 113.315C84.4796 113.159 84.3879 112.998 84.2584 112.875C84.1451 112.762 83.9887 112.687 83.8484 112.606C83.7082 112.542 83.5463 112.477 83.4223 112.402C83.1525 112.246 82.899 112.069 82.6131 111.978C82.3272 111.865 82.0089 111.897 81.7392 111.849C81.4533 111.801 81.1998 111.548 80.9139 111.532C80.6118 111.516 80.3259 111.736 80.0724 111.768C79.8027 111.784 79.5168 111.613 79.2471 111.656C79.1068 111.688 78.9612 111.72 78.8209 111.752V111.768C78.74 111.784 78.6645 111.817 78.5836 111.833C78.3138 111.881 78.0603 111.989 77.7906 112.069C77.537 112.15 77.3321 112.354 77.0785 112.45C76.8412 112.563 76.62 112.687 76.3665 112.816C76.1291 112.928 75.8918 113.1 75.6544 113.24C75.525 113.32 75.4171 113.396 75.2876 113.476C75.1581 113.557 75.0341 113.648 74.9208 113.745C74.8075 113.841 74.6673 113.916 74.5216 113.997C74.376 114.078 74.2357 114.185 74.1224 114.314C73.9175 114.582 73.8527 114.947 73.7233 115.275C73.5938 115.608 73.4697 115.984 73.4697 116.365C73.4697 116.763 73.6585 117.122 73.788 117.455C73.8689 117.611 73.8851 117.82 73.9282 117.992C73.9768 118.164 74.0415 118.341 74.1494 118.481C74.2789 118.621 74.4353 118.701 74.5917 118.782C74.7644 118.846 74.91 118.911 75.0341 118.986C75.0664 119.018 75.0826 119.034 75.115 119.066C75.1474 119.099 75.1635 119.131 75.1959 119.163L75.2445 119.211C75.3847 119.367 75.5142 119.56 75.703 119.636C75.8432 119.7 76.0051 119.764 76.1453 119.807C76.1453 119.807 76.3018 119.807 76.4959 119.824C76.6901 119.84 76.9059 119.856 77.0516 119.904C77.1163 119.936 77.181 119.969 77.2404 120.001C77.3698 120.017 77.4939 120.017 77.6234 120.017C77.9254 120.017 78.1952 119.985 78.4487 119.936C78.7346 119.888 78.9881 119.936 79.2255 119.856C79.5114 119.759 79.7487 119.587 79.9537 119.555C80.2882 119.491 80.3799 119.05 80.3205 118.798L80.3367 118.792Z" fill="black"/>
<path d="M80.6386 29.8902C80.3365 30.0459 80.1639 30.2553 80.1477 30.4111C80.1316 30.5668 80.3042 30.8514 80.5739 31.1038C80.8436 31.3562 81.2104 31.5603 81.6042 31.6408C82.2246 31.7214 83.5408 32.049 84.3014 32.4141C84.6196 32.543 84.8732 32.6021 85.1105 32.6665C85.3479 32.731 85.569 32.7632 85.7902 32.8545C86.0599 32.9833 86.2002 33.0908 86.4429 33.2196C86.6155 33.3002 87.0956 33.6009 87.5542 33.8963C88.0127 34.2131 88.4604 34.5299 88.633 34.6373C88.7733 34.734 88.9189 34.8414 89.0754 34.922C89.8198 35.3301 90.3754 35.9477 90.9957 36.3773C91.1845 36.49 91.3464 36.6458 91.5352 36.7746C91.5999 36.823 91.6646 36.8874 91.724 36.9304C92.2472 37.4191 92.7543 37.9561 93.2452 38.5253C93.7037 39.0784 94.1676 39.6638 94.5938 40.276C95.0199 40.8613 95.2734 41.5702 95.6564 42.2199C96.0233 42.8375 96.5303 43.4175 96.8486 44.0995C97.1669 44.7761 97.5768 45.4098 97.8465 46.1186C98.1001 46.8114 97.9868 47.6491 98.1972 48.3633C98.4183 49.1044 98.8337 49.8025 98.9901 50.5436C99.0872 50.9249 99.1789 51.2847 99.2922 51.666C99.4055 52.0311 99.4972 52.407 99.5458 52.7883C99.6105 53.1696 99.6105 53.5616 99.6105 53.959V54.5443C99.6105 54.7323 99.6105 54.9256 99.6267 55.1136C99.659 55.511 99.7238 55.903 99.7669 56.2843C99.8155 56.6816 99.864 57.0575 99.864 57.4388C99.8802 58.2282 99.8802 59.0176 99.8478 59.7748C99.8155 60.5642 99.5781 61.3214 99.5134 62.0786C99.4487 62.5512 99.4487 62.2988 99.4163 62.7552C99.3839 63.1204 99.3354 63.4641 99.2599 63.8293C99.1196 64.5542 98.9578 65.2953 98.769 66.0417C98.6719 66.3908 98.5802 66.7506 98.4669 67.1158C98.3536 67.4809 98.2457 67.8407 98.1324 68.2059C98.003 68.5711 97.8465 68.8986 97.6901 69.2477C97.5337 69.5967 97.3395 69.9243 97.2154 70.2895C96.9457 70.9661 96.8162 71.7287 96.4872 72.4214C96.4063 72.5933 96.3307 72.7705 96.266 72.9423C96.1851 73.1142 96.1258 73.2914 96.0448 73.4632C95.9046 73.8284 95.7589 74.1721 95.5701 74.505C95.2033 75.1709 94.4751 75.6113 94.0813 76.2396C93.8601 76.5725 93.6983 76.9162 93.5257 77.2653C93.3531 77.6143 93.1589 77.958 92.9377 78.2587C92.463 78.8763 92.0962 79.569 91.5891 80.1383C91.3356 80.439 91.0335 80.6753 90.7314 80.9277C90.4293 81.1801 90.1434 81.4325 89.8575 81.6849C89.3019 82.238 88.7949 82.8555 88.2231 83.3442C87.921 83.5966 87.6189 83.8329 87.3168 84.0853C86.9985 84.3216 86.6965 84.5579 86.3944 84.778C86.0114 85.0788 85.5852 85.2828 85.1914 85.5191C84.9217 85.6749 84.7006 85.7715 84.5873 85.836C84.4147 85.9326 84.2528 86.0239 84.1126 86.1206C83.7458 86.373 83.3682 86.5287 82.9852 86.7059C82.7964 86.7865 82.6022 86.8616 82.4296 86.9583C82.2569 87.0389 82.0789 87.1302 81.9063 87.2268C81.4963 87.4792 81.0324 87.7477 80.5901 87.9679C80.1477 88.2042 79.7162 88.4405 79.3386 88.6177C78.3892 89.1063 77.785 89.3104 77.0406 89.5467C75.9132 89.8474 75.6111 90.7765 75.692 91.1094C75.7729 91.4423 76.5659 92.1029 77.6286 91.8183C78.0278 91.6894 78.4701 91.6303 78.961 91.5498C79.4519 91.4853 79.9751 91.3779 80.5307 91.2329C80.9731 91.1201 81.3561 90.9644 81.7499 90.8248C81.9548 90.7442 82.1598 90.6691 82.3864 90.5885C82.5914 90.4918 82.8287 90.4005 83.0823 90.3039C83.3034 90.2072 83.735 90.0354 84.0802 89.8635C84.4308 89.6756 84.7329 89.5306 84.7329 89.5306C84.9541 89.4017 85.1753 89.2782 85.4018 89.1493C85.623 89.0204 85.8442 88.8808 86.0707 88.7519C86.4375 88.5479 86.799 88.3277 87.1496 88.086C87.5002 87.8498 87.8778 87.6135 88.2285 87.3611C88.5629 87.1087 88.8974 86.8402 89.2102 86.5555C89.5285 86.2709 89.8306 85.9702 90.1758 85.7017C90.8123 85.1647 91.4273 84.5632 92.0476 83.9672C92.3659 83.6825 92.6518 83.3818 92.9377 83.065C93.2236 82.7643 93.5095 82.4474 93.7954 82.1198C94.3672 81.5023 94.9228 80.8579 95.4461 80.1759C95.6996 79.8429 96.0017 79.5422 96.3038 79.2307C96.5897 78.9139 96.8918 78.5971 97.1291 78.2373C97.5714 77.5445 97.8735 76.7551 98.2565 76.0409C98.4615 75.6918 98.6557 75.332 98.8607 74.9669C99.0657 74.6017 99.2706 74.2419 99.4325 73.8767C99.7993 73.1357 99.9719 72.314 100.274 71.573C100.414 71.1756 100.641 70.8319 100.846 70.4667C101.051 70.1015 101.245 69.7417 101.369 69.3605C101.606 68.5549 101.542 67.685 101.72 66.9117C101.833 66.5143 101.973 66.1223 102.13 65.741C102.211 65.5369 102.286 65.3436 102.351 65.1557C102.416 64.9677 102.464 64.7583 102.491 64.5703C102.556 64.13 102.631 63.6843 102.68 63.26H102.664C102.696 63.0076 102.712 62.7713 102.761 62.5189C102.874 61.6973 102.917 60.8596 102.982 59.995C103.047 59.1573 102.917 58.3034 102.917 57.4549C102.933 57.0468 102.901 56.6333 102.869 56.2091C102.852 55.7848 102.804 55.3552 102.772 54.931C102.755 54.7269 102.739 54.5229 102.723 54.3134C102.691 54.0932 102.674 53.8892 102.642 53.6798C102.594 53.2555 102.529 52.842 102.469 52.4178C102.405 52.0096 102.356 51.58 102.281 51.1719C102.205 50.7638 102.14 50.3342 102.043 49.926C101.871 49.1044 101.903 48.2183 101.66 47.386C101.439 46.5805 101.008 45.8555 100.727 45.0983C100.441 44.325 100.171 43.5356 99.8209 42.7945C99.6321 42.4133 99.4217 42.0535 99.2005 41.7044C98.9632 41.3553 98.742 41.0117 98.5316 40.6626C98.3105 40.2974 98.1648 39.9054 98.0084 39.508C97.8519 39.1268 97.6739 38.7347 97.4366 38.4018C97.183 38.0688 96.8648 37.7681 96.5465 37.4835C96.2121 37.215 95.8938 36.9304 95.6241 36.6297C95.5432 36.5491 95.4946 36.4739 95.4353 36.3934C95.3705 36.3128 95.3058 36.2215 95.2465 36.1249C95.2141 36.0765 95.1656 36.0282 95.1332 35.9852C94.9768 35.7328 94.7987 35.5127 94.6261 35.2764C94.4535 35.0562 94.2755 34.8199 94.0543 34.6427C93.7037 34.342 93.3746 34.0252 93.0078 33.7566C93.0078 33.7566 92.6248 33.5365 92.1501 33.2519C91.6592 32.9995 91.0875 32.6504 90.7045 32.398C90.5318 32.2691 90.37 32.1456 90.2136 32.0006C89.8629 31.8288 89.5177 31.6677 89.1832 31.5119C88.7733 31.324 88.3579 31.179 87.9641 31.0233C87.565 30.8836 87.1712 30.7709 86.7882 30.642C86.3458 30.5131 85.9305 30.3896 85.5367 30.2446C85.1375 30.1157 84.7599 30.0244 84.3769 29.96C83.4113 29.8204 82.5698 29.8472 81.8847 29.7559C81.3453 29.6593 80.903 29.7881 80.6332 29.8848L80.6386 29.8902Z" fill="black"/>
<path d="M43.4772 97.731C43.4124 97.4302 42.6033 96.8127 41.9236 96.9577C41.4003 97.0543 40.2244 97.1617 39.48 97.1295C38.9082 97.1295 38.5575 97.3014 38.1314 97.3175C37.8778 97.3175 37.7214 97.2853 37.4787 97.2853C37.306 97.2853 36.826 97.2369 36.3351 97.1886C35.8604 97.1403 35.3695 97.0597 35.1915 97.0597H34.7168C34.35 97.0597 33.9885 97.0275 33.6379 96.9792C33.2711 96.9308 32.942 96.8664 32.6076 96.8825C32.4188 96.8825 32.2084 96.8986 32.0196 96.8825C31.9387 96.8825 31.8793 96.8664 31.7984 96.8664C31.4964 96.8181 31.1781 96.7697 30.8652 96.7268C30.5631 96.6623 30.2287 96.614 29.9158 96.5549C29.5975 96.5066 29.2955 96.4153 28.9826 96.3509C28.8262 96.3186 28.6643 96.2703 28.5079 96.2381C28.3515 96.1898 28.1896 96.1575 28.0332 96.1092C27.429 95.9696 26.8572 95.6205 26.2423 95.4326C25.6543 95.2446 24.9908 95.1963 24.3866 94.96C24.1007 94.8472 23.7825 94.7559 23.4804 94.6593C23.1621 94.5626 22.8438 94.4713 22.5579 94.3263C22.272 94.1867 22.0185 93.9612 21.7812 93.741C21.5438 93.5047 21.3065 93.2684 21.0206 93.1234C20.4326 92.8066 19.7529 92.6831 19.1973 92.334C18.9114 92.1622 18.6255 92.0172 18.3234 91.8614C18.0213 91.7057 17.7354 91.5607 17.4657 91.3728C17.1798 91.1687 16.9424 90.9485 16.7051 90.7069C16.4677 90.4652 16.2304 90.2504 15.9769 90.041C15.4536 89.6167 14.8656 89.2999 14.3747 88.8542C14.1212 88.6501 13.8839 88.4138 13.6303 88.1883C13.393 87.9681 13.1394 87.7479 12.9183 87.5117C12.4274 87.0391 12.0929 86.4537 11.6506 85.9812C11.3809 85.6805 11.5535 85.8093 11.2676 85.5408C11.0626 85.3368 10.8576 85.1005 10.6634 84.8481C10.4746 84.6118 10.2804 84.3594 10.0916 84.0909C9.90285 83.8385 9.70865 83.57 9.51985 83.3015C9.15303 82.7806 8.8078 82.2436 8.45716 81.6905C8.30073 81.422 8.15508 81.1373 8.03101 80.8366C7.90155 80.5359 7.77748 80.2352 7.62104 79.9505C7.30278 79.4135 6.84426 78.9249 6.55836 78.3395C6.41811 78.0549 6.25628 77.7864 6.08366 77.5018C5.91104 77.2333 5.74921 76.9487 5.62514 76.6479C5.50107 76.3472 5.46871 76.0143 5.43634 75.6867C5.42016 75.3537 5.38779 75.0208 5.2799 74.7254C5.05874 74.1079 4.62719 73.5547 4.43839 72.9426C4.24959 72.3089 3.93132 71.7128 3.78567 71.0791C3.70476 70.7623 3.68858 70.4293 3.67239 70.1018C3.65621 69.7742 3.64003 69.452 3.59148 69.1405C3.55911 68.9687 3.52675 68.8076 3.49438 68.6518C3.46201 68.4961 3.42965 68.335 3.39728 68.1793C3.31637 67.8624 3.25703 67.5456 3.24085 67.2341C3.1923 66.5843 3.15993 65.9399 3.15993 65.3063C3.15993 64.9089 3.22466 64.533 3.2894 64.1517C3.33794 63.8993 3.38649 63.6952 3.40268 63.5986C3.41886 63.4428 3.45123 63.2978 3.46741 63.1582C3.53214 62.4494 3.85041 61.8318 3.95829 61.2303C4.09855 60.4571 4.35747 59.6354 4.59482 59.0179C4.88072 58.2285 5.16662 57.8042 5.54423 57.3263C5.70066 57.1544 5.79776 56.9772 5.84631 56.7893C5.91104 56.6174 5.92722 56.4402 5.92722 56.2684C5.92722 55.9354 5.79776 55.6347 5.68987 55.5112C5.56041 55.3716 5.2799 55.2427 4.91309 55.2427C4.74047 55.2427 4.53009 55.2749 4.34129 55.3554C4.15249 55.4521 3.95829 55.5756 3.80186 55.7636C3.32716 56.3489 2.58274 56.9182 1.99476 57.7988C1.53624 58.4916 1.2827 59.1092 0.899707 60.0274C0.802609 60.2315 0.678539 60.6289 0.581441 60.9565C0.484343 61.3055 0.425006 61.5901 0.425006 61.5901C0.39264 61.8103 0.344091 62.0466 0.311725 62.2668C0.279359 62.487 0.246993 62.7071 0.198444 62.9434C0.133712 63.3086 0.101346 63.6684 0.0689799 64.0497C0.0527969 64.4309 0.0204309 64.8068 0.00424795 65.1881C-0.028118 65.9292 0.133712 66.6703 0.176867 67.4167C0.19305 67.7819 0.225416 68.1417 0.290148 68.5068C0.322514 68.6948 0.338696 68.872 0.371062 69.06C0.387245 69.2479 0.419611 69.4251 0.451977 69.6131C0.500526 69.9783 0.565258 70.3219 0.640779 70.6871C0.7163 71.0523 0.797215 71.396 0.87813 71.7611C1.03457 72.47 1.1964 73.1842 1.40138 73.877C1.60636 74.5697 1.59018 75.3323 1.84371 76.025C1.97318 76.3579 2.12961 76.6587 2.30223 76.9701C2.45867 77.287 2.63668 77.5877 2.77693 77.8992C3.04665 78.5489 3.30018 79.2095 3.60227 79.827C3.92053 80.4607 4.37905 80.9977 4.7135 81.5938C4.88612 81.8945 4.9994 82.2436 5.11268 82.5712C5.24214 82.9202 5.35003 83.2478 5.53883 83.5324C5.93801 84.1339 6.56915 84.542 6.98451 85.079C7.20568 85.3636 7.35133 85.6966 7.50776 86.008C7.64802 86.341 7.80984 86.6578 8.03101 86.9102C8.28455 87.1948 8.50571 87.4955 8.75925 87.7641L8.77543 87.7479C8.91568 87.9037 9.06133 88.0487 9.20158 88.2205C9.6601 88.7575 10.1672 89.2623 10.6904 89.7993C10.9278 90.0678 11.2137 90.288 11.4996 90.5082C11.7855 90.7284 12.0714 90.9646 12.3411 91.2009C12.8482 91.6896 13.4361 92.1031 14.0079 92.5757C14.2938 92.7958 14.5797 92.9999 14.8656 93.2255C15.1677 93.4295 15.4536 93.6497 15.7557 93.8591C16.0416 94.0632 16.3275 94.2673 16.6296 94.4767C16.9155 94.6808 17.2176 94.8848 17.5358 95.0781C18.14 95.4594 18.6471 96.0233 19.2944 96.3884C19.6126 96.5442 19.9471 96.6731 20.2761 96.7966C20.6106 96.9255 20.945 97.0329 21.2579 97.1779C21.5762 97.3336 21.8944 97.4786 22.2073 97.6343C22.5202 97.79 22.8438 97.935 23.1729 98.0585C23.8418 98.3271 24.5538 98.4076 25.2012 98.6278C25.8809 98.8318 26.4688 99.3205 27.1539 99.4816C27.8498 99.6696 28.6158 99.4977 29.2793 99.6213C29.3602 99.6374 29.4357 99.6696 29.5166 99.6857C29.6137 99.7179 29.6893 99.7501 29.7864 99.7824C29.8349 99.7985 29.8834 99.7985 29.9266 99.8146C30.3851 99.9703 30.849 100.164 31.3076 100.212C31.4964 100.244 31.6905 100.26 31.8794 100.276C32.0682 100.293 32.2623 100.293 32.4511 100.309C32.4511 100.309 32.818 100.26 33.2765 100.228C33.735 100.18 34.2906 100.148 34.6736 100.18C34.8301 100.196 35.0081 100.212 35.1807 100.244C35.499 100.212 35.8172 100.196 36.1139 100.164C36.4969 100.115 36.8421 100.067 37.1928 100.024C37.5434 99.9757 37.8725 99.9112 38.1907 99.8522C38.5575 99.7877 38.919 99.7555 39.2696 99.7233C39.6202 99.675 39.9493 99.6266 40.2514 99.5514C40.6505 99.4548 40.9958 99.3152 41.3302 99.2024C41.6647 99.0735 41.9668 98.9983 42.2526 98.9339C43.1589 98.7459 43.5527 98.08 43.4718 97.7202L43.4772 97.731Z" fill="black"/>
<path d="M7.65874 53.5617C8.10107 53.8141 8.41934 53.8463 8.53262 53.7336C8.6459 53.6208 8.66208 53.2288 8.59735 52.7884C8.58117 52.5521 8.5488 52.2997 8.46789 52.0474C8.38697 51.795 8.32763 51.5103 8.18199 51.2579C8.0687 51.0861 7.96082 50.8015 7.83135 50.5008C7.76662 50.345 7.70189 50.1839 7.64255 50.0121C7.594 49.8402 7.52927 49.663 7.46993 49.4751C7.4052 49.2871 7.35665 49.1099 7.29732 48.9219C7.24877 48.734 7.20022 48.5568 7.15706 48.3688C7.05996 48.0037 6.96826 47.66 6.91971 47.3431C6.73091 46.3819 6.44501 45.7965 6.29936 45.0877C6.21845 44.6473 6.23463 44.3788 6.1699 43.9653C6.12135 43.6807 6.05662 42.843 6.01346 42.0052C5.9811 41.1675 5.96492 40.3137 5.93255 40.0129C5.91637 39.7444 5.90018 39.4759 5.86782 39.2074C5.83545 38.8745 5.80309 38.5576 5.80309 38.2462C5.81927 37.9293 5.81927 37.6125 5.81927 37.3171C5.81927 36.6996 5.86782 36.1196 5.83545 35.5343C5.81927 35.2013 5.80309 34.8684 5.80309 34.5247C5.80309 34.3958 5.81927 34.2723 5.81927 34.1434C5.884 33.0533 5.99189 31.947 6.15372 30.8139C6.25082 30.2769 6.32634 29.7399 6.42343 29.1868C6.53671 28.6498 6.66078 28.0967 6.77407 27.5435C6.90353 27.0065 7.09233 26.4856 7.26495 25.9647C7.34586 25.7123 7.43757 25.4438 7.55085 25.1914C7.66413 24.9229 7.75583 24.6705 7.83675 24.402C7.99318 23.8811 8.15501 23.3602 8.31145 22.8393C8.40855 22.5869 8.48407 22.3184 8.56498 22.0499C8.6459 21.7814 8.76997 21.529 8.88325 21.2766C9.3094 20.2832 9.74095 19.2736 10.2966 18.2909C10.5986 17.8344 10.9601 17.4209 11.3431 17.0128C11.7261 16.6046 12.1522 16.2395 12.4705 15.7991C12.8049 15.3427 13.1232 14.8969 13.4522 14.4405C13.6087 14.2203 13.7705 13.984 13.9431 13.7638C14.1157 13.5437 14.3261 13.3396 14.5149 13.1463C14.7037 12.9422 14.9141 12.7382 15.1029 12.5287C15.2917 12.3193 15.4859 12.1045 15.6909 11.9112C16.1009 11.5138 16.5162 11.1379 16.9424 10.7727C17.4009 10.4236 17.908 10.1551 18.3881 9.85441C18.6416 9.71479 18.8628 9.55369 19.1163 9.43017C19.3536 9.29055 19.6072 9.16167 19.8445 9.02204C20.0981 8.88242 20.3354 8.72132 20.5728 8.56559L20.9234 8.3293C21.0367 8.24875 21.1607 8.18968 21.2902 8.10913C21.7811 7.82451 22.272 7.5399 22.779 7.2875C23.0326 7.14788 23.3023 7.0351 23.572 6.92233C23.8417 6.80956 24.0953 6.70216 24.365 6.58939C24.9044 6.36921 25.4115 6.13293 25.9509 5.95571C26.5227 5.75165 27.0945 5.60666 27.6501 5.45092C28.2219 5.32204 28.7775 5.19853 29.317 5.04279C29.9967 4.83873 29.6514 4.97835 30.2987 4.77429C30.822 4.64541 31.3291 4.50578 31.8685 4.39301C32.4079 4.26413 32.9635 4.18895 33.5192 4.07618C34.0748 3.97951 34.6466 3.87211 35.2184 3.80767C35.774 3.72712 36.3296 3.65194 36.8852 3.5875C37.4408 3.53916 38.0126 3.49083 38.5844 3.44787C39.1401 3.38343 39.7119 3.43176 40.2675 3.43176C40.5372 3.43176 40.8231 3.44787 41.109 3.44787C41.3949 3.44787 41.6808 3.46398 41.9667 3.46398C42.5061 3.46398 43.0779 3.39954 43.6335 3.38343C44.1891 3.36732 44.7609 3.35121 45.3327 3.36732C46.444 3.46398 47.5876 3.39954 48.7096 3.57139C48.9955 3.61972 49.2652 3.66805 49.5349 3.74323C49.8046 3.81841 50.0744 3.91507 50.3441 4.01173C50.8835 4.2158 51.4229 4.3769 51.9624 4.51652C52.5342 4.64541 53.106 4.68837 53.6778 4.78503C54.2496 4.88169 54.8052 4.97298 55.3608 5.11798C55.9164 5.28982 56.4882 5.43481 57.0438 5.57444C57.5994 5.71406 58.1389 5.90738 58.6783 6.09534L59.0883 6.25107L59.4875 6.43902C59.7572 6.56791 60.0107 6.70753 60.2643 6.83641C60.7713 7.10492 61.2622 7.40564 61.7693 7.64193C62.039 7.77081 62.2925 7.87821 62.5622 8.00709C62.8158 8.13598 63.0855 8.25949 63.339 8.38837C63.5926 8.50114 63.8623 8.62466 64.1158 8.75354C64.3532 8.89316 64.6067 9.03815 64.844 9.17778C65.0976 9.3174 65.3349 9.4785 65.5885 9.61813C65.842 9.77386 66.0793 9.93496 66.3167 10.0907C66.7914 10.4075 67.2661 10.7083 67.7138 11.0519C67.9997 11.256 68.2694 11.4762 68.5392 11.7017C68.8089 11.9219 69.0462 12.1582 69.2998 12.3945C69.618 12.7113 69.8877 12.9637 70.0118 13.0872C70.2006 13.2752 70.411 13.4685 70.5998 13.6403C71.0745 14.0485 71.4737 14.5264 71.8675 14.9829C72.2774 15.4393 72.6119 15.9119 73.011 16.3254C73.1243 16.4543 73.2484 16.5778 73.3779 16.7228C73.4911 16.8624 73.6152 17.0074 73.7285 17.147C73.9658 17.4316 74.2194 17.7163 74.4405 18.0009C74.6617 18.3016 74.8667 18.5862 75.0771 18.8547C75.1742 18.9836 75.2821 19.1232 75.3792 19.2521C75.4601 19.3917 75.5518 19.5206 75.6327 19.6495C75.8377 19.9824 76.0319 20.267 76.2045 20.5356C76.3609 20.8202 76.4904 21.0726 76.6306 21.325C76.7601 21.5774 76.8842 21.8136 77.0136 22.0499C77.1269 22.3023 77.2186 22.5547 77.3319 22.8071C77.6664 23.5804 78.0116 24.1013 78.3784 24.4181C78.7452 24.735 79.0905 24.8424 79.2523 24.7994C79.4249 24.7511 79.6515 24.4504 79.7594 23.9778C79.8672 23.5052 79.8996 22.8071 79.5867 22.066C79.4735 21.7653 79.3656 21.4646 79.2685 21.1477C79.1552 20.8309 79.0473 20.5141 78.9178 20.1704C78.6967 19.4776 78.3784 18.7634 78.0116 17.9901C77.7095 17.3887 77.3751 16.8839 77.046 16.3308C76.6954 15.7938 76.3178 15.2567 75.8539 14.5962C75.6327 14.2955 75.2173 13.7746 74.8559 13.3342C74.6833 13.1141 74.4891 12.9261 74.365 12.7811C74.241 12.6361 74.16 12.5448 74.16 12.5448C73.9065 12.2924 73.6368 12.0078 73.3671 11.7554C73.0974 11.503 72.8115 11.2345 72.5417 10.966C72.1156 10.5257 71.6193 10.1444 71.1446 9.73627C70.6699 9.31203 70.1628 8.94686 69.6558 8.54947C69.1811 8.15209 68.6578 7.84062 68.1184 7.52378C67.8487 7.36805 67.579 7.19084 67.3092 7.0351C67.0395 6.89548 66.7698 6.73438 66.5001 6.56254C66.2304 6.4068 65.9768 6.2457 65.7071 6.08997C65.4374 5.95034 65.1515 5.80535 64.8818 5.66573C64.6121 5.5261 64.3262 5.38111 64.0565 5.24149C63.7867 5.10187 63.5008 4.97298 63.2149 4.83336C62.6593 4.56486 62.1037 4.28024 61.5319 4.06006C61.246 3.93118 60.9601 3.82378 60.6742 3.6949L60.2481 3.52305L59.8057 3.36732C59.2339 3.16326 58.6621 2.92697 58.0742 2.71754C57.4862 2.52958 56.882 2.32015 56.2994 2.1322C55.7114 1.97646 55.1396 1.75092 54.557 1.53074C53.9691 1.32668 53.3811 1.13336 52.7661 0.993733C52.1782 0.854111 51.5632 0.80578 50.9752 0.741338C50.6731 0.709118 50.3872 0.676897 50.0851 0.644676C49.7831 0.612456 49.481 0.580235 49.1951 0.548014C48.0029 0.376171 46.8162 0.215068 45.6402 0.123776C44.4373 0.0754449 43.2451 0.155996 42.0692 0.188217C41.7671 0.188217 41.465 0.172107 41.1629 0.139886C40.8608 0.123776 40.5588 0.0915552 40.2567 0.0754449C39.6687 0.0271139 39.0645 -0.0373274 38.4819 0.0271139C37.8778 0.0915552 37.2898 0.215068 36.7072 0.360061C36.1192 0.499683 35.5474 0.676897 34.9756 0.757449C34.6735 0.80578 34.3715 0.838 34.0694 0.854111C33.7673 0.870221 33.4652 0.902442 33.1631 0.918552C32.559 0.966883 31.971 0.982993 31.4046 1.12262C30.768 1.27835 30.1531 1.42334 29.5327 1.57908V1.59519C29.1821 1.67574 28.8531 1.79925 28.5024 1.89591C27.9144 2.05164 27.3265 2.21275 26.7439 2.4007C26.1559 2.60477 25.5679 2.80883 24.9691 3.00215C24.3973 3.174 23.8417 3.47472 23.2699 3.72712C22.984 3.856 22.6981 3.99562 22.4122 4.12451C22.1263 4.25339 21.8404 4.3769 21.5545 4.52189C20.9989 4.7904 20.4433 5.07502 19.8877 5.35963C19.7474 5.44018 19.618 5.49925 19.4777 5.57981L19.0785 5.8322C18.8088 5.98793 18.5391 6.16515 18.2694 6.32088C18.0159 6.47661 17.7461 6.63772 17.4764 6.79345C17.2229 6.94918 16.9693 7.15862 16.7158 7.33046C16.2087 7.69563 15.6855 8.03932 15.1784 8.4367C14.7037 8.83409 14.229 9.22611 13.7328 9.6235C13.4954 9.81145 13.258 10.0316 13.0369 10.2572C12.8157 10.4773 12.5784 10.6975 12.3572 10.9231C12.136 11.1486 11.8825 11.3312 11.6613 11.5567C11.4402 11.7769 11.219 11.981 10.9816 12.2065C10.5231 12.6469 10.0322 13.0765 9.66543 13.5974C9.29861 14.1022 8.93719 14.5908 8.63511 15.1279C8.33303 15.6649 8.03094 16.1858 7.71268 16.6906C7.09233 17.7485 6.44501 18.7903 5.97031 19.8804C5.84085 20.1489 5.71678 20.4335 5.6035 20.7181C5.5064 21.0189 5.41469 21.3035 5.3176 21.5881C5.12879 22.1573 4.91842 22.7266 4.76198 23.2958C4.58936 23.8811 4.30346 24.4181 4.08229 24.9874C3.86113 25.5405 3.63996 26.1097 3.49431 26.679C3.36485 27.2804 3.33788 27.8926 3.28933 28.4941C3.24078 29.0955 3.25696 29.6916 3.15986 30.2608C3.14368 30.4004 3.11131 30.5293 3.07895 30.669C3.04658 30.8086 3.01422 30.9697 2.98185 31.1254C2.96567 31.206 2.96567 31.2973 2.94948 31.3778C2.85239 31.7752 2.76068 32.1833 2.67977 32.5753C2.59885 32.9835 2.5503 33.3809 2.53952 33.7729C2.52333 34.0897 2.50715 34.4227 2.49097 34.7341V35.6793C2.49097 35.6793 2.49097 35.8189 2.52333 36.0766C2.53952 36.329 2.57188 36.6781 2.62043 37.054C2.70135 37.8112 2.79305 38.7456 2.82542 39.39C2.82542 39.6907 2.82542 39.9753 2.80923 40.2761C2.87396 40.8131 2.96567 41.3501 3.04658 41.8549C3.14368 42.4886 3.28393 43.0846 3.39721 43.67C3.52668 44.2553 3.68311 44.8246 3.80718 45.3616C3.9798 45.9952 4.12545 46.5913 4.2657 47.1767C4.42214 47.762 4.5516 48.3151 4.77277 48.8199C5.27984 50.1141 5.93255 51.172 6.37488 52.0903C6.7417 52.8153 7.23258 53.304 7.67492 53.5886L7.65874 53.5617Z" fill="black"/>
<path d="M20.864 47.16H25.508V63H20.864V47.16ZM27.9656 47.16H32.6096V63H27.9656V47.16ZM39.2671 51.384L39.6151 51.444V63H34.9711V47.16H41.2471L46.4191 58.68L46.0711 58.752V47.16H50.7151V63H44.4031L39.2671 51.384ZM53.0649 47.16H63.6969V51.192H57.7089V53.112H63.6969V57.012H57.7089V58.968H63.6969V63H53.0649V47.16ZM67.1413 57.3L66.2053 46.488H71.2333L70.3093 57.3H67.1413ZM68.7133 63.288C68.2493 63.288 67.8213 63.172 67.4293 62.94C67.0453 62.708 66.7333 62.4 66.4933 62.016C66.2613 61.624 66.1453 61.192 66.1453 60.72C66.1453 60.008 66.3973 59.4 66.9013 58.896C67.4053 58.384 68.0093 58.128 68.7133 58.128C69.4333 58.128 70.0453 58.384 70.5493 58.896C71.0533 59.4 71.3053 60.008 71.3053 60.72C71.3053 61.424 71.0533 62.028 70.5493 62.532C70.0453 63.036 69.4333 63.288 68.7133 63.288ZM74.3131 57.3L73.3771 46.488H78.4051L77.4811 57.3H74.3131ZM75.8851 63.288C75.4211 63.288 74.9931 63.172 74.6011 62.94C74.2171 62.708 73.9051 62.4 73.6651 62.016C73.4331 61.624 73.3171 61.192 73.3171 60.72C73.3171 60.008 73.5691 59.4 74.0731 58.896C74.5771 58.384 75.1811 58.128 75.8851 58.128C76.6051 58.128 77.2171 58.384 77.7211 58.896C78.2251 59.4 78.4771 60.008 78.4771 60.72C78.4771 61.424 78.2251 62.028 77.7211 62.532C77.2171 63.036 76.6051 63.288 75.8851 63.288Z" fill="#3068E3"/>
</svg>
