<svg width="24" height="15" viewBox="0 0 24 15" fill="none" xmlns="http://www.w3.org/2000/svg">
<path d="M0.741699 13.866C0.465557 13.3877 0.629432 12.7761 1.10772 12.5L21.8923 0.5C22.3706 0.223858 22.9822 0.387733 23.2584 0.866025C23.5345 1.34432 23.3706 1.95591 22.8923 2.23205L2.10773 14.2321C1.62943 14.5082 1.01784 14.3443 0.741699 13.866Z" fill="white"/>
<path d="M23.0166 13.866C23.2927 13.3877 23.1289 12.7761 22.6506 12.5L1.86597 0.5C1.38767 0.223858 0.776084 0.387733 0.499941 0.866025C0.223799 1.34432 0.387675 1.95591 0.865967 2.23205L21.6506 14.2321C22.1289 14.5082 22.7405 14.3443 23.0166 13.866Z" fill="white"/>
</svg>
