<svg width="76" height="50" viewBox="0 0 76 50" fill="none" xmlns="http://www.w3.org/2000/svg">
<ellipse cx="24.5" cy="25" rx="24.5" ry="25" fill="#F6E900"/>
<ellipse cx="51.5" cy="25" rx="24.5" ry="25" fill="#F6E900"/>
<path d="M14.22 23.32L14.51 23.37V33H10.64V19.8H15.87L20.18 29.4L19.89 29.46V19.8H23.76V33H18.5L14.22 23.32ZM25.7981 19.8H29.6681V33H25.7981V19.8ZM39.0261 29.4C39.4928 29.4 39.9428 29.3267 40.3761 29.18C40.8161 29.0333 41.1561 28.8867 41.3961 28.74L43.0461 32.02C42.7261 32.2867 42.1828 32.5567 41.4161 32.83C40.6494 33.1033 39.7461 33.24 38.7061 33.24C37.7328 33.24 36.8128 33.0733 35.9461 32.74C35.0794 32.4 34.3094 31.9233 33.6361 31.31C32.9694 30.6967 32.4461 29.9767 32.0661 29.15C31.6861 28.3167 31.4961 27.4067 31.4961 26.42C31.4961 25.4333 31.6861 24.5233 32.0661 23.69C32.4461 22.85 32.9694 22.1233 33.6361 21.51C34.3028 20.89 35.0694 20.41 35.9361 20.07C36.8094 19.73 37.7328 19.56 38.7061 19.56C39.7461 19.56 40.6494 19.6967 41.4161 19.97C42.1828 20.2433 42.7261 20.5133 43.0461 20.78L41.3961 24.06C41.1561 23.9133 40.8161 23.7667 40.3761 23.62C39.9428 23.4733 39.4928 23.4 39.0261 23.4C38.3928 23.4 37.8628 23.49 37.4361 23.67C37.0094 23.85 36.6661 24.09 36.4061 24.39C36.1528 24.6833 35.9694 25.0067 35.8561 25.36C35.7494 25.7067 35.6961 26.05 35.6961 26.39C35.6961 26.7367 35.7494 27.0867 35.8561 27.44C35.9694 27.7933 36.1528 28.12 36.4061 28.42C36.6661 28.7133 37.0094 28.95 37.4361 29.13C37.8628 29.31 38.3928 29.4 39.0261 29.4ZM44.7025 19.8H53.5625V23.16H48.5725V24.76H53.5625V28.01H48.5725V29.64H53.5625V33H44.7025V19.8ZM56.4328 28.25L55.6528 19.24H59.8428L59.0728 28.25H56.4328ZM57.7428 33.24C57.3561 33.24 56.9995 33.1433 56.6728 32.95C56.3528 32.7567 56.0928 32.5 55.8928 32.18C55.6995 31.8533 55.6028 31.4933 55.6028 31.1C55.6028 30.5067 55.8128 30 56.2328 29.58C56.6528 29.1533 57.1561 28.94 57.7428 28.94C58.3428 28.94 58.8528 29.1533 59.2728 29.58C59.6928 30 59.9028 30.5067 59.9028 31.1C59.9028 31.6867 59.6928 32.19 59.2728 32.61C58.8528 33.03 58.3428 33.24 57.7428 33.24ZM62.4094 28.25L61.6294 19.24H65.8194L65.0494 28.25H62.4094ZM63.7194 33.24C63.3327 33.24 62.976 33.1433 62.6494 32.95C62.3294 32.7567 62.0694 32.5 61.8694 32.18C61.676 31.8533 61.5794 31.4933 61.5794 31.1C61.5794 30.5067 61.7894 30 62.2094 29.58C62.6294 29.1533 63.1327 28.94 63.7194 28.94C64.3194 28.94 64.8294 29.1533 65.2494 29.58C65.6694 30 65.8794 30.5067 65.8794 31.1C65.8794 31.6867 65.6694 32.19 65.2494 32.61C64.8294 33.03 64.3194 33.24 63.7194 33.24Z" fill="black"/>
</svg>
