<svg width="44" height="42" viewBox="0 0 44 42" fill="none" xmlns="http://www.w3.org/2000/svg">
<path d="M18.4646 36.6279C16.0297 36.7178 13.1326 36.2597 10.6625 35.4763C8.99815 34.9497 6.76584 33.7339 5.55943 32.4239C2.48615 29.0804 1.31055 26.8842 0.883461 21.2375C0.513611 16.3614 2.02383 11.1556 7.00801 7.24277C10.1473 4.77688 11.6576 3.63812 15.9857 2.31527C20.7673 0.855434 24.4042 0.337427 29.5116 1.28354C32.1842 1.78014 36.213 4.05766 37.6483 5.27776C42.5621 9.45607 42.9804 12.5727 43.1653 17.9497C43.2269 19.8162 42.6809 23.682 41.3733 26.1993C38.846 31.0454 33.8486 33.6397 28.4857 35.4378C27.2573 35.8402 26.0377 36.2255 24.8269 36.5937C24.3469 36.7392 23.9551 37.1074 23.7746 37.5912C23.4267 38.5116 23.4047 39.6889 23.2374 40.1469C23.1757 40.3139 22.9468 40.3439 22.8411 40.1983C22.4625 39.676 21.234 38.8198 19.6137 37.2915C19.2747 36.9704 18.9181 36.6793 18.4734 36.6279H18.4646Z" fill="white"/>
<path d="M43.4771 12.9822C43.424 12.7512 43.3621 12.5244 43.3002 12.2976C43.2338 12.0709 43.1498 11.8484 43.0746 11.6259C42.9994 11.4034 42.8755 11.1938 42.7871 10.9798C42.6986 10.7616 42.6588 10.522 42.5571 10.3081C42.4553 10.0942 42.3138 9.90164 42.2032 9.69199C42.0926 9.48234 41.9555 9.28981 41.8316 9.08444C41.7078 8.88334 41.5972 8.67369 41.4645 8.47688C41.3318 8.28434 41.2345 8.05758 41.0885 7.86932C40.947 7.68534 40.7568 7.53132 40.6064 7.35162C40.456 7.17192 40.31 6.98794 40.1508 6.81252C39.9915 6.6371 39.8411 6.4574 39.6775 6.29053C39.5138 6.12367 39.2971 6.00387 39.129 5.84128C38.9609 5.6787 38.7663 5.54178 38.5893 5.38775C38.4124 5.23373 38.231 5.08398 38.0497 4.93423C37.8683 4.78448 37.7533 4.55771 37.5631 4.41224C37.3773 4.26677 37.1296 4.19831 36.9394 4.0614C36.7492 3.92449 36.5723 3.76618 36.3732 3.63782C36.1786 3.50519 36.0326 3.29981 35.8291 3.17574C35.6301 3.05166 35.3558 3.03882 35.1479 2.91902C34.9445 2.79922 34.8074 2.56818 34.595 2.45266C34.3871 2.34142 34.1217 2.3243 33.9094 2.21734C33.6971 2.11037 33.4848 2.01197 33.268 1.90928C33.0513 1.81087 32.8301 1.72102 32.6134 1.6269C32.3922 1.53277 32.2153 1.34879 31.9941 1.26322C31.7729 1.17765 31.5429 1.10919 31.3173 1.0279C31.0917 0.946603 30.8308 0.976553 30.6052 0.903817C30.3752 0.831082 30.1407 0.758346 29.9063 0.694168C29.6718 0.629989 29.4639 0.450289 29.2251 0.398947C28.9862 0.347604 28.7385 0.326211 28.4952 0.283425C28.2564 0.24064 28.0175 0.155068 27.7742 0.12084C27.5309 0.0866113 27.2744 0.146511 27.0311 0.12084C26.7878 0.0951684 26.5357 0.155068 26.2924 0.137954C26.0491 0.12084 25.8103 0.00959706 25.5625 0.00103993C25.3148 -0.0075172 25.0716 0.039547 24.8238 0.039547C24.5761 0.039547 24.3329 0.0224328 24.0896 0.0267113C23.8419 0.0267113 23.5986 0.103726 23.3553 0.112283C23.1209 0.12084 22.882 0.0566613 22.6476 0.0737756C22.4131 0.0908898 22.1831 0.172183 21.9487 0.197854C21.7142 0.223525 21.4709 0.167904 21.2365 0.197854C21.0021 0.227804 20.7721 0.287704 20.542 0.321932C20.312 0.36044 20.082 0.420339 19.852 0.463125C19.622 0.505911 19.3699 0.467404 19.1398 0.518746C18.9098 0.565811 18.6754 0.595761 18.4454 0.651382C18.2154 0.702725 18.0163 0.86531 17.7863 0.920932C17.5607 0.976553 17.3086 0.950882 17.0786 1.01506C16.853 1.07496 16.6539 1.23755 16.4283 1.30172C16.2027 1.3659 15.9462 1.34023 15.725 1.40869C15.5038 1.47715 15.3136 1.65257 15.0925 1.72102C14.8713 1.78948 14.6059 1.73814 14.3847 1.81087C14.1636 1.88361 13.9557 1.99485 13.7345 2.07187C13.5178 2.15316 13.3408 2.33714 13.1241 2.42271C12.9073 2.50828 12.6685 2.53823 12.4562 2.62808C12.2438 2.71793 12.0315 2.81634 11.8236 2.91474C11.6113 3.01315 11.3724 3.05166 11.1645 3.15862C10.9566 3.26559 10.8195 3.48807 10.616 3.60359C10.4126 3.71484 10.1914 3.79185 9.99235 3.91593C9.7933 4.04001 9.57656 4.14269 9.38193 4.27533C9.1873 4.40796 9.03691 4.6005 8.8467 4.73741C8.6565 4.87433 8.43533 4.97273 8.24513 5.11393C8.05492 5.25512 7.88241 5.41343 7.69663 5.55462C7.502 5.70437 7.24987 5.78994 7.05525 5.93969C6.86062 6.08944 6.73234 6.32476 6.53771 6.47879C6.34309 6.63282 6.175 6.81252 5.98479 6.97083C5.79459 7.12913 5.54688 7.22326 5.36553 7.39012C5.18417 7.55699 4.97185 7.6939 4.79934 7.86932C4.63567 8.02763 4.45874 8.17738 4.30834 8.34424C4.15353 8.51111 4.02083 8.69937 3.87486 8.87051C3.72889 9.04165 3.58734 9.22135 3.44579 9.40105C3.30424 9.58075 3.25559 9.82035 3.12289 10.0043C2.99019 10.1883 2.84421 10.3594 2.72036 10.5477C2.59651 10.736 2.37092 10.8686 2.25591 11.0611C2.1409 11.2537 2.1409 11.5104 2.03474 11.7072C1.92858 11.904 1.75607 12.0709 1.65876 12.2762C1.56144 12.4773 1.53048 12.7084 1.44201 12.918C1.35355 13.1277 1.30047 13.3416 1.22084 13.5513C1.14122 13.7609 1.00852 13.9492 0.93775 14.1631C0.866977 14.377 0.836013 14.5995 0.774086 14.8134C0.71216 15.0274 0.641386 15.2413 0.588306 15.4595C0.535226 15.6777 0.398102 15.8788 0.353868 16.097C0.309635 16.3152 0.402525 16.5591 0.367138 16.7773C0.331751 16.9955 0.296365 17.2137 0.269824 17.4362C0.243284 17.6587 0.137124 17.8726 0.11943 18.0951C0.101737 18.3176 0.11943 18.5443 0.11943 18.7668C0.10616 18.985 0 19.2075 0 19.43C0 19.6611 0.0442335 19.8921 0.0486569 20.1189C0.0530802 20.3499 0.0221168 20.5809 0.0353868 20.812C0.0486569 21.043 0.176934 21.2655 0.194627 21.4923C0.212321 21.7233 0.207897 21.9544 0.230014 22.1811C0.256554 22.4079 0.283094 22.6389 0.314058 22.8657C0.345021 23.0925 0.362715 23.3235 0.398102 23.5503C0.437912 23.777 0.433488 24.0124 0.482145 24.2391C0.530802 24.4659 0.614846 24.6841 0.667926 24.9066C0.721006 25.1291 0.88467 25.3259 0.946597 25.5484C1.00852 25.7708 0.968714 26.0233 1.03949 26.2415C1.11026 26.4597 1.27393 26.648 1.35797 26.8662C1.43759 27.0801 1.54375 27.2855 1.63222 27.4994C1.72068 27.7133 1.80915 27.923 1.90646 28.1326C2.0082 28.3423 1.99935 28.599 2.10994 28.8043C2.22052 29.0097 2.35765 29.198 2.47708 29.3991C2.59651 29.5959 2.72921 29.7884 2.86191 29.981C2.99019 30.1735 3.13616 30.3575 3.27328 30.5457C3.41925 30.7383 3.64926 30.8709 3.79524 31.0592C3.94563 31.2474 4.09602 31.4314 4.25526 31.6154C4.4145 31.7993 4.53394 32.009 4.6976 32.1844C4.86126 32.3641 4.95415 32.6037 5.12666 32.7749C5.29917 32.946 5.50265 33.0872 5.68401 33.2498C5.86536 33.4124 6.12192 33.4851 6.31212 33.6391C6.4979 33.7932 6.58195 34.0713 6.781 34.2167C6.97563 34.3579 7.22333 34.4392 7.43123 34.5719C7.6347 34.7045 7.82933 34.8542 8.04165 34.9783C8.23628 35.0896 8.45745 35.1537 8.6565 35.2564C8.85555 35.3591 9.04133 35.4875 9.2448 35.5773C9.44828 35.6714 9.68272 35.6928 9.89061 35.7784C10.0985 35.864 10.2976 35.9624 10.5099 36.0394C10.7222 36.1164 10.9124 36.2448 11.1247 36.3132C11.337 36.3817 11.5626 36.4159 11.7794 36.4758C11.9961 36.5357 12.1908 36.6769 12.4075 36.7283C12.6242 36.7839 12.8454 36.8352 13.0666 36.8823C13.2877 36.9293 13.5222 36.908 13.7434 36.9465C13.9645 36.9892 14.2034 36.9422 14.4245 36.9764C14.6457 37.0106 14.8625 37.0877 15.0836 37.1176C15.3269 37.1518 15.5614 37.246 15.8091 37.2759C16.0523 37.3016 16.2956 37.3743 16.5433 37.3914C16.7866 37.4085 17.0387 37.3957 17.2865 37.4085C17.5342 37.4214 17.7819 37.2845 18.0296 37.2845C18.2773 37.2845 18.5206 37.3486 18.7683 37.3444C18.9629 37.3872 19.1443 37.4898 19.3124 37.6139C19.4672 37.7294 19.6706 37.8236 19.8122 37.9648C19.9582 38.1145 20.0864 38.2685 20.2236 38.3926C20.3784 38.5295 20.4845 38.7135 20.6394 38.8504C20.7942 38.9831 20.9711 39.0943 21.1304 39.2269C21.2896 39.3596 21.4621 39.4751 21.6169 39.6077C21.8779 39.8259 22.1521 40.0356 22.391 40.2752C22.422 40.3051 22.3777 40.4035 22.4087 40.4378C22.4131 40.4463 22.422 40.4463 22.4308 40.4592C22.5502 40.6004 22.736 40.703 22.8997 40.8186C23.0634 40.9341 23.2359 41.1138 23.4393 41.0967C23.6782 41.0796 23.8153 40.8699 23.8994 40.6945C23.979 40.5191 24.0498 40.3137 24.0807 40.134C24.1294 39.8559 24.0409 39.5607 24.0851 39.2826C24.1294 39.0045 24.3196 38.7563 24.3948 38.4825C24.47 38.2258 24.5054 37.9819 24.6558 37.7893C24.8062 37.5968 24.9875 37.4214 25.2529 37.3144C25.4874 37.2203 25.766 37.246 26.0137 37.1689C26.257 37.0919 26.4561 36.8694 26.7038 36.801C26.9515 36.7325 27.2169 36.724 27.4602 36.647C27.6813 36.5785 27.8892 36.4673 28.1104 36.3945C28.3316 36.3218 28.5748 36.3175 28.796 36.2448C29.0172 36.172 29.2118 36.0223 29.4286 35.9453C29.6497 35.8683 29.862 35.7741 30.0788 35.6971C30.2955 35.6201 30.5521 35.6287 30.7688 35.5474C30.9856 35.4661 31.1625 35.2778 31.3748 35.1922C31.5916 35.1067 31.8658 35.1537 32.0781 35.0682C32.2949 34.9783 32.463 34.7943 32.6753 34.7002C32.8876 34.6061 33.1574 34.6318 33.3698 34.5333C33.5821 34.4349 33.7944 34.3408 34.0023 34.2381C34.2102 34.1354 34.3473 33.9001 34.5508 33.7932C34.7543 33.6862 34.9622 33.5792 35.1612 33.468C35.3647 33.3567 35.5505 33.2198 35.7495 33.1043C35.9486 32.9845 36.1432 32.8647 36.3378 32.7406C36.5325 32.6166 36.7802 32.5695 36.9704 32.4369C37.1606 32.3042 37.3552 32.1801 37.541 32.0432C37.7268 31.9063 37.8772 31.7266 38.0585 31.5854C38.2399 31.4399 38.377 31.256 38.5495 31.1019C38.722 30.9522 38.983 30.888 39.1467 30.7297C39.3147 30.5714 39.4386 30.3703 39.5978 30.2077C39.7527 30.0494 39.9252 29.9039 40.0711 29.7414C40.2171 29.5745 40.2658 29.3349 40.4073 29.1637C40.5489 28.9926 40.6993 28.8343 40.832 28.6589C40.9647 28.4835 41.1991 28.3722 41.3229 28.1925C41.4468 28.0085 41.5132 27.7903 41.6282 27.6021C41.7432 27.4138 41.7918 27.1913 41.898 26.9988C42.0041 26.8063 42.1368 26.6308 42.2342 26.4297C42.327 26.2329 42.4642 26.0532 42.5482 25.8479C42.6323 25.6468 42.7827 25.4671 42.8578 25.2574C42.933 25.052 42.9463 24.8253 43.0082 24.6156C43.0746 24.4017 43.2029 24.2049 43.2604 23.9867C43.3223 23.7728 43.2117 23.516 43.2648 23.2978C43.3179 23.0796 43.4019 22.8743 43.4462 22.656C43.4948 22.4378 43.5214 22.2154 43.5612 21.9972C43.601 21.7789 43.6364 21.5607 43.6717 21.3383C43.7071 21.1158 43.8664 20.9147 43.8929 20.6922C43.9195 20.4697 43.8752 20.2429 43.8929 20.0205C43.9106 19.798 43.9902 19.5798 43.9991 19.3573C44.0079 19.1348 43.9504 18.908 43.9504 18.6855C43.9504 18.4502 43.9725 18.2106 43.9681 17.971C43.9681 17.7314 43.977 17.4961 43.9681 17.2565C43.9593 17.0169 43.9504 16.7816 43.9371 16.542C43.9239 16.3024 43.9018 16.0671 43.8796 15.8275C43.8575 15.5879 43.7469 15.3611 43.7204 15.1258C43.6939 14.8905 43.8089 14.6337 43.7735 14.3984C43.7381 14.1631 43.6983 13.9235 43.6585 13.6882C43.6142 13.4529 43.5214 13.2261 43.4727 12.995L43.4771 12.9822ZM22.6077 39.4537C22.5989 39.5008 22.6653 39.4366 22.6918 39.428C22.6697 39.4109 22.6077 39.4537 22.6077 39.4537ZM41.9201 22.5149C41.867 22.7288 41.8095 22.9384 41.7476 23.1481C41.6857 23.3577 41.6326 23.5717 41.5618 23.777C41.491 23.9824 41.4512 24.2049 41.3716 24.406C41.292 24.6114 41.1504 24.7868 41.0575 24.9879C40.9647 25.189 40.9072 25.3986 40.8054 25.5954C40.7037 25.7922 40.6152 25.9933 40.5046 26.1816C40.394 26.3698 40.2613 26.5495 40.1375 26.7335C40.0181 26.9175 39.85 27.0673 39.7173 27.247C39.589 27.4267 39.4961 27.6277 39.359 27.7989C39.2219 27.97 39.0759 28.1283 38.9299 28.2909C38.7839 28.4535 38.6247 28.6033 38.4743 28.7616C38.3195 28.9199 38.2133 29.1167 38.0541 29.2664C37.8949 29.4162 37.7533 29.5873 37.5852 29.7328C37.4216 29.8783 37.2535 30.0237 37.081 30.1649C36.9084 30.3018 36.6696 30.3575 36.4926 30.4901C36.3157 30.6227 36.1919 30.8238 36.0105 30.9479C35.8291 31.072 35.6301 31.1747 35.4443 31.2945C35.2585 31.4143 35.0197 31.4528 34.8295 31.5683C34.6348 31.6881 34.5066 31.9149 34.3075 32.0261C34.1085 32.1416 33.8386 32.1331 33.6352 32.24C33.4317 32.347 33.2813 32.5481 33.0778 32.6508C32.8743 32.7535 32.6664 32.8562 32.4585 32.9546C32.2507 33.053 32.0472 33.1557 31.8349 33.2498C31.627 33.3439 31.3704 33.3396 31.1581 33.4295C30.9458 33.5193 30.7423 33.622 30.5255 33.7076C30.3132 33.7932 30.1407 33.9771 29.924 34.0584C29.7072 34.1397 29.4905 34.2167 29.2737 34.2938C29.0481 34.375 28.7739 34.3365 28.5439 34.4135C28.3139 34.4906 28.0971 34.5932 27.8671 34.6703C27.6371 34.7473 27.3938 34.7729 27.1594 34.8457C26.9294 34.9184 26.7259 35.0767 26.4959 35.1495C26.2659 35.2222 26.058 35.3677 25.8279 35.4404C25.6201 35.5046 25.3768 35.4704 25.1644 35.5303C24.9521 35.5902 24.7575 35.7057 24.554 35.7827C24.3461 35.8597 24.1427 35.9367 23.9569 36.048C23.7711 36.1592 23.6561 36.3346 23.5145 36.5015C23.3818 36.6555 23.2137 36.7924 23.1297 37.0064C23.0412 37.2417 23.0368 37.4941 22.9837 37.7337C22.9307 37.9776 22.798 38.2044 22.7626 38.4482C22.7272 38.6664 22.7228 38.8889 22.6874 39.1029C22.6785 39.1456 22.6741 39.2098 22.6608 39.2569C22.6033 39.2055 22.5989 39.09 22.5414 39.0387C22.3468 38.8675 22.161 38.6836 21.9664 38.5167C21.7673 38.3498 21.4975 38.2643 21.2984 38.0974C21.1348 37.9562 21.033 37.7466 20.8694 37.6054C20.7057 37.4599 20.4757 37.3914 20.312 37.246C20.1528 37.1005 20.0599 36.8823 19.9007 36.7368C19.7414 36.5913 19.5026 36.5357 19.3345 36.4074C19.162 36.2747 19.0514 36.0437 18.8567 35.9496C18.6665 35.8554 18.4321 35.8084 18.2109 35.7699C18.1579 35.7613 18.1092 35.8725 18.0694 35.8768L18.0473 35.8169C17.8084 35.8255 17.5696 35.834 17.3351 35.8298C17.0963 35.8298 16.8618 35.7527 16.623 35.7399C16.3841 35.7313 16.1408 35.8469 15.9019 35.8298C15.6631 35.8126 15.4331 35.7399 15.1942 35.7142C14.9598 35.6886 14.7253 35.6287 14.4909 35.5944C14.2565 35.5602 14.0088 35.5944 13.7743 35.5559C13.5399 35.5174 13.3143 35.4233 13.0798 35.3762C12.8454 35.3292 12.611 35.2992 12.3765 35.2479C12.1465 35.1965 11.9342 35.0596 11.7042 34.9997C11.4742 34.9398 11.2132 34.9783 10.9876 34.9141C10.7709 34.8542 10.5408 34.8157 10.3241 34.743C10.1118 34.6703 9.926 34.512 9.71368 34.4307C9.50136 34.3494 9.31115 34.2253 9.10326 34.1354C8.89536 34.0456 8.70516 33.9301 8.50168 33.8274C8.29821 33.7247 8.09031 33.6391 7.89568 33.5279C7.70105 33.4166 7.50643 33.3011 7.32065 33.177C7.13044 33.053 6.88716 33.0016 6.7058 32.8647C6.52444 32.7278 6.36963 32.5609 6.20154 32.4112C6.03345 32.2614 5.96268 32.0218 5.80786 31.8592C5.65747 31.7009 5.41418 31.6196 5.26821 31.4571C5.12224 31.2945 5.0382 31.0805 4.89665 30.9137C4.7551 30.7468 4.56048 30.6185 4.42335 30.4473C4.28623 30.2762 4.12256 30.1221 3.99429 29.9424C3.86601 29.767 3.78639 29.5531 3.66696 29.3734C3.54753 29.1894 3.39713 29.0226 3.28655 28.8386C3.17597 28.6503 3.07865 28.4535 2.98134 28.261C2.87518 28.0599 2.86633 27.8203 2.77344 27.6106C2.68497 27.4053 2.47265 27.2384 2.39746 27.0287C2.32226 26.8148 2.25591 26.5966 2.18956 26.3827C2.12321 26.1688 2.14533 25.9292 2.09225 25.7067C2.03917 25.4885 1.95512 25.2745 1.91089 25.0563C1.86665 24.8338 1.92416 24.5985 1.88877 24.376C1.84896 24.1535 1.77819 23.9396 1.74722 23.7171C1.71626 23.4946 1.72953 23.2722 1.70299 23.0497C1.67645 22.8272 1.53933 22.6175 1.51721 22.3951C1.49509 22.1726 1.50836 21.9458 1.49509 21.7233C1.48182 21.5008 1.46855 21.2784 1.46413 21.0559C1.45528 20.8334 1.47298 20.6109 1.47298 20.3841C1.47298 20.1616 1.52163 19.9392 1.53048 19.7167C1.53933 19.4942 1.51279 19.2717 1.53048 19.0492C1.54817 18.8267 1.45971 18.5957 1.48625 18.3732C1.50836 18.1507 1.64991 17.9411 1.6853 17.7229C1.71626 17.5004 1.66318 17.2651 1.70741 17.0469C1.75165 16.8286 1.77819 16.6019 1.82684 16.3837C1.87992 16.1655 1.94185 15.9473 2.00378 15.7333C2.06571 15.5194 2.25149 15.3397 2.32226 15.1258C2.39303 14.9118 2.44169 14.6979 2.52573 14.4883C2.60535 14.2786 2.68055 14.069 2.77344 13.8636C2.86633 13.6582 2.95038 13.4529 3.05211 13.2518C3.15385 13.0507 3.16712 12.8068 3.2777 12.61C3.39713 12.4046 3.52099 12.195 3.64484 11.9939C3.77312 11.7928 3.94563 11.6173 4.08275 11.4205C4.21988 11.2237 4.44547 11.0911 4.59144 10.9028C4.73741 10.7146 4.85684 10.5092 5.01166 10.3252C5.16647 10.1455 5.24167 9.88881 5.40534 9.71766C5.569 9.54224 5.86094 9.48662 6.03345 9.31976C6.20596 9.15289 6.32097 8.93469 6.50233 8.7721C6.67926 8.60952 6.87831 8.4726 7.06409 8.31857C7.24987 8.16455 7.40469 7.97629 7.59489 7.83082C7.76741 7.6939 7.96646 7.58694 8.13897 7.45002C8.31148 7.31311 8.44418 7.12485 8.61669 6.98794C8.79362 6.8553 8.98383 6.73978 9.16076 6.60715C9.33769 6.47451 9.55444 6.39322 9.7358 6.26486C9.91715 6.1365 10.0764 5.98248 10.2578 5.8584C10.4391 5.73432 10.6735 5.68298 10.8593 5.56318C11.0451 5.44338 11.2309 5.32786 11.4211 5.21661C11.6113 5.10537 11.7661 4.93851 11.9607 4.83154C12.1598 4.72458 12.319 4.54488 12.5225 4.44647C12.726 4.34806 12.9516 4.28816 13.1595 4.19831C13.3674 4.10846 13.6018 4.07851 13.8097 3.99294C14.0176 3.90737 14.2476 3.87314 14.4599 3.79185C14.6723 3.71484 14.8713 3.60787 15.0881 3.53514C15.3004 3.4624 15.4685 3.25275 15.6852 3.18429C15.9019 3.11584 16.1364 3.10728 16.3576 3.0431C16.5743 2.97892 16.7955 2.91902 17.0122 2.85484C17.229 2.79067 17.428 2.66231 17.6447 2.59813C17.8615 2.53823 18.0827 2.49117 18.3038 2.43554C18.5206 2.37992 18.7594 2.38848 18.9762 2.33714C19.1929 2.28579 19.4052 2.2045 19.6264 2.15744C19.8476 2.11037 20.0643 2.03764 20.2855 1.99485C20.5067 1.95207 20.7278 1.89644 20.949 1.85794C21.1702 1.81943 21.409 1.87933 21.6346 1.8451C21.8558 1.81087 22.0769 1.77665 22.3025 1.7467C22.5281 1.72102 22.7449 1.6269 22.966 1.6055C23.1916 1.58411 23.4261 1.67824 23.6472 1.6654C23.8728 1.65257 24.094 1.57555 24.3196 1.57127C24.5452 1.56272 24.7708 1.59695 24.9964 1.59695C25.2219 1.59695 25.4475 1.47715 25.6731 1.48142C25.8987 1.48142 26.1199 1.63117 26.3455 1.63973C26.5711 1.64829 26.7967 1.60122 27.0223 1.61406C27.2478 1.63117 27.4734 1.62262 27.699 1.64401C27.9246 1.6654 28.1325 1.8066 28.3537 1.83655C28.5793 1.8665 28.827 1.74242 29.0481 1.78092C29.2693 1.81943 29.4816 1.92639 29.6984 1.97346C29.9195 2.02052 30.1496 2.03336 30.3663 2.08898C30.5831 2.1446 30.7821 2.27724 30.9944 2.34569C31.22 2.41843 31.4766 2.41843 31.7022 2.504C31.9277 2.58529 32.1578 2.65375 32.3789 2.7436C32.6001 2.83345 32.7815 3.01743 32.9982 3.11156C33.2149 3.20996 33.4848 3.20996 33.6971 3.31693C33.9094 3.41961 34.0554 3.65921 34.2633 3.77046C34.4756 3.8817 34.7366 3.90309 34.9445 4.01861C35.1524 4.13414 35.2851 4.36946 35.4885 4.48926C35.692 4.61333 35.8911 4.73741 36.0901 4.86577C36.2892 4.99413 36.5767 5.00268 36.7713 5.13532C36.9659 5.27223 37.1606 5.41343 37.3464 5.5589C37.5366 5.70009 37.74 5.83273 37.9214 5.98248C38.1027 6.13223 38.2885 6.29053 38.461 6.44884C38.638 6.60715 38.7397 6.84247 38.9078 7.00933C39.0759 7.1762 39.2263 7.3559 39.3855 7.53132C39.5448 7.70674 39.735 7.85649 39.8854 8.03619C40.0358 8.22017 40.226 8.37419 40.3631 8.56673C40.5002 8.75927 40.5267 9.02026 40.6506 9.21707C40.7789 9.41389 40.947 9.58931 41.0575 9.7904C41.1726 9.99577 41.2522 10.214 41.3539 10.4279C41.4556 10.6376 41.6591 10.8087 41.7476 11.0269C41.8316 11.2451 41.8936 11.4762 41.9599 11.6986C42.0307 11.9211 41.9599 12.1778 42.0174 12.4046C42.0705 12.6356 42.1811 12.8539 42.2209 13.0849C42.2651 13.3159 42.3669 13.5427 42.4022 13.778C42.4332 14.0133 42.4244 14.2529 42.4465 14.4883C42.4686 14.7236 42.4465 14.9632 42.4597 15.1985C42.4774 15.4338 42.4199 15.6734 42.4332 15.9088C42.4465 16.1441 42.5217 16.3794 42.5305 16.6147C42.5394 16.85 42.4863 17.0896 42.4907 17.325C42.4996 17.5432 42.6721 17.7571 42.6721 17.9753C42.6721 18.1935 42.6323 18.4117 42.619 18.6299C42.6057 18.8481 42.6101 19.0706 42.588 19.2845C42.5659 19.5027 42.5438 19.721 42.5173 19.9392C42.4907 20.1574 42.327 20.3542 42.2917 20.5681C42.2563 20.782 42.2828 21.0088 42.243 21.2227C42.1988 21.4367 42.0882 21.6378 42.0395 21.8517C41.9909 22.0656 41.9511 22.2795 41.898 22.4892L41.9201 22.5149Z" fill="#000001"/>
<path d="M19.144 9.25766H23.692L30.22 25.0977H25.264L24.256 22.3497H18.604L17.584 25.0977H12.616L19.144 9.25766ZM20.164 18.3177H22.696L21.448 14.8257H21.412L20.164 18.3177Z" fill="black"/>
</svg>
