<svg width="44" height="42" viewBox="0 0 44 42" fill="none" xmlns="http://www.w3.org/2000/svg">
<path d="M18.4646 37.5303C16.0297 37.6202 13.1326 37.1621 10.6625 36.3787C8.99815 35.8521 6.76584 34.6363 5.55943 33.3263C2.48615 29.9828 1.31055 27.7866 0.883461 22.1399C0.513611 17.2638 2.02383 12.058 7.00801 8.14511C10.1473 5.67922 11.6576 4.54046 15.9857 3.21762C20.7673 1.75778 24.4042 1.23977 29.5116 2.18588C32.1842 2.68249 36.213 4.96001 37.6483 6.18011C42.5621 10.3584 42.9804 13.475 43.1653 18.852C43.2269 20.7186 42.6809 24.5844 41.3733 27.1016C38.846 31.9478 33.8486 34.5421 28.4857 36.3401C27.2573 36.7425 26.0377 37.1278 24.8269 37.496C24.3469 37.6416 23.9551 38.0097 23.7746 38.4935C23.4267 39.4139 23.4047 40.5912 23.2374 41.0493C23.1757 41.2162 22.9468 41.2462 22.8411 41.1007C22.4625 40.5784 21.234 39.7222 19.6137 38.1938C19.2747 37.8727 18.9181 37.5816 18.4734 37.5303H18.4646Z" fill="white"/>
<path d="M43.4771 13.8846C43.424 13.6535 43.3621 13.4267 43.3002 13.2C43.2338 12.9732 43.1498 12.7507 43.0746 12.5282C42.9994 12.3058 42.8755 12.0961 42.7871 11.8822C42.6986 11.664 42.6588 11.4244 42.5571 11.2105C42.4553 10.9965 42.3138 10.804 42.2032 10.5943C42.0926 10.3847 41.9555 10.1922 41.8316 9.98678C41.7078 9.78569 41.5972 9.57604 41.4645 9.37922C41.3318 9.18669 41.2345 8.95992 41.0885 8.77167C40.947 8.58769 40.7568 8.43366 40.6064 8.25396C40.456 8.07426 40.31 7.89028 40.1508 7.71486C39.9915 7.53944 39.8411 7.35974 39.6775 7.19288C39.5138 7.02601 39.2971 6.90621 39.129 6.74363C38.9609 6.58104 38.7663 6.44413 38.5893 6.2901C38.4124 6.13607 38.231 5.98632 38.0497 5.83657C37.8683 5.68682 37.7533 5.46006 37.5631 5.31459C37.3773 5.16911 37.1296 5.10066 36.9394 4.96374C36.7492 4.82683 36.5723 4.66852 36.3732 4.54016C36.1786 4.40753 36.0326 4.20216 35.8291 4.07808C35.6301 3.954 35.3558 3.94117 35.1479 3.82137C34.9445 3.70157 34.8074 3.47052 34.595 3.355C34.3871 3.24376 34.1217 3.22665 33.9094 3.11968C33.6971 3.01272 33.4848 2.91431 33.268 2.81162C33.0513 2.71322 32.8301 2.62337 32.6134 2.52924C32.3922 2.43511 32.2153 2.25113 31.9941 2.16556C31.7729 2.07999 31.5429 2.01153 31.3173 1.93024C31.0917 1.84895 30.8308 1.8789 30.6052 1.80616C30.3752 1.73343 30.1407 1.66069 29.9063 1.59651C29.6718 1.53233 29.4639 1.35263 29.2251 1.30129C28.9862 1.24995 28.7385 1.22855 28.4952 1.18577C28.2564 1.14298 28.0175 1.05741 27.7742 1.02318C27.5309 0.988955 27.2744 1.04885 27.0311 1.02318C26.7878 0.997512 26.5357 1.05741 26.2924 1.0403C26.0491 1.02318 25.8103 0.911941 25.5625 0.903384C25.3148 0.894827 25.0716 0.941891 24.8238 0.941891C24.5761 0.941891 24.3329 0.924777 24.0896 0.929055C23.8419 0.929055 23.5986 1.00607 23.3553 1.01463C23.1209 1.02318 22.882 0.959005 22.6476 0.976119C22.4131 0.993234 22.1831 1.07453 21.9487 1.1002C21.7142 1.12587 21.4709 1.07025 21.2365 1.1002C21.0021 1.13015 20.7721 1.19005 20.542 1.22428C20.312 1.26278 20.082 1.32268 19.852 1.36547C19.622 1.40825 19.3699 1.36975 19.1398 1.42109C18.9098 1.46815 18.6754 1.4981 18.4454 1.55373C18.2154 1.60507 18.0163 1.76765 17.7863 1.82328C17.5607 1.8789 17.3086 1.85323 17.0786 1.9174C16.853 1.9773 16.6539 2.13989 16.4283 2.20407C16.2027 2.26825 15.9462 2.24258 15.725 2.31103C15.5038 2.37949 15.3136 2.55491 15.0925 2.62337C14.8713 2.69182 14.6059 2.64048 14.3847 2.71322C14.1636 2.78595 13.9557 2.8972 13.7345 2.97421C13.5178 3.0555 13.3408 3.23948 13.1241 3.32505C12.9073 3.41062 12.6685 3.44057 12.4562 3.53042C12.2438 3.62027 12.0315 3.71868 11.8236 3.81709C11.6113 3.91549 11.3724 3.954 11.1645 4.06097C10.9566 4.16793 10.8195 4.39042 10.616 4.50594C10.4126 4.61718 10.1914 4.69419 9.99235 4.81827C9.7933 4.94235 9.57656 5.04504 9.38193 5.17767C9.1873 5.31031 9.03691 5.50284 8.8467 5.63976C8.6565 5.77667 8.43533 5.87508 8.24513 6.01627C8.05492 6.15746 7.88241 6.31577 7.69663 6.45696C7.502 6.60671 7.24987 6.69228 7.05525 6.84203C6.86062 6.99178 6.73234 7.22711 6.53771 7.38113C6.34309 7.53516 6.175 7.71486 5.98479 7.87317C5.79459 8.03148 5.54688 8.1256 5.36553 8.29247C5.18417 8.45933 4.97185 8.59625 4.79934 8.77167C4.63567 8.92997 4.45874 9.07972 4.30834 9.24659C4.15353 9.41345 4.02083 9.60171 3.87486 9.77285C3.72889 9.94399 3.58734 10.1237 3.44579 10.3034C3.30424 10.4831 3.25559 10.7227 3.12289 10.9067C2.99019 11.0907 2.84421 11.2618 2.72036 11.45C2.59651 11.6383 2.37092 11.7709 2.25591 11.9635C2.1409 12.156 2.1409 12.4127 2.03474 12.6095C1.92858 12.8064 1.75607 12.9732 1.65876 13.1786C1.56144 13.3797 1.53048 13.6107 1.44201 13.8204C1.35355 14.03 1.30047 14.244 1.22084 14.4536C1.14122 14.6633 1.00852 14.8515 0.93775 15.0654C0.866977 15.2794 0.836013 15.5019 0.774086 15.7158C0.71216 15.9297 0.641386 16.1436 0.588306 16.3618C0.535226 16.5801 0.398102 16.7811 0.353868 16.9994C0.309635 17.2176 0.402525 17.4614 0.367138 17.6796C0.331751 17.8979 0.296365 18.1161 0.269824 18.3385C0.243284 18.561 0.137124 18.775 0.11943 18.9974C0.101737 19.2199 0.11943 19.4467 0.11943 19.6692C0.10616 19.8874 0 20.1099 0 20.3324C0 20.5634 0.0442335 20.7944 0.0486569 21.0212C0.0530802 21.2522 0.0221168 21.4833 0.0353868 21.7143C0.0486569 21.9454 0.176934 22.1679 0.194627 22.3946C0.212321 22.6257 0.207897 22.8567 0.230014 23.0835C0.256554 23.3102 0.283094 23.5413 0.314058 23.768C0.345021 23.9948 0.362715 24.2258 0.398102 24.4526C0.437912 24.6794 0.433488 24.9147 0.482145 25.1415C0.530802 25.3682 0.614846 25.5864 0.667926 25.8089C0.721006 26.0314 0.88467 26.2282 0.946597 26.4507C1.00852 26.6732 0.968714 26.9256 1.03949 27.1438C1.11026 27.362 1.27393 27.5503 1.35797 27.7685C1.43759 27.9824 1.54375 28.1878 1.63222 28.4017C1.72068 28.6157 1.80915 28.8253 1.90646 29.035C2.0082 29.2446 1.99935 29.5013 2.10994 29.7067C2.22052 29.9121 2.35765 30.1003 2.47708 30.3014C2.59651 30.4982 2.72921 30.6908 2.86191 30.8833C2.99019 31.0758 3.13616 31.2598 3.27328 31.4481C3.41925 31.6406 3.64926 31.7732 3.79524 31.9615C3.94563 32.1498 4.09602 32.3337 4.25526 32.5177C4.4145 32.7017 4.53394 32.9113 4.6976 33.0868C4.86126 33.2665 4.95415 33.5061 5.12666 33.6772C5.29917 33.8483 5.50265 33.9895 5.68401 34.1521C5.86536 34.3147 6.12192 34.3874 6.31212 34.5415C6.4979 34.6955 6.58195 34.9736 6.781 35.1191C6.97563 35.2603 7.22333 35.3416 7.43123 35.4742C7.6347 35.6068 7.82933 35.7566 8.04165 35.8807C8.23628 35.9919 8.45745 36.0561 8.6565 36.1588C8.85555 36.2615 9.04133 36.3898 9.2448 36.4797C9.44828 36.5738 9.68272 36.5952 9.89061 36.6808C10.0985 36.7663 10.2976 36.8647 10.5099 36.9417C10.7222 37.0188 10.9124 37.1471 11.1247 37.2156C11.337 37.284 11.5626 37.3183 11.7794 37.3782C11.9961 37.4381 12.1908 37.5793 12.4075 37.6306C12.6242 37.6862 12.8454 37.7376 13.0666 37.7846C13.2877 37.8317 13.5222 37.8103 13.7434 37.8488C13.9645 37.8916 14.2034 37.8445 14.4245 37.8788C14.6457 37.913 14.8625 37.99 15.0836 38.0199C15.3269 38.0542 15.5614 38.1483 15.8091 38.1783C16.0523 38.2039 16.2956 38.2767 16.5433 38.2938C16.7866 38.3109 17.0387 38.2981 17.2865 38.3109C17.5342 38.3237 17.7819 38.1868 18.0296 38.1868C18.2773 38.1868 18.5206 38.251 18.7683 38.2467C18.9629 38.2895 19.1443 38.3922 19.3124 38.5163C19.4672 38.6318 19.6706 38.7259 19.8122 38.8671C19.9582 39.0169 20.0864 39.1709 20.2236 39.295C20.3784 39.4319 20.4845 39.6159 20.6394 39.7528C20.7942 39.8854 20.9711 39.9966 21.1304 40.1293C21.2896 40.2619 21.4621 40.3774 21.6169 40.5101C21.8779 40.7283 22.1521 40.9379 22.391 41.1775C22.422 41.2075 22.3777 41.3059 22.4087 41.3401C22.4131 41.3487 22.422 41.3487 22.4308 41.3615C22.5502 41.5027 22.736 41.6054 22.8997 41.7209C23.0634 41.8364 23.2359 42.0161 23.4393 41.999C23.6782 41.9819 23.8153 41.7723 23.8994 41.5968C23.979 41.4214 24.0498 41.216 24.0807 41.0363C24.1294 40.7582 24.0409 40.463 24.0851 40.1849C24.1294 39.9068 24.3196 39.6586 24.3948 39.3848C24.47 39.1281 24.5054 38.8842 24.6558 38.6917C24.8062 38.4991 24.9875 38.3237 25.2529 38.2168C25.4874 38.1226 25.766 38.1483 26.0137 38.0713C26.257 37.9943 26.4561 37.7718 26.7038 37.7033C26.9515 37.6349 27.2169 37.6263 27.4602 37.5493C27.6813 37.4808 27.8892 37.3696 28.1104 37.2969C28.3316 37.2241 28.5748 37.2199 28.796 37.1471C29.0172 37.0744 29.2118 36.9246 29.4286 36.8476C29.6497 36.7706 29.862 36.6765 30.0788 36.5995C30.2955 36.5224 30.5521 36.531 30.7688 36.4497C30.9856 36.3684 31.1625 36.1802 31.3748 36.0946C31.5916 36.009 31.8658 36.0561 32.0781 35.9705C32.2949 35.8807 32.463 35.6967 32.6753 35.6026C32.8876 35.5084 33.1574 35.5341 33.3698 35.4357C33.5821 35.3373 33.7944 35.2432 34.0023 35.1405C34.2102 35.0378 34.3473 34.8025 34.5508 34.6955C34.7543 34.5885 34.9622 34.4816 35.1612 34.3703C35.3647 34.2591 35.5505 34.1222 35.7495 34.0067C35.9486 33.8869 36.1432 33.7671 36.3378 33.643C36.5325 33.5189 36.7802 33.4718 36.9704 33.3392C37.1606 33.2066 37.3552 33.0825 37.541 32.9456C37.7268 32.8087 37.8772 32.629 38.0585 32.4878C38.2399 32.3423 38.377 32.1583 38.5495 32.0043C38.722 31.8545 38.983 31.7904 39.1467 31.632C39.3147 31.4737 39.4386 31.2726 39.5978 31.1101C39.7527 30.9518 39.9252 30.8063 40.0711 30.6437C40.2171 30.4768 40.2658 30.2372 40.4073 30.0661C40.5489 29.895 40.6993 29.7366 40.832 29.5612C40.9647 29.3858 41.1991 29.2746 41.3229 29.0949C41.4468 28.9109 41.5132 28.6927 41.6282 28.5044C41.7432 28.3162 41.7918 28.0937 41.898 27.9011C42.0041 27.7086 42.1368 27.5332 42.2342 27.3321C42.327 27.1353 42.4642 26.9556 42.5482 26.7502C42.6323 26.5491 42.7827 26.3694 42.8578 26.1598C42.933 25.9544 42.9463 25.7276 43.0082 25.518C43.0746 25.3041 43.2029 25.1072 43.2604 24.889C43.3223 24.6751 43.2117 24.4184 43.2648 24.2002C43.3179 23.982 43.4019 23.7766 43.4462 23.5584C43.4948 23.3402 43.5214 23.1177 43.5612 22.8995C43.601 22.6813 43.6364 22.4631 43.6717 22.2406C43.7071 22.0181 43.8664 21.817 43.8929 21.5945C43.9195 21.372 43.8752 21.1453 43.8929 20.9228C43.9106 20.7003 43.9902 20.4821 43.9991 20.2596C44.0079 20.0371 43.9504 19.8104 43.9504 19.5879C43.9504 19.3526 43.9725 19.113 43.9681 18.8734C43.9681 18.6338 43.977 18.3984 43.9681 18.1588C43.9593 17.9192 43.9504 17.6839 43.9371 17.4443C43.9239 17.2047 43.9018 16.9694 43.8796 16.7298C43.8575 16.4902 43.7469 16.2634 43.7204 16.0281C43.6939 15.7928 43.8089 15.5361 43.7735 15.3008C43.7381 15.0654 43.6983 14.8258 43.6585 14.5905C43.6142 14.3552 43.5214 14.1284 43.4727 13.8974L43.4771 13.8846ZM22.6077 40.356C22.5989 40.4031 22.6653 40.3389 22.6918 40.3304C22.6697 40.3133 22.6077 40.356 22.6077 40.356ZM41.9201 23.4172C41.867 23.6311 41.8095 23.8408 41.7476 24.0504C41.6857 24.2601 41.6326 24.474 41.5618 24.6794C41.491 24.8848 41.4512 25.1072 41.3716 25.3083C41.292 25.5137 41.1504 25.6891 41.0575 25.8902C40.9647 26.0913 40.9072 26.301 40.8054 26.4978C40.7037 26.6946 40.6152 26.8957 40.5046 27.0839C40.394 27.2722 40.2613 27.4519 40.1375 27.6359C40.0181 27.8198 39.85 27.9696 39.7173 28.1493C39.589 28.329 39.4961 28.5301 39.359 28.7012C39.2219 28.8724 39.0759 29.0307 38.9299 29.1933C38.7839 29.3559 38.6247 29.5056 38.4743 29.6639C38.3195 29.8222 38.2133 30.019 38.0541 30.1688C37.8949 30.3185 37.7533 30.4897 37.5852 30.6351C37.4216 30.7806 37.2535 30.9261 37.081 31.0673C36.9084 31.2042 36.6696 31.2598 36.4926 31.3924C36.3157 31.5251 36.1919 31.7262 36.0105 31.8503C35.8291 31.9743 35.6301 32.077 35.4443 32.1968C35.2585 32.3166 35.0197 32.3551 34.8295 32.4706C34.6348 32.5904 34.5066 32.8172 34.3075 32.9285C34.1085 33.044 33.8386 33.0354 33.6352 33.1424C33.4317 33.2493 33.2813 33.4504 33.0778 33.5531C32.8743 33.6558 32.6664 33.7585 32.4585 33.8569C32.2507 33.9553 32.0472 34.058 31.8349 34.1521C31.627 34.2463 31.3704 34.242 31.1581 34.3318C30.9458 34.4217 30.7423 34.5244 30.5255 34.6099C30.3132 34.6955 30.1407 34.8795 29.924 34.9608C29.7072 35.0421 29.4905 35.1191 29.2737 35.1961C29.0481 35.2774 28.7739 35.2389 28.5439 35.3159C28.3139 35.3929 28.0971 35.4956 27.8671 35.5726C27.6371 35.6496 27.3938 35.6753 27.1594 35.748C26.9294 35.8208 26.7259 35.9791 26.4959 36.0518C26.2659 36.1245 26.058 36.27 25.8279 36.3428C25.6201 36.4069 25.3768 36.3727 25.1644 36.4326C24.9521 36.4925 24.7575 36.608 24.554 36.685C24.3461 36.7621 24.1427 36.8391 23.9569 36.9503C23.7711 37.0615 23.6561 37.237 23.5145 37.4038C23.3818 37.5579 23.2137 37.6948 23.1297 37.9087C23.0412 38.144 23.0368 38.3965 22.9837 38.6361C22.9307 38.8799 22.798 39.1067 22.7626 39.3506C22.7272 39.5688 22.7228 39.7913 22.6874 40.0052C22.6785 40.048 22.6741 40.1122 22.6608 40.1592C22.6033 40.1079 22.5989 39.9924 22.5414 39.941C22.3468 39.7699 22.161 39.5859 21.9664 39.419C21.7673 39.2522 21.4975 39.1666 21.2984 38.9997C21.1348 38.8585 21.033 38.6489 20.8694 38.5077C20.7057 38.3622 20.4757 38.2938 20.312 38.1483C20.1528 38.0028 20.0599 37.7846 19.9007 37.6392C19.7414 37.4937 19.5026 37.4381 19.3345 37.3097C19.162 37.1771 19.0514 36.946 18.8567 36.8519C18.6665 36.7578 18.4321 36.7107 18.2109 36.6722C18.1579 36.6636 18.1092 36.7749 18.0694 36.7792L18.0473 36.7193C17.8084 36.7278 17.5696 36.7364 17.3351 36.7321C17.0963 36.7321 16.8618 36.6551 16.623 36.6422C16.3841 36.6337 16.1408 36.7492 15.9019 36.7321C15.6631 36.715 15.4331 36.6423 15.1942 36.6166C14.9598 36.5909 14.7253 36.531 14.4909 36.4968C14.2565 36.4626 14.0088 36.4968 13.7743 36.4583C13.5399 36.4198 13.3143 36.3256 13.0798 36.2786C12.8454 36.2315 12.611 36.2016 12.3765 36.1502C12.1465 36.0989 11.9342 35.962 11.7042 35.9021C11.4742 35.8422 11.2132 35.8807 10.9876 35.8165C10.7709 35.7566 10.5408 35.7181 10.3241 35.6453C10.1118 35.5726 9.926 35.4143 9.71368 35.333C9.50136 35.2517 9.31115 35.1276 9.10326 35.0378C8.89536 34.9479 8.70516 34.8324 8.50168 34.7297C8.29821 34.627 8.09031 34.5415 7.89568 34.4302C7.70105 34.319 7.50643 34.2035 7.32065 34.0794C7.13044 33.9553 6.88716 33.904 6.7058 33.7671C6.52444 33.6301 6.36963 33.4633 6.20154 33.3135C6.03345 33.1638 5.96268 32.9242 5.80786 32.7616C5.65747 32.6033 5.41418 32.522 5.26821 32.3594C5.12224 32.1968 5.0382 31.9829 4.89665 31.816C4.7551 31.6492 4.56048 31.5208 4.42335 31.3497C4.28623 31.1785 4.12256 31.0245 3.99429 30.8448C3.86601 30.6694 3.78639 30.4554 3.66696 30.2757C3.54753 30.0918 3.39713 29.9249 3.28655 29.7409C3.17597 29.5527 3.07865 29.3559 2.98134 29.1633C2.87518 28.9622 2.86633 28.7226 2.77344 28.513C2.68497 28.3076 2.47265 28.1407 2.39746 27.9311C2.32226 27.7172 2.25591 27.499 2.18956 27.285C2.12321 27.0711 2.14533 26.8315 2.09225 26.609C2.03917 26.3908 1.95512 26.1769 1.91089 25.9587C1.86665 25.7362 1.92416 25.5009 1.88877 25.2784C1.84896 25.0559 1.77819 24.842 1.74722 24.6195C1.71626 24.397 1.72953 24.1745 1.70299 23.952C1.67645 23.7295 1.53933 23.5199 1.51721 23.2974C1.49509 23.0749 1.50836 22.8482 1.49509 22.6257C1.48182 22.4032 1.46855 22.1807 1.46413 21.9582C1.45528 21.7357 1.47298 21.5132 1.47298 21.2865C1.47298 21.064 1.52163 20.8415 1.53048 20.619C1.53933 20.3965 1.51279 20.174 1.53048 19.9516C1.54817 19.7291 1.45971 19.498 1.48625 19.2755C1.50836 19.0531 1.64991 18.8434 1.6853 18.6252C1.71626 18.4027 1.66318 18.1674 1.70741 17.9492C1.75165 17.731 1.77819 17.5042 1.82684 17.286C1.87992 17.0678 1.94185 16.8496 2.00378 16.6357C2.06571 16.4217 2.25149 16.242 2.32226 16.0281C2.39303 15.8142 2.44169 15.6003 2.52573 15.3906C2.60535 15.181 2.68055 14.9713 2.77344 14.7659C2.86633 14.5606 2.95038 14.3552 3.05211 14.1541C3.15385 13.953 3.16712 13.7091 3.2777 13.5123C3.39713 13.3069 3.52099 13.0973 3.64484 12.8962C3.77312 12.6951 3.94563 12.5197 4.08275 12.3229C4.21988 12.1261 4.44547 11.9934 4.59144 11.8052C4.73741 11.6169 4.85684 11.4115 5.01166 11.2276C5.16647 11.0479 5.24167 10.7912 5.40534 10.62C5.569 10.4446 5.86094 10.389 6.03345 10.2221C6.20596 10.0552 6.32097 9.83703 6.50233 9.67445C6.67926 9.51186 6.87831 9.37495 7.06409 9.22092C7.24987 9.06689 7.40469 8.87863 7.59489 8.73316C7.76741 8.59625 7.96646 8.48928 8.13897 8.35237C8.31148 8.21545 8.44418 8.0272 8.61669 7.89028C8.79362 7.75765 8.98383 7.64213 9.16076 7.50949C9.33769 7.37685 9.55444 7.29556 9.7358 7.1672C9.91715 7.03885 10.0764 6.88482 10.2578 6.76074C10.4391 6.63666 10.6735 6.58532 10.8593 6.46552C11.0451 6.34572 11.2309 6.2302 11.4211 6.11896C11.6113 6.00771 11.7661 5.84085 11.9607 5.73388C12.1598 5.62692 12.319 5.44722 12.5225 5.34881C12.726 5.25041 12.9516 5.19051 13.1595 5.10066C13.3674 5.01081 13.6018 4.98086 13.8097 4.89529C14.0176 4.80971 14.2476 4.77549 14.4599 4.69419C14.6723 4.61718 14.8713 4.51022 15.0881 4.43748C15.3004 4.36474 15.4685 4.15509 15.6852 4.08664C15.9019 4.01818 16.1364 4.00962 16.3576 3.94544C16.5743 3.88127 16.7955 3.82137 17.0122 3.75719C17.229 3.69301 17.428 3.56465 17.6447 3.50047C17.8615 3.44057 18.0827 3.39351 18.3038 3.33789C18.5206 3.28227 18.7594 3.29082 18.9762 3.23948C19.1929 3.18814 19.4052 3.10685 19.6264 3.05978C19.8476 3.01272 20.0643 2.93998 20.2855 2.8972C20.5067 2.85441 20.7278 2.79879 20.949 2.76028C21.1702 2.72177 21.409 2.78167 21.6346 2.74745C21.8558 2.71322 22.0769 2.67899 22.3025 2.64904C22.5281 2.62337 22.7449 2.52924 22.966 2.50785C23.1916 2.48645 23.4261 2.58058 23.6472 2.56775C23.8728 2.55491 24.094 2.4779 24.3196 2.47362C24.5452 2.46506 24.7708 2.49929 24.9964 2.49929C25.2219 2.49929 25.4475 2.37949 25.6731 2.38377C25.8987 2.38377 26.1199 2.53352 26.3455 2.54207C26.5711 2.55063 26.7967 2.50357 27.0223 2.5164C27.2478 2.53352 27.4734 2.52496 27.699 2.54635C27.9246 2.56775 28.1325 2.70894 28.3537 2.73889C28.5793 2.76884 28.827 2.64476 29.0481 2.68327C29.2693 2.72177 29.4816 2.82874 29.6984 2.8758C29.9195 2.92287 30.1496 2.9357 30.3663 2.99132C30.5831 3.04695 30.7821 3.17958 30.9944 3.24804C31.22 3.32077 31.4766 3.32077 31.7022 3.40635C31.9277 3.48764 32.1578 3.5561 32.3789 3.64594C32.6001 3.73579 32.7815 3.91977 32.9982 4.0139C33.2149 4.11231 33.4848 4.11231 33.6971 4.21927C33.9094 4.32196 34.0554 4.56156 34.2633 4.6728C34.4756 4.78404 34.7366 4.80544 34.9445 4.92096C35.1524 5.03648 35.2851 5.2718 35.4885 5.3916C35.692 5.51568 35.8911 5.63976 36.0901 5.76811C36.2892 5.89647 36.5767 5.90503 36.7713 6.03766C36.9659 6.17458 37.1606 6.31577 37.3464 6.46124C37.5366 6.60243 37.74 6.73507 37.9214 6.88482C38.1027 7.03457 38.2885 7.19288 38.461 7.35118C38.638 7.50949 38.7397 7.74481 38.9078 7.91168C39.0759 8.07854 39.2263 8.25824 39.3855 8.43366C39.5448 8.60908 39.735 8.75883 39.8854 8.93853C40.0358 9.12251 40.226 9.27654 40.3631 9.46907C40.5002 9.66161 40.5267 9.9226 40.6506 10.1194C40.7789 10.3162 40.947 10.4917 41.0575 10.6927C41.1726 10.8981 41.2522 11.1163 41.3539 11.3303C41.4556 11.5399 41.6591 11.711 41.7476 11.9292C41.8316 12.1475 41.8936 12.3785 41.9599 12.601C42.0307 12.8235 41.9599 13.0802 42.0174 13.3069C42.0705 13.538 42.1811 13.7562 42.2209 13.9872C42.2651 14.2183 42.3669 14.445 42.4022 14.6804C42.4332 14.9157 42.4244 15.1553 42.4465 15.3906C42.4686 15.6259 42.4465 15.8655 42.4597 16.1009C42.4774 16.3362 42.4199 16.5758 42.4332 16.8111C42.4465 17.0464 42.5217 17.2817 42.5305 17.5171C42.5394 17.7524 42.4863 17.992 42.4907 18.2273C42.4996 18.4455 42.6721 18.6594 42.6721 18.8776C42.6721 19.0958 42.6323 19.3141 42.619 19.5323C42.6057 19.7505 42.6101 19.973 42.588 20.1869C42.5659 20.4051 42.5438 20.6233 42.5173 20.8415C42.4907 21.0597 42.327 21.2565 42.2917 21.4705C42.2563 21.6844 42.2828 21.9111 42.243 22.1251C42.1988 22.339 42.0882 22.5401 42.0395 22.754C41.9909 22.968 41.9511 23.1819 41.898 23.3915L41.9201 23.4172Z" fill="#000001"/>
<path d="M23.9 26.264C24.348 26.264 24.76 26.208 25.136 26.096C25.52 25.992 25.832 25.88 26.072 25.76C26.32 25.632 26.46 25.544 26.492 25.496L27.956 28.472C27.684 28.976 27.2 29.436 26.504 29.852C25.808 30.276 24.96 30.488 23.96 30.488C23.344 30.488 22.824 30.416 22.4 30.272C21.984 30.128 21.592 29.96 21.224 29.768C20.864 29.576 20.464 29.408 20.024 29.264C19.592 29.12 19.048 29.048 18.392 29.048C17.896 29.048 17.464 29.112 17.096 29.24C16.736 29.376 16.456 29.512 16.256 29.648C16.056 29.784 15.948 29.868 15.932 29.9L14.144 27.764C14.624 27.14 15.328 26.62 16.256 26.204C17.192 25.796 18.244 25.592 19.412 25.592C20.108 25.592 20.7 25.648 21.188 25.76C21.676 25.872 22.128 25.984 22.544 26.096C22.968 26.208 23.42 26.264 23.9 26.264ZM16.304 18.068C16.304 18.78 16.448 19.432 16.736 20.024C17.024 20.608 17.428 21.076 17.948 21.428C18.468 21.772 19.076 21.944 19.772 21.944C20.476 21.944 21.088 21.772 21.608 21.428C22.128 21.076 22.532 20.608 22.82 20.024C23.108 19.432 23.252 18.78 23.252 18.068C23.252 17.356 23.108 16.708 22.82 16.124C22.532 15.54 22.128 15.072 21.608 14.72C21.088 14.368 20.476 14.192 19.772 14.192C19.076 14.192 18.468 14.368 17.948 14.72C17.428 15.072 17.024 15.54 16.736 16.124C16.448 16.708 16.304 17.356 16.304 18.068ZM11.456 18.068C11.456 16.916 11.664 15.844 12.08 14.852C12.504 13.852 13.092 12.98 13.844 12.236C14.596 11.492 15.476 10.912 16.484 10.496C17.5 10.08 18.596 9.872 19.772 9.872C20.972 9.872 22.076 10.08 23.084 10.496C24.1 10.912 24.98 11.492 25.724 12.236C26.476 12.98 27.056 13.852 27.464 14.852C27.88 15.844 28.088 16.916 28.088 18.068C28.088 19.228 27.888 20.308 27.488 21.308C27.088 22.3 26.516 23.172 25.772 23.924C25.036 24.668 24.16 25.248 23.144 25.664C22.128 26.08 21.004 26.288 19.772 26.288C18.508 26.288 17.364 26.08 16.34 25.664C15.324 25.248 14.452 24.668 13.724 23.924C12.996 23.172 12.436 22.3 12.044 21.308C11.652 20.308 11.456 19.228 11.456 18.068Z" fill="black"/>
</svg>
