<svg width="443" height="473" viewBox="0 0 443 473" fill="none" xmlns="http://www.w3.org/2000/svg">
<g clip-path="url(#clip0_1198_92)">
<path d="M424.931 119.151C403.216 81.5317 363.817 60.5301 323.296 60.493C303.008 25.4131 265.111 1.79785 221.68 1.79785C178.25 1.79785 140.352 25.4131 120.064 60.4838C79.544 60.5208 40.1451 81.5317 18.4299 119.142C-3.2854 156.761 -1.78396 201.378 18.4484 236.495C-1.78396 271.603 -3.2854 316.229 18.4299 353.849C40.1451 391.468 79.544 412.47 120.064 412.507C140.352 447.577 178.25 471.193 221.68 471.193C265.111 471.193 303.008 447.577 323.296 412.507C363.817 412.47 403.216 391.459 424.931 353.849C446.646 316.229 445.145 271.612 424.912 236.495C445.145 201.387 446.646 156.761 424.931 119.142V119.151Z" fill="white" stroke="black" stroke-width="3.88" stroke-miterlimit="10"/>
<path d="M305.019 68.0933L301.553 62.0968C285.084 33.6343 254.471 15.9507 221.662 15.9507C188.852 15.9507 158.24 33.6343 141.77 62.0968L138.221 68.2323C137.21 69.6503 136.617 71.3835 136.617 73.2556C136.617 78.0566 140.51 81.9492 145.311 81.9492C150.112 81.9492 154.004 78.0566 154.004 73.2556C154.004 68.4548 150.112 64.5621 145.311 64.5621C145.125 64.5621 144.94 64.5807 144.755 64.5899L145.088 64.0153C160.872 36.7299 190.215 19.7784 221.671 19.7784C253.127 19.7784 282.461 36.7299 298.254 64.0153L298.587 64.5899C298.411 64.5807 298.235 64.5621 298.05 64.5621C293.249 64.5621 289.356 68.4548 289.356 73.2556C289.356 78.0566 293.249 81.9492 298.05 81.9492C302.851 81.9492 306.743 78.0566 306.743 73.2556C306.743 71.3186 306.104 69.5391 305.029 68.0933H305.019Z" fill="#231815"/>
<path d="M138.332 402.061L141.798 408.058C158.268 436.52 188.88 454.204 221.69 454.204C254.499 454.204 285.111 436.52 301.581 408.058L305.131 401.922C306.141 400.504 306.734 398.771 306.734 396.899C306.734 392.098 302.841 388.206 298.041 388.206C293.24 388.206 289.347 392.098 289.347 396.899C289.347 401.7 293.24 405.593 298.041 405.593C298.226 405.593 298.411 405.574 298.597 405.565L298.263 406.139C282.479 433.425 253.136 450.376 221.68 450.376C190.224 450.376 160.89 433.425 145.098 406.139L144.764 405.565C144.94 405.574 145.116 405.593 145.301 405.593C150.102 405.593 153.995 401.7 153.995 396.899C153.995 392.098 150.102 388.206 145.301 388.206C140.501 388.206 136.608 392.098 136.608 396.899C136.608 398.836 137.247 400.616 138.323 402.061H138.332Z" fill="#231815"/>
<path d="M118.739 79.4096H111.816C78.9323 79.4467 48.3103 97.1118 31.9057 125.528C15.5011 153.944 15.5104 189.293 31.9242 217.792L35.4647 223.937C36.1876 225.522 37.3925 226.903 39.0144 227.839C43.1758 230.239 48.4864 228.812 50.8869 224.66C53.2873 220.499 51.86 215.188 47.7079 212.788C43.5465 210.387 38.2359 211.814 35.8354 215.967C35.7427 216.133 35.6593 216.3 35.5759 216.467L35.2422 215.892C19.5049 188.579 19.4957 154.695 35.2237 127.456C50.9518 100.217 80.304 83.2837 111.825 83.2559H112.492C112.39 83.4042 112.288 83.5524 112.205 83.7007C109.804 87.8621 111.232 93.1728 115.384 95.5732C119.545 97.9737 124.856 96.5464 127.256 92.3943C129.657 88.2329 128.23 82.9222 124.077 80.5218C122.4 79.5579 120.537 79.215 118.748 79.4189L118.739 79.4096Z" fill="#231815"/>
<path d="M324.612 390.745H331.536C364.419 390.708 395.041 373.043 411.446 344.627C427.85 316.211 427.841 280.862 411.427 252.363L407.887 246.218C407.164 244.633 405.959 243.252 404.337 242.316C400.176 239.916 394.865 241.343 392.465 245.495C390.064 249.656 391.491 254.967 395.644 257.367C399.805 259.768 405.116 258.341 407.516 254.188C407.609 254.022 407.692 253.855 407.776 253.688L408.109 254.263C423.847 281.576 423.856 315.469 408.128 342.699C392.4 369.938 363.047 386.871 331.526 386.899H330.859C330.961 386.751 331.063 386.602 331.146 386.454C333.547 382.293 332.12 376.982 327.968 374.582C323.806 372.181 318.495 373.609 316.095 377.761C313.695 381.922 315.122 387.233 319.274 389.633C320.952 390.597 322.814 390.94 324.603 390.736L324.612 390.745Z" fill="#231815"/>
<path d="M35.3905 246.384L31.9335 252.381C15.5196 280.871 15.5104 316.229 31.915 344.645C48.3196 373.061 78.9416 390.726 111.825 390.754H118.915C120.648 390.921 122.446 390.578 124.068 389.642C128.23 387.242 129.648 381.922 127.247 377.77C124.847 373.608 119.527 372.19 115.375 374.591C111.213 376.991 109.795 382.311 112.196 386.463C112.288 386.63 112.4 386.778 112.502 386.936H111.834C80.3133 386.908 50.961 369.975 35.233 342.736C19.5049 315.497 19.5142 281.613 35.2515 254.299L35.5852 253.725C35.6686 253.882 35.7427 254.049 35.8261 254.197C38.2266 258.359 43.5465 259.777 47.6986 257.376C51.86 254.976 53.2781 249.656 50.8776 245.504C48.4772 241.342 43.1572 239.924 39.0051 242.325C37.3276 243.289 36.1042 244.735 35.3905 246.384Z" fill="#231815"/>
<path d="M407.961 223.77L411.418 217.774C427.832 189.284 427.841 153.926 411.437 125.509C395.032 97.0934 364.41 79.4283 331.527 79.4005H324.436C322.703 79.2336 320.905 79.5766 319.283 80.5126C315.122 82.9131 313.704 88.233 316.104 92.3851C318.505 96.5465 323.825 97.9646 327.977 95.5641C332.138 93.1637 333.556 87.8437 331.156 83.6916C331.063 83.5248 330.952 83.3765 330.85 83.2189H331.517C363.038 83.2467 392.39 100.18 408.119 127.419C423.847 154.658 423.837 188.542 408.1 215.855L407.766 216.43C407.683 216.272 407.609 216.106 407.525 215.957C405.125 211.796 399.805 210.378 395.653 212.778C391.491 215.179 390.073 220.499 392.474 224.651C394.874 228.812 400.194 230.23 404.346 227.83C406.024 226.866 407.247 225.42 407.961 223.77Z" fill="#231815"/>
<path d="M260.208 147.197L259.661 149.291L259.708 151.451L258.846 153.425L257.873 155.297L256.733 157.058L255.75 158.93L254.592 160.728L252.979 162.128L251.422 163.629L249.476 164.556L247.557 165.483L245.574 166.298L243.377 166.243L241.32 166.641L239.225 167.253L237.121 166.715L235.027 166.512L232.867 166.335L230.856 165.594L229.253 164.046L227.455 162.999L225.425 162.183L223.849 160.738L222.431 159.134L221.3 157.318L220.068 155.547L219.308 153.527L218.974 151.404L218.557 149.319V147.197L218.659 145.074L218.631 142.906L219.577 140.95L220.439 139.013L221.189 137.002L222.607 135.389L223.84 133.628L225.425 132.192L227.251 131.079L229.225 130.282L230.884 128.864L232.988 128.429L235.036 127.947L237.112 127.558L239.225 127.826L241.348 127.474L243.387 128.086L245.509 128.308L247.604 128.772L249.429 129.921L251.125 131.2L252.655 132.646L254.592 133.656L255.546 135.63L257.122 137.085L258.141 138.957L258.568 141.061L259.235 143.035L259.634 145.093L260.208 147.197Z" fill="#E50012"/>
<path d="M343.232 147.985L341.276 147.123L339.553 145.835L337.616 144.945L335.595 144.24L333.602 143.638L331.693 143.935L330.433 145.64L328.774 146.919L327.207 148.263L325.428 149.31L323.954 150.793L322.119 151.748L320.497 153.017L318.681 154L317.105 155.344L315.298 156.317L313.518 157.336L311.73 158.337L309.904 159.283L308.087 160.228L306.419 161.47L304.565 162.369L302.73 163.305L300.728 163.833L298.782 164.482L296.826 165.122L294.787 165.298L292.721 165.427L290.95 164.38L289.505 162.925L289.125 160.877L289.254 158.828L289.458 156.78L290.274 154.871L290.848 152.915L291.377 150.793H293.323L295.297 150.58L297.03 149.486L299.023 148.949L300.886 148.087L302.851 147.503L304.695 146.548L306.78 146.307L308.615 145.325L310.599 144.759L312.508 143.999L314.334 143.036L316.169 142.137L318.023 141.275L319.774 140.209L321.267 139.004L322.638 137.651L323.778 136.094L324.547 134.324L325.196 132.526L325.771 130.653L324.798 128.716L323.519 127.057L322.305 125.259L320.46 124.147L318.597 123.146L316.595 122.488L314.566 121.867L312.462 121.571L310.349 121.422L308.208 121.348L306.141 121.997H304L301.952 122.627L300.052 122.377L298.189 122.664L296.335 122.414L294.454 122.368L292.646 122.312L290.932 121.682L289.115 121.533L287.252 121.311L289.189 122.655L291.062 123.98L292.906 125.343L294.528 126.881L296.168 128.216L297.92 129.3L299.403 130.718L301.081 131.979L301.785 133.944L302.563 135.899L301.785 137.855L300.821 139.699L299.431 141.469L297.883 143.082L296.261 144.62L294.574 146.113L292.795 147.503L290.255 149.245L288.856 149.968L286.993 150.052L285.213 149.542L283.415 149.032L281.617 148.541L279.476 148.04L277.298 147.707L275.13 147.271L272.933 147.002L270.672 147.271L268.605 148.235L266.408 149.088L268.067 150.571L268.901 152.526L269.56 154.528L270.069 156.567L270.866 158.56L271.274 160.645L271.422 162.684L271.821 164.677L272.192 166.679L272.748 168.643L273.072 170.655L273.22 172.694L273.48 174.714L274.11 176.67V178.727L274.407 180.729L274.917 182.713L274.759 184.779L275.009 186.79L275.593 188.774L275.5 190.822L275.778 192.833L275.686 194.872L275.853 196.893L276.158 198.913L275.955 200.943L276.084 202.973L275.927 204.993V207.032L275.343 209.006L275.482 211.082L274.889 213.038L274.629 215.068L273.712 216.921L273.415 218.942L272.868 220.897L272.414 222.871L272.433 224.91L271.969 226.885L271.719 228.877L270.987 230.768L270.699 232.761L270.125 234.679L269.541 236.598L268.827 238.47L268.225 240.379L267.354 242.186L266.482 244.411L265.815 246.728L265.889 249.072L266.362 250.982L267.762 252.372L269.485 253.299L271.265 254.29L273.276 254.485L275.269 254.67L277.271 254.819L279.291 255.088L281.293 254.253L283.221 253.391L284.704 251.881L286.038 250.268L287.354 248.553L287.642 246.403L288.244 244.346L290.663 243.382L293.184 242.872L295.204 242.251L297.197 241.547L299.347 241.38L301.257 240.379L303.333 239.962L305.372 239.424L307.466 239.118L309.477 238.479L311.526 237.978L313.491 237.163L315.585 236.866L317.633 236.375L319.635 235.68L321.693 235.207L323.732 234.66L325.845 234.503L327.903 234.086L329.849 233.845L329.636 236.06L329.385 238.266L328.69 240.397L328.375 242.594L328.181 244.828L326.911 246.199L326.169 247.905L325.28 249.545L326.095 251.408L327.56 252.817L329.182 253.938L331.082 254.55L333.046 254.948L335.058 255.171L337.078 255.097L339.098 254.995L341.073 254.874L343.037 254.457L344.706 253.336L346.05 251.881L347.264 250.333L348.2 248.591L348.895 246.709L348.737 244.707L348.774 242.696L347.468 241.195L346.374 239.387L345.104 237.728L344.057 235.912L343.621 233.845L342.685 231.954L342.481 229.86L341.768 227.876L341.74 225.772L341.378 223.724L340.943 221.676L340.961 219.59L341.063 217.505L340.591 215.438L340.665 213.353L340.924 211.277L340.795 209.192L340.906 207.106L341.304 205.049L341.073 202.936L341.731 200.906L341.517 198.783L342.166 196.763V194.659L342.491 192.602L342.991 190.572L343.102 188.477L343.492 186.429L344.15 184.436L344.724 182.434L345.151 180.395L345.688 178.384L345.855 176.28L346.541 174.306L346.865 172.23L347.514 170.247L348.431 168.347L349.071 166.364L349.692 164.371L350.396 162.425L350.971 160.664L351.527 158.875L351.416 157.003L351.332 154.825L350.137 152.999L348.691 151.386L346.93 150.144L345.002 149.19L343.204 148.022L343.232 147.985ZM330.127 221.388L330.349 223.316L330.053 225.235L330.09 227.153L329.562 229.044L327.615 229.619L325.446 229.192L323.25 229.137L321.211 228.942L319.181 229.137L317.151 228.961L315.122 229.322L313.092 229.053L311.062 229.174L309.033 228.97L306.994 229.229L304.964 229.072L302.934 228.998L300.904 228.951L298.875 228.877L296.836 228.849L294.806 229.211L292.776 229.257L290.737 229.415L288.745 229.248L288.809 227.172L288.708 225.049L288.837 222.927L288.624 220.795L288.911 218.664L288.633 216.532L288.717 214.4L288.809 212.269L288.689 210.137L289.013 208.005L288.967 205.874L288.68 203.742L288.763 201.666L288.874 199.59V197.514L289.143 195.438L288.976 193.352L289.069 191.267L288.754 189.182L289.227 187.087L288.967 184.974L289.217 182.879L289.319 180.785L289.273 178.681L289.366 176.586L289.616 174.501L289.81 172.406L289.829 170.358L291.414 170.914L293.156 171.053L295.177 170.859L297.197 170.71L299.227 170.775L301.21 170.312L303.203 169.987L305.26 170.136L307.225 169.617L309.218 169.274L311.201 168.894L313.222 168.681L315.205 168.263L317.077 167.819L318.996 167.605L320.831 166.845L322.786 166.938L324.696 166.66L326.651 166.577L328.486 165.946L330.025 166.558L330.303 168.597L330.34 170.692L330.053 172.786L330.331 174.881L330.071 176.976L330.201 179.07V181.165L330.182 183.259L329.997 185.354V187.449L330.136 189.552L330.006 191.647L330.386 193.742L329.997 195.836L330.414 197.931L330.108 200.025L330.303 202.129L330.164 204.224L329.932 206.309L329.96 208.45L330.099 210.591L330.201 212.732L329.923 214.873L329.988 217.023L330.145 219.173L330.071 221.324L330.127 221.388Z" fill="#231815"/>
<path d="M213.219 245.485L213.005 245.17L213.293 244.8L212.941 242.677L212.922 240.545L212.579 238.442L211.903 236.421L211.337 234.382L210.549 232.417L209.891 230.388L208.816 228.543L207.593 226.801L206.471 225.003L205.508 223.075L204.182 221.407L202.616 219.952L202.69 219.905L201.374 218.367L199.826 217.051L198.195 215.864L196.629 214.567L194.775 213.723L193.005 212.75L191.216 211.814L189.372 210.971L187.481 210.313L185.516 209.942L183.533 209.71L181.549 209.506L179.557 209.59L177.573 209.636L175.571 209.516L173.597 209.785L172.559 207.458L171.549 205.178L173.746 205.113L175.988 204.919L178.241 205.048L180.224 204.78L182.207 204.687L184.191 204.529L186.174 204.298L188.176 204.251L190.169 204.085L192.161 203.816L194.145 204.131L196.425 204.177L198.705 204.261L200.975 204.372L203.246 204.641L205.304 204.14L207.352 203.769L209.317 203.074L211.152 201.999L212.051 200.081L212.709 198.162L212.737 196.123L211.995 194.214L211.226 192.36L210.086 190.711L208.733 189.218L207.037 188.125L205.285 187.142L203.543 186.058L201.532 185.66L199.576 185.215L197.555 185.242L195.535 185.567L193.654 186.401L191.679 186.939L189.881 187.912L188.046 188.82L186.007 189.154L184.135 189.941L182.235 190.692L180.178 191.174L178.12 191.628L176.053 192.082L173.95 192.268L171.836 192.295L169.732 192.37L167.749 192.407L166.637 190.627L166.035 188.523L165.599 186.382L165.376 184.204L165.284 182.026L165.089 179.858L165.2 177.754L166.313 177.466L168.25 177.8L170.177 177.559L172.105 177.652L174.042 177.439L175.979 177.513L177.916 177.578H179.807L181.003 179.524L182.615 181.1L184.71 182.119L186.897 182.332L189.084 182.193L191.244 181.85L193.431 181.563L195.442 180.655L197.25 179.385L198.547 177.624L199.418 175.65L199.724 173.592L199.706 171.451L199.604 169.31L199.789 167.132L199.687 164.973L199.335 162.832L199.15 160.691L198.788 158.087L198.102 156.039L197.685 153.907L197.824 151.729L197.565 149.866L197.769 147.975L197.713 146.057L198.047 144.185L199.029 142.22L199.835 140.079L201.402 138.818L202.764 137.345L203.255 135.389L203.385 133.341L202.69 131.404L201.874 129.559L200.725 127.91L199.539 126.26L197.796 125.194L196.212 123.887L194.228 123.35L192.384 122.479L190.391 122.061L188.241 121.997L186.128 121.7L183.996 121.876L181.911 122.108L179.9 122.682L177.787 122.868L175.72 122.33L173.681 121.858L171.873 121.107L170.112 120.273L168.481 119.179L166.628 118.558L166.915 119.466L168.203 120.921L169.631 122.247L170.993 123.591L172.587 124.879L173.709 126.575L175.127 128.03L176.433 129.587L177.518 131.311L179.001 132.896L177.87 134.703L176.267 136.029L174.441 136.983L172.541 137.762L170.65 138.651L168.593 138.957L166.563 139.421L164.496 139.615L162.42 139.588L160.344 139.662L158.286 139.282H156.22L154.153 139.161L152.086 139.05L150.019 138.874L147.971 138.568L145.969 138.012L143.958 137.53L141.872 137.437L139.861 136.965L137.813 136.631L135.82 136.029L133.772 135.667L131.789 135.028L129.796 134.444L127.84 133.758L125.811 133.322L123.781 132.859L121.788 132.284L119.786 131.747L117.859 130.94L115.94 130.115L113.771 129.559L111.556 129.226L109.341 128.976L107.135 128.54L106.07 126.603L104.17 127.798L102.196 128.596L100.75 130.143L99.3409 131.654L98.1824 133.433L97.9229 135.556L98.3399 137.521L98.5346 139.486L99.1926 141.348L100.036 143.128L101.287 144.676L103.02 145.64L104.754 146.631L106.7 147.123L108.711 146.937L110.778 147.085L112.845 147.123L114.911 147.16L116.978 147.224L119.036 147.465L121.112 147.252L123.179 147.364L125.227 147.762L127.294 147.706L129.342 147.966L131.399 148.133L133.476 147.92L135.524 148.3L137.6 148.133L139.667 148.188L141.733 148.207L143.8 148.429H145.867L147.934 148.263L149.991 148.049L152.067 148.272L154.106 147.827L156.201 147.984L158.231 147.521L160.279 147.243L162.337 147.011L164.338 146.483L166.331 145.936L168.296 145.306L170.353 144.954L172.29 144.203L174.07 143.119L175.951 142.266L177.731 141.228L179.659 139.903L181.42 140.487L181.735 142.748L181.911 145.028L182.235 147.28L182.365 149.301L182.226 151.312L181.892 153.304L181.725 155.316L181.457 157.308L181.485 159.329L181.234 161.229L181.392 163.156L180.78 164.917L178.769 165.223L176.767 165.613L174.756 165.9L172.754 166.271L170.724 166.419L168.694 166.586L166.674 166.827L164.709 167.466L162.689 167.735L160.659 167.911L158.611 167.939L156.59 168.152L154.588 168.578L152.54 168.495L150.51 168.569L148.499 169.005L146.46 168.949L144.43 168.893L142.391 169.023L140.38 168.578L138.332 168.736L136.302 168.541L134.291 168.245L132.336 167.624L130.343 167.29L128.313 167.095L126.348 166.567L124.439 165.835L122.465 165.381L120.472 164.936L118.47 164.222V162.109L118.396 160.024L118.693 157.938L117.951 155.816L116.793 153.888L114.745 152.906L112.928 151.942L111.065 151.024L109.221 150.061L107.228 149.504L105.3 149.616L103.363 149.551L101.473 149.931L99.619 150.441L97.7746 150.969L95.9395 151.627L94.5585 152.887L95.7727 154.537L97.1351 156.178L97.9878 158.152L98.2936 160.209L98.9795 162.165L99.5726 164.139L100.101 166.132L100.407 168.18L101.018 170.154L101.334 172.202L102.103 174.148L102.427 176.197L102.835 178.217L103.132 180.265L103.632 182.277L103.873 184.334L104.253 186.364L104.54 188.403L104.883 190.442L105.115 192.49L105.504 194.52L105.365 196.596L105.69 198.644L105.662 200.711L105.903 202.778L105.81 204.845L105.699 206.911L105.458 208.96L105.189 210.999L104.93 213.038L104.624 215.077L104.374 217.134L103.595 219.062L103.252 221.11L102.538 223.047L101.602 224.901L100.944 226.847L100.333 228.812L99.6468 230.749L98.7848 232.621L98.0712 234.549L97.237 236.653L96.1063 238.636L94.6234 240.379L93.02 242.177L92.2693 244.466L92.0469 245.013L92.121 247.052L92.4361 249.183L92.9459 251.278L93.8078 253.261L95.0868 255.013L96.8107 256.32L98.7941 257.135L100.981 257.933L103.317 257.905L105.625 257.608L107.59 257.043L109.388 256.07L111.167 255.096L112.937 254.096L114.624 252.956L116.339 251.853L117.859 250.49L119.527 249.313L121.167 248.099L122.724 246.783L124.124 245.282L125.718 244.002L127.043 242.427L128.526 241.027L130.037 239.656L131.576 238.312L133.04 236.885L134.625 235.587V235.633L136.006 234.123L137.544 232.788L139.24 231.63L140.751 230.258L142.438 229.099L143.958 227.737L145.478 226.374L147.1 225.142L148.796 224.002L150.408 222.751L152.104 221.601L153.754 220.397L155.432 219.21L156.201 221.333L156.711 223.548L157.823 225.531L158.388 227.533L159.195 229.442L160.149 231.287L160.77 233.289L161.743 235.124L162.717 236.959L163.921 238.655L165.061 240.388L166.285 242.065L167.647 243.632L169.065 245.142L170.715 246.403L172.068 248.006L173.773 249.193L175.507 250.342L177.295 251.398L179.251 252.112L180.984 253.317L183.032 253.762L185.006 254.374L187.008 254.883L189.01 255.412L191.04 255.884L193.135 255.764L195.192 256.023L197.268 256.292L199.335 255.949L201.392 255.671L203.441 255.328L205.48 254.902L207.38 254.031L209.159 252.956L210.614 251.5L211.866 249.897L212.82 248.053L213.089 245.986L212.978 246.004L213.246 245.485H213.219ZM118.387 233.77L116.543 233.659L115.727 232.102L115.245 230.054L115.486 227.969L115.671 225.893L115.708 223.798L116.014 221.74L116.218 219.664L116.682 217.625L116.802 215.54L116.839 213.445L117.089 211.369L117.627 209.34L117.794 207.273L117.775 205.197L117.979 203.13L118.146 201.063L118.174 198.987L118.192 196.911L118.47 194.844L118.313 192.759L118.415 190.683L118.545 188.616L118.637 186.54L118.684 184.473L118.619 182.406L118.591 180.293L120.63 180.173L122.66 179.885L124.699 179.728L126.756 179.839L128.795 179.654H130.843L132.882 179.45L134.931 179.329L136.97 179.079L139.027 179.19L141.066 178.94L143.114 178.884L145.163 178.773L147.202 178.579L149.259 178.56L151.307 178.412L151.539 180.395L151.196 182.379L151.354 184.371L151.409 186.364L151.363 188.347L151.066 190.331L151.437 192.305L151.548 194.325L149.389 194.427L147.276 194.26L145.135 194.529L143.031 194.195L140.973 193.621L138.953 193.491L136.997 193.037L135.042 192.574L133.16 191.86L131.335 190.942L130.51 189.218L128.675 189.904L127.034 191.239L125.468 192.601L123.985 194.066L122.975 195.929L122.947 198.042L122.836 200.053L123.42 201.981L124.235 203.779L124.893 205.688L126.358 207.069L128.072 208.061L129.889 208.858L131.844 209.228H133.818L135.941 209.089L138.072 209.015L140.195 208.821L142.317 208.607L144.393 208.042L146.497 207.764L148.601 207.43L150.714 207.171L152.911 206.995L153.319 209.006V210.999L153.967 212.88L153.986 214.882L154.431 215.716L152.327 216.513L150.371 217.635L148.323 218.534L146.414 219.433L144.588 220.489L142.901 221.777L141.075 222.834L139.194 223.807L137.34 224.827L135.598 226.032L133.855 227.227L131.928 228.117L130.13 229.22L128.267 230.221L126.45 231.324L124.578 232.334L122.585 233.066L120.546 233.687L118.424 233.733L118.387 233.77ZM198.371 234.91L196.786 235.624L195.062 235.337L193.246 235.467L191.476 235.114L189.464 234.632L187.472 234.002L185.729 232.844L184.098 231.546L182.838 229.887L181.475 228.33L180.168 226.699L179.167 224.873L178.547 222.871L177.703 220.99L176.776 219.136L176.146 217.162L175.553 215.169L174.858 213.566L174.237 211.907L176.239 212L178.213 211.768L180.187 211.888L182.152 212.129L184.107 212.426L186.044 212.778L187.991 213.13L189.909 213.603L191.763 214.307L193.626 215.012L195.331 216.05L196.823 217.551L198.353 218.979L199.557 220.684L200.707 222.426L201.513 224.354L202.088 226.374L201.874 226.449L201.893 228.404L201.522 230.313L200.929 232.158L199.965 233.835L198.362 234.901L198.371 234.91Z" fill="#231815"/>
<path d="M331.174 176.901C322.852 197.727 254.518 230.74 241.718 250.388C241.561 250.629 241.477 250.889 241.412 251.157C240.967 253.224 239.614 255.004 237.214 256.125H236.185C233.618 253.428 230.717 250.592 227.64 248.192C224.229 245.504 216.082 237.922 217.26 233.9C217.26 233.872 221.523 234.243 221.514 234.215C221.365 232.51 224.313 234.373 224.952 232.084C225.119 231.481 225.582 230.971 226.176 230.619C229.734 228.515 230.439 226.143 233.442 221.713C235.87 215.447 240.245 209.367 241.904 203.473C242.497 201.35 239.911 199.608 237.751 200.702C236.611 201.286 235.434 201.981 234.22 202.787C233.108 203.528 231.523 203.436 230.541 202.565C226.379 198.913 223.96 194.473 223.386 188.968C223.339 188.56 223.423 188.143 223.608 187.763L224.832 185.224C228.483 177.216 230.773 174.019 228.743 184.149C228.743 184.158 228.937 184.853 228.947 184.862C229.568 185.372 230.643 185.103 231.468 184.918C235.657 183.982 239.318 181.813 242.339 178.504C242.543 178.282 242.793 178.078 243.071 177.92C247.909 175.335 253.053 175.705 258.03 179.051C260.254 180.395 260.764 182.341 259.569 184.584C254.267 193.713 246.602 203.139 241.477 212.565C238.168 218.914 234.563 225.012 230.532 230.619C229.864 231.555 230.087 232.779 231.078 233.455C231.088 233.455 231.106 233.474 231.115 233.483C232.098 234.141 233.507 234.076 234.387 233.316C249.883 219.952 320.117 193.028 330.6 175.548" fill="#231815"/>
<path d="M349.006 351.383H94.0117V354.488H349.006V351.383Z" fill="#231815"/>
<path d="M349.006 348.584H94.0117V349.613H349.006V348.584Z" fill="#231815"/>
<path d="M97.5242 293.291V289.203C97.5242 288.777 97.8856 288.425 98.3398 288.425H123.086C123.531 288.425 123.901 288.768 123.901 289.203V293.291C123.901 293.717 123.54 294.069 123.086 294.069H116.005C115.579 294.069 115.226 294.394 115.199 294.792C114.494 304.533 110.574 311.651 104.207 315.08C103.799 315.293 103.289 315.126 103.085 314.737L101.185 311.011C101 310.641 101.157 310.205 101.528 310.001C106.598 307.184 108.488 301.345 108.98 294.903C109.017 294.458 108.637 294.069 108.164 294.069H98.349C97.9042 294.069 97.5334 293.726 97.5334 293.291H97.5242ZM120.991 277.813V280.862C120.991 281.288 120.63 281.641 120.176 281.641H101.296C100.851 281.641 100.481 281.298 100.481 280.862V276.775C100.481 276.349 100.842 275.996 101.296 275.996H118.137C118.581 275.996 118.952 275.653 118.952 275.218V271.131C118.952 270.704 119.314 270.352 119.768 270.352H121.797C122.242 270.352 122.613 270.695 122.613 271.131V276.265C122.613 276.691 122.252 277.044 121.797 277.044C121.353 277.044 120.982 277.387 120.982 277.822L120.991 277.813ZM127.905 271.131V276.265C127.905 276.691 127.544 277.044 127.09 277.044H125.115C124.671 277.044 124.3 276.701 124.3 276.265V271.131C124.3 270.704 124.661 270.352 125.115 270.352H127.09C127.534 270.352 127.905 270.695 127.905 271.131Z" fill="#231815"/>
<path d="M164.941 277.275V278.545C164.941 278.971 165.302 279.323 165.756 279.323H169.362C169.807 279.323 170.177 279.666 170.177 280.102V284.189C170.177 284.615 169.816 284.968 169.362 284.968H165.756C165.311 284.968 164.941 285.311 164.941 285.746V294.579C164.941 306.831 157.786 312.893 149.639 315.284C149.259 315.395 148.842 315.219 148.666 314.876L146.766 311.15C146.553 310.733 146.784 310.233 147.248 310.075C154.792 307.619 158.675 303.281 158.675 294.579V285.746C158.675 285.32 158.314 284.968 157.86 284.968H151.474C151.029 284.968 150.659 285.311 150.659 285.746V296.367C150.659 296.794 150.297 297.146 149.843 297.146H145.2C144.755 297.146 144.384 296.803 144.384 296.367V285.746C144.384 285.32 144.023 284.968 143.568 284.968H139.963C139.518 284.968 139.147 284.625 139.147 284.189V280.102C139.147 279.676 139.509 279.323 139.963 279.323H143.568C144.013 279.323 144.384 278.98 144.384 278.545V277.275C144.384 276.849 144.745 276.497 145.2 276.497H149.843C150.288 276.497 150.659 276.839 150.659 277.275V278.545C150.659 278.971 151.02 279.323 151.474 279.323H157.86C158.305 279.323 158.675 278.98 158.675 278.545V277.275C158.675 276.849 159.037 276.497 159.491 276.497H164.134C164.579 276.497 164.95 276.839 164.95 277.275H164.941ZM167.378 270.546H169.352C169.797 270.546 170.168 270.889 170.168 271.325V276.459C170.168 276.886 169.806 277.238 169.352 277.238H167.378C166.933 277.238 166.563 276.895 166.563 276.459V271.325C166.563 270.899 166.924 270.546 167.378 270.546ZM171.845 276.459V271.325C171.845 270.899 172.207 270.546 172.661 270.546H174.691C175.136 270.546 175.506 270.889 175.506 271.325V276.459C175.506 276.886 175.145 277.238 174.691 277.238H172.661C172.216 277.238 171.845 276.895 171.845 276.459Z" fill="#231815"/>
<path d="M196.777 290.909C194.145 292.225 191.383 293.263 187.926 294.217C187.499 294.338 187.055 294.106 186.916 293.707L185.599 289.787C185.46 289.379 185.701 288.944 186.137 288.823C194.497 286.349 202.078 281.26 206.907 275.468C207.176 275.153 207.639 275.079 207.991 275.31L211.671 277.701C212.069 277.961 212.153 278.489 211.838 278.841C209.752 281.158 207.231 283.698 204.516 285.894C204.34 286.043 204.228 286.256 204.228 286.478V313.634C204.228 314.06 203.867 314.413 203.413 314.413H198.769C198.325 314.413 197.954 314.07 197.954 313.634V291.604C197.954 291.029 197.314 290.649 196.777 290.918V290.909Z" fill="#231815"/>
<path d="M241.338 285.598L239.392 289.713C239.206 290.112 238.743 290.288 238.335 290.121L228.233 285.737C227.807 285.552 227.621 285.042 227.825 284.616L229.781 280.538C229.975 280.139 230.43 279.963 230.828 280.139L240.912 284.477C241.338 284.662 241.524 285.172 241.32 285.598H241.338ZM259.189 287.174C255.25 300.955 246.324 309.76 233.201 315.21C232.83 315.358 232.404 315.219 232.2 314.876L229.864 311.095C229.605 310.668 229.781 310.103 230.235 309.899C243.266 303.986 249.068 297.016 253.359 284.912C253.516 284.477 253.998 284.245 254.425 284.421L258.707 286.163C259.096 286.321 259.309 286.766 259.189 287.174Z" fill="#231815"/>
<path d="M276.872 309.649C285.64 305.543 288.476 299.871 289.403 293.142C289.486 292.521 288.976 291.965 288.328 291.965H273.656C273.063 291.965 272.581 291.492 272.581 290.918V286.979C272.581 286.395 273.063 285.932 273.656 285.932H295.26C295.863 285.932 296.354 286.413 296.345 287.007C296.131 301.243 291.655 310.335 279.597 315.237C279.078 315.451 278.466 315.219 278.216 314.728L276.362 311.085C276.094 310.557 276.335 309.918 276.881 309.667L276.872 309.649ZM295.195 275.551V279.49C295.195 280.074 294.713 280.537 294.12 280.537H274.815C274.221 280.537 273.74 280.065 273.74 279.49V275.551C273.74 274.967 274.221 274.504 274.815 274.504H294.12C294.713 274.504 295.195 274.977 295.195 275.551Z" fill="#231815"/>
<path d="M321.183 295.274C321.072 301.994 319.839 305.812 316.262 310.604C315.965 310.993 315.446 311.113 315.029 310.882L311.554 308.945C311.025 308.648 310.859 307.916 311.211 307.406C314.065 303.226 315.057 300.001 315.178 295.256C315.196 294.681 315.622 294.218 316.16 294.218H320.192C320.738 294.218 321.183 294.7 321.174 295.283L321.183 295.274ZM323.816 285.858H316.179C315.632 285.858 315.196 285.385 315.196 284.81V280.816C315.196 280.232 315.641 279.768 316.179 279.768H323.816C324.362 279.768 324.798 279.296 324.798 278.721V274.782C324.798 274.198 325.243 273.735 325.78 273.735H329.803C330.35 273.735 330.785 274.208 330.785 274.782V278.721C330.785 279.305 331.23 279.768 331.768 279.768H339.405C339.951 279.768 340.387 280.241 340.387 280.816V284.81C340.387 285.394 339.942 285.858 339.405 285.858H331.768C331.221 285.858 330.785 286.33 330.785 286.905V303.875C330.785 311.892 330.377 315.164 323.38 315.442C322.824 315.46 322.342 314.987 322.342 314.385V310.437C322.342 309.918 322.666 309.436 323.148 309.352C324.779 309.065 324.779 307.629 324.779 303.032V286.896C324.779 286.312 324.335 285.848 323.797 285.848L323.816 285.858ZM335.123 295.181L339.071 294.394C339.599 294.292 340.1 294.653 340.211 295.209L342.963 309.056C343.075 309.63 342.732 310.196 342.194 310.307L338.292 311.132C337.764 311.243 337.254 310.882 337.143 310.326L334.344 296.442C334.224 295.867 334.576 295.293 335.123 295.191V295.181ZM337.625 271.409V276.469C337.625 277.053 337.18 277.516 336.643 277.516H335.169C334.622 277.516 334.187 277.044 334.187 276.469V271.409C334.187 270.825 334.631 270.361 335.169 270.361H336.643C337.189 270.361 337.625 270.834 337.625 271.409ZM342.676 271.409V276.469C342.676 277.053 342.231 277.516 341.694 277.516H340.22C339.673 277.516 339.238 277.044 339.238 276.469V271.409C339.238 270.825 339.683 270.361 340.22 270.361H341.694C342.241 270.361 342.676 270.834 342.676 271.409Z" fill="#231815"/>
<path d="M111.047 339.446H109.193V329.603L104.8 339.465H103.03L98.7941 329.603V339.446H96.9497V328.028H100.194L103.993 336.703L107.923 328.028H111.047V339.446Z" fill="#231815"/>
<path d="M118.415 339.465H116.589V328.037H118.415V339.465Z" fill="#231815"/>
<path d="M135.589 339.465H133.689L125.876 330.743V339.465H123.966V328.037H125.913L133.67 336.555V328.037H135.598V339.465H135.589Z" fill="#231815"/>
<path d="M142.79 335.109V339.465H140.964V328.037H148.647C151.085 328.037 152.299 329.409 152.299 331.596C152.299 333.783 151.057 335.118 148.545 335.118H142.79V335.109ZM142.79 329.928V333.162H148.62C149.741 333.162 150.39 332.569 150.39 331.522C150.39 330.475 149.76 329.928 148.638 329.928H142.799H142.79Z" fill="#231815"/>
<path d="M167.341 339.465H165.228L164.06 336.86H157.971L156.831 339.465H154.857L159.88 328.037H162.207L167.35 339.465H167.341ZM158.666 335.109H163.384L161.03 329.872L158.666 335.109Z" fill="#231815"/>
<path d="M177.573 331.948L183.384 339.465H180.789L176.1 333.135L172.948 335.591V339.465H171.123V328.037H172.948V333.32L179.621 328.037H182.569L177.573 331.948Z" fill="#231815"/>
<path d="M198.01 334.219C198.01 338.186 195.581 339.845 192.356 339.845C189.131 339.845 186.953 338.149 186.953 334.256V328.037H188.834V333.913C188.834 336.925 190.261 337.908 192.384 337.908C194.506 337.908 196.193 337.009 196.193 333.932V328.037H198V334.219H198.01Z" fill="#231815"/>
<path d="M215.86 328.037C219.391 328.037 222.311 329.186 222.311 333.746C222.311 336.304 220.781 339.474 216.194 339.474H210.281V328.046H215.86V328.037ZM212.106 329.817V337.454H215.962C219.076 337.454 220.42 335.795 220.42 333.681C220.42 331.003 218.724 329.817 215.86 329.817H212.106Z" fill="#231815"/>
<path d="M236.611 329.844H228.057V332.671H235.638V334.497H228.057V337.481H236.806V339.465H226.231V328.037H236.611V329.844Z" fill="#231815"/>
<path d="M249.225 331.197C248.827 329.909 247.807 329.381 245.972 329.381C243.507 329.381 242.441 330.011 242.441 331.123C242.441 332.597 243.729 332.699 246.009 332.699C249.151 332.699 251.338 332.986 251.338 335.97C251.338 338.222 249.763 339.817 245.861 339.817C243.915 339.817 242.969 339.613 242.256 339.242C241.014 338.565 240.411 337.685 240.272 336.026H242.274C242.432 337.416 243.896 338.056 246 338.056C248.104 338.056 249.429 337.36 249.429 336.026C249.429 334.775 247.983 334.571 246.315 334.571C245.917 334.571 245.574 334.589 245.203 334.589C243.451 334.589 240.504 334.524 240.504 331.169C240.504 329.038 241.95 327.666 245.963 327.666C249.336 327.666 250.662 328.834 251.06 331.142L249.235 331.206L249.225 331.197Z" fill="#231815"/>
<path d="M257.4 339.465H255.574V328.037H257.4V339.465Z" fill="#231815"/>
<path d="M274.286 339.465H272.386L264.573 330.743V339.465H262.664V328.037H264.61L272.368 336.555V328.037H274.296V339.465H274.286Z" fill="#231815"/>
<path d="M289.069 331.086C287.753 330.104 286.103 329.547 284.25 329.547C281.794 329.547 280.07 331.142 280.07 333.746C280.07 336.35 281.692 337.963 284.231 337.963C285.909 337.963 287.429 337.555 287.994 336.98V335.201H285.149V333.422H289.82V338.334C289.041 339.01 287.178 339.844 284.092 339.844C280.793 339.844 278.188 337.629 278.188 333.746C278.188 329.863 280.959 327.666 284.231 327.666C286.817 327.666 289.171 328.602 289.912 329.242L289.051 331.086H289.069Z" fill="#231815"/>
<path d="M303.842 337.352H311.674V339.465H302.017V328.037H303.842V337.352Z" fill="#231815"/>
<path d="M327.699 339.465H325.576L324.409 336.86H318.319L317.179 339.465H315.205L320.229 328.037H322.555L327.699 339.465ZM319.015 335.109H323.732L321.378 329.872L319.015 335.109Z" fill="#231815"/>
<path d="M339.442 328.037C341.416 328.037 342.537 329.242 342.537 331.003C342.537 332.004 342.083 333.107 341.212 333.505C342.38 333.848 343.065 334.914 343.065 336.165C343.065 338.01 341.925 339.465 339.442 339.465H331.471V328.037H339.442ZM333.288 329.909V332.699H339.46C340.174 332.699 340.721 332.161 340.721 331.364C340.721 330.382 340.09 329.909 339.182 329.909H333.278H333.288ZM333.288 334.506V337.5H339.191C340.276 337.5 340.971 336.99 340.971 335.943C340.971 335.025 340.285 334.506 339.469 334.506H333.297H333.288Z" fill="#231815"/>
</g>
<defs>
<clipPath id="clip0_1198_92">
<rect width="441.562" height="473" fill="white" transform="translate(0.894531)"/>
</clipPath>
</defs>
</svg>
