<svg width="116" height="107" viewBox="0 0 116 107" fill="none" xmlns="http://www.w3.org/2000/svg">
<path d="M26.2676 86.1062C24.2064 96.4804 22.3544 101.49 19.1232 105.008C21.6275 103.416 26.7854 99.3619 32.969 90.24L34.6667 91.7364C40.3475 105.687 79.7193 103.368 86.107 82.259C86.107 82.259 86.2912 79.818 86.2016 77.361C118.155 55.0843 95.4222 14.7176 69.8415 15.8426C69.1445 14.3249 68.1686 12.6321 66.8542 11.1144C47.4472 -9.33157 -9.87296 0.67122 4.89395 47.1563C3.48995 49.1463 2.48923 51.2264 2.48923 51.2264C-2.10115 62.386 5.7503 85.1935 26.2726 86.1062H26.2676Z" fill="white"/>
<path d="M86.7394 78.3309C87.6007 77.7047 88.4571 77.0467 89.0794 76.2454C89.418 76.118 89.7267 75.9907 90.0154 75.8527C90.2942 75.7041 90.5531 75.5396 90.7921 75.3486C91.0311 75.1576 91.2551 74.9453 91.4642 74.6853C91.6684 74.42 91.8526 74.1069 92.0318 73.746C93.3561 72.3451 94.8 71.0715 96.0745 69.5804C97.3491 68.1052 98.4743 66.4336 99.0667 64.4808C100.217 62.6925 100.998 60.7079 101.586 58.6861C102.173 56.6537 102.577 54.5842 103 52.4403C102.751 50.6998 102.811 49.0283 102.771 47.3249C102.736 45.6268 102.587 43.8969 101.934 42.3102C101.805 41.0154 101.556 39.6888 101.133 38.4205C100.939 37.7784 100.68 37.1629 100.411 36.5579C100.277 36.2555 100.117 35.9636 99.9629 35.677C99.8086 35.3905 99.6493 35.1039 99.47 34.8333C99.2808 34.5627 99.1364 34.2655 99.012 33.9577C98.8776 33.65 98.763 33.3369 98.6386 33.0238C98.5739 32.8699 98.5141 32.716 98.4444 32.5621C98.3697 32.4135 98.2901 32.2756 98.2054 32.1376C98.0312 31.867 97.8221 31.6229 97.5582 31.4371C96.677 29.8929 96.0546 28.5345 94.7303 27.3087C94.5013 26.778 94.1179 26.1784 93.6698 25.669C93.2118 25.1754 92.689 24.7775 92.1812 24.6766C91.5987 23.6153 90.6178 22.6867 89.5723 21.8483C88.5168 21.0204 87.4215 20.251 86.5353 19.4338C86.2067 19.3224 85.9627 19.2587 85.7636 19.2109C85.5644 19.1579 85.4151 19.1154 85.2806 19.057C85.1412 18.9987 85.0168 18.9138 84.8624 18.7917C84.7031 18.6697 84.5139 18.5051 84.26 18.2664C84.0708 18.2133 83.8816 18.1496 83.6875 18.07C83.4883 18.001 83.2892 17.9161 83.09 17.8259C82.8909 17.7357 82.6867 17.6349 82.4876 17.5287C82.2835 17.4279 82.0793 17.3271 81.8752 17.221C81.6711 17.1148 81.4719 17.0034 81.2728 16.892C81.0736 16.7858 80.8745 16.6797 80.6853 16.5789C80.3019 16.3719 79.9434 16.1703 79.6148 16.0164C79.341 16.1491 78.9228 16.0801 78.4996 15.9421C78.0714 15.8041 77.6483 15.5494 77.3645 15.2788C76.9761 15.2788 76.5679 15.2629 76.1696 15.2257C75.7663 15.2045 75.373 15.1673 75.0095 15.0877C73.6005 15.2257 72.7791 14.8224 71.3502 14.5253C70.7477 14.3608 70.0657 14.5146 69.4184 14.6526C68.7662 14.8383 68.1439 15.0028 67.5912 15.0135C67.0386 15.2735 66.8295 15.7829 66.8743 16.2658C66.9241 16.754 67.1979 17.0883 67.8302 17.0671C67.9895 17.083 68.1588 17.0724 68.343 17.0671C68.5222 17.0671 68.7164 17.0512 68.9106 17.0299C69.1047 17.0087 69.2989 16.9822 69.4931 16.945C69.6873 16.9185 69.8814 16.892 70.0656 16.8601C70.7378 16.7964 71.3999 16.7964 72.0571 16.7964C72.7094 16.8283 73.3616 16.8601 74.0038 16.9716C75.2883 17.1732 76.5579 17.5287 77.7877 18.1655C78.2407 18.2451 78.6838 18.3884 79.1369 18.5051C79.585 18.6378 80.0331 18.8023 80.4812 18.9562C80.9193 19.1366 81.3674 19.3117 81.8055 19.5134C82.2386 19.7256 82.6817 19.9167 83.1049 20.1608C84.8176 21.0735 86.4307 22.1879 87.9144 23.3394C88.716 24.3529 89.6818 25.2391 90.6577 26.1518C91.6285 27.0593 92.6541 27.9454 93.5204 28.9006C93.7644 29.1235 93.9287 29.3835 94.0731 29.6435C94.2175 29.9089 94.3369 30.1742 94.4614 30.4342C94.7004 30.9702 94.9991 31.4478 95.6215 31.8404C95.6563 32.1907 95.7708 32.4825 95.9152 32.7532C96.0596 33.0291 96.2438 33.2732 96.438 33.5173C96.6371 33.7561 96.8263 34.0055 97.0006 34.2655C97.1698 34.5308 97.3292 34.8015 97.3989 35.1199C97.5383 35.5179 97.7324 35.8999 97.9216 36.2767C98.1108 36.6534 98.3249 37.0143 98.539 37.3327C98.6684 38.7973 98.4743 38.4895 99.3007 39.71C99.3904 41.1799 99.719 42.5596 100.067 43.9658C100.406 45.3668 100.75 46.7942 100.874 48.2164C100.959 49.9198 100.849 51.5595 100.62 53.1673C100.391 54.7752 100.062 56.3566 99.6791 57.9963C99.3207 59.2221 98.9273 60.3736 98.4743 61.4986C97.9864 62.6023 97.4387 63.6849 96.6322 64.6506C96.4977 64.8523 96.3683 65.0646 96.2338 65.2768C96.0944 65.4838 95.955 65.696 95.8206 65.9136C95.6862 66.1312 95.5468 66.354 95.4124 66.5716L94.9742 67.219C94.8249 67.4313 94.6805 67.6488 94.5311 67.8611C94.3718 68.0627 94.2175 68.2644 94.0581 68.4607C93.8988 68.6571 93.7395 68.8428 93.5752 69.0285C93.4109 69.2089 93.2367 69.3681 93.0624 69.5273C93.0226 70.1004 92.7089 70.6789 92.2608 71.1511C92.0418 71.3899 91.7978 71.6181 91.5538 71.8198C91.3049 72.0161 91.046 72.1806 90.817 72.3239C89.2387 73.4966 87.765 74.7649 86.2117 75.9482C84.6633 77.1316 83.0701 78.2725 81.3226 79.0844C80.272 79.9759 80.8396 80.4428 81.7657 80.5702C82.2287 80.6339 82.7813 80.6074 83.2493 80.5172C83.7123 80.4163 84.0857 80.2359 84.2052 80.0236C84.5886 79.7477 85.0218 79.4983 85.4449 79.2117C85.8731 78.9252 86.3162 78.6333 86.7593 78.3415L86.7394 78.3309Z" fill="black"/>
<path d="M1.82244 26.4441C1.85729 27.2507 1.90709 27.6062 1.91206 27.9565C1.91206 28.3067 1.81248 28.6357 1.5735 29.3839C1.62827 29.8297 1.63824 30.3179 1.61832 30.822C1.59343 31.3261 1.58844 31.8515 1.54363 32.3768C1.49384 32.9021 1.46895 33.4169 1.4341 33.9157C1.39924 34.4092 1.34946 34.8762 1.34448 35.2901C1.55857 35.5289 1.67307 36.0065 1.69797 36.5159C1.7129 37.0306 1.68801 37.5825 1.54363 37.9858C1.79257 38.8295 2.10125 39.7582 2.21576 40.5913C2.82814 42.0665 2.75346 43.1013 2.91776 44.741C2.92772 44.9161 2.95759 45.0912 2.99244 45.2663C3.03725 45.4414 3.09202 45.6113 3.15675 45.7864C3.28619 46.1313 3.44053 46.4762 3.60483 46.8158C3.91351 47.4951 4.28194 48.1266 4.40143 48.7474C4.76986 49.3046 5.28765 49.4426 5.72577 49.2993C6.16888 49.1507 6.40785 48.7739 6.22861 48.0469C6.17385 47.6755 6.04939 47.251 5.89505 46.8158C5.75067 46.3807 5.58636 45.935 5.41708 45.5317C5.29759 45.1549 5.1582 44.7834 5.05364 44.4067C4.94909 44.0299 4.84453 43.6585 4.73998 43.287C4.52092 42.5494 4.37653 41.7959 4.22717 41.0476C4.19232 40.8619 4.15249 40.6709 4.12262 40.4852L4.04793 39.9174C4.00312 39.5353 3.95831 39.1532 3.92346 38.7712C3.88363 38.3891 3.88861 37.9964 3.87865 37.6037C3.87865 37.211 3.8687 36.8184 3.89359 36.4204C3.5401 34.3084 3.48035 32.0637 3.65959 29.8562C3.8438 27.6434 4.28691 25.4783 4.89432 23.4671C5.05364 23.1541 5.23785 22.8516 5.38721 22.5279C5.54155 22.2095 5.68594 21.8805 5.84526 21.5621C5.9996 21.2384 6.13901 20.9041 6.28339 20.5698C6.44271 20.2408 6.59207 19.9118 6.73645 19.5722C7.34884 18.2455 7.96619 16.8818 8.71798 15.6931C8.88228 15.3694 9.11131 15.1306 9.33535 14.9024C9.56437 14.6849 9.78841 14.4779 10.0324 14.2869C10.5103 13.8995 10.9236 13.4644 11.2173 12.7108C11.8745 12.472 12.3176 11.9944 12.7408 11.4638C12.9499 11.1985 13.1739 10.9438 13.4079 10.705C13.6419 10.4662 13.8959 10.2486 14.1996 10.1106C14.573 9.88246 14.9265 9.5959 15.2849 9.31997C15.6384 9.04403 15.967 8.74155 16.2657 8.455C16.9877 8.24805 17.2764 8.21621 17.5254 8.08885C17.7793 7.9668 17.9884 7.75985 18.551 7.20266C20.0147 6.83651 21.3739 6.22096 22.748 5.57356C24.1271 4.94208 25.5112 4.27346 26.9252 3.8118C28.6379 3.33421 30.3157 3.03704 31.9935 2.80886C33.6763 2.57538 35.3542 2.40026 37.1067 2.21984C37.7739 2.19331 38.4261 2.16678 39.0733 2.14024C39.7155 2.12963 40.3528 2.09779 40.9901 2.11902C41.3087 2.12432 41.6224 2.13494 41.941 2.15086C42.2597 2.17739 42.5783 2.20392 42.897 2.24107C43.5342 2.30474 44.1765 2.44271 44.8237 2.60191C46.8501 2.93091 49.2548 3.09011 51.1218 3.82241C52.1923 3.33952 53.8153 4.03998 54.821 4.65023C56.7129 5.61071 58.6049 6.46506 60.4271 7.4786C62.2393 8.49215 63.9968 9.6702 65.3958 11.2303C66.5808 12.0581 66.8247 11.3418 66.5708 10.307C66.5061 10.0523 66.4215 9.76571 66.302 9.50569C66.1825 9.24567 66.0431 8.98565 65.8937 8.75217C65.6049 8.27989 65.2614 7.9615 65.0125 7.90843C64.8034 7.74923 64.5843 7.59004 64.3652 7.42554C64.1412 7.26634 63.9122 7.09653 63.6832 6.93203C63.2301 6.5818 62.7322 6.27402 62.2493 5.94502C61.7514 5.63724 61.2436 5.34538 60.7308 5.09597C60.208 4.86779 59.7002 4.64492 59.1774 4.52287C58.8787 4.25224 58.5999 4.00814 58.3211 3.79588C58.0373 3.58892 57.7535 3.41381 57.4597 3.27053C57.166 3.12195 56.8523 3.00521 56.5088 2.93622C56.1653 2.86193 55.7969 2.81948 55.3836 2.81417C53.432 2.19862 51.5251 1.46101 49.5485 0.930355C47.577 0.399703 45.5456 0.0706991 43.4894 0.314799C41.3287 -0.0460443 39.1778 -0.0460429 37.0519 0.065394C34.921 0.182137 32.8051 0.410317 30.6144 0.553593C28.9864 1.26467 27.3235 1.6149 25.6506 2.02881C23.9828 2.44271 22.295 2.9203 20.8113 3.90731C19.5417 4.28408 18.2572 4.7882 17.0424 5.46743C15.8226 6.12544 14.6775 6.96387 13.6668 7.91904C13.4229 8.17906 13.1441 8.39132 12.8503 8.58766C12.5566 8.78401 12.2628 8.98566 11.9691 9.182C11.3766 9.56937 10.8489 10.0417 10.5452 10.6944C10.1917 11.0234 9.86309 11.3364 9.52952 11.6336C9.19594 11.9308 8.89722 12.2545 8.58854 12.5622C8.27986 12.87 8.00105 13.2203 7.72722 13.5864C7.59279 13.7721 7.45339 13.9579 7.32394 14.1595C7.19947 14.3665 7.07998 14.5787 6.96547 14.8016C6.73645 15.0032 6.47756 15.242 6.25352 15.5233C6.0245 15.8045 5.80045 16.1176 5.60131 16.436C5.39718 16.7544 5.25777 17.1046 5.14326 17.4283C5.0387 17.7626 4.96402 18.0757 4.98393 18.3729C4.57568 18.8717 4.16743 19.4501 3.8687 20.1134C3.71436 20.4424 3.55504 20.7767 3.42062 21.1323C3.29117 21.4878 3.1667 21.8487 3.04721 22.2095C2.91777 22.5703 2.82814 22.9418 2.72359 23.308C2.62401 23.6741 2.50453 24.0349 2.41989 24.3958C2.24563 25.1175 2.0216 25.802 1.81747 26.4494L1.82244 26.4441Z" fill="black"/>
<path d="M34.0497 92.7643C34.0995 93.0244 34.2389 93.3056 34.3982 93.5815C34.5775 93.8416 34.7766 94.1069 34.9907 94.3138C35.6628 95.1576 36.3997 95.8368 37.1415 96.4948C37.8833 97.1528 38.6401 97.7737 39.4218 98.4954C40.6963 99.042 42.0057 99.5461 43.3251 99.9706C44.6445 100.395 45.9788 100.74 47.2732 100.942C48.0798 101.382 49.0008 101.547 49.9319 101.573C50.8629 101.61 51.7989 101.494 52.6702 101.425C53.1133 101.34 53.4917 101.515 53.875 101.626C54.2584 101.727 54.6517 101.78 55.1048 101.43C55.518 101.748 55.9362 101.685 56.3544 101.563C56.7677 101.446 57.1809 101.276 57.6041 101.387C58.1617 101.441 58.7592 101.313 59.252 101.111C60.208 101.435 60.0088 101.557 60.905 101.021C61.8858 101.281 62.8616 101.143 63.8076 100.867C64.7535 100.597 65.6696 100.178 66.5758 99.8804C67.6761 99.5779 68.7415 99.3073 69.792 98.973C70.8376 98.6334 71.8731 98.2301 72.8788 97.657C74.487 96.9406 75.7366 95.9376 77.4045 95.3062C78.6193 94.6375 79.7246 93.4223 80.8498 92.6794C80.8697 92.1965 81.0937 91.7773 81.4124 91.4483C81.7211 91.1034 82.1194 90.8328 82.4579 90.6205C83.5731 89.7237 84.4245 88.5191 85.1066 87.2403C85.7986 85.9561 86.3264 84.6029 86.9089 83.271C86.9985 82.2203 86.2866 82.268 85.6144 82.5811C84.9523 82.9048 84.2702 83.4514 84.3847 83.7963C84.2801 84.0829 84.1606 84.38 84.0163 84.6719C83.8619 84.9638 83.7076 85.2662 83.5433 85.5581C83.2147 86.1524 82.8911 86.7521 82.7019 87.3995C82.4828 87.5162 82.2936 87.6276 82.1243 87.7444C81.9551 87.8611 81.7957 87.9725 81.6713 88.1158C81.4173 88.4024 81.2331 88.7473 81.1236 89.3045C80.3718 90.2862 79.3611 90.9867 78.3704 91.6606C77.3696 92.3345 76.3888 92.9872 75.5524 93.9848C74.3525 94.5102 73.2473 95.1257 72.0972 95.6723C70.9471 96.2136 69.7622 96.6752 68.4727 96.8451C67.6362 97.5667 66.6355 97.8108 65.6348 97.9753C64.6341 98.1505 63.6284 98.2513 62.6774 98.7289C61.0942 98.6652 59.4861 98.7766 57.9526 99.2436C57.1709 99.5355 56.3096 98.8934 55.5877 99.4665C54.4924 99.4452 53.6361 99.1481 52.5258 99.3975C51.8636 99.0738 50.8629 98.8668 50.2555 99.4081C49.5784 99.0048 48.7768 98.8881 47.9553 98.7766C47.1438 98.6546 46.3123 98.5378 45.6651 98.1452C45.217 98.2301 45.0079 98.2884 44.8137 98.2778C44.6245 98.2672 44.4503 98.1664 44.1068 97.8745C43.8528 97.8904 43.589 97.8586 43.3301 97.7737C43.0662 97.6941 42.8023 97.588 42.5484 97.4447C42.2945 97.312 42.0505 97.1581 41.8315 96.9936C41.6074 96.8344 41.4083 96.6806 41.234 96.5373C40.8208 96.8026 40.1636 96.3462 40.0142 95.7891C39.5462 95.6988 39.0384 95.5184 38.6949 95.2266C37.8335 94.9825 37.5896 94.3404 37.2311 93.5338C37.1963 93.4436 37.1515 93.364 37.0917 93.2897C37.0419 93.2101 36.9822 93.1411 36.9175 93.0721C36.783 92.9395 36.6237 92.8174 36.4744 92.6901C36.1607 92.4406 35.867 92.1594 35.7873 91.8251C35.4985 91.5916 35.0106 91.6128 34.5824 91.7879C34.1493 91.9631 33.9004 92.2655 34.0597 92.7749L34.0497 92.7643Z" fill="black"/>
<path d="M0 57.5346C0.219064 59.8483 0.358457 62.2999 0.906117 64.4862C0.841394 64.8842 0.881232 65.2715 0.945955 65.6642C1.01068 66.0516 1.11523 66.439 1.27455 66.8104C1.42392 67.1819 1.59319 67.5427 1.77243 67.8983C1.96162 68.2432 2.1508 68.5828 2.33501 68.9118C2.54412 69.2355 2.52918 69.5964 2.56901 69.9413C2.60884 70.2862 2.70344 70.6205 3.14655 70.8328C3.02208 71.2891 3.22621 71.5916 3.46519 71.8676C3.58468 72.0055 3.71412 72.1382 3.81868 72.2815C3.92821 72.4247 4.01783 72.5786 4.04273 72.7697C4.12239 72.9978 4.2369 73.2207 4.37132 73.4171C4.44103 73.5179 4.51071 73.6134 4.59037 73.6983C4.67003 73.7832 4.75965 73.8628 4.84429 73.9318C4.914 74.8286 4.7497 74.7331 5.49651 75.1894C5.65583 76.0703 6.09893 76.7973 6.68145 77.3916C7.23408 78.0125 7.93111 78.4901 8.48873 79.0526C9.79315 80.4376 10.993 81.8067 12.646 82.7353C13.2335 83.1492 13.8259 83.4941 14.4283 83.7966C14.7271 83.9558 15.0158 84.1256 15.3046 84.322C15.5984 84.5024 15.8871 84.6987 16.1709 84.9428C16.4099 85.0861 16.6688 85.2188 16.9376 85.3302C17.2115 85.431 17.4952 85.5212 17.7741 85.6114C18.0529 85.707 18.3317 85.7972 18.5955 85.9086C18.8644 85.9988 19.1233 86.1049 19.3623 86.2376C19.6958 85.9617 20.0593 85.9298 20.4078 86.02C20.7563 86.0996 21.0998 86.2695 21.3687 86.4552C21.6226 86.5772 21.8865 86.6834 22.1504 86.7736C22.4142 86.8638 22.6831 86.9062 22.9569 86.9593C23.2258 87.0071 23.4996 87.0442 23.7734 87.076L24.1817 87.1185C24.3161 87.1291 24.4555 87.1291 24.5899 87.1344C24.799 87.1344 25.0082 87.145 25.2173 87.145C25.1774 87.2936 25.1326 87.4422 25.0928 87.5908C24.8687 88.3337 24.6298 89.0554 24.6148 89.119C24.57 89.2411 24.2813 91.6874 23.8879 91.8625C23.6241 91.9899 22.8424 94.3566 23.0316 94.9244C23.0615 95.0517 22.7179 96.458 22.24 97.7899C21.772 99.1272 21.1695 100.374 21.0899 100.417C21.0202 100.443 20.9007 100.655 20.7513 100.963C20.607 101.271 20.4028 101.642 20.2286 102.03C20.0294 102.401 19.8402 102.773 19.6859 103.043C19.5266 103.309 19.422 103.489 19.422 103.489L19.2527 103.754L19.0685 104.009L19.0187 104.078C18.8744 104.195 18.7549 104.29 18.6702 104.359C18.5856 104.428 18.5358 104.466 18.5358 104.466C18.3267 104.603 18.1226 104.763 17.9135 104.89C17.7093 105.023 17.4803 105.166 17.3011 105.261L17.8089 106.684C18.1126 106.572 18.3416 106.477 18.5906 106.36C18.5906 106.36 18.6503 106.328 18.7549 106.275C18.8544 106.217 18.9988 106.137 19.1681 106.042C19.5116 105.861 19.9298 105.612 20.3431 105.426C21.1944 105.039 22.6582 103.892 23.3851 103.282C23.7684 102.996 24.1767 102.624 24.5899 102.269C24.7941 102.088 24.9932 101.913 25.1824 101.749C25.3616 101.573 25.5309 101.414 25.6853 101.271C25.7102 101.244 26.0238 101.17 26.457 100.523C26.7607 100.072 27.3631 99.4615 27.9356 98.9255C28.2244 98.6602 28.4833 98.3949 28.6874 98.172C28.8916 97.9491 29.0359 97.7687 29.0758 97.6572C29.1704 97.3972 29.4591 97.0523 29.8027 96.6808C30.1362 96.2988 30.5096 95.8796 30.7934 95.5028C31.0772 95.1207 31.2963 94.7174 31.5502 94.3248C31.7892 93.9215 32.058 93.5341 32.4514 93.1892C32.8497 92.8389 33.1932 92.3242 33.482 91.8254C33.7558 91.316 33.9748 90.8278 34.1541 90.5359C34.5374 89.8938 34.9955 89.1509 35.2942 88.6043C35.5879 88.0524 36.2003 86.9062 36.4144 86.5082C36.5638 86.2323 36.7679 85.8927 36.5737 85.5053C36.4642 85.2877 35.9763 84.9853 35.8319 85.049C35.6327 85.1392 35.329 85.2877 35.1647 85.5106C34.9656 85.7813 34.2736 86.7523 33.9002 87.3732C33.7906 87.5589 33.6064 87.6385 33.5965 87.75C33.5716 87.941 33.009 88.7158 32.4414 89.4534C32.1576 89.8248 31.8738 90.1857 31.6498 90.4616C31.4207 90.7269 31.2614 90.918 31.2316 90.9445C31.1768 91.0029 30.7785 91.6662 30.3304 92.3295C29.8923 92.9981 29.3645 93.6137 29.1405 93.6402C28.9812 93.6508 28.4136 94.2292 27.861 94.8819C27.2934 95.5187 26.7607 96.2404 26.7059 96.5959C26.6959 96.6331 26.6262 96.7498 26.4968 96.9143C26.3673 97.0788 26.1881 97.2964 25.974 97.5564C25.7599 97.8111 25.511 98.103 25.2471 98.4108C24.9833 98.7239 24.6796 99.0263 24.3858 99.3394C24.1667 99.5729 23.9477 99.8011 23.7286 100.019C23.9078 99.6207 24.0921 99.2386 24.2165 98.9308C24.2265 98.899 24.4655 98.7398 24.5551 98.0871C24.6248 97.6307 24.8837 96.9621 25.1426 96.3518C25.3816 95.7416 25.6056 95.1897 25.5807 94.9934C25.516 94.5317 25.984 93.5394 26.1533 92.7752C26.2379 92.3932 26.2578 92.0058 26.3076 91.6237C26.3524 91.2417 26.4271 90.8543 26.6412 90.4722C27.0693 89.6815 26.9847 88.4717 27.0793 87.9145C27.1141 87.6863 27.149 87.4475 27.1838 87.2087C27.4079 87.2193 27.6319 87.2405 27.856 87.2671C28.6028 87.0124 28.3937 86.3119 27.9804 85.7388C27.8211 85.5159 27.6319 85.3143 27.4477 85.1604C27.4925 84.7518 27.5373 84.3485 27.5573 84.1468C27.5871 83.8921 27.6469 83.5684 27.3233 83.3243C27.144 83.1864 26.5864 83.0908 26.4769 83.1758C26.3275 83.3031 26.1134 83.5048 26.0487 83.7276C25.9939 83.9134 25.8545 84.4334 25.735 84.9322C25.5658 84.9163 25.3915 84.9004 25.2173 84.8844C24.9534 84.8632 24.6845 84.8632 24.4207 84.8738C24.1568 84.8738 23.8979 84.9057 23.644 84.98C23.3253 84.704 23.0565 84.4971 22.7677 84.4228C22.479 84.3326 22.1703 84.3591 21.757 84.5608C21.5181 84.5289 21.2841 84.4812 21.055 84.4228C20.821 84.3697 20.602 84.2636 20.3779 84.1734C20.1539 84.0779 19.9348 83.977 19.7207 83.8762C19.5017 83.7754 19.2826 83.6799 19.0735 83.5578C18.6503 83.3296 18.2221 83.128 17.7741 82.9794C17.3359 82.799 16.8729 82.6822 16.3551 82.6557C15.9319 82.3373 15.5137 82.0295 15.0756 81.7695C14.8565 81.6422 14.6474 81.4936 14.4383 81.3556L13.806 80.9364C12.9746 80.3633 12.173 79.7212 11.5656 78.8244C11.1274 78.7236 10.7889 78.4901 10.4802 78.2142C10.1765 77.9382 9.8977 77.6304 9.6637 77.2802C9.42472 76.9353 9.18077 76.601 8.92187 76.2773C8.66796 75.9483 8.38417 75.6511 8.02073 75.4176C7.8863 75.1151 7.77179 74.7968 7.62243 74.4996C7.48303 74.1971 7.31375 73.9212 7.15443 73.6293C6.84077 73.0509 6.42753 72.5415 5.99438 72.0533C5.74544 71.8251 5.67077 71.4696 5.58115 71.1406C5.49651 70.8063 5.38698 70.4985 5.01855 70.3446C4.83434 69.9254 4.75966 69.5115 4.6352 69.1188C4.57545 68.9224 4.50076 68.7314 4.40616 68.5404C4.31655 68.3493 4.212 68.1583 4.06761 67.9673C4.10246 67.6489 4.06761 67.2774 3.9531 66.959C3.84854 66.6353 3.64442 66.3594 3.30088 66.2267C3.33076 66.0569 3.34072 65.8924 3.33574 65.7279C3.33574 65.5634 3.32578 65.3936 3.30088 65.2238C3.25608 64.8895 3.16148 64.5552 3.06688 64.2209C2.91254 63.5469 2.69846 62.8677 2.81795 62.2309C2.36986 61.5941 2.23046 61.6737 2.4794 60.9361C2.26531 60.5594 2.20059 60.0659 2.25038 59.583C2.27029 59.3389 2.30514 59.1001 2.33999 58.8772C2.37982 58.649 2.44455 58.4421 2.48438 58.2563C2.09604 58.0282 2.17072 57.3542 2.57898 57.0411C2.44953 56.6431 2.33004 56.1815 2.4097 55.8047C2.30017 55.428 2.32008 55.1255 2.43459 54.8442C2.55408 54.563 2.74825 54.303 2.94242 53.9793C3.12663 53.714 3.13162 53.3743 3.10672 53.0135C3.07187 52.6526 3.08681 52.3077 3.25111 52.0689C3.19634 51.7293 2.83787 51.395 2.42464 51.1827C2.00643 50.9705 1.64298 50.9439 1.44383 51.3048C1.31438 51.464 1.21481 51.6816 1.13515 51.9203C1.06545 52.1591 1.03557 52.4192 1.02063 52.6633C0.672122 54.3454 0.562585 55.8525 0.0348396 57.5346H0Z" fill="black"/>
<path d="M25.492 47.192H22.072V43.16H33.556V47.192H30.136V59H25.492V47.192ZM38.9487 43.16H43.4967L50.0247 59H45.0687L44.0607 56.252H38.4087L37.3887 59H32.4207L38.9487 43.16ZM39.9687 52.22H42.5007L41.2527 48.728H41.2167L39.9687 52.22ZM50.9508 43.16H57.5868C58.6188 43.16 59.5508 43.352 60.3828 43.736C61.2148 44.112 61.8748 44.672 62.3628 45.416C62.8588 46.16 63.1068 47.072 63.1068 48.152C63.1068 49.232 62.8588 50.164 62.3628 50.948C61.8748 51.724 61.2148 52.324 60.3828 52.748C59.5508 53.164 58.6188 53.372 57.5868 53.372H55.5948V59H50.9508V43.16ZM55.5948 49.76H56.2908C56.6428 49.76 56.9548 49.712 57.2268 49.616C57.5068 49.512 57.7268 49.352 57.8868 49.136C58.0468 48.912 58.1268 48.624 58.1268 48.272C58.1268 47.92 58.0468 47.636 57.8868 47.42C57.7268 47.196 57.5068 47.032 57.2268 46.928C56.9548 46.824 56.6428 46.772 56.2908 46.772H55.5948V49.76ZM65.9303 53.3L64.9943 42.488H70.0223L69.0983 53.3H65.9303ZM67.5023 59.288C67.0383 59.288 66.6103 59.172 66.2183 58.94C65.8343 58.708 65.5223 58.4 65.2823 58.016C65.0503 57.624 64.9343 57.192 64.9343 56.72C64.9343 56.008 65.1863 55.4 65.6903 54.896C66.1943 54.384 66.7983 54.128 67.5023 54.128C68.2223 54.128 68.8343 54.384 69.3383 54.896C69.8423 55.4 70.0943 56.008 70.0943 56.72C70.0943 57.424 69.8423 58.028 69.3383 58.532C68.8343 59.036 68.2223 59.288 67.5023 59.288ZM73.1022 53.3L72.1662 42.488H77.1942L76.2702 53.3H73.1022ZM74.6742 59.288C74.2102 59.288 73.7822 59.172 73.3902 58.94C73.0062 58.708 72.6942 58.4 72.4542 58.016C72.2222 57.624 72.1062 57.192 72.1062 56.72C72.1062 56.008 72.3582 55.4 72.8622 54.896C73.3662 54.384 73.9702 54.128 74.6742 54.128C75.3942 54.128 76.0062 54.384 76.5102 54.896C77.0142 55.4 77.2662 56.008 77.2662 56.72C77.2662 57.424 77.0142 58.028 76.5102 58.532C76.0062 59.036 75.3942 59.288 74.6742 59.288Z" fill="#3068E3"/>
</svg>
