<svg width="213" height="186" viewBox="0 0 213 186" fill="none" xmlns="http://www.w3.org/2000/svg">
<path d="M201.626 75.434C205.587 67.0704 205.949 56.6413 201.793 47.9052C197.275 38.4241 188.656 33.5143 179.982 34.4286C176.718 22.9836 167.319 13.7058 155.353 11.5725C148.575 10.3535 142.076 11.6064 136.609 14.6877C130.334 7.30606 120.572 2.56555 109.61 2.56555C96.1102 2.53169 84.3955 9.74404 78.8171 20.2409C72.8482 15.3988 64.6479 14.0105 56.7545 17.3289C47.1596 21.3583 40.7723 31.1441 39.9356 41.5732C34.4129 42.1488 28.7508 44.4514 23.5629 48.6501C10.8441 58.9099 5.48885 76.9239 10.1468 91.1454C5.57253 96.5293 2.72754 104.148 2.72754 112.613C2.72754 129.205 13.6891 142.648 27.1889 142.648C28.6393 142.648 30.0897 142.478 31.4843 142.174C31.7074 153.72 39.3498 165.538 51.0924 170.955C59.0416 174.612 67.214 174.578 73.6571 171.531C77.1436 175.899 82.3594 178.676 88.1888 178.676C93.9625 178.676 99.0946 175.967 102.581 171.666C107.406 178.743 115.021 183.348 123.64 183.348C132.816 183.348 140.905 178.134 145.646 170.177C147.153 170.481 148.715 170.651 150.304 170.651C163.721 170.651 174.766 159.138 176.244 144.341C190.469 145.695 204.387 134.758 209.352 116.914C213.592 101.71 210.161 85.66 201.626 75.434Z" fill="white"/>
<path d="M5.48872 95.5475C0.914423 102.929 -0.396504 112.715 1.6954 121.553C3.89887 130.763 9.67253 138.686 17.036 142.242C21.1362 144.239 25.7663 144.95 30.0895 143.63C30.2569 158.359 40.7722 170.075 51.6501 174.308C57.368 176.543 63.8389 177.017 69.5847 174.748C70.2262 174.511 70.8677 174.206 71.4814 173.868C72.1787 173.495 72.2902 173.19 72.876 173.935C73.8522 175.222 74.9679 176.306 76.1672 177.22C78.6496 179.116 81.4946 180.267 84.3954 180.775C90.5874 181.825 97.8115 179.895 102.191 174.172C110.14 185.956 124.672 188.495 135.8 182.367C138.673 180.775 141.351 178.642 143.582 175.933C144.531 174.782 145.423 173.529 146.204 172.175C146.455 171.768 146.79 170.752 147.153 170.651C147.655 170.515 149.021 171.193 149.579 171.26C155.548 172.175 161.852 169.838 166.705 165.707C169.494 163.337 171.921 160.323 173.706 156.768C174.543 155.109 175.212 153.382 175.714 151.553C176.132 150.03 176.885 147.49 176.439 145.899C185.588 147.287 194.987 143.393 201.682 135.774C208.32 128.223 212.197 117.252 212.699 106.248C213.117 96.7665 211.165 87.1839 206.507 79.4975C206.005 78.6509 205.447 77.8383 204.861 77.0595C204.443 76.4838 203.997 75.9421 203.55 75.4342C202.992 74.7908 202.881 74.8247 203.355 74.0459C204.499 72.1835 205.307 69.9487 205.865 67.7477C207.176 62.4655 206.925 56.6753 205.391 51.4946C203.662 45.7382 200.398 40.7268 196.159 37.3746C193.955 35.6477 191.529 34.361 188.963 33.6838C186.871 33.142 183.58 32.3971 181.571 33.5822C176.941 14.3831 157.863 4.86822 142.662 9.71032C140.737 10.3198 138.869 11.0986 137.083 12.1144C136.079 12.6901 136.163 12.7578 135.382 11.8435C134.685 11.0647 133.96 10.3198 133.179 9.60873C130.25 6.89987 126.903 4.8005 123.472 3.2429C115.69 -0.177042 107.183 -0.95584 99.1782 1.21125C91.1174 3.4122 82.945 9.06696 78.6775 17.9385C65.7635 6.86601 44.7886 15.5005 39.8517 33.7176C39.5728 34.7335 39.3497 35.7831 39.2102 36.8328C39.0987 37.5778 39.1823 39.2369 38.7918 39.5756C38.2898 39.9819 36.7836 39.8126 36.1421 39.9142C35.3053 40.0835 34.4407 40.2866 33.6318 40.5237C29.7827 41.6749 26.101 43.7066 22.7818 46.3139C16.3666 51.393 11.0114 58.8762 8.30582 67.6123C6.74387 72.6237 6.10235 78.0753 6.77176 83.3914C7.05068 85.7279 7.60852 88.0642 8.41739 90.2652C8.58474 90.7054 8.86366 91.1117 8.7242 91.4842C8.61263 91.7889 8.0269 92.1614 7.83166 92.3984C6.967 93.3127 6.18602 94.3962 5.48872 95.5475ZM9.72832 93.2111C10.1188 93.956 11.0671 96.1908 11.9318 96.1908C13.2706 96.1908 12.1549 93.719 11.9039 92.9402C10.8998 89.7234 10.2025 86.4051 10.063 82.9851C9.75621 75.8405 11.876 68.8652 15.1115 62.9734C22.0008 50.5126 33.8828 42.5553 46.3227 43.2325C47.8568 43.3002 49.335 43.6389 50.8691 43.8082C52.4032 43.9775 52.4311 42.7585 51.2317 41.9797C48.303 39.9819 44.426 39.474 41.1348 39.4401C43.6172 30.4331 49.6698 23.6271 56.9496 20.3426C64.5362 16.9227 72.7644 17.5999 79.6537 22.8822C80.2116 23.3224 83.3634 26.6407 83.3913 24.3382C83.4192 22.6113 81.132 20.3765 80.1837 19.3945C91.3684 5.81632 107.797 2.53182 122.663 7.98341C126.708 9.47329 130.473 11.6065 134.155 14.0445C132.872 15.0265 131.645 16.1439 130.529 17.4306C129.692 18.4125 128.381 19.7331 127.991 21.0875C127.6 22.3743 128.325 22.6451 129.19 22.1034C130.417 21.2907 131.477 20.1056 132.677 19.2252C137.864 15.3989 143.945 13.5027 150.025 13.6382C162.577 13.9091 175.602 22.679 179.312 37.9841C179.758 39.8464 180.065 41.7426 180.232 43.6389C180.288 44.3499 180.177 47.9392 181.432 46.9234C182.352 46.1784 182.324 43.2664 182.38 42.1151C182.464 39.8803 182.297 37.6794 181.906 35.5123C188.935 37.4762 195.211 41.167 199.255 48.718C203.299 56.3028 203.355 64.9034 201.514 73.3687C200.817 72.7253 198.809 70.4905 197.805 71.0322C196.772 71.6079 198.446 73.2671 198.809 73.7411C201.012 76.4161 202.937 79.362 204.471 82.6804C207.901 90.1975 209.045 98.8997 208.264 107.399C206.618 124.837 196.243 139.6 181.711 142.275C178.029 142.953 174.375 142.783 170.693 142.174C170.303 142.106 169.104 141.734 168.88 142.445C168.713 143.02 169.383 143.528 169.717 143.765C171.251 144.849 173.259 145.323 174.961 145.695C174.264 146.779 173.817 148.201 173.259 149.386C172.506 150.978 171.67 152.501 170.721 153.924C168.936 156.666 166.816 159.07 164.473 161.102C159.592 165.301 153.958 167.265 148.101 168.314C148.575 167.028 149.189 165.47 149.272 164.048C149.328 163.032 148.854 162.253 148.101 163.032C147.348 163.777 146.846 165.335 146.316 166.317C145.563 167.671 144.698 168.958 143.778 170.109C140.096 174.816 135.243 177.965 130.055 179.387C119.121 182.4 107.602 177.728 101.27 166.283C100.517 164.928 99.8755 163.506 99.234 162.05C98.7877 161.034 97.7836 160.12 97.6162 161.915C97.5046 163.337 98.1183 165.199 98.5088 166.52C99.0666 168.348 99.7918 170.075 100.684 171.7C94.4644 176.17 86.292 177.152 79.5701 173.8C76.4461 172.242 73.8801 169.737 71.8161 166.486C71.5092 166.012 71.1188 164.996 70.5888 164.861C69.9473 164.691 69.6405 165.301 69.6126 165.978C69.501 167.739 70.5051 169.94 71.2582 171.362C63.2532 173.021 55.025 171.362 47.9126 166.554C40.8559 161.813 34.7754 153.754 33.2692 143.901C32.9345 141.734 32.8508 139.499 32.9903 137.264C33.0182 136.587 33.3529 135.3 33.0461 134.657C32.6556 133.844 32.0699 134.352 31.7073 134.928C31.2889 135.605 31.0657 136.519 30.8705 137.332C30.7589 137.806 30.6474 138.28 30.5637 138.754C30.4521 139.33 30.5079 140.447 30.2569 140.955C29.8106 141.835 26.4357 140.955 25.4873 140.752C17.7333 139.126 10.9556 132.896 7.44117 124.363C3.09 114.035 4.79142 102.624 9.72832 93.2111Z" fill="black"/>
</svg>
