<svg width="178" height="156" viewBox="0 0 178 156" fill="none" xmlns="http://www.w3.org/2000/svg">
<path d="M168.425 63.2401C171.745 56.2284 172.049 47.4851 168.565 40.1612C164.777 32.2127 157.551 28.0965 150.279 28.863C147.543 19.2681 139.663 11.4899 129.631 9.70153C123.949 8.67959 118.501 9.72992 113.918 12.3132C108.657 6.12472 100.472 2.15049 91.2826 2.15049C79.965 2.1221 70.144 8.16861 65.4673 16.9687C60.4632 12.9093 53.5885 11.7454 46.971 14.5274C38.9271 17.9055 33.5723 26.1094 32.8708 34.8527C28.2408 35.3353 23.494 37.2657 19.1447 40.7857C8.48183 49.3871 3.99221 64.4892 7.89724 76.4119C4.06236 80.9255 1.67725 87.3126 1.67725 94.4094C1.67725 108.319 10.8669 119.589 22.1845 119.589C23.4005 119.589 24.6164 119.447 25.7856 119.192C25.9726 128.872 32.3797 138.779 42.2241 143.321C48.8884 146.387 55.7398 146.358 61.1413 143.803C64.0643 147.465 68.437 149.793 73.3241 149.793C78.1645 149.793 82.467 147.522 85.39 143.917C89.4353 149.85 95.819 153.711 103.044 153.711C110.738 153.711 117.519 149.339 121.494 142.668C122.757 142.923 124.066 143.065 125.399 143.065C136.646 143.065 145.906 133.414 147.146 121.008C159.071 122.144 170.74 112.975 174.902 98.0146C178.456 85.2687 175.58 71.8131 168.425 63.2401Z" fill="white"/>
<path d="M3.99217 80.1027C0.157289 86.2911 -0.941733 94.4951 0.812026 101.904C2.65932 109.626 7.49969 116.268 13.6729 119.249C17.1103 120.924 20.9919 121.52 24.6164 120.413C24.7567 132.761 33.5722 142.583 42.6918 146.132C47.4854 148.005 52.9103 148.403 57.7273 146.501C58.2651 146.302 58.803 146.047 59.3174 145.763C59.902 145.45 59.9955 145.195 60.4866 145.819C61.305 146.898 62.2403 147.807 63.2458 148.573C65.327 150.163 67.7121 151.128 70.1439 151.554C75.3351 152.434 81.3914 150.816 85.0626 146.018C91.7269 155.897 103.91 158.026 113.24 152.888C115.648 151.554 117.893 149.765 119.764 147.494C120.559 146.529 121.307 145.479 121.962 144.343C122.172 144.003 122.453 143.151 122.757 143.066C123.178 142.952 124.323 143.52 124.791 143.577C129.795 144.343 135.08 142.385 139.148 138.921C141.487 136.934 143.521 134.408 145.018 131.427C145.719 130.036 146.28 128.588 146.701 127.055C147.052 125.778 147.683 123.649 147.309 122.315C154.979 123.479 162.859 120.214 168.471 113.827C174.037 107.496 177.287 98.299 177.708 89.0731C178.059 81.1246 176.422 73.091 172.517 66.6471C172.096 65.9374 171.628 65.2561 171.137 64.6032C170.786 64.1206 170.412 63.6664 170.038 63.2406C169.57 62.7012 169.477 62.7296 169.874 62.0767C170.833 60.5154 171.511 58.6418 171.979 56.7966C173.078 52.3682 172.867 47.514 171.581 43.1707C170.132 38.3449 167.396 34.1435 163.841 31.3332C161.994 29.8854 159.96 28.8067 157.808 28.239C156.055 27.7848 153.295 27.1602 151.612 28.1538C147.73 12.0581 131.736 4.08129 118.992 8.14069C117.379 8.65166 115.812 9.30457 114.315 10.1562C113.473 10.6388 113.544 10.6956 112.889 9.92909C112.304 9.27619 111.696 8.65166 111.042 8.05553C108.586 5.78454 105.78 4.02452 102.904 2.7187C96.3802 -0.148424 89.2482 -0.801333 82.5372 1.01546C75.7794 2.86064 68.928 7.60133 65.3503 15.0388C54.5238 5.75615 36.9394 12.9949 32.8006 28.2673C32.5667 29.119 32.3797 29.999 32.2628 30.879C32.1692 31.5035 32.2394 32.8945 31.912 33.1784C31.4911 33.519 30.2284 33.3771 29.6906 33.4622C28.9891 33.6042 28.2642 33.7745 27.5861 33.9732C24.3592 34.9384 21.2725 36.6416 18.4899 38.8274C13.1117 43.0855 8.6221 49.3592 6.3539 56.6831C5.04443 60.8844 4.50661 65.4548 5.06781 69.9116C5.30165 71.8703 5.76932 73.8291 6.44744 75.6742C6.58774 76.0433 6.82157 76.3839 6.70465 76.6962C6.61112 76.9517 6.12007 77.2639 5.95638 77.4627C5.2315 78.2291 4.57676 79.1375 3.99217 80.1027ZM7.54646 78.144C7.87383 78.7685 8.66886 80.642 9.39375 80.642C10.5162 80.642 9.58082 78.5698 9.37037 77.9169C8.52856 75.2201 7.94398 72.4381 7.82706 69.571C7.56984 63.5812 9.34698 57.7334 12.0595 52.794C17.8352 42.3475 27.7965 35.6764 38.2255 36.2442C39.5116 36.301 40.7509 36.5848 42.037 36.7268C43.3231 36.8687 43.3465 35.8468 42.341 35.1939C39.8858 33.519 36.6355 33.0932 33.8762 33.0648C35.9573 25.5138 41.0316 19.8079 47.1346 17.0543C53.4949 14.1872 60.393 14.7549 66.1688 19.1834C66.6364 19.5524 69.2787 22.3344 69.3021 20.404C69.3255 18.9563 67.4081 17.0827 66.613 16.2595C75.9898 4.87614 89.7626 2.12257 102.226 6.69293C105.617 7.94198 108.773 9.73038 111.86 11.7743C110.784 12.5975 109.755 13.5343 108.82 14.613C108.119 15.4362 107.02 16.5434 106.692 17.6788C106.365 18.7576 106.973 18.9847 107.698 18.5305C108.727 17.8492 109.615 16.8556 110.621 16.1175C114.97 12.9098 120.068 11.3201 125.165 11.4336C135.688 11.6607 146.608 19.0131 149.718 31.8441C150.092 33.4055 150.349 34.9951 150.489 36.5848C150.536 37.181 150.443 40.19 151.495 39.3384C152.267 38.7139 152.243 36.2726 152.29 35.3074C152.36 33.4338 152.22 31.5887 151.892 29.7719C157.785 31.4183 163.046 34.5126 166.437 40.8429C169.828 47.2017 169.874 54.4121 168.331 61.509C167.746 60.9696 166.063 59.096 165.221 59.5502C164.356 60.0328 165.759 61.4238 166.063 61.8212C167.91 64.0638 169.524 66.5335 170.81 69.3155C173.686 75.6175 174.645 82.913 173.99 90.0383C172.61 104.658 163.912 117.035 151.729 119.277C148.642 119.845 145.579 119.703 142.492 119.192C142.165 119.135 141.159 118.823 140.972 119.419C140.832 119.902 141.393 120.328 141.674 120.526C142.96 121.435 144.644 121.832 146.07 122.144C145.485 123.053 145.111 124.245 144.644 125.239C144.012 126.573 143.311 127.85 142.516 129.043C141.019 131.342 139.242 133.357 137.278 135.061C133.186 138.581 128.462 140.227 123.552 141.107C123.949 140.028 124.464 138.723 124.534 137.53C124.581 136.679 124.183 136.026 123.552 136.679C122.92 137.303 122.499 138.609 122.055 139.432C121.424 140.568 120.699 141.646 119.927 142.612C116.841 146.558 112.772 149.198 108.423 150.39C99.2563 152.916 89.599 148.999 84.2909 139.404C83.6596 138.268 83.1218 137.076 82.5839 135.855C82.2098 135.004 81.368 134.237 81.2277 135.742C81.1342 136.934 81.6486 138.496 81.976 139.603C82.4436 141.136 83.0516 142.583 83.7999 143.946C78.5854 147.693 71.734 148.516 66.0986 145.706C63.4797 144.4 61.3284 142.299 59.598 139.574C59.3408 139.177 59.0134 138.325 58.5691 138.212C58.0313 138.07 57.7741 138.581 57.7507 139.148C57.6572 140.625 58.499 142.47 59.1303 143.662C52.4193 145.053 45.5212 143.662 39.5584 139.631C33.6424 135.657 28.5448 128.901 27.2821 120.64C27.0015 118.823 26.9313 116.949 27.0482 115.076C27.0716 114.508 27.3522 113.429 27.095 112.89C26.7676 112.209 26.2766 112.635 25.9726 113.117C25.6219 113.685 25.4348 114.451 25.2711 115.133C25.1776 115.53 25.084 115.928 25.0139 116.325C24.9204 116.808 24.9671 117.744 24.7567 118.17C24.3825 118.908 21.5531 118.17 20.7581 118C14.2575 116.637 8.57533 111.414 5.62901 104.26C1.9812 95.6022 3.40759 86.0356 7.54646 78.144Z" fill="black"/>
</svg>
