<svg width="198" height="174" viewBox="0 0 198 174" fill="none" xmlns="http://www.w3.org/2000/svg">
<path d="M187.608 70.4433C191.306 62.633 191.645 52.8938 187.764 44.7357C183.545 35.8819 175.496 31.2969 167.396 32.1507C164.348 21.4629 155.57 12.7988 144.396 10.8067C138.067 9.66837 131.998 10.8383 126.893 13.7158C121.032 6.82251 111.916 2.39562 101.679 2.39562C89.0728 2.364 78.1332 9.0992 72.9238 18.9016C67.3498 14.3799 59.692 13.0834 52.3208 16.1822C43.3607 19.9451 37.396 29.0835 36.6146 38.8226C31.4573 39.3602 26.1698 41.5104 21.3251 45.4313C9.44778 55.0124 4.4468 71.8346 8.79661 85.1153C4.52494 90.143 1.86816 97.2576 1.86816 105.163C1.86816 120.657 12.1046 133.21 24.7112 133.21C26.0656 133.21 27.4201 133.052 28.7224 132.768C28.9308 143.55 36.0676 154.586 47.0333 159.645C54.4566 163.06 62.0883 163.029 68.1052 160.183C71.361 164.262 76.2318 166.855 81.6755 166.855C87.0672 166.855 91.8598 164.325 95.1157 160.309C99.6218 166.918 106.733 171.218 114.781 171.218C123.35 171.218 130.904 166.349 135.332 158.918C136.738 159.202 138.197 159.361 139.682 159.361C152.21 159.361 162.525 148.61 163.905 134.791C177.189 136.056 190.186 125.843 194.823 109.179C198.782 94.9809 195.578 79.9927 187.608 70.4433Z" fill="white"/>
<path d="M4.44688 89.2263C0.175204 96.1196 -1.049 105.258 0.904514 113.511C2.96221 122.112 8.3539 129.511 15.2303 132.831C19.0591 134.697 23.3829 135.361 27.4202 134.128C27.5764 147.883 37.3961 158.823 47.5543 162.776C52.8939 164.863 58.9368 165.306 64.3024 163.187C64.9015 162.966 65.5006 162.681 66.0736 162.365C66.7248 162.017 66.829 161.732 67.3759 162.428C68.2876 163.63 69.3294 164.642 70.4495 165.495C72.7676 167.266 75.4244 168.341 78.1333 168.816C83.9156 169.796 90.6618 167.993 94.7511 162.649C102.174 173.653 115.745 176.025 126.138 170.302C128.82 168.816 131.321 166.823 133.405 164.294C134.29 163.219 135.124 162.049 135.853 160.784C136.087 160.404 136.4 159.456 136.739 159.361C137.207 159.234 138.484 159.867 139.005 159.93C144.579 160.784 150.465 158.602 154.997 154.744C157.602 152.531 159.868 149.717 161.535 146.396C162.316 144.847 162.942 143.234 163.41 141.527C163.801 140.104 164.504 137.732 164.088 136.246C172.631 137.543 181.409 133.906 187.66 126.792C193.859 119.74 197.48 109.495 197.949 99.2184C198.339 90.3646 196.516 81.416 192.166 74.2381C191.697 73.4476 191.176 72.6887 190.629 71.9614C190.239 71.4239 189.822 70.9179 189.405 70.4436C188.884 69.8428 188.78 69.8745 189.223 69.1472C190.291 67.408 191.046 65.3211 191.567 63.2657C192.791 58.3329 192.557 52.9258 191.124 48.0878C189.509 42.7123 186.462 38.0324 182.503 34.902C180.445 33.2893 178.179 32.0877 175.783 31.4553C173.829 30.9494 170.756 30.2538 168.88 31.3605C164.557 13.4316 146.741 4.54615 132.545 9.06791C130.748 9.63708 129.003 10.3644 127.336 11.313C126.398 11.8505 126.476 11.9138 125.747 11.06C125.096 10.3327 124.418 9.63708 123.689 8.97304C120.954 6.44339 117.829 4.48291 114.625 3.02836C107.358 -0.165329 99.4135 -0.892604 91.9381 1.13112C84.4105 3.18646 76.7788 8.46711 72.7937 16.7517C60.734 6.41177 41.1468 14.475 36.5365 31.487C36.2761 32.4356 36.0677 33.4158 35.9375 34.3961C35.8333 35.0917 35.9114 36.6411 35.5468 36.9573C35.0779 37.3368 33.6714 37.1787 33.0723 37.2735C32.2909 37.4316 31.4834 37.6214 30.7281 37.8427C27.1336 38.9178 23.6955 40.8151 20.5959 43.2498C14.6051 47.9929 9.60414 54.9811 7.07761 63.1392C5.61898 67.8191 5.01991 72.91 5.64503 77.8745C5.9055 80.0563 6.42643 82.2381 7.18179 84.2935C7.33807 84.7045 7.59854 85.084 7.46831 85.4318C7.36412 85.7164 6.81714 86.0642 6.63481 86.2856C5.82736 87.1393 5.09805 88.1512 4.44688 89.2263ZM8.40599 87.0445C8.77065 87.7401 9.65624 89.8271 10.4637 89.8271C11.7139 89.8271 10.6721 87.5188 10.4376 86.7915C9.49996 83.7875 8.84879 80.6887 8.71855 77.495C8.43204 70.8231 10.4116 64.3092 13.433 58.8072C19.8666 47.1708 30.9625 39.74 42.5794 40.3724C44.012 40.4356 45.3924 40.7518 46.825 40.9099C48.2576 41.068 48.2836 39.9297 47.1636 39.2024C44.4287 37.3368 40.8082 36.8625 37.7347 36.8308C40.0528 28.4198 45.705 22.064 52.5032 18.9968C59.5879 15.8031 67.2718 16.4355 73.7053 21.3683C74.2262 21.7794 77.1695 24.8782 77.1956 22.728C77.2216 21.1154 75.0858 19.0284 74.2002 18.1114C84.645 5.43153 99.9865 2.36432 113.869 7.45525C117.646 8.84656 121.163 10.8387 124.601 13.1154C123.403 14.0324 122.257 15.0758 121.215 16.2774C120.433 17.1944 119.209 18.4276 118.844 19.6924C118.48 20.894 119.157 21.147 119.964 20.6411C121.11 19.8822 122.1 18.7754 123.22 17.9533C128.065 14.3802 133.743 12.6094 139.421 12.7359C151.142 12.9889 163.306 21.1786 166.771 35.4712C167.187 37.2103 167.474 38.9811 167.63 40.7518C167.682 41.4158 167.578 44.7676 168.75 43.819C169.61 43.1234 169.584 40.404 169.636 39.3289C169.714 37.2419 169.558 35.1866 169.193 33.1629C175.757 34.9969 181.617 38.4435 185.394 45.4949C189.171 52.5779 189.223 60.6096 187.504 68.5148C186.853 67.914 184.977 65.827 184.04 66.3329C183.076 66.8705 184.639 68.4199 184.977 68.8626C187.035 71.3606 188.832 74.1116 190.265 77.2104C193.468 84.2302 194.536 92.3567 193.807 100.294C192.27 116.578 182.581 130.365 169.011 132.863C165.572 133.495 162.16 133.337 158.722 132.768C158.357 132.705 157.237 132.357 157.029 133.021C156.873 133.558 157.498 134.033 157.81 134.254C159.243 135.266 161.118 135.709 162.707 136.057C162.056 137.068 161.639 138.396 161.118 139.503C160.415 140.989 159.634 142.412 158.748 143.74C157.081 146.302 155.102 148.547 152.914 150.444C148.355 154.365 143.094 156.199 137.624 157.179C138.067 155.978 138.64 154.523 138.718 153.195C138.77 152.246 138.327 151.519 137.624 152.246C136.921 152.942 136.452 154.396 135.957 155.313C135.254 156.578 134.446 157.78 133.587 158.855C130.149 163.25 125.617 166.191 120.772 167.519C110.562 170.333 99.8042 165.97 93.8916 155.282C93.1883 154.017 92.5892 152.689 91.9902 151.329C91.5734 150.381 90.6357 149.527 90.4794 151.203C90.3753 152.531 90.9483 154.27 91.3129 155.503C91.8339 157.211 92.5111 158.823 93.3446 160.341C87.5362 164.515 79.9044 165.432 73.6272 162.302C70.7099 160.847 68.3136 158.507 66.3862 155.472C66.0996 155.029 65.735 154.08 65.2401 153.954C64.641 153.796 64.3545 154.365 64.3285 154.997C64.2243 156.642 65.162 158.697 65.8652 160.025C58.3898 161.574 50.706 160.025 44.0641 155.535C37.4742 151.108 31.796 143.582 30.3895 134.381C30.0769 132.357 29.9988 130.27 30.129 128.183C30.1551 127.551 30.4676 126.349 30.1811 125.748C29.8165 124.989 29.2695 125.464 28.9309 126.001C28.5402 126.634 28.3318 127.487 28.1495 128.246C28.0453 128.689 27.9411 129.132 27.8629 129.574C27.7588 130.112 27.8109 131.155 27.5764 131.63C27.1597 132.452 24.008 131.63 23.1224 131.44C15.8814 129.922 9.55205 124.104 6.27015 116.135C2.20685 106.491 3.79571 95.835 8.40599 87.0445Z" fill="black"/>
</svg>
